<svg xmlns="http://www.w3.org/2000/svg">
<defs>
<font id="PxGroteskBold" horiz-adv-x="600">
            <font-face
                    font-family="PxGroteskBold"
                    font-weight="700"
                    font-stretch="normal"
                    units-per-em="1000"
                    panose-1="2 11 8 4 1 1 1 1 1 4"
                    ascent="800"
                    descent="-200"
                    x-height="510"
                    cap-height="680"
                    bbox="-237 -255 1237 1044"
                    underline-thickness="50"
                    underline-position="-125"
                    unicode-range="U+000D-FEFF"
            />
            <missing-glyph horiz-adv-x="644"
                           d="M246 779h49l-44 -44q-53 -14 -92.5 -53.5t-54.5 -93.5l-54 -54v49zM148 779h49l-147 -147v49zM540 779h49l-104 -104q-13 12 -26 23zM442 779h49l-62 -62q-17 9 -34 15zM344 779h49l-38 -38q-18 2 -28 2q-12 0 -20 -1zM99 779l-49 -49v49h49zM594 735v-49l-70 -70
q-7 15 -18 31zM594 637v-49l-52 -52q0 15 -6 43zM50 387l148 148l39 -2q0 29 20.5 52t54.5 23h8l-270 -270v49zM50 289l309 309q16 -9 26 -23l-335 -335v49zM50 485l56 56l46 -3l-102 -102v49zM594 539v-49l-216 -216v7q0 15 6.5 27.5t11 17.5t25.5 20t27 20q2 1 15.5 11
t21.5 17.5t20 20.5t20 30t12 37zM50 191l347 347v-15q0 -20 -13.5 -37.5t-42 -40t-36.5 -30.5q-23 -22 -36 -54l-219 -219v49zM594 441v-49l-224 -224h-49zM594 343v-49l-210 -210v49zM50 93l206 206v-38h11l-217 -217v49zM55 0l261 261h49l-93 -93h-23v-23l-145 -145h-49z
M349 0l33 33h2v2l210 210v-49l-196 -196h-49zM447 0l147 147v-49l-98 -98h-49zM153 0l96 96v-49l-47 -47h-49zM594 0h-49l49 49v-49zM251 0l33 33h49l-33 -33h-49z"/>
            <glyph glyph-name="f_f" unicode="ff" horiz-adv-x="730"
                   d="M253 583v-73h206v170h252v-97h-127v-73h117v-97h-117v-413h-125v413h-206v-413h-125v413h-100v97h100v170h252v-97h-127z"/>
            <glyph glyph-name="f_f_i" unicode="ffi" horiz-adv-x="991"
                   d="M253 583v-73h206v170h252v-97h-127v-73h331v-510h-125v413h-206v-413h-125v413h-206v-413h-125v413h-100v97h100v170h252v-97h-127zM917 680v-111h-129v111h129z"/>
            <glyph glyph-name="f_f_l" unicode="ffl" horiz-adv-x="991"
                   d="M253 583v-73h206v170h456v-680h-125v583h-206v-73h117v-97h-117v-413h-125v413h-206v-413h-125v413h-100v97h100v170h252v-97h-127z"/>
            <glyph glyph-name="f_i" unicode="fi" horiz-adv-x="660"
                   d="M584 0h-125v413h-206v-413h-125v413h-100v97h100v170h252v-97h-127v-73h331v-510zM586 680v-111h-129v111h129z"/>
            <glyph glyph-name="f_l" unicode="fl" horiz-adv-x="660"
                   d="M253 583v-73h117v-97h-117v-413h-125v413h-100v97h100v170h456v-680h-125v583h-206z"/>
            <glyph glyph-name=".notdef" horiz-adv-x="644"
                   d="M246 779h49l-44 -44q-53 -14 -92.5 -53.5t-54.5 -93.5l-54 -54v49zM148 779h49l-147 -147v49zM540 779h49l-104 -104q-13 12 -26 23zM442 779h49l-62 -62q-17 9 -34 15zM344 779h49l-38 -38q-18 2 -28 2q-12 0 -20 -1zM99 779l-49 -49v49h49zM594 735v-49l-70 -70
q-7 15 -18 31zM594 637v-49l-52 -52q0 15 -6 43zM50 387l148 148l39 -2q0 29 20.5 52t54.5 23h8l-270 -270v49zM50 289l309 309q16 -9 26 -23l-335 -335v49zM50 485l56 56l46 -3l-102 -102v49zM594 539v-49l-216 -216v7q0 15 6.5 27.5t11 17.5t25.5 20t27 20q2 1 15.5 11
t21.5 17.5t20 20.5t20 30t12 37zM50 191l347 347v-15q0 -20 -13.5 -37.5t-42 -40t-36.5 -30.5q-23 -22 -36 -54l-219 -219v49zM594 441v-49l-224 -224h-49zM594 343v-49l-210 -210v49zM50 93l206 206v-38h11l-217 -217v49zM55 0l261 261h49l-93 -93h-23v-23l-145 -145h-49z
M349 0l33 33h2v2l210 210v-49l-196 -196h-49zM447 0l147 147v-49l-98 -98h-49zM153 0l96 96v-49l-47 -47h-49zM594 0h-49l49 49v-49zM251 0l33 33h49l-33 -33h-49z"/>
            <glyph glyph-name=".null" horiz-adv-x="0"
            />
            <glyph glyph-name=".null" horiz-adv-x="0"
            />
            <glyph glyph-name="nonmarkingreturn" horiz-adv-x="333"
            />
            <glyph glyph-name="CR" unicode="&#xd;" horiz-adv-x="240"
            />
            <glyph glyph-name="space" unicode=" " horiz-adv-x="240"
            />
            <glyph glyph-name="exclam" unicode="!" horiz-adv-x="291"
                   d="M188 198h-85l-20 149v333h125v-333zM218 144v-144h-145v144h145z"/>
            <glyph glyph-name="quotedbl" unicode="&#x22;" horiz-adv-x="438"
                   d="M181 680v-262h-111v262h111zM368 680v-262h-111v262h111z"/>
            <glyph glyph-name="numbersign" unicode="#"
                   d="M554 265v-97h-124l-24 -168h-100l24 168h-115l-24 -168h-100l24 168h-93v97h108l21 149h-107v96h121l25 170h100l-25 -170h115l25 170h100l-25 -170h98v-96h-112l-21 -149h109zM250 414l-19 -149h115l19 149h-115z"/>
            <glyph glyph-name="dollar" unicode="$" horiz-adv-x="601"
                   d="M255 -95v83q-89 11 -145.5 65t-63.5 150h125q7 -86 84 -107v202l-27 7q-165 41 -165 198q0 75 54 126.5t138 62.5v83h84v-83q82 -11 133 -60.5t57 -136.5h-125q-5 70 -65 88v-187l42 -10q173 -43 173 -201q0 -85 -59.5 -137t-155.5 -61v-82h-84zM188 507q0 -66 67 -89
v166q-67 -18 -67 -77zM427 183q0 67 -77 91q-3 1 -11 3v-183q40 7 64 30t24 59z"/>
            <glyph glyph-name="percent" unicode="%" horiz-adv-x="802"
                   d="M329 505q0 -84 -36 -133.5t-111 -49.5t-111 49.5t-36 133.5t36 133.5t111 49.5t111 -49.5t36 -133.5zM137 0l426 680h100l-426 -680h-100zM182 392q55 0 55 50v125q0 51 -55 51t-55 -51v-125q0 -50 55 -50zM767 175q0 -84 -36 -133.5t-111 -49.5t-111 49.5t-36 133.5
t36 133.5t111 49.5t111 -49.5t36 -133.5zM620 62q55 0 55 50v125q0 51 -55 51t-55 -51v-125q0 -50 55 -50z"/>
            <glyph glyph-name="ampersand" unicode="&#x26;" horiz-adv-x="623"
                   d="M520 363v-232l104 -131h-145l-38 49q-73 -61 -186 -61q-96 0 -151 45.5t-55 134.5q0 100 91 171l46 36q-50 62 -70 95.5t-20 71.5q0 69 57 111t134 42q81 0 132 -38.5t51 -110.5q0 -87 -128 -184l68 -93h5v94h105zM278 446q36 31 51 53.5t15 50.5q0 22 -16.5 35t-43.5 13
t-44.5 -14.5t-17.5 -36.5q0 -35 56 -101zM179 199v-54q0 -26 25 -43t63 -17q65 0 108 46l-123 159l-56 -44q-17 -14 -17 -47z"/>
            <glyph glyph-name="quotesingle" unicode="'" horiz-adv-x="251"
                   d="M181 680v-262h-111v262h111z"/>
            <glyph glyph-name="parenleft" unicode="(" horiz-adv-x="329"
                   d="M177 378v-210q0 -153 139 -338h-115q-73 95 -111 199t-38 244t38 244t111 199h115q-139 -188 -139 -338z"/>
            <glyph glyph-name="parenright" unicode=")" horiz-adv-x="329"
                   d="M152 158v230q0 140 -139 328h115q73 -95 111 -199t38 -244t-38 -244t-111 -199h-115q139 185 139 328z"/>
            <glyph glyph-name="asterisk" unicode="*" horiz-adv-x="438"
                   d="M349 395l-95 55v-110h-70v110l-95 -55l-35 60l95 55l-95 55l35 60l95 -55v110h70v-110l95 55l35 -60l-96 -55l96 -55z"/>
            <glyph glyph-name="plus" unicode="+"
                   d="M250 292h-210v96h210v207h100v-207h210v-96h-210v-207h-100v207z"/>
            <glyph glyph-name="comma" unicode="," horiz-adv-x="282"
                   d="M213 144v-144l-75 -132h-66l72 132h-75v144h144z"/>
            <glyph glyph-name="hyphen" unicode="-" horiz-adv-x="418"
                   d="M69 220v102h280v-102h-280z"/>
            <glyph glyph-name="period" unicode="." horiz-adv-x="282"
                   d="M213 144v-144h-144v144h144z"/>
            <glyph glyph-name="slash" unicode="/" horiz-adv-x="486"
                   d="M464 680l-312 -680h-130l312 680h130z"/>
            <glyph glyph-name="zero" unicode="0" horiz-adv-x="618"
                   d="M560 340q0 -80 -11.5 -140.5t-38.5 -111t-77.5 -77t-123.5 -26.5t-123.5 26.5t-77.5 77t-38.5 111t-11.5 140.5t11.5 140.5t38.5 111t77.5 77t123.5 26.5t123.5 -26.5t77.5 -77t38.5 -111t11.5 -140.5zM309 90q116 0 116 118v264q0 118 -116 118t-116 -118v-264
q0 -118 116 -118z"/>
            <glyph glyph-name="one" unicode="1" horiz-adv-x="421"
                   d="M212 0v471h-185v105h185v104h125v-680h-125z"/>
            <glyph glyph-name="two" unicode="2" horiz-adv-x="580"
                   d="M212 107v-2h316v-105h-476v106l274 267q66 63 66 122q0 44 -28 69.5t-72 25.5q-52 0 -81 -29t-29 -81h-127q0 96 68 155.5t173 59.5q104 0 163 -54.5t59 -145.5q0 -101 -99 -194z"/>
            <glyph glyph-name="three" unicode="3" horiz-adv-x="598"
                   d="M344 297h-141v104h134q59 0 59 58v54q0 37 -28 57t-71 20q-103 0 -109 -89h-127q0 89 64.5 141.5t171.5 52.5q105 0 168.5 -50t63.5 -133q0 -117 -99 -162q56 -23 83.5 -62t27.5 -103q0 -93 -68 -146.5t-179 -53.5q-110 0 -179.5 54.5t-69.5 158.5h127q2 -54 35 -81
t86 -27q51 0 83 24.5t32 61.5v61q0 60 -64 60z"/>
            <glyph glyph-name="four" unicode="4" horiz-adv-x="587"
                   d="M455 0h-125v160h-300v104l286 416h139v-416h98v-104h-98v-160zM330 527l-181 -263h181v263z"/>
            <glyph glyph-name="five" unicode="5" horiz-adv-x="590"
                   d="M190 288h-127l27 392h413v-104h-300l-12 -183q52 65 138 65q97 0 156 -64t59 -167q0 -112 -66 -177t-179 -65q-114 0 -176.5 52.5t-70.5 150.5h127q11 -99 118 -99q50 0 81 25t31 66v90q0 42 -31 63t-80 21q-35 0 -64 -17.5t-44 -48.5z"/>
            <glyph glyph-name="six" unicode="6" horiz-adv-x="611"
                   d="M311 -15q-132 0 -193 83.5t-61 257.5q0 369 257 369q102 0 162.5 -48.5t68.5 -135.5h-127q-10 80 -105 80q-56 0 -88.5 -37t-32.5 -98v-74q50 65 148 65q100 0 161 -61t61 -161q0 -101 -65 -170.5t-186 -69.5zM311 89q55 0 85.5 28.5t30.5 75.5v57q0 93 -116 93
q-119 0 -119 -93v-57q0 -47 31.5 -75.5t87.5 -28.5z"/>
            <glyph glyph-name="seven" unicode="7" horiz-adv-x="531"
                   d="M508 580l-258 -580h-138l263 576h-352v104h485v-100z"/>
            <glyph glyph-name="eight" unicode="8" horiz-adv-x="618"
                   d="M309 -15q-109 0 -182 50.5t-73 146.5q0 62 32.5 106.5t91.5 65.5q-104 45 -104 157q0 83 68.5 133.5t166.5 50.5t166.5 -50.5t68.5 -133.5q0 -112 -104 -157q59 -21 91.5 -65.5t32.5 -106.5q0 -96 -73 -146.5t-182 -50.5zM411 475v44q0 35 -30 53t-72 18t-72 -18t-30 -53
v-44q0 -35 30.5 -53.5t71.5 -18.5t71.5 18.5t30.5 53.5zM189 220v-53q0 -36 34 -56.5t86 -20.5t86 20.5t34 56.5v53q0 36 -34 57t-86 21t-86 -21t-34 -57z"/>
            <glyph glyph-name="nine" unicode="9" horiz-adv-x="611"
                   d="M300 695q132 0 193 -83.5t61 -257.5q0 -369 -257 -369q-102 0 -162.5 48.5t-68.5 135.5h127q10 -80 105 -80q56 0 88.5 37t32.5 98v74q-50 -65 -148 -65q-100 0 -161 61t-61 161q0 101 65 170.5t186 69.5zM300 591q-55 0 -85.5 -28.5t-30.5 -75.5v-57q0 -93 116 -93
q119 0 119 93v57q0 47 -31.5 75.5t-87.5 28.5z"/>
            <glyph glyph-name="colon" unicode=":" horiz-adv-x="282"
                   d="M213 510v-144h-144v144h144zM213 144v-144h-144v144h144z"/>
            <glyph glyph-name="semicolon" unicode=";" horiz-adv-x="282"
                   d="M213 510v-144h-144v144h144zM213 144v-144l-75 -132h-66l72 132h-75v144h144z"/>
            <glyph glyph-name="less" unicode="&#x3c;"
                   d="M545 595v-103l-381 -152l381 -152v-103l-520 209v92z"/>
            <glyph glyph-name="equal" unicode="="
                   d="M560 388h-520v96h520v-96zM560 196h-520v96h520v-96z"/>
            <glyph glyph-name="greater" unicode="&#x3e;"
                   d="M55 492v103l520 -209v-92l-520 -209v103l381 152z"/>
            <glyph glyph-name="question" unicode="?" horiz-adv-x="513"
                   d="M350 506q0 87 -95 87t-102 -92h-125q7 90 69.5 142t163.5 52q97 0 155.5 -52.5t58.5 -139.5q0 -55 -21 -93t-63 -75q-8 -7 -29 -25t-27.5 -25t-18 -21t-15 -27t-3.5 -29v-10h-125v10q0 53 21 89.5t71 76.5q45 36 65 65.5t20 66.5zM308 144v-144h-144v144h144z"/>
            <glyph glyph-name="at" unicode="@" horiz-adv-x="901"
                   d="M836 118h-514v274h274v-177h115v283h-504v-486h389v-97h-514v680h754v-477z"/>
            <glyph glyph-name="A" unicode="A" horiz-adv-x="641"
                   d="M481 0l-45 145h-232l-44 -145h-140l232 680h138l231 -680h-140zM403 255l-79 268h-4l-82 -268h165z"/>
            <glyph glyph-name="B" unicode="B" horiz-adv-x="653"
                   d="M479 354q55 -15 86.5 -55.5t31.5 -100.5q0 -104 -60 -153q-53 -45 -158 -45h-295v680h290q98 0 150 -39q58 -44 58 -133q0 -115 -103 -154zM391 570h-177v-164h177q31 0 43.5 14.5t12.5 45.5v52q0 52 -56 52zM462 171v67q0 58 -60 58h-188v-186h184q64 0 64 61z"/>
            <glyph glyph-name="C" unicode="C" horiz-adv-x="645"
                   d="M340 -15q-142 0 -213.5 96t-71.5 257q0 167 74 262t218 95q106 0 175 -59t76 -159h-130q-10 108 -130 108q-63 0 -103 -38.5t-40 -101.5v-208q0 -61 42.5 -101.5t104.5 -40.5q61 0 94 27t43 86h130q-15 -113 -86.5 -168t-182.5 -55z"/>
            <glyph glyph-name="D" unicode="D" horiz-adv-x="672"
                   d="M84 680h230q159 0 230.5 -83t71.5 -257t-71.5 -257t-230.5 -83h-230v680zM314 570h-100v-460h100q167 0 167 132v196q0 132 -167 132z"/>
            <glyph glyph-name="E" unicode="E" horiz-adv-x="610"
                   d="M84 0v680h468v-110h-338v-167h292v-110h-292v-183h338v-110h-468z"/>
            <glyph glyph-name="F" unicode="F" horiz-adv-x="560"
                   d="M84 0v680h434v-110h-304v-167h280v-110h-280v-293h-130z"/>
            <glyph glyph-name="G" unicode="G" horiz-adv-x="691"
                   d="M332 -15q-134 0 -205.5 96.5t-71.5 256.5q0 167 74.5 262t222.5 95q109 0 179 -59t77 -159h-130q-10 108 -135 108q-66 0 -107 -38.5t-41 -101.5v-208q0 -61 43 -101.5t106 -40.5q68 0 106.5 34.5t38.5 102.5v29h-140v110h270v-371h-121l-3 62q-52 -77 -163 -77z"/>
            <glyph glyph-name="H" unicode="H" horiz-adv-x="699"
                   d="M485 0v291h-271v-291h-130v680h130v-279h271v279h130v-680h-130z"/>
            <glyph glyph-name="I" unicode="I" horiz-adv-x="298"
                   d="M84 0v680h130v-680h-130z"/>
            <glyph glyph-name="J" unicode="J" horiz-adv-x="443"
                   d="M359 680v-680h-339v110h209v570h130z"/>
            <glyph glyph-name="K" unicode="K" horiz-adv-x="636"
                   d="M478 0l-262 363l245 317h153l-255 -317l269 -363h-150zM214 680v-680h-130v680h130z"/>
            <glyph glyph-name="L" unicode="L" horiz-adv-x="522"
                   d="M84 0v680h130v-570h288v-110h-418z"/>
            <glyph glyph-name="M" unicode="M" horiz-adv-x="859"
                   d="M209 0h-125v680h212l132 -534h4l130 534h213v-680h-125v539h-4l-139 -539h-155l-139 539h-4v-539z"/>
            <glyph glyph-name="N" unicode="N" horiz-adv-x="699"
                   d="M482 162h4v518h129v-680h-195l-203 519h-4v-519h-129v680h195z"/>
            <glyph glyph-name="O" unicode="O" horiz-adv-x="716"
                   d="M661 340q0 -173 -79 -264t-224 -91t-224 91t-79 264t79 264t224 91t224 -91t79 -264zM358 95q70 0 116.5 37.5t46.5 102.5v210q0 65 -46.5 102.5t-116.5 37.5t-116.5 -37.5t-46.5 -102.5v-210q0 -65 46.5 -102.5t116.5 -37.5z"/>
            <glyph glyph-name="P" unicode="P" horiz-adv-x="611"
                   d="M362 244h-148v-244h-130v680h277q108 0 161 -53q52 -52 52 -165q0 -105 -58 -163q-57 -55 -154 -55zM214 354h161q64 0 64 68v84q0 34 -14.5 49t-49.5 15h-161v-216z"/>
            <glyph glyph-name="Q" unicode="Q" horiz-adv-x="720"
                   d="M613 -83l-104 101q-68 -33 -151 -33q-145 0 -224 91t-79 264t79 264t224 91t224 -91t79 -264q0 -154 -64 -244l99 -96zM358 95q70 0 116.5 37.5t46.5 102.5v210q0 65 -46.5 102.5t-116.5 37.5t-116.5 -37.5t-46.5 -102.5v-210q0 -65 46.5 -102.5t116.5 -37.5z"/>
            <glyph glyph-name="R" unicode="R" horiz-adv-x="632"
                   d="M297 261h-83v-261h-130v680h277q108 0 161 -52q52 -51 52 -158q0 -79 -39 -130q-36 -48 -107 -68l156 -272h-144zM214 368h164q61 0 61 68v70q0 34 -14 49t-47 15h-164v-202z"/>
            <glyph glyph-name="S" unicode="S" horiz-adv-x="625"
                   d="M307 588q-54 0 -85 -21.5t-31 -58.5q0 -38 23 -59t74 -34l116 -30q89 -23 132.5 -70.5t43.5 -129.5q0 -93 -72 -146.5t-191 -53.5q-121 0 -194 52.5t-82 165.5h130q15 -111 144 -111q59 0 97 24.5t38 67.5q0 67 -91 91l-133 35q-165 43 -165 197q0 83 67.5 135.5
t180.5 52.5q109 0 176.5 -51t77.5 -154h-130q-10 98 -126 98z"/>
            <glyph glyph-name="T" unicode="T" horiz-adv-x="566"
                   d="M20 570v110h526v-110h-198v-570h-130v570h-198z"/>
            <glyph glyph-name="U" unicode="U" horiz-adv-x="688"
                   d="M481 237v443h129v-438q0 -119 -71.5 -188t-194.5 -69q-124 0 -195 69t-71 188v438h130v-443q0 -67 35 -104.5t101 -37.5q67 0 102 37t35 105z"/>
            <glyph glyph-name="V" unicode="V" horiz-adv-x="632"
                   d="M244 0l-215 680h141l145 -531h4l142 531h143l-216 -680h-144z"/>
            <glyph glyph-name="W" unicode="W" horiz-adv-x="949"
                   d="M195 0l-165 680h145l105 -540h4l102 540h177l102 -540h4l107 540h142l-164 -680h-177l-101 533h-4l-102 -533h-175z"/>
            <glyph glyph-name="X" unicode="X" horiz-adv-x="615"
                   d="M19 0l211 347l-201 333h153l127 -224l127 224h150l-199 -333l209 -347h-151l-137 237l-136 -237h-153z"/>
            <glyph glyph-name="Y" unicode="Y" horiz-adv-x="636"
                   d="M253 266l-227 414h147l146 -282l146 282h145l-227 -414v-266h-130v266z"/>
            <glyph glyph-name="Z" unicode="Z" horiz-adv-x="606"
                   d="M555 680v-108l-350 -462h348v-110h-507v108l348 462h-332v110h493z"/>
            <glyph glyph-name="bracketleft" unicode="[" horiz-adv-x="365"
                   d="M83 716h245v-94h-125v-698h125v-94h-245v886z"/>
            <glyph glyph-name="backslash" unicode="\" horiz-adv-x="486"
                   d="M334 0l-312 680h130l312 -680h-130z"/>
            <glyph glyph-name="bracketright" unicode="]" horiz-adv-x="365"
                   d="M37 716h245v-886h-245v94h125v698h-125v94z"/>
            <glyph glyph-name="asciicircum" unicode="^" horiz-adv-x="580"
                   d="M35 292l207 388h96l207 -388h-104l-152 284l-149 -284h-105z"/>
            <glyph glyph-name="underscore" unicode="_" horiz-adv-x="560"
                   d="M45 -135v80h470v-80h-470z"/>
            <glyph glyph-name="grave" unicode="`" horiz-adv-x="0"
                   d="M-22 695l74 -122h-103l-111 122h140z"/>
            <glyph glyph-name="a" unicode="a" horiz-adv-x="568"
                   d="M207 -12q-69 0 -115 44t-46 113q0 63 44.5 107.5t122.5 51.5l141 12v33q0 76 -80 76q-39 0 -62.5 -19t-23.5 -53h-125q3 81 62.5 125t153.5 44q93 0 145.5 -45.5t52.5 -129.5v-250h86v-97h-198v79h-4q-47 -91 -154 -91zM251 85q47 0 75 33.5t28 82.5v20l-150 -13
q-28 -3 -28 -33v-44q0 -22 20.5 -34t54.5 -12z"/>
            <glyph glyph-name="b" unicode="b" horiz-adv-x="602"
                   d="M76 0v680h125v-239q51 81 149 81t149.5 -75t51.5 -192t-51.5 -192t-149.5 -75t-149 81v-69h-125zM201 293v-76q0 -132 115 -132q49 0 77 26.5t28 71.5v144q0 45 -28 71.5t-77 26.5q-115 0 -115 -132z"/>
            <glyph glyph-name="c" unicode="c" horiz-adv-x="540"
                   d="M51 252q0 125 62 197.5t167 72.5q86 0 146 -46.5t67 -137.5h-125q-9 87 -93 87q-40 0 -67 -26t-27 -74v-140q0 -46 26 -73t69 -27q44 0 67 21t29 70h125q-9 -92 -68 -140t-147 -48q-111 0 -171 72t-60 192z"/>
            <glyph glyph-name="d" unicode="d" horiz-adv-x="602"
                   d="M526 0h-125v69q-51 -81 -147 -81q-98 0 -150.5 75t-52.5 192t51.5 192t149.5 75t149 -81v239h125v-680zM401 293q0 132 -115 132q-48 0 -76.5 -27.5t-28.5 -70.5v-144q0 -43 29 -70.5t76 -27.5q115 0 115 132v76z"/>
            <glyph glyph-name="e" unicode="e" horiz-adv-x="560"
                   d="M280 -12q-107 0 -168.5 73t-61.5 195q0 120 63 193t167 73q102 0 165 -69t63 -175v-63h-328v-34q0 -44 29.5 -70t71.5 -26q41 0 67.5 21.5t30.5 60.5h125q-12 -84 -71.5 -131.5t-152.5 -47.5zM380 312v18q0 41 -28.5 68t-71.5 27t-71.5 -27t-28.5 -68v-18h200z"/>
            <glyph glyph-name="f" unicode="f" horiz-adv-x="399"
                   d="M253 0h-125v413h-100v97h100v170h252v-97h-127v-73h117v-97h-117v-413z"/>
            <glyph glyph-name="g" unicode="g" horiz-adv-x="602"
                   d="M296 -195q-205 0 -227 160h125q13 -63 92 -63q115 0 115 112v55q-51 -81 -147 -81q-98 0 -150.5 75t-52.5 192t51.5 192t149.5 75t149 -81v69h125v-502q0 -98 -67 -150.5t-163 -52.5zM401 293q0 132 -115 132q-48 0 -76.5 -27.5t-28.5 -70.5v-144q0 -43 29 -70.5
t76 -27.5q115 0 115 132v76z"/>
            <glyph glyph-name="h" unicode="h" horiz-adv-x="591"
                   d="M201 0h-125v680h125v-244q49 86 151 86q84 0 125.5 -49t41.5 -139v-334h-125v325q0 95 -83 95q-51 0 -80.5 -34.5t-29.5 -90.5v-295z"/>
            <glyph glyph-name="i" unicode="i" horiz-adv-x="277"
                   d="M203 680v-111h-129v111h129zM201 0h-125v510h125v-510z"/>
            <glyph glyph-name="j" unicode="j" horiz-adv-x="289"
                   d="M215 680v-111h-129v111h129zM88 -73v583h125v-680h-263v97h138z"/>
            <glyph glyph-name="k" unicode="k" horiz-adv-x="546"
                   d="M201 680v-680h-125v680h125zM399 0l-196 280l171 230h148l-182 -230l198 -280h-139z"/>
            <glyph glyph-name="l" unicode="l" horiz-adv-x="277"
                   d="M201 0h-125v680h125v-680z"/>
            <glyph glyph-name="m" unicode="m" horiz-adv-x="869"
                   d="M76 0v510h125v-74q46 86 141 86q109 0 143 -95q50 95 155 95q77 0 117 -49.5t40 -138.5v-334h-125v325q0 95 -73 95q-45 0 -72.5 -34.5t-27.5 -90.5v-295h-125v325q0 95 -73 95q-45 0 -72.5 -34.5t-27.5 -90.5v-295h-125z"/>
            <glyph glyph-name="n" unicode="n" horiz-adv-x="591"
                   d="M394 0v325q0 95 -83 95q-51 0 -80.5 -34.5t-29.5 -90.5v-295h-125v510h125v-74q49 86 151 86q84 0 125.5 -49t41.5 -139v-334h-125z"/>
            <glyph glyph-name="o" unicode="o" horiz-adv-x="578"
                   d="M289 -12q-113 0 -176 72.5t-63 194.5t63 194.5t176 72.5t176 -72.5t63 -194.5t-63 -194.5t-176 -72.5zM398 181v148q0 45 -30.5 70.5t-78.5 25.5t-78.5 -25.5t-30.5 -70.5v-148q0 -45 30.5 -70.5t78.5 -25.5t78.5 25.5t30.5 70.5z"/>
            <glyph glyph-name="p" unicode="p" horiz-adv-x="602"
                   d="M201 -170h-125v680h125v-69q51 81 149 81t149.5 -75t51.5 -192t-52.5 -192t-150.5 -75q-96 0 -147 81v-239zM201 293v-76q0 -132 115 -132q47 0 76 27.5t29 70.5v144q0 43 -28.5 70.5t-76.5 27.5q-115 0 -115 -132z"/>
            <glyph glyph-name="q" unicode="q" horiz-adv-x="602"
                   d="M526 -170h-125v239q-51 -81 -147 -81q-98 0 -150.5 75t-52.5 192t51.5 192t149.5 75t149 -81v69h125v-680zM401 293q0 132 -115 132q-48 0 -76.5 -27.5t-28.5 -70.5v-144q0 -43 29 -70.5t76 -27.5q115 0 115 132v76z"/>
            <glyph glyph-name="r" unicode="r" horiz-adv-x="386"
                   d="M76 0v510h285v-98h-160v-412h-125z"/>
            <glyph glyph-name="s" unicode="s" horiz-adv-x="514"
                   d="M260 -12q-101 0 -157 45.5t-60 128.5h125q8 -77 92 -77q38 0 62.5 14.5t24.5 41.5q0 26 -19 39t-57 21l-88 19q-128 28 -128 146q0 67 53.5 111.5t144.5 44.5q89 0 143.5 -43.5t58.5 -125.5h-125q-1 35 -22 53.5t-55 18.5q-33 0 -53 -14.5t-20 -38.5q0 -42 56 -54
l101 -22q135 -30 135 -149q0 -69 -56.5 -114t-155.5 -45z"/>
            <glyph glyph-name="t" unicode="t" horiz-adv-x="422"
                   d="M129 0v413h-101v97h101v170h125v-170h127v-97h-127v-316h127v-97h-252z"/>
            <glyph glyph-name="u" unicode="u" horiz-adv-x="587"
                   d="M386 0v74q-48 -86 -150 -86q-81 0 -122.5 49t-41.5 139v334h125v-325q0 -95 80 -95q50 0 79.5 34.5t29.5 90.5v295h125v-510h-125z"/>
            <glyph glyph-name="v" unicode="v" horiz-adv-x="537"
                   d="M337 0h-137l-179 510h134l111 -370h4l114 370h132z"/>
            <glyph glyph-name="w" unicode="w" horiz-adv-x="790"
                   d="M474 0l-77 370h-4l-77 -370h-151l-142 510h140l74 -370h4l75 370h156l77 -370h4l76 370h138l-142 -510h-151z"/>
            <glyph glyph-name="x" unicode="x" horiz-adv-x="523"
                   d="M16 0l176 268l-162 242h138l94 -150l94 150h135l-160 -242l178 -268h-136l-111 174l-109 -174h-137z"/>
            <glyph glyph-name="y" unicode="y" horiz-adv-x="537"
                   d="M271 -170h-218v97h128l25 73l-184 510h134l111 -364h4l114 364h132z"/>
            <glyph glyph-name="z" unicode="z" horiz-adv-x="512"
                   d="M465 0h-421v97l261 316h-243v97h396v-97l-264 -316h271v-97z"/>
            <glyph glyph-name="braceleft" unicode="{" horiz-adv-x="402"
                   d="M240 320h-120v396h245v-94h-125v-302zM120 -170v396h-95v94h95v-94h120v-302h125v-94h-245z"/>
            <glyph glyph-name="bar" unicode="|" horiz-adv-x="286"
                   d="M83 -255v1020h120v-1020h-120z"/>
            <glyph glyph-name="braceright" unicode="}" horiz-adv-x="402"
                   d="M282 716v-396h95v-94h-95v94h-120v302h-125v94h245zM162 226h120v-396h-245v94h125v302z"/>
            <glyph glyph-name="asciitilde" unicode="~"
                   d="M471 310h95q0 -64 -40 -104.5t-102 -40.5q-33 0 -60.5 10t-85.5 40q-10 5 -31.5 16.5t-28 14.5t-18.5 6.5t-23 3.5q-47 0 -47 -57h-95q0 64 40 104.5t102 40.5q33 0 61.5 -10.5t82.5 -38.5q12 -6 28.5 -15t23.5 -12.5t16.5 -7.5t17.5 -5.5t17 -1.5q47 0 47 57z"/>
            <glyph glyph-name="uni00A0" unicode="&#xa0;" horiz-adv-x="240"
            />
            <glyph glyph-name="exclamdown" unicode="&#xa1;" horiz-adv-x="281"
                   d="M213 510v-144h-145v144h145zM98 312h85l20 -149v-333h-125v333z"/>
            <glyph glyph-name="cent" unicode="&#xa2;" horiz-adv-x="555"
                   d="M243 -92v84q-90 14 -137.5 83.5t-47.5 176.5q0 111 49 181.5t136 84.5v84h84v-83q71 -10 119 -55.5t54 -125.5h-125q-7 60 -48 79v-326q43 16 52 85h125q-8 -82 -55.5 -129t-121.5 -56v-83h-84zM188 185q0 -70 55 -93v326q-55 -22 -55 -93v-140z"/>
            <glyph glyph-name="sterling" unicode="&#xa3;" horiz-adv-x="611"
                   d="M52 0v102h90v199h-90v99h90v103q0 84 54.5 138t156.5 54q103 0 157 -54t54 -141h-125q0 48 -20.5 69.5t-65.5 21.5t-65.5 -21.5t-20.5 -69.5v-100h148v-99h-148v-199h284v-102h-499z"/>
            <glyph glyph-name="currency" unicode="&#xa4;" horiz-adv-x="611"
                   d="M484 41l-56 56q-57 -35 -123 -35q-67 0 -123 35l-56 -56l-72 73l56 56q-35 56 -35 122t35 122l-56 57l73 73l56 -57q57 35 122 35t122 -35l57 57l73 -72l-58 -57q36 -56 36 -123q0 -65 -35 -122l57 -56zM175 292q0 -54 38 -92t92 -38t92 38t38 92t-38 92t-92 38t-92 -38
t-38 -92z"/>
            <glyph glyph-name="yen" unicode="&#xa5;" horiz-adv-x="613"
                   d="M74 133v79h170v59h-170v79h120l-164 330h132l144 -296l146 296h131l-166 -330h120v-79h-169v-59h169v-79h-169v-133h-124v133h-170z"/>
            <glyph glyph-name="brokenbar" unicode="&#xa6;" horiz-adv-x="286"
                   d="M83 348v417h120v-417h-120zM83 -255v417h120v-417h-120z"/>
            <glyph glyph-name="section" unicode="&#xa7;" horiz-adv-x="603"
                   d="M404 60h-320v620h444v-98h-319v-131h320v-621h-446v98h321v132zM209 353v-195h195v195h-195z"/>
            <glyph glyph-name="dieresis" unicode="&#xa8;" horiz-adv-x="0"
                   d="M-44 695v-108h-118v108h118zM162 695v-108h-118v108h118z"/>
            <glyph glyph-name="copyright" unicode="&#xa9;" horiz-adv-x="820"
                   d="M55 339q0 147 104 251t251 104t251 -104t104 -251t-104 -251t-251 -104t-251 104t-104 251zM140 339q0 -113 79 -191.5t191 -78.5t191 78.5t79 191.5t-79 191.5t-191 78.5t-191 -78.5t-79 -191.5zM556 393h-86q-5 61 -62 61q-27 0 -45 -17t-18 -50v-96q0 -31 17 -49
t46 -18q30 0 45.5 13t19.5 48h86q-7 -63 -47 -95.5t-100 -32.5q-75 0 -116 49t-41 131q0 85 42 134.5t114 49.5q58 0 99.5 -32.5t45.5 -95.5z"/>
            <glyph glyph-name="ordfeminine" unicode="&#xaa;" horiz-adv-x="394"
                   d="M183 694q53 0 83 -23.5t30 -67.5v-109h45v-70h-126v39h-4q-25 -45 -75 -45q-37 0 -61 22q-23 25 -23 58q0 35 22 57t64 26l72 7v18q0 25 -30 25q-33 0 -33 -27h-86q1 43 35 66.5t87 23.5zM167 484q19 0 31 12t12 31v6l-54 -5q-14 -1 -14 -17v-11q0 -16 25 -16z"/>
            <glyph glyph-name="guillemotleft" unicode="&#xab;" horiz-adv-x="560"
                   d="M269 71h-115l-107 186l107 186h115l-97 -186zM501 71h-115l-107 186l107 186h115l-97 -186z"/>
            <glyph glyph-name="logicalnot" unicode="&#xac;"
                   d="M441 205v182h-409v96h510v-278h-101z"/>
            <glyph glyph-name="uni00AD" unicode="&#xad;" horiz-adv-x="418"
                   d="M69 220v102h280v-102h-280z"/>
            <glyph glyph-name="registered" unicode="&#xae;" horiz-adv-x="820"
                   d="M55 339q0 147 104 251t251 104t251 -104t104 -251t-104 -251t-251 -104t-251 104t-104 251zM140 339q0 -113 79 -191.5t191 -78.5t191 78.5t79 191.5t-79 191.5t-191 78.5t-191 -78.5t-79 -191.5zM554 169h-90l-65 115h-35v-115h-85v340h161q52 0 81.5 -29t29.5 -84
q0 -83 -67 -107zM364 350h75q27 0 27 29v36q0 27 -27 27h-75v-92z"/>
            <glyph glyph-name="macron" unicode="&#xaf;" horiz-adv-x="0"
                   d="M-159 601v79h319v-79h-319z"/>
            <glyph glyph-name="degree" unicode="&#xb0;" horiz-adv-x="372"
                   d="M46 555q0 60 40 100t100 40t100 -40t40 -100t-40 -100t-100 -40t-100 40t-40 100zM116 555q0 -32 19.5 -52t50.5 -20t50.5 20t19.5 52t-19.5 52t-50.5 20t-50.5 -20t-19.5 -52z"/>
            <glyph glyph-name="plusminus" unicode="&#xb1;"
                   d="M245 352h-205v96h205v147h100v-147h215v-96h-215v-137h-100v137zM560 181v-96h-520v96h520z"/>
            <glyph glyph-name="twosuperior" unicode="&#xb2;" horiz-adv-x="353"
                   d="M312 416h-270v68l136 123q42 38 42 61q0 17 -11.5 27t-31.5 10q-51 0 -51 -52h-86q0 58 39 89.5t101 31.5q58 0 92 -28.5t34 -74.5q0 -26 -10 -48t-20.5 -33.5t-28.5 -27.5l-86 -73v-3h151v-70z"/>
            <glyph glyph-name="threesuperior" unicode="&#xb3;" horiz-adv-x="357"
                   d="M203 562h-72v66h67q25 0 25 23v23q0 14 -12.5 22.5t-31.5 8.5q-49 0 -49 -40h-86q2 50 37.5 79.5t99.5 29.5q60 0 94 -29t34 -72q0 -59 -56 -78q64 -18 64 -79q0 -47 -37 -77.5t-99 -30.5q-65 0 -104.5 30.5t-41.5 88.5h86q1 -28 16 -39t42 -11q52 0 52 34v27
q0 24 -28 24z"/>
            <glyph glyph-name="acute" unicode="&#xb4;" horiz-adv-x="0"
                   d="M-51 573l74 122h140l-111 -122h-103z"/>
            <glyph glyph-name="mu" unicode="&#xb5;" horiz-adv-x="639"
                   d="M79 -170v680h125v-330q0 -95 80 -95q50 0 79.5 34.5t29.5 90.5v300h125v-413h86v-97h-211v74q-48 -86 -142 -86q-27 0 -47 12v-170h-125z"/>
            <glyph glyph-name="paragraph" unicode="&#xb6;" horiz-adv-x="668"
                   d="M47 680h537v-770h-120v666h-127v-666h-120v410h-170v360z"/>
            <glyph glyph-name="periodcentered" unicode="&#xb7;" horiz-adv-x="282"
                   d="M213 345v-144h-144v144h144z"/>
            <glyph glyph-name="cedilla" unicode="&#xb8;" horiz-adv-x="0"
                   d="M-118 -170v75h76v62h85v-137h-161z"/>
            <glyph glyph-name="onesuperior" unicode="&#xb9;" horiz-adv-x="294"
                   d="M229 766v-350h-86v220h-111v70h111v60h86z"/>
            <glyph glyph-name="ordmasculine" unicode="&#xba;" horiz-adv-x="365"
                   d="M317 556q0 -63 -36.5 -100.5t-98.5 -37.5t-98 37.5t-36 100.5t36 100.5t98 37.5t98.5 -37.5t36.5 -100.5zM226 524v64q0 18 -12.5 28t-31.5 10t-31.5 -10t-12.5 -28v-64q0 -18 12.5 -28t31.5 -10t31.5 10t12.5 28z"/>
            <glyph glyph-name="guillemotright" unicode="&#xbb;" horiz-adv-x="560"
                   d="M174 71h-115l97 186l-97 186h115l107 -186zM406 71h-115l97 186l-97 186h115l107 -186z"/>
            <glyph glyph-name="onequarter" unicode="&#xbc;" horiz-adv-x="762"
                   d="M226 680v-350h-86v220h-111v70h111v60h86zM124 0l426 680h100l-426 -680h-100zM668 0h-84v70h-162v70l152 210h94v-210h63v-70h-63v-70zM586 140v115h-4l-80 -115h84z"/>
            <glyph glyph-name="onehalf" unicode="&#xbd;" horiz-adv-x="764"
                   d="M226 680v-350h-86v220h-111v70h111v60h86zM104 0l426 680h100l-426 -680h-100zM724 0h-270v68l136 123q42 38 42 61q0 17 -11.5 27t-31.5 10q-51 0 -51 -52h-86q0 58 39 89.5t101 31.5q58 0 92 -28.5t34 -74.5q0 -26 -10 -48t-20.5 -33.5t-28.5 -27.5l-86 -73v-3h151v-70
z"/>
            <glyph glyph-name="threequarters" unicode="&#xbe;" horiz-adv-x="787"
                   d="M202 476h-72v66h67q25 0 25 23v23q0 14 -12.5 22.5t-31.5 8.5q-49 0 -49 -40h-86q2 50 37.5 79.5t99.5 29.5q60 0 94 -29t34 -72q0 -59 -56 -78q64 -18 64 -79q0 -47 -37 -77.5t-99 -30.5q-65 0 -104.5 30.5t-41.5 88.5h86q1 -28 16 -39t42 -11q52 0 52 34v27
q0 24 -28 24zM161 0l426 680h100l-426 -680h-100zM693 0h-84v70h-162v70l152 210h94v-210h63v-70h-63v-70zM611 140v115h-4l-80 -115h84z"/>
            <glyph glyph-name="questiondown" unicode="&#xbf;" horiz-adv-x="509"
                   d="M203 366v144h144v-144h-144zM161 4q0 -87 95 -87t102 92h125q-7 -90 -69.5 -142t-163.5 -52q-97 0 -155.5 52.5t-58.5 139.5q0 55 21 93t63 75q8 7 29 25t27.5 25t18 21t15 27t3.5 29v10h125v-10q0 -53 -21 -89.5t-71 -76.5q-45 -36 -65 -65.5t-20 -66.5z"/>
            <glyph glyph-name="Agrave" unicode="&#xc0;" horiz-adv-x="641"
                   d="M303 869l74 -122h-103l-111 122h140zM481 0l-45 145h-232l-44 -145h-140l232 680h138l231 -680h-140zM403 255l-79 268h-4l-82 -268h165z"/>
            <glyph glyph-name="Aacute" unicode="&#xc1;" horiz-adv-x="641"
                   d="M259 747l74 122h140l-111 -122h-103zM481 0l-45 145h-232l-44 -145h-140l232 680h138l231 -680h-140zM403 255l-79 268h-4l-82 -268h165z"/>
            <glyph glyph-name="Acircumflex" unicode="&#xc2;" horiz-adv-x="641"
                   d="M320 805l-47 -58h-101l79 122h139l80 -122h-103zM481 0l-45 145h-232l-44 -145h-140l232 680h138l231 -680h-140zM403 255l-79 268h-4l-82 -268h165z"/>
            <glyph glyph-name="Atilde" unicode="&#xc3;" horiz-adv-x="641"
                   d="M417 861h70q0 -51 -25.5 -82t-73.5 -31q-28 0 -73 22t-57 22q-32 0 -32 -36h-70q0 51 25.5 82t73.5 31q27 0 72 -22t58 -22q32 0 32 36zM481 0l-45 145h-232l-44 -145h-140l232 680h138l231 -680h-140zM403 255l-79 268h-4l-82 -268h165z"/>
            <glyph glyph-name="Adieresis" unicode="&#xc4;" horiz-adv-x="641"
                   d="M277 869v-108h-118v108h118zM483 869v-108h-118v108h118zM481 0l-45 145h-232l-44 -145h-140l232 680h138l231 -680h-140zM403 255l-79 268h-4l-82 -268h165z"/>
            <glyph glyph-name="Aring" unicode="&#xc5;" horiz-adv-x="641"
                   d="M421 833q0 -41 -29.5 -70t-70.5 -29t-71 29t-30 70t29.5 69.5t71.5 28.5q41 0 70.5 -28.5t29.5 -69.5zM361 833q0 17 -11.5 28.5t-28.5 11.5t-29 -11.5t-12 -28.5t12 -29t29 -12t28.5 12t11.5 29zM481 0l-45 145h-232l-44 -145h-140l232 680h138l231 -680h-140zM403 255
l-79 268h-4l-82 -268h165z"/>
            <glyph glyph-name="AE" unicode="&#xc6;" horiz-adv-x="961"
                   d="M329 680h574v-110h-311v-167h265v-110h-265v-183h311v-110h-441v145h-257l-70 -145h-141zM412 570l-153 -315h203v315h-50z"/>
            <glyph glyph-name="Ccedilla" unicode="&#xc7;" horiz-adv-x="645"
                   d="M340 -15q-142 0 -213.5 96t-71.5 257q0 167 74 262t218 95q106 0 175 -59t76 -159h-130q-10 108 -130 108q-63 0 -103 -38.5t-40 -101.5v-208q0 -61 42.5 -101.5t104.5 -40.5q61 0 94 27t43 86h130q-15 -113 -86.5 -168t-182.5 -55zM222 -170v75h76v62h85v-137h-161z"/>
            <glyph glyph-name="Egrave" unicode="&#xc8;" horiz-adv-x="610"
                   d="M327 869l74 -122h-103l-111 122h140zM84 0v680h468v-110h-338v-167h292v-110h-292v-183h338v-110h-468z"/>
            <glyph glyph-name="Eacute" unicode="&#xc9;" horiz-adv-x="610"
                   d="M235 747l74 122h140l-111 -122h-103zM84 0v680h468v-110h-338v-167h292v-110h-292v-183h338v-110h-468z"/>
            <glyph glyph-name="Ecircumflex" unicode="&#xca;" horiz-adv-x="610"
                   d="M317 805l-47 -58h-101l79 122h139l80 -122h-103zM84 0v680h468v-110h-338v-167h292v-110h-292v-183h338v-110h-468z"/>
            <glyph glyph-name="Edieresis" unicode="&#xcb;" horiz-adv-x="610"
                   d="M274 869v-108h-118v108h118zM480 869v-108h-118v108h118zM84 0v680h468v-110h-338v-167h292v-110h-292v-183h338v-110h-468z"/>
            <glyph glyph-name="Igrave" unicode="&#xcc;" horiz-adv-x="298"
                   d="M135 869l74 -122h-103l-111 122h140zM84 0v680h130v-680h-130z"/>
            <glyph glyph-name="Iacute" unicode="&#xcd;" horiz-adv-x="298"
                   d="M85 747l74 122h140l-111 -122h-103zM84 0v680h130v-680h-130z"/>
            <glyph glyph-name="Icircumflex" unicode="&#xce;" horiz-adv-x="298"
                   d="M148 805l-47 -58h-101l79 122h139l80 -122h-103zM84 0v680h130v-680h-130z"/>
            <glyph glyph-name="Idieresis" unicode="&#xcf;" horiz-adv-x="298"
                   d="M105 869v-108h-118v108h118zM311 869v-108h-118v108h118zM84 0v680h130v-680h-130z"/>
            <glyph glyph-name="Eth" unicode="&#xd0;" horiz-adv-x="691"
                   d="M103 0v292h-72v96h72v292h230q159 0 230.5 -83t71.5 -257t-71.5 -257t-230.5 -83h-230zM233 110h100q162 0 162 132v196q0 132 -162 132h-100v-182h146v-96h-146v-182z"/>
            <glyph glyph-name="Ntilde" unicode="&#xd1;" horiz-adv-x="699"
                   d="M445 861h70q0 -51 -25.5 -82t-73.5 -31q-28 0 -73 22t-57 22q-32 0 -32 -36h-70q0 51 25.5 82t73.5 31q27 0 72 -22t58 -22q32 0 32 36zM482 162h4v518h129v-680h-195l-203 519h-4v-519h-129v680h195z"/>
            <glyph glyph-name="Ograve" unicode="&#xd2;" horiz-adv-x="716"
                   d="M363 869l74 -122h-103l-111 122h140zM661 340q0 -173 -79 -264t-224 -91t-224 91t-79 264t79 264t224 91t224 -91t79 -264zM358 95q70 0 116.5 37.5t46.5 102.5v210q0 65 -46.5 102.5t-116.5 37.5t-116.5 -37.5t-46.5 -102.5v-210q0 -65 46.5 -102.5t116.5 -37.5z"/>
            <glyph glyph-name="Oacute" unicode="&#xd3;" horiz-adv-x="716"
                   d="M281 747l74 122h140l-111 -122h-103zM661 340q0 -173 -79 -264t-224 -91t-224 91t-79 264t79 264t224 91t224 -91t79 -264zM358 95q70 0 116.5 37.5t46.5 102.5v210q0 65 -46.5 102.5t-116.5 37.5t-116.5 -37.5t-46.5 -102.5v-210q0 -65 46.5 -102.5t116.5 -37.5z"/>
            <glyph glyph-name="Ocircumflex" unicode="&#xd4;" horiz-adv-x="716"
                   d="M357 805l-47 -58h-101l79 122h139l80 -122h-103zM661 340q0 -173 -79 -264t-224 -91t-224 91t-79 264t79 264t224 91t224 -91t79 -264zM358 95q70 0 116.5 37.5t46.5 102.5v210q0 65 -46.5 102.5t-116.5 37.5t-116.5 -37.5t-46.5 -102.5v-210q0 -65 46.5 -102.5
t116.5 -37.5z"/>
            <glyph glyph-name="Otilde" unicode="&#xd5;" horiz-adv-x="716"
                   d="M454 861h70q0 -51 -25.5 -82t-73.5 -31q-27 0 -72.5 22t-57.5 22q-32 0 -32 -36h-70q0 51 25.5 82t73.5 31q28 0 73 -22t57 -22q32 0 32 36zM661 340q0 -173 -79 -264t-224 -91t-224 91t-79 264t79 264t224 91t224 -91t79 -264zM358 95q70 0 116.5 37.5t46.5 102.5v210
q0 65 -46.5 102.5t-116.5 37.5t-116.5 -37.5t-46.5 -102.5v-210q0 -65 46.5 -102.5t116.5 -37.5z"/>
            <glyph glyph-name="Odieresis" unicode="&#xd6;" horiz-adv-x="716"
                   d="M314 869v-108h-118v108h118zM520 869v-108h-118v108h118zM661 340q0 -173 -79 -264t-224 -91t-224 91t-79 264t79 264t224 91t224 -91t79 -264zM358 95q70 0 116.5 37.5t46.5 102.5v210q0 65 -46.5 102.5t-116.5 37.5t-116.5 -37.5t-46.5 -102.5v-210q0 -65 46.5 -102.5
t116.5 -37.5z"/>
            <glyph glyph-name="multiply" unicode="&#xd7;"
                   d="M368 340l188 -187l-69 -69l-187 187l-186 -187l-69 69l187 186l-187 187l69 69l186 -187l187 187l68 -68z"/>
            <glyph glyph-name="Oslash" unicode="&#xd8;" horiz-adv-x="716"
                   d="M661 340q0 -173 -79 -264t-224 -91q-66 0 -117 18l-38 -76l-75 36l40 80q-113 90 -113 297q0 173 79 264t224 91q67 0 124 -22l40 80l75 -36l-43 -86q107 -90 107 -291zM195 235q0 -48 27 -83l210 420q-32 13 -74 13q-70 0 -116.5 -37.5t-46.5 -102.5v-210zM358 95
q70 0 116.5 37.5t46.5 102.5v210q0 43 -22 76l-208 -416q30 -10 67 -10z"/>
            <glyph glyph-name="Ugrave" unicode="&#xd9;" horiz-adv-x="688"
                   d="M359 869l74 -122h-103l-111 122h140zM481 237v443h129v-438q0 -119 -71.5 -188t-194.5 -69q-124 0 -195 69t-71 188v438h130v-443q0 -67 35 -104.5t101 -37.5q67 0 102 37t35 105z"/>
            <glyph glyph-name="Uacute" unicode="&#xda;" horiz-adv-x="688"
                   d="M271 747l74 122h140l-111 -122h-103zM481 237v443h129v-438q0 -119 -71.5 -188t-194.5 -69q-124 0 -195 69t-71 188v438h130v-443q0 -67 35 -104.5t101 -37.5q67 0 102 37t35 105z"/>
            <glyph glyph-name="Ucircumflex" unicode="&#xdb;" horiz-adv-x="688"
                   d="M343 805l-47 -58h-101l79 122h139l80 -122h-103zM481 237v443h129v-438q0 -119 -71.5 -188t-194.5 -69q-124 0 -195 69t-71 188v438h130v-443q0 -67 35 -104.5t101 -37.5q67 0 102 37t35 105z"/>
            <glyph glyph-name="Udieresis" unicode="&#xdc;" horiz-adv-x="688"
                   d="M300 869v-108h-118v108h118zM506 869v-108h-118v108h118zM481 237v443h129v-438q0 -119 -71.5 -188t-194.5 -69q-124 0 -195 69t-71 188v438h130v-443q0 -67 35 -104.5t101 -37.5q67 0 102 37t35 105z"/>
            <glyph glyph-name="Yacute" unicode="&#xdd;" horiz-adv-x="636"
                   d="M259 747l74 122h140l-111 -122h-103zM253 266l-227 414h147l146 -282l146 282h145l-227 -414v-266h-130v266z"/>
            <glyph glyph-name="Thorn" unicode="&#xde;" horiz-adv-x="623"
                   d="M84 0v680h130v-117h147q108 0 161 -53q52 -52 52 -165q0 -105 -58 -163q-57 -55 -154 -55h-148v-127h-130zM214 237h161q64 0 64 68v84q0 34 -14.5 49t-49.5 15h-161v-216z"/>
            <glyph glyph-name="germandbls" unicode="&#xdf;" horiz-adv-x="575"
                   d="M261 -15v103h7q64 0 95 19.5t31 64.5v72q0 32 -14.5 48t-49.5 16h-69v101h59q35 0 49.5 15.5t14.5 47.5v56q0 32 -23 48.5t-64 16.5q-47 0 -71.5 -23.5t-24.5 -64.5v-505h-125v505q0 80 61 135t160 55q98 0 157 -51.5t59 -122.5q0 -65 -24 -102.5t-75 -60.5
q109 -33 109 -168q0 -98 -66 -151.5t-186 -53.5h-10z"/>
            <glyph glyph-name="agrave" unicode="&#xe0;" horiz-adv-x="568"
                   d="M277 695l74 -122h-103l-111 122h140zM207 -12q-69 0 -115 44t-46 113q0 63 44.5 107.5t122.5 51.5l141 12v33q0 76 -80 76q-39 0 -62.5 -19t-23.5 -53h-125q3 81 62.5 125t153.5 44q93 0 145.5 -45.5t52.5 -129.5v-250h86v-97h-198v79h-4q-47 -91 -154 -91zM251 85
q47 0 75 33.5t28 82.5v20l-150 -13q-28 -3 -28 -33v-44q0 -22 20.5 -34t54.5 -12z"/>
            <glyph glyph-name="aacute" unicode="&#xe1;" horiz-adv-x="568"
                   d="M208 573l74 122h140l-111 -122h-103zM207 -12q-69 0 -115 44t-46 113q0 63 44.5 107.5t122.5 51.5l141 12v33q0 76 -80 76q-39 0 -62.5 -19t-23.5 -53h-125q3 81 62.5 125t153.5 44q93 0 145.5 -45.5t52.5 -129.5v-250h86v-97h-198v79h-4q-47 -91 -154 -91zM251 85
q47 0 75 33.5t28 82.5v20l-150 -13q-28 -3 -28 -33v-44q0 -22 20.5 -34t54.5 -12z"/>
            <glyph glyph-name="acircumflex" unicode="&#xe2;" horiz-adv-x="568"
                   d="M278 631l-47 -58h-101l79 122h139l80 -122h-103zM207 -12q-69 0 -115 44t-46 113q0 63 44.5 107.5t122.5 51.5l141 12v33q0 76 -80 76q-39 0 -62.5 -19t-23.5 -53h-125q3 81 62.5 125t153.5 44q93 0 145.5 -45.5t52.5 -129.5v-250h86v-97h-198v79h-4q-47 -91 -154 -91z
M251 85q47 0 75 33.5t28 82.5v20l-150 -13q-28 -3 -28 -33v-44q0 -22 20.5 -34t54.5 -12z"/>
            <glyph glyph-name="atilde" unicode="&#xe3;" horiz-adv-x="568"
                   d="M375 687h70q0 -51 -25.5 -82t-73.5 -31q-28 0 -73 22t-57 22q-32 0 -32 -36h-70q0 51 25.5 82t73.5 31q28 0 72.5 -22t57.5 -22q32 0 32 36zM207 -12q-69 0 -115 44t-46 113q0 63 44.5 107.5t122.5 51.5l141 12v33q0 76 -80 76q-39 0 -62.5 -19t-23.5 -53h-125
q3 81 62.5 125t153.5 44q93 0 145.5 -45.5t52.5 -129.5v-250h86v-97h-198v79h-4q-47 -91 -154 -91zM251 85q47 0 75 33.5t28 82.5v20l-150 -13q-28 -3 -28 -33v-44q0 -22 20.5 -34t54.5 -12z"/>
            <glyph glyph-name="adieresis" unicode="&#xe4;" horiz-adv-x="568"
                   d="M235 695v-108h-118v108h118zM441 695v-108h-118v108h118zM207 -12q-69 0 -115 44t-46 113q0 63 44.5 107.5t122.5 51.5l141 12v33q0 76 -80 76q-39 0 -62.5 -19t-23.5 -53h-125q3 81 62.5 125t153.5 44q93 0 145.5 -45.5t52.5 -129.5v-250h86v-97h-198v79h-4
q-47 -91 -154 -91zM251 85q47 0 75 33.5t28 82.5v20l-150 -13q-28 -3 -28 -33v-44q0 -22 20.5 -34t54.5 -12z"/>
            <glyph glyph-name="aring" unicode="&#xe5;" horiz-adv-x="568"
                   d="M379 659q0 -41 -29.5 -70t-70.5 -29t-71 29t-30 70t29.5 69.5t71.5 28.5q41 0 70.5 -28.5t29.5 -69.5zM319 659q0 17 -11.5 28.5t-28.5 11.5t-29 -11.5t-12 -28.5t12 -29t29 -12t28.5 12t11.5 29zM207 -12q-69 0 -115 44t-46 113q0 63 44.5 107.5t122.5 51.5l141 12v33
q0 76 -80 76q-39 0 -62.5 -19t-23.5 -53h-125q3 81 62.5 125t153.5 44q93 0 145.5 -45.5t52.5 -129.5v-250h86v-97h-198v79h-4q-47 -91 -154 -91zM251 85q47 0 75 33.5t28 82.5v20l-150 -13q-28 -3 -28 -33v-44q0 -22 20.5 -34t54.5 -12z"/>
            <glyph glyph-name="ae" unicode="&#xe6;" horiz-adv-x="852"
                   d="M575 -12q-101 0 -160 71h-2q-68 -71 -179 -71q-83 0 -134 45q-52 46 -52 122q0 69 44 113t113 44h151v37q0 76 -80 76q-39 0 -62.5 -19t-23.5 -53h-125q3 81 62.5 125t153.5 44q101 0 153 -58q51 58 141 58q101 0 162.5 -69t61.5 -175v-63h-320v-34q0 -44 28 -70t69 -26
q39 0 64.5 21.5t29.5 60.5h125q-12 -84 -70.5 -131.5t-149.5 -47.5zM575 425q-42 0 -69 -27t-27 -68v-18h192v18q0 41 -27 68t-69 27zM253 85q47 0 75 33.5t28 82.5v15h-148q-30 0 -30 -33v-52q0 -22 20.5 -34t54.5 -12z"/>
            <glyph glyph-name="ccedilla" unicode="&#xe7;" horiz-adv-x="540"
                   d="M51 252q0 125 62 197.5t167 72.5q86 0 146 -46.5t67 -137.5h-125q-9 87 -93 87q-40 0 -67 -26t-27 -74v-140q0 -46 26 -73t69 -27q44 0 67 21t29 70h125q-9 -92 -68 -140t-147 -48q-111 0 -171 72t-60 192zM164 -170v75h76v62h85v-137h-161z"/>
            <glyph glyph-name="egrave" unicode="&#xe8;" horiz-adv-x="560"
                   d="M278 695l74 -122h-103l-111 122h140zM280 -12q-107 0 -168.5 73t-61.5 195q0 120 63 193t167 73q102 0 165 -69t63 -175v-63h-328v-34q0 -44 29.5 -70t71.5 -26q41 0 67.5 21.5t30.5 60.5h125q-12 -84 -71.5 -131.5t-152.5 -47.5zM380 312v18q0 41 -28.5 68t-71.5 27
t-71.5 -27t-28.5 -68v-18h200z"/>
            <glyph glyph-name="eacute" unicode="&#xe9;" horiz-adv-x="560"
                   d="M208 573l74 122h140l-111 -122h-103zM280 -12q-107 0 -168.5 73t-61.5 195q0 120 63 193t167 73q102 0 165 -69t63 -175v-63h-328v-34q0 -44 29.5 -70t71.5 -26q41 0 67.5 21.5t30.5 60.5h125q-12 -84 -71.5 -131.5t-152.5 -47.5zM380 312v18q0 41 -28.5 68t-71.5 27
t-71.5 -27t-28.5 -68v-18h200z"/>
            <glyph glyph-name="ecircumflex" unicode="&#xea;" horiz-adv-x="560"
                   d="M279 631l-47 -58h-101l79 122h139l80 -122h-103zM280 -12q-107 0 -168.5 73t-61.5 195q0 120 63 193t167 73q102 0 165 -69t63 -175v-63h-328v-34q0 -44 29.5 -70t71.5 -26q41 0 67.5 21.5t30.5 60.5h125q-12 -84 -71.5 -131.5t-152.5 -47.5zM380 312v18q0 41 -28.5 68
t-71.5 27t-71.5 -27t-28.5 -68v-18h200z"/>
            <glyph glyph-name="edieresis" unicode="&#xeb;" horiz-adv-x="560"
                   d="M236 695v-108h-118v108h118zM442 695v-108h-118v108h118zM280 -12q-107 0 -168.5 73t-61.5 195q0 120 63 193t167 73q102 0 165 -69t63 -175v-63h-328v-34q0 -44 29.5 -70t71.5 -26q41 0 67.5 21.5t30.5 60.5h125q-12 -84 -71.5 -131.5t-152.5 -47.5zM380 312v18
q0 41 -28.5 68t-71.5 27t-71.5 -27t-28.5 -68v-18h200z"/>
            <glyph glyph-name="igrave" unicode="&#xec;" horiz-adv-x="277"
                   d="M136 695l74 -122h-103l-111 122h140zM201 0h-125v510h125v-510z"/>
            <glyph glyph-name="iacute" unicode="&#xed;" horiz-adv-x="277"
                   d="M67 573l74 122h140l-111 -122h-103zM201 0h-125v510h125v-510z"/>
            <glyph glyph-name="icircumflex" unicode="&#xee;" horiz-adv-x="277"
                   d="M137 631l-47 -58h-101l79 122h139l80 -122h-103zM201 0h-125v510h125v-510z"/>
            <glyph glyph-name="idieresis" unicode="&#xef;" horiz-adv-x="277"
                   d="M94 695v-108h-118v108h118zM300 695v-108h-118v108h118zM201 0h-125v510h125v-510z"/>
            <glyph glyph-name="eth" unicode="&#xf0;" horiz-adv-x="577"
                   d="M303 481l-33 52h-131v80h80l-44 67h131l43 -67h135v-80h-81l46 -70q22 -33 34 -54t28 -71.5t16 -102.5q0 -112 -65 -179.5t-174 -67.5t-174 67.5t-65 179.5t63.5 179.5t165.5 67.5q17 0 25 -1zM397 181v108q0 45 -31 70.5t-78 25.5q-48 0 -78.5 -25.5t-30.5 -70.5v-108
q0 -45 30.5 -70.5t78.5 -25.5t78.5 25.5t30.5 70.5z"/>
            <glyph glyph-name="ntilde" unicode="&#xf1;" horiz-adv-x="591"
                   d="M393 687h70q0 -51 -25.5 -82t-73.5 -31q-27 0 -72 22t-58 22q-32 0 -32 -36h-70q0 51 25.5 82t73.5 31q27 0 72 -22t58 -22q32 0 32 36zM394 0v325q0 95 -83 95q-51 0 -80.5 -34.5t-29.5 -90.5v-295h-125v510h125v-74q49 86 151 86q84 0 125.5 -49t41.5 -139v-334h-125z
"/>
            <glyph glyph-name="ograve" unicode="&#xf2;" horiz-adv-x="578"
                   d="M287 695l74 -122h-103l-111 122h140zM289 -12q-113 0 -176 72.5t-63 194.5t63 194.5t176 72.5t176 -72.5t63 -194.5t-63 -194.5t-176 -72.5zM398 181v148q0 45 -30.5 70.5t-78.5 25.5t-78.5 -25.5t-30.5 -70.5v-148q0 -45 30.5 -70.5t78.5 -25.5t78.5 25.5t30.5 70.5z
"/>
            <glyph glyph-name="oacute" unicode="&#xf3;" horiz-adv-x="578"
                   d="M218 573l74 122h140l-111 -122h-103zM289 -12q-113 0 -176 72.5t-63 194.5t63 194.5t176 72.5t176 -72.5t63 -194.5t-63 -194.5t-176 -72.5zM398 181v148q0 45 -30.5 70.5t-78.5 25.5t-78.5 -25.5t-30.5 -70.5v-148q0 -45 30.5 -70.5t78.5 -25.5t78.5 25.5t30.5 70.5z
"/>
            <glyph glyph-name="ocircumflex" unicode="&#xf4;" horiz-adv-x="578"
                   d="M288 631l-47 -58h-101l79 122h139l80 -122h-103zM289 -12q-113 0 -176 72.5t-63 194.5t63 194.5t176 72.5t176 -72.5t63 -194.5t-63 -194.5t-176 -72.5zM398 181v148q0 45 -30.5 70.5t-78.5 25.5t-78.5 -25.5t-30.5 -70.5v-148q0 -45 30.5 -70.5t78.5 -25.5t78.5 25.5
t30.5 70.5z"/>
            <glyph glyph-name="otilde" unicode="&#xf5;" horiz-adv-x="578"
                   d="M385 687h70q0 -51 -25.5 -82t-73.5 -31q-28 0 -73 22t-57 22q-32 0 -32 -36h-70q0 51 25.5 82t73.5 31q27 0 72 -22t58 -22q32 0 32 36zM289 -12q-113 0 -176 72.5t-63 194.5t63 194.5t176 72.5t176 -72.5t63 -194.5t-63 -194.5t-176 -72.5zM398 181v148q0 45 -30.5 70.5
t-78.5 25.5t-78.5 -25.5t-30.5 -70.5v-148q0 -45 30.5 -70.5t78.5 -25.5t78.5 25.5t30.5 70.5z"/>
            <glyph glyph-name="odieresis" unicode="&#xf6;" horiz-adv-x="578"
                   d="M245 695v-108h-118v108h118zM451 695v-108h-118v108h118zM289 -12q-113 0 -176 72.5t-63 194.5t63 194.5t176 72.5t176 -72.5t63 -194.5t-63 -194.5t-176 -72.5zM398 181v148q0 45 -30.5 70.5t-78.5 25.5t-78.5 -25.5t-30.5 -70.5v-148q0 -45 30.5 -70.5t78.5 -25.5
t78.5 25.5t30.5 70.5z"/>
            <glyph glyph-name="divide" unicode="&#xf7;"
                   d="M363 595v-127h-126v127h126zM560 388v-96h-520v96h520zM363 212v-127h-126v127h126z"/>
            <glyph glyph-name="oslash" unicode="&#xf8;" horiz-adv-x="578"
                   d="M470 551l-36 -73q94 -71 94 -223q0 -122 -63 -194.5t-176 -72.5q-45 0 -87 13l-38 -79l-77 34l42 87q-79 71 -79 212q0 122 63 194.5t176 72.5q37 0 69 -9l35 72zM183 154l131 269q-16 2 -25 2q-48 0 -78.5 -25.5t-30.5 -70.5v-148q0 -15 3 -27zM385 378l-139 -287
q19 -6 43 -6q48 0 78.5 25.5t30.5 70.5v148q0 26 -13 49z"/>
            <glyph glyph-name="ugrave" unicode="&#xf9;" horiz-adv-x="587"
                   d="M279 695l74 -122h-103l-111 122h140zM386 0v74q-48 -86 -150 -86q-81 0 -122.5 49t-41.5 139v334h125v-325q0 -95 80 -95q50 0 79.5 34.5t29.5 90.5v295h125v-510h-125z"/>
            <glyph glyph-name="uacute" unicode="&#xfa;" horiz-adv-x="587"
                   d="M220 573l74 122h140l-111 -122h-103zM386 0v74q-48 -86 -150 -86q-81 0 -122.5 49t-41.5 139v334h125v-325q0 -95 80 -95q50 0 79.5 34.5t29.5 90.5v295h125v-510h-125z"/>
            <glyph glyph-name="ucircumflex" unicode="&#xfb;" horiz-adv-x="587"
                   d="M290 631l-47 -58h-101l79 122h139l80 -122h-103zM386 0v74q-48 -86 -150 -86q-81 0 -122.5 49t-41.5 139v334h125v-325q0 -95 80 -95q50 0 79.5 34.5t29.5 90.5v295h125v-510h-125z"/>
            <glyph glyph-name="udieresis" unicode="&#xfc;" horiz-adv-x="587"
                   d="M247 695v-108h-118v108h118zM453 695v-108h-118v108h118zM386 0v74q-48 -86 -150 -86q-81 0 -122.5 49t-41.5 139v334h125v-325q0 -95 80 -95q50 0 79.5 34.5t29.5 90.5v295h125v-510h-125z"/>
            <glyph glyph-name="yacute" unicode="&#xfd;" horiz-adv-x="537"
                   d="M198 573l74 122h140l-111 -122h-103zM271 -170h-218v97h128l25 73l-184 510h134l111 -364h4l114 364h132z"/>
            <glyph glyph-name="thorn" unicode="&#xfe;" horiz-adv-x="602"
                   d="M201 -170h-125v850h125v-239q51 81 149 81t149.5 -75t51.5 -192t-51.5 -192t-149.5 -75t-149 81v-239zM201 293v-76q0 -132 115 -132q49 0 77 26.5t28 71.5v144q0 45 -28 71.5t-77 26.5q-115 0 -115 -132z"/>
            <glyph glyph-name="ydieresis" unicode="&#xff;" horiz-adv-x="537"
                   d="M225 695v-108h-118v108h118zM431 695v-108h-118v108h118zM271 -170h-218v97h128l25 73l-184 510h134l111 -364h4l114 364h132z"/>
            <glyph glyph-name="Amacron" unicode="&#x100;" horiz-adv-x="641"
                   d="M162 775v79h319v-79h-319zM481 0l-45 145h-232l-44 -145h-140l232 680h138l231 -680h-140zM403 255l-79 268h-4l-82 -268h165z"/>
            <glyph glyph-name="amacron" unicode="&#x101;" horiz-adv-x="568"
                   d="M120 601v79h319v-79h-319zM207 -12q-69 0 -115 44t-46 113q0 63 44.5 107.5t122.5 51.5l141 12v33q0 76 -80 76q-39 0 -62.5 -19t-23.5 -53h-125q3 81 62.5 125t153.5 44q93 0 145.5 -45.5t52.5 -129.5v-250h86v-97h-198v79h-4q-47 -91 -154 -91zM251 85q47 0 75 33.5
t28 82.5v20l-150 -13q-28 -3 -28 -33v-44q0 -22 20.5 -34t54.5 -12z"/>
            <glyph glyph-name="Abreve" unicode="&#x102;" horiz-adv-x="641"
                   d="M176 869h80q0 -26 18 -42.5t47 -16.5t47 16.5t18 42.5h80q0 -60 -40.5 -97.5t-104.5 -37.5t-104.5 37.5t-40.5 97.5zM481 0l-45 145h-232l-44 -145h-140l232 680h138l231 -680h-140zM403 255l-79 268h-4l-82 -268h165z"/>
            <glyph glyph-name="abreve" unicode="&#x103;" horiz-adv-x="568"
                   d="M134 695h80q0 -26 18 -42.5t47 -16.5t47 16.5t18 42.5h80q0 -60 -40.5 -97.5t-104.5 -37.5t-104.5 37.5t-40.5 97.5zM207 -12q-69 0 -115 44t-46 113q0 63 44.5 107.5t122.5 51.5l141 12v33q0 76 -80 76q-39 0 -62.5 -19t-23.5 -53h-125q3 81 62.5 125t153.5 44
q93 0 145.5 -45.5t52.5 -129.5v-250h86v-97h-198v79h-4q-47 -91 -154 -91zM251 85q47 0 75 33.5t28 82.5v20l-150 -13q-28 -3 -28 -33v-44q0 -22 20.5 -34t54.5 -12z"/>
            <glyph glyph-name="Aogonek" unicode="&#x104;" horiz-adv-x="641"
                   d="M481 0l-45 145h-232l-44 -145h-140l232 680h138l231 -680h-140zM403 255l-79 268h-4l-82 -268h165zM621 -95v-75h-164v75l74 65h79l-69 -65h80z"/>
            <glyph glyph-name="aogonek" unicode="&#x105;" horiz-adv-x="568"
                   d="M207 -12q-69 0 -115 44t-46 113q0 63 44.5 107.5t122.5 51.5l141 12v33q0 76 -80 76q-39 0 -62.5 -19t-23.5 -53h-125q3 81 62.5 125t153.5 44q93 0 145.5 -45.5t52.5 -129.5v-250h86v-97h-198v79h-4q-47 -91 -154 -91zM251 85q47 0 75 33.5t28 82.5v20l-150 -13
q-28 -3 -28 -33v-44q0 -22 20.5 -34t54.5 -12zM563 -95v-75h-164v75l74 65h79l-69 -65h80z"/>
            <glyph glyph-name="Cacute" unicode="&#x106;" horiz-adv-x="645"
                   d="M272 747l74 122h140l-111 -122h-103zM340 -15q-142 0 -213.5 96t-71.5 257q0 167 74 262t218 95q106 0 175 -59t76 -159h-130q-10 108 -130 108q-63 0 -103 -38.5t-40 -101.5v-208q0 -61 42.5 -101.5t104.5 -40.5q61 0 94 27t43 86h130q-15 -113 -86.5 -168t-182.5 -55z
"/>
            <glyph glyph-name="cacute" unicode="&#x107;" horiz-adv-x="540"
                   d="M209 573l74 122h140l-111 -122h-103zM51 252q0 125 62 197.5t167 72.5q86 0 146 -46.5t67 -137.5h-125q-9 87 -93 87q-40 0 -67 -26t-27 -74v-140q0 -46 26 -73t69 -27q44 0 67 21t29 70h125q-9 -92 -68 -140t-147 -48q-111 0 -171 72t-60 192z"/>
            <glyph glyph-name="Ccircumflex" unicode="&#x108;" horiz-adv-x="645"
                   d="M346 805l-47 -58h-101l79 122h139l80 -122h-103zM340 -15q-142 0 -213.5 96t-71.5 257q0 167 74 262t218 95q106 0 175 -59t76 -159h-130q-10 108 -130 108q-63 0 -103 -38.5t-40 -101.5v-208q0 -61 42.5 -101.5t104.5 -40.5q61 0 94 27t43 86h130q-15 -113 -86.5 -168
t-182.5 -55z"/>
            <glyph glyph-name="ccircumflex" unicode="&#x109;" horiz-adv-x="540"
                   d="M279 631l-47 -58h-101l79 122h139l80 -122h-103zM51 252q0 125 62 197.5t167 72.5q86 0 146 -46.5t67 -137.5h-125q-9 87 -93 87q-40 0 -67 -26t-27 -74v-140q0 -46 26 -73t69 -27q44 0 67 21t29 70h125q-9 -92 -68 -140t-147 -48q-111 0 -171 72t-60 192z"/>
            <glyph glyph-name="Cdotaccent" unicode="&#x10a;" horiz-adv-x="645"
                   d="M406 869v-108h-118v108h118zM340 -15q-142 0 -213.5 96t-71.5 257q0 167 74 262t218 95q106 0 175 -59t76 -159h-130q-10 108 -130 108q-63 0 -103 -38.5t-40 -101.5v-208q0 -61 42.5 -101.5t104.5 -40.5q61 0 94 27t43 86h130q-15 -113 -86.5 -168t-182.5 -55z"/>
            <glyph glyph-name="cdotaccent" unicode="&#x10b;" horiz-adv-x="540"
                   d="M339 695v-108h-118v108h118zM51 252q0 125 62 197.5t167 72.5q86 0 146 -46.5t67 -137.5h-125q-9 87 -93 87q-40 0 -67 -26t-27 -74v-140q0 -46 26 -73t69 -27q44 0 67 21t29 70h125q-9 -92 -68 -140t-147 -48q-111 0 -171 72t-60 192z"/>
            <glyph glyph-name="Ccaron" unicode="&#x10c;" horiz-adv-x="645"
                   d="M299 869l47 -58l47 58h103l-80 -122h-139l-79 122h101zM340 -15q-142 0 -213.5 96t-71.5 257q0 167 74 262t218 95q106 0 175 -59t76 -159h-130q-10 108 -130 108q-63 0 -103 -38.5t-40 -101.5v-208q0 -61 42.5 -101.5t104.5 -40.5q61 0 94 27t43 86h130
q-15 -113 -86.5 -168t-182.5 -55z"/>
            <glyph glyph-name="ccaron" unicode="&#x10d;" horiz-adv-x="540"
                   d="M232 695l47 -58l47 58h103l-80 -122h-139l-79 122h101zM51 252q0 125 62 197.5t167 72.5q86 0 146 -46.5t67 -137.5h-125q-9 87 -93 87q-40 0 -67 -26t-27 -74v-140q0 -46 26 -73t69 -27q44 0 67 21t29 70h125q-9 -92 -68 -140t-147 -48q-111 0 -171 72t-60 192z"/>
            <glyph glyph-name="Dcaron" unicode="&#x10e;" horiz-adv-x="672"
                   d="M266 869l47 -58l47 58h103l-80 -122h-139l-79 122h101zM84 680h230q159 0 230.5 -83t71.5 -257t-71.5 -257t-230.5 -83h-230v680zM314 570h-100v-460h100q167 0 167 132v196q0 132 -167 132z"/>
            <glyph glyph-name="dcaron" unicode="&#x10f;" horiz-adv-x="602"
                   d="M526 0h-125v69q-51 -81 -147 -81q-98 0 -150.5 75t-52.5 192t51.5 192t149.5 75t149 -81v239h125v-680zM574 528l29 152h117l-66 -152h-80zM401 293q0 132 -115 132q-48 0 -76.5 -27.5t-28.5 -70.5v-144q0 -43 29 -70.5t76 -27.5q115 0 115 132v76z"/>
            <glyph glyph-name="Dcroat" unicode="&#x110;" horiz-adv-x="691"
                   d="M103 0v292h-72v96h72v292h230q159 0 230.5 -83t71.5 -257t-71.5 -257t-230.5 -83h-230zM233 110h100q162 0 162 132v196q0 132 -162 132h-100v-182h146v-96h-146v-182z"/>
            <glyph glyph-name="dcroat" unicode="&#x111;" horiz-adv-x="602"
                   d="M526 0h-125v69q-51 -81 -147 -81q-98 0 -150.5 75t-52.5 192t51.5 192t149.5 75t149 -81v112h-140v83h140v44h125v-44h103v-83h-103v-553zM401 217v76q0 132 -115 132q-48 0 -76.5 -27.5t-28.5 -70.5v-144q0 -43 29 -70.5t76 -27.5q115 0 115 132z"/>
            <glyph glyph-name="Emacron" unicode="&#x112;" horiz-adv-x="610"
                   d="M159 775v79h319v-79h-319zM84 0v680h468v-110h-338v-167h292v-110h-292v-183h338v-110h-468z"/>
            <glyph glyph-name="emacron" unicode="&#x113;" horiz-adv-x="560"
                   d="M121 601v79h319v-79h-319zM280 -12q-107 0 -168.5 73t-61.5 195q0 120 63 193t167 73q102 0 165 -69t63 -175v-63h-328v-34q0 -44 29.5 -70t71.5 -26q41 0 67.5 21.5t30.5 60.5h125q-12 -84 -71.5 -131.5t-152.5 -47.5zM380 312v18q0 41 -28.5 68t-71.5 27t-71.5 -27
t-28.5 -68v-18h200z"/>
            <glyph glyph-name="Ebreve" unicode="&#x114;" horiz-adv-x="610"
                   d="M173 869h80q0 -26 18 -42.5t47 -16.5t47 16.5t18 42.5h80q0 -60 -40.5 -97.5t-104.5 -37.5t-104.5 37.5t-40.5 97.5zM84 0v680h468v-110h-338v-167h292v-110h-292v-183h338v-110h-468z"/>
            <glyph glyph-name="ebreve" unicode="&#x115;" horiz-adv-x="560"
                   d="M135 695h80q0 -26 18 -42.5t47 -16.5t47 16.5t18 42.5h80q0 -60 -40.5 -97.5t-104.5 -37.5t-104.5 37.5t-40.5 97.5zM280 -12q-107 0 -168.5 73t-61.5 195q0 120 63 193t167 73q102 0 165 -69t63 -175v-63h-328v-34q0 -44 29.5 -70t71.5 -26q41 0 67.5 21.5t30.5 60.5
h125q-12 -84 -71.5 -131.5t-152.5 -47.5zM380 312v18q0 41 -28.5 68t-71.5 27t-71.5 -27t-28.5 -68v-18h200z"/>
            <glyph glyph-name="Edotaccent" unicode="&#x116;" horiz-adv-x="610"
                   d="M377 869v-108h-118v108h118zM84 0v680h468v-110h-338v-167h292v-110h-292v-183h338v-110h-468z"/>
            <glyph glyph-name="edotaccent" unicode="&#x117;" horiz-adv-x="560"
                   d="M339 695v-108h-118v108h118zM280 -12q-107 0 -168.5 73t-61.5 195q0 120 63 193t167 73q102 0 165 -69t63 -175v-63h-328v-34q0 -44 29.5 -70t71.5 -26q41 0 67.5 21.5t30.5 60.5h125q-12 -84 -71.5 -131.5t-152.5 -47.5zM380 312v18q0 41 -28.5 68t-71.5 27t-71.5 -27
t-28.5 -68v-18h200z"/>
            <glyph glyph-name="Eogonek" unicode="&#x118;" horiz-adv-x="610"
                   d="M84 0v680h468v-110h-338v-167h292v-110h-292v-183h338v-110h-468zM552 -95v-75h-164v75l74 65h79l-69 -65h80z"/>
            <glyph glyph-name="eogonek" unicode="&#x119;" horiz-adv-x="560"
                   d="M280 -12q-107 0 -168.5 73t-61.5 195q0 120 63 193t167 73q102 0 165 -69t63 -175v-63h-328v-34q0 -44 29.5 -70t71.5 -26q41 0 67.5 21.5t30.5 60.5h125q-12 -84 -71.5 -131.5t-152.5 -47.5zM380 312v18q0 41 -28.5 68t-71.5 27t-71.5 -27t-28.5 -68v-18h200zM381 -95
v-75h-164v75l74 65h79l-69 -65h80z"/>
            <glyph glyph-name="Ecaron" unicode="&#x11a;" horiz-adv-x="610"
                   d="M270 869l47 -58l47 58h103l-80 -122h-139l-79 122h101zM84 0v680h468v-110h-338v-167h292v-110h-292v-183h338v-110h-468z"/>
            <glyph glyph-name="ecaron" unicode="&#x11b;" horiz-adv-x="560"
                   d="M232 695l47 -58l47 58h103l-80 -122h-139l-79 122h101zM280 -12q-107 0 -168.5 73t-61.5 195q0 120 63 193t167 73q102 0 165 -69t63 -175v-63h-328v-34q0 -44 29.5 -70t71.5 -26q41 0 67.5 21.5t30.5 60.5h125q-12 -84 -71.5 -131.5t-152.5 -47.5zM380 312v18
q0 41 -28.5 68t-71.5 27t-71.5 -27t-28.5 -68v-18h200z"/>
            <glyph glyph-name="Gcircumflex" unicode="&#x11c;" horiz-adv-x="691"
                   d="M351 805l-47 -58h-101l79 122h139l80 -122h-103zM332 -15q-134 0 -205.5 96.5t-71.5 256.5q0 167 74.5 262t222.5 95q109 0 179 -59t77 -159h-130q-10 108 -135 108q-66 0 -107 -38.5t-41 -101.5v-208q0 -61 43 -101.5t106 -40.5q68 0 106.5 34.5t38.5 102.5v29h-140v110
h270v-371h-121l-3 62q-52 -77 -163 -77z"/>
            <glyph glyph-name="gcircumflex" unicode="&#x11d;" horiz-adv-x="602"
                   d="M287 631l-47 -58h-101l79 122h139l80 -122h-103zM296 -195q-205 0 -227 160h125q13 -63 92 -63q115 0 115 112v55q-51 -81 -147 -81q-98 0 -150.5 75t-52.5 192t51.5 192t149.5 75t149 -81v69h125v-502q0 -98 -67 -150.5t-163 -52.5zM401 293q0 132 -115 132
q-48 0 -76.5 -27.5t-28.5 -70.5v-144q0 -43 29 -70.5t76 -27.5q115 0 115 132v76z"/>
            <glyph glyph-name="Gbreve" unicode="&#x11e;" horiz-adv-x="691"
                   d="M207 869h80q0 -26 18 -42.5t47 -16.5t47 16.5t18 42.5h80q0 -60 -40.5 -97.5t-104.5 -37.5t-104.5 37.5t-40.5 97.5zM332 -15q-134 0 -205.5 96.5t-71.5 256.5q0 167 74.5 262t222.5 95q109 0 179 -59t77 -159h-130q-10 108 -135 108q-66 0 -107 -38.5t-41 -101.5v-208
q0 -61 43 -101.5t106 -40.5q68 0 106.5 34.5t38.5 102.5v29h-140v110h270v-371h-121l-3 62q-52 -77 -163 -77z"/>
            <glyph glyph-name="gbreve" unicode="&#x11f;" horiz-adv-x="602"
                   d="M143 695h80q0 -26 18 -42.5t47 -16.5t47 16.5t18 42.5h80q0 -60 -40.5 -97.5t-104.5 -37.5t-104.5 37.5t-40.5 97.5zM296 -195q-205 0 -227 160h125q13 -63 92 -63q115 0 115 112v55q-51 -81 -147 -81q-98 0 -150.5 75t-52.5 192t51.5 192t149.5 75t149 -81v69h125v-502
q0 -98 -67 -150.5t-163 -52.5zM401 293q0 132 -115 132q-48 0 -76.5 -27.5t-28.5 -70.5v-144q0 -43 29 -70.5t76 -27.5q115 0 115 132v76z"/>
            <glyph glyph-name="Gdotaccent" unicode="&#x120;" horiz-adv-x="691"
                   d="M411 869v-108h-118v108h118zM332 -15q-134 0 -205.5 96.5t-71.5 256.5q0 167 74.5 262t222.5 95q109 0 179 -59t77 -159h-130q-10 108 -135 108q-66 0 -107 -38.5t-41 -101.5v-208q0 -61 43 -101.5t106 -40.5q68 0 106.5 34.5t38.5 102.5v29h-140v110h270v-371h-121
l-3 62q-52 -77 -163 -77z"/>
            <glyph glyph-name="gdotaccent" unicode="&#x121;" horiz-adv-x="602"
                   d="M347 695v-108h-118v108h118zM296 -195q-205 0 -227 160h125q13 -63 92 -63q115 0 115 112v55q-51 -81 -147 -81q-98 0 -150.5 75t-52.5 192t51.5 192t149.5 75t149 -81v69h125v-502q0 -98 -67 -150.5t-163 -52.5zM401 293q0 132 -115 132q-48 0 -76.5 -27.5t-28.5 -70.5
v-144q0 -43 29 -70.5t76 -27.5q115 0 115 132v76z"/>
            <glyph glyph-name="uni0122" unicode="&#x122;" horiz-adv-x="691"
                   d="M332 -15q-134 0 -205.5 96.5t-71.5 256.5q0 167 74.5 262t222.5 95q109 0 179 -59t77 -159h-130q-10 108 -135 108q-66 0 -107 -38.5t-41 -101.5v-208q0 -61 43 -101.5t106 -40.5q68 0 106.5 34.5t38.5 102.5v29h-140v110h270v-371h-121l-3 62q-52 -77 -163 -77zM386 -45
v-112l-53 -94h-47l50 94h-63v112h113z"/>
            <glyph glyph-name="uni0123" unicode="&#x123;" horiz-adv-x="602"
                   d="M230 587v114l54 96h48l-51 -96h64v-114h-115zM296 -195q-205 0 -227 160h125q13 -63 92 -63q115 0 115 112v55q-51 -81 -147 -81q-98 0 -150.5 75t-52.5 192t51.5 192t149.5 75t149 -81v69h125v-502q0 -98 -67 -150.5t-163 -52.5zM401 293q0 132 -115 132
q-48 0 -76.5 -27.5t-28.5 -70.5v-144q0 -43 29 -70.5t76 -27.5q115 0 115 132v76z"/>
            <glyph glyph-name="Hcircumflex" unicode="&#x124;" horiz-adv-x="699"
                   d="M348 805l-47 -58h-101l79 122h139l80 -122h-103zM485 0v291h-271v-291h-130v680h130v-279h271v279h130v-680h-130z"/>
            <glyph glyph-name="hcircumflex" unicode="&#x125;" horiz-adv-x="591"
                   d="M296 805l-47 -58h-101l79 122h139l80 -122h-103zM201 0h-125v680h125v-244q49 86 151 86q84 0 125.5 -49t41.5 -139v-334h-125v325q0 95 -83 95q-51 0 -80.5 -34.5t-29.5 -90.5v-295z"/>
            <glyph glyph-name="Hbar" unicode="&#x126;" horiz-adv-x="746"
                   d="M35 477v96h72v107h130v-107h271v107h130v-107h73v-96h-73v-477h-130v291h-271v-291h-130v477h-72zM237 401h271v76h-271v-76z"/>
            <glyph glyph-name="hbar" unicode="&#x127;" horiz-adv-x="591"
                   d="M76 0v553h-103v83h103v44h125v-44h140v-83h-140v-117q49 86 151 86q84 0 125.5 -49t41.5 -139v-334h-125v325q0 95 -83 95q-51 0 -80.5 -34.5t-29.5 -90.5v-295h-125z"/>
            <glyph glyph-name="Itilde" unicode="&#x128;" horiz-adv-x="298"
                   d="M245 861h70q0 -51 -25.5 -82t-73.5 -31q-28 0 -73 22t-57 22q-32 0 -32 -36h-70q0 51 25.5 82t73.5 31q28 0 72.5 -22t57.5 -22q32 0 32 36zM84 0v680h130v-680h-130z"/>
            <glyph glyph-name="itilde" unicode="&#x129;" horiz-adv-x="277"
                   d="M234 687h70q0 -51 -25.5 -82t-73.5 -31q-27 0 -72.5 22t-57.5 22q-32 0 -32 -36h-70q0 51 25.5 82t73.5 31q28 0 73 -22t57 -22q32 0 32 36zM201 0h-125v510h125v-510z"/>
            <glyph glyph-name="Imacron" unicode="&#x12a;" horiz-adv-x="298"
                   d="M-10 775v79h319v-79h-319zM84 0v680h130v-680h-130z"/>
            <glyph glyph-name="imacron" unicode="&#x12b;" horiz-adv-x="277"
                   d="M-21 601v79h319v-79h-319zM201 0h-125v510h125v-510z"/>
            <glyph glyph-name="Ibreve" unicode="&#x12c;" horiz-adv-x="298"
                   d="M4 869h80q0 -26 18 -42.5t47 -16.5t47 16.5t18 42.5h80q0 -60 -40.5 -97.5t-104.5 -37.5t-104.5 37.5t-40.5 97.5zM84 0v680h130v-680h-130z"/>
            <glyph glyph-name="ibreve" unicode="&#x12d;" horiz-adv-x="277"
                   d="M-7 695h80q0 -26 18 -42.5t47 -16.5t47 16.5t18 42.5h80q0 -60 -40.5 -97.5t-104.5 -37.5t-104.5 37.5t-40.5 97.5zM201 0h-125v510h125v-510z"/>
            <glyph glyph-name="Iogonek" unicode="&#x12e;" horiz-adv-x="298"
                   d="M84 0v680h130v-680h-130zM225 -95v-75h-164v75l74 65h79l-69 -65h80z"/>
            <glyph glyph-name="iogonek" unicode="&#x12f;" horiz-adv-x="277"
                   d="M203 680v-111h-129v111h129zM201 0h-125v510h125v-510zM211 -95v-75h-164v75l74 65h79l-69 -65h80z"/>
            <glyph glyph-name="Idotaccent" unicode="&#x130;" horiz-adv-x="298"
                   d="M208 869v-108h-118v108h118zM84 0v680h130v-680h-130z"/>
            <glyph glyph-name="dotlessi" unicode="&#x131;" horiz-adv-x="277"
                   d="M201 0h-125v510h125v-510z"/>
            <glyph glyph-name="IJ" unicode="&#x132;" horiz-adv-x="720"
                   d="M84 0v680h130v-680h-130zM636 680v-680h-339v110h209v570h130z"/>
            <glyph glyph-name="ij" unicode="&#x133;" horiz-adv-x="568"
                   d="M203 680v-111h-129v111h129zM494 680v-111h-129v111h129zM201 0h-125v510h125v-510zM367 -73v583h125v-680h-263v97h138z"/>
            <glyph glyph-name="Jcircumflex" unicode="&#x134;" horiz-adv-x="443"
                   d="M293 805l-47 -58h-101l79 122h139l80 -122h-103zM359 680v-680h-339v110h209v570h130z"/>
            <glyph glyph-name="jcircumflex" unicode="&#x135;" horiz-adv-x="289"
                   d="M149 631l-47 -58h-101l79 122h139l80 -122h-103zM88 -73v583h125v-680h-263v97h138z"/>
            <glyph glyph-name="uni0136" unicode="&#x136;" horiz-adv-x="636"
                   d="M478 0l-262 363l245 317h153l-255 -317l269 -363h-150zM214 680v-680h-130v680h130zM400 -45v-112l-53 -94h-47l50 94h-63v112h113z"/>
            <glyph glyph-name="uni0137" unicode="&#x137;" horiz-adv-x="546"
                   d="M201 680v-680h-125v680h125zM399 0l-196 280l171 230h148l-182 -230l198 -280h-139zM361 -45v-112l-53 -94h-47l50 94h-63v112h113z"/>
            <glyph glyph-name="kgreenlandic" unicode="&#x138;" horiz-adv-x="546"
                   d="M399 0l-196 280l171 230h148l-182 -230l198 -280h-139zM201 510v-510h-125v510h125z"/>
            <glyph glyph-name="Lacute" unicode="&#x139;" horiz-adv-x="522"
                   d="M87 747l74 122h140l-111 -122h-103zM84 0v680h130v-570h288v-110h-418z"/>
            <glyph glyph-name="lacute" unicode="&#x13a;" horiz-adv-x="277"
                   d="M76 747l74 122h140l-111 -122h-103zM201 0h-125v680h125v-680z"/>
            <glyph glyph-name="uni013B" unicode="&#x13b;" horiz-adv-x="522"
                   d="M84 0v680h130v-570h288v-110h-418zM347 -45v-112l-53 -94h-47l50 94h-63v112h113z"/>
            <glyph glyph-name="uni013C" unicode="&#x13c;" horiz-adv-x="277"
                   d="M201 0h-125v680h125v-680zM195 -45v-112l-53 -94h-47l50 94h-63v112h113z"/>
            <glyph glyph-name="Lcaron" unicode="&#x13d;" horiz-adv-x="526"
                   d="M84 0v680h130v-570h288v-110h-418zM309 528l29 152h117l-66 -152h-80z"/>
            <glyph glyph-name="lcaron" unicode="&#x13e;" horiz-adv-x="277"
                   d="M201 0h-125v680h125v-680zM258 528l29 152h117l-66 -152h-80z"/>
            <glyph glyph-name="Ldot" unicode="&#x13f;" horiz-adv-x="528"
                   d="M84 0v680h130v-570h288v-110h-418zM451 439v-108h-118v108h118z"/>
            <glyph glyph-name="ldot" unicode="&#x140;" horiz-adv-x="331"
                   d="M201 0h-125v680h125v-680zM363 424v-108h-118v108h118z"/>
            <glyph glyph-name="Lslash" unicode="&#x141;" horiz-adv-x="580"
                   d="M141 0v233l-106 -62v107l106 62v340h130v-265l162 95v-107l-162 -95v-198h288v-110h-418z"/>
            <glyph glyph-name="lslash" unicode="&#x142;" horiz-adv-x="378"
                   d="M343 385l-86 -50v-335h-125v282l-86 -50v103l86 50v295h125v-242l86 50v-103z"/>
            <glyph glyph-name="Nacute" unicode="&#x143;" horiz-adv-x="699"
                   d="M261 747l74 122h140l-111 -122h-103zM482 162h4v518h129v-680h-195l-203 519h-4v-519h-129v680h195z"/>
            <glyph glyph-name="nacute" unicode="&#x144;" horiz-adv-x="591"
                   d="M226 573l74 122h140l-111 -122h-103zM394 0v325q0 95 -83 95q-51 0 -80.5 -34.5t-29.5 -90.5v-295h-125v510h125v-74q49 86 151 86q84 0 125.5 -49t41.5 -139v-334h-125z"/>
            <glyph glyph-name="uni0145" unicode="&#x145;" horiz-adv-x="699"
                   d="M482 162h4v518h129v-680h-195l-203 519h-4v-519h-129v680h195zM403 -45v-112l-53 -94h-47l50 94h-63v112h113z"/>
            <glyph glyph-name="uni0146" unicode="&#x146;" horiz-adv-x="591"
                   d="M394 0v325q0 95 -83 95q-51 0 -80.5 -34.5t-29.5 -90.5v-295h-125v510h125v-74q49 86 151 86q84 0 125.5 -49t41.5 -139v-334h-125zM351 -45v-112l-53 -94h-47l50 94h-63v112h113z"/>
            <glyph glyph-name="Ncaron" unicode="&#x147;" horiz-adv-x="699"
                   d="M301 869l47 -58l47 58h103l-80 -122h-139l-79 122h101zM482 162h4v518h129v-680h-195l-203 519h-4v-519h-129v680h195z"/>
            <glyph glyph-name="ncaron" unicode="&#x148;" horiz-adv-x="591"
                   d="M249 695l47 -58l47 58h103l-80 -122h-139l-79 122h101zM394 0v325q0 95 -83 95q-51 0 -80.5 -34.5t-29.5 -90.5v-295h-125v510h125v-74q49 86 151 86q84 0 125.5 -49t41.5 -139v-334h-125z"/>
            <glyph glyph-name="napostrophe" unicode="&#x149;" horiz-adv-x="636"
                   d="M114 685v-112l-53 -94h-47l50 94h-63v112h113zM439 0v325q0 95 -83 95q-51 0 -80.5 -34.5t-29.5 -90.5v-295h-125v510h125v-74q49 86 151 86q84 0 125.5 -49t41.5 -139v-334h-125z"/>
            <glyph glyph-name="Eng" unicode="&#x14a;" horiz-adv-x="699"
                   d="M84 0v680h130l268 -445h4v445h129v-850h-289v110h159v60l-268 446h-4v-446h-129z"/>
            <glyph glyph-name="eng" unicode="&#x14b;" horiz-adv-x="591"
                   d="M519 334v-504h-263v97h138v398q0 95 -83 95q-51 0 -80.5 -34.5t-29.5 -90.5v-295h-125v510h125v-74q49 86 151 86q84 0 125.5 -49t41.5 -139z"/>
            <glyph glyph-name="Omacron" unicode="&#x14c;" horiz-adv-x="716"
                   d="M200 775v79h319v-79h-319zM661 340q0 -173 -79 -264t-224 -91t-224 91t-79 264t79 264t224 91t224 -91t79 -264zM358 95q70 0 116.5 37.5t46.5 102.5v210q0 65 -46.5 102.5t-116.5 37.5t-116.5 -37.5t-46.5 -102.5v-210q0 -65 46.5 -102.5t116.5 -37.5z"/>
            <glyph glyph-name="omacron" unicode="&#x14d;" horiz-adv-x="578"
                   d="M130 601v79h319v-79h-319zM289 -12q-113 0 -176 72.5t-63 194.5t63 194.5t176 72.5t176 -72.5t63 -194.5t-63 -194.5t-176 -72.5zM398 181v148q0 45 -30.5 70.5t-78.5 25.5t-78.5 -25.5t-30.5 -70.5v-148q0 -45 30.5 -70.5t78.5 -25.5t78.5 25.5t30.5 70.5z"/>
            <glyph glyph-name="Obreve" unicode="&#x14e;" horiz-adv-x="716"
                   d="M210 869h80q0 -26 18 -42.5t47 -16.5t47 16.5t18 42.5h80q0 -60 -40.5 -97.5t-104.5 -37.5t-104.5 37.5t-40.5 97.5zM661 340q0 -173 -79 -264t-224 -91t-224 91t-79 264t79 264t224 91t224 -91t79 -264zM358 95q70 0 116.5 37.5t46.5 102.5v210q0 65 -46.5 102.5
t-116.5 37.5t-116.5 -37.5t-46.5 -102.5v-210q0 -65 46.5 -102.5t116.5 -37.5z"/>
            <glyph glyph-name="obreve" unicode="&#x14f;" horiz-adv-x="578"
                   d="M144 695h80q0 -26 18 -42.5t47 -16.5t47 16.5t18 42.5h80q0 -60 -40.5 -97.5t-104.5 -37.5t-104.5 37.5t-40.5 97.5zM289 -12q-113 0 -176 72.5t-63 194.5t63 194.5t176 72.5t176 -72.5t63 -194.5t-63 -194.5t-176 -72.5zM398 181v148q0 45 -30.5 70.5t-78.5 25.5
t-78.5 -25.5t-30.5 -70.5v-148q0 -45 30.5 -70.5t78.5 -25.5t78.5 25.5t30.5 70.5z"/>
            <glyph glyph-name="Ohungarumlaut" unicode="&#x150;" horiz-adv-x="716"
                   d="M216 747l69 122h140l-106 -122h-103zM409 747l69 122h140l-106 -122h-103zM661 340q0 -173 -79 -264t-224 -91t-224 91t-79 264t79 264t224 91t224 -91t79 -264zM358 95q70 0 116.5 37.5t46.5 102.5v210q0 65 -46.5 102.5t-116.5 37.5t-116.5 -37.5t-46.5 -102.5v-210
q0 -65 46.5 -102.5t116.5 -37.5z"/>
            <glyph glyph-name="ohungarumlaut" unicode="&#x151;" horiz-adv-x="578"
                   d="M141 573l69 122h140l-106 -122h-103zM334 573l69 122h140l-106 -122h-103zM289 -12q-113 0 -176 72.5t-63 194.5t63 194.5t176 72.5t176 -72.5t63 -194.5t-63 -194.5t-176 -72.5zM398 181v148q0 45 -30.5 70.5t-78.5 25.5t-78.5 -25.5t-30.5 -70.5v-148q0 -45 30.5 -70.5
t78.5 -25.5t78.5 25.5t30.5 70.5z"/>
            <glyph glyph-name="OE" unicode="&#x152;" horiz-adv-x="1047"
                   d="M358 -15q-145 0 -224 91t-79 264t79 264t224 91q95 0 163 -43v28h468v-110h-338v-167h292v-110h-292v-183h338v-110h-468v28q-68 -43 -163 -43zM358 95q70 0 116.5 37.5t46.5 102.5v210q0 65 -46.5 102.5t-116.5 37.5t-116.5 -37.5t-46.5 -102.5v-210q0 -65 46.5 -102.5
t116.5 -37.5z"/>
            <glyph glyph-name="oe" unicode="&#x153;" horiz-adv-x="918"
                   d="M638 -12q-108 0 -171 77q-63 -77 -178 -77q-113 0 -176 72.5t-63 194.5t63 194.5t176 72.5q118 0 180 -78q64 78 169 78q102 0 165 -69t63 -175v-63h-328v-34q0 -44 29.5 -70t71.5 -26q41 0 67.5 21.5t30.5 60.5h125q-12 -84 -71.5 -131.5t-152.5 -47.5zM398 181v148
q0 45 -30.5 70.5t-78.5 25.5t-78.5 -25.5t-30.5 -70.5v-148q0 -45 30.5 -70.5t78.5 -25.5t78.5 25.5t30.5 70.5zM638 425q-43 0 -71.5 -27t-28.5 -68v-18h200v18q0 41 -28.5 68t-71.5 27z"/>
            <glyph glyph-name="Racute" unicode="&#x154;" horiz-adv-x="632"
                   d="M252 748l74 122h140l-111 -122h-103zM297 261h-83v-261h-130v680h277q108 0 161 -52q52 -51 52 -158q0 -79 -39 -130q-36 -48 -107 -68l156 -272h-144zM214 368h164q61 0 61 68v70q0 34 -14 49t-47 15h-164v-202z"/>
            <glyph glyph-name="racute" unicode="&#x155;" horiz-adv-x="386"
                   d="M147 573l74 122h140l-111 -122h-103zM76 0v510h285v-98h-160v-412h-125z"/>
            <glyph glyph-name="uni0156" unicode="&#x156;" horiz-adv-x="632"
                   d="M297 261h-83v-261h-130v680h277q108 0 161 -52q52 -51 52 -158q0 -79 -39 -130q-36 -48 -107 -68l156 -272h-144zM214 368h164q61 0 61 68v70q0 34 -14 49t-47 15h-164v-202zM380 -45v-112l-53 -94h-47l50 94h-63v112h113z"/>
            <glyph glyph-name="uni0157" unicode="&#x157;" horiz-adv-x="386"
                   d="M76 0v510h285v-98h-160v-412h-125zM195 -45v-112l-53 -94h-47l50 94h-63v112h113z"/>
            <glyph glyph-name="Rcaron" unicode="&#x158;" horiz-adv-x="632"
                   d="M256 870l47 -58l47 58h103l-80 -122h-139l-79 122h101zM297 261h-83v-261h-130v680h277q108 0 161 -52q52 -51 52 -158q0 -79 -39 -130q-36 -48 -107 -68l156 -272h-144zM214 368h164q61 0 61 68v70q0 34 -14 49t-47 15h-164v-202z"/>
            <glyph glyph-name="rcaron" unicode="&#x159;" horiz-adv-x="386"
                   d="M170 695l47 -58l47 58h103l-80 -122h-139l-79 122h101zM76 0v510h285v-98h-160v-412h-125z"/>
            <glyph glyph-name="Sacute" unicode="&#x15a;" horiz-adv-x="625"
                   d="M237 747l74 122h140l-111 -122h-103zM307 588q-54 0 -85 -21.5t-31 -58.5q0 -38 23 -59t74 -34l116 -30q89 -23 132.5 -70.5t43.5 -129.5q0 -93 -72 -146.5t-191 -53.5q-121 0 -194 52.5t-82 165.5h130q15 -111 144 -111q59 0 97 24.5t38 67.5q0 67 -91 91l-133 35
q-165 43 -165 197q0 83 67.5 135.5t180.5 52.5q109 0 176.5 -51t77.5 -154h-130q-10 98 -126 98z"/>
            <glyph glyph-name="sacute" unicode="&#x15b;" horiz-adv-x="514"
                   d="M178 573l74 122h140l-111 -122h-103zM260 -12q-101 0 -157 45.5t-60 128.5h125q8 -77 92 -77q38 0 62.5 14.5t24.5 41.5q0 26 -19 39t-57 21l-88 19q-128 28 -128 146q0 67 53.5 111.5t144.5 44.5q89 0 143.5 -43.5t58.5 -125.5h-125q-1 35 -22 53.5t-55 18.5
q-33 0 -53 -14.5t-20 -38.5q0 -42 56 -54l101 -22q135 -30 135 -149q0 -69 -56.5 -114t-155.5 -45z"/>
            <glyph glyph-name="Scircumflex" unicode="&#x15c;" horiz-adv-x="625"
                   d="M310 805l-47 -58h-101l79 122h139l80 -122h-103zM307 588q-54 0 -85 -21.5t-31 -58.5q0 -38 23 -59t74 -34l116 -30q89 -23 132.5 -70.5t43.5 -129.5q0 -93 -72 -146.5t-191 -53.5q-121 0 -194 52.5t-82 165.5h130q15 -111 144 -111q59 0 97 24.5t38 67.5q0 67 -91 91
l-133 35q-165 43 -165 197q0 83 67.5 135.5t180.5 52.5q109 0 176.5 -51t77.5 -154h-130q-10 98 -126 98z"/>
            <glyph glyph-name="scircumflex" unicode="&#x15d;" horiz-adv-x="514"
                   d="M252 631l-47 -58h-101l79 122h139l80 -122h-103zM260 -12q-101 0 -157 45.5t-60 128.5h125q8 -77 92 -77q38 0 62.5 14.5t24.5 41.5q0 26 -19 39t-57 21l-88 19q-128 28 -128 146q0 67 53.5 111.5t144.5 44.5q89 0 143.5 -43.5t58.5 -125.5h-125q-1 35 -22 53.5t-55 18.5
q-33 0 -53 -14.5t-20 -38.5q0 -42 56 -54l101 -22q135 -30 135 -149q0 -69 -56.5 -114t-155.5 -45z"/>
            <glyph glyph-name="Scedilla" unicode="&#x15e;" horiz-adv-x="625"
                   d="M307 588q-54 0 -85 -21.5t-31 -58.5q0 -38 23 -59t74 -34l116 -30q89 -23 132.5 -70.5t43.5 -129.5q0 -93 -72 -146.5t-191 -53.5q-121 0 -194 52.5t-82 165.5h130q15 -111 144 -111q59 0 97 24.5t38 67.5q0 67 -91 91l-133 35q-165 43 -165 197q0 83 67.5 135.5
t180.5 52.5q109 0 176.5 -51t77.5 -154h-130q-10 98 -126 98zM199 -169v75h76v62h85v-137h-161z"/>
            <glyph glyph-name="scedilla" unicode="&#x15f;" horiz-adv-x="514"
                   d="M260 -12q-101 0 -157 45.5t-60 128.5h125q8 -77 92 -77q38 0 62.5 14.5t24.5 41.5q0 26 -19 39t-57 21l-88 19q-128 28 -128 146q0 67 53.5 111.5t144.5 44.5q89 0 143.5 -43.5t58.5 -125.5h-125q-1 35 -22 53.5t-55 18.5q-33 0 -53 -14.5t-20 -38.5q0 -42 56 -54
l101 -22q135 -30 135 -149q0 -69 -56.5 -114t-155.5 -45zM142 -170v75h76v62h85v-137h-161z"/>
            <glyph glyph-name="Scaron" unicode="&#x160;" horiz-adv-x="625"
                   d="M263 869l47 -58l47 58h103l-80 -122h-139l-79 122h101zM307 588q-54 0 -85 -21.5t-31 -58.5q0 -38 23 -59t74 -34l116 -30q89 -23 132.5 -70.5t43.5 -129.5q0 -93 -72 -146.5t-191 -53.5q-121 0 -194 52.5t-82 165.5h130q15 -111 144 -111q59 0 97 24.5t38 67.5
q0 67 -91 91l-133 35q-165 43 -165 197q0 83 67.5 135.5t180.5 52.5q109 0 176.5 -51t77.5 -154h-130q-10 98 -126 98z"/>
            <glyph glyph-name="scaron" unicode="&#x161;" horiz-adv-x="514"
                   d="M205 695l47 -58l47 58h103l-80 -122h-139l-79 122h101zM260 -12q-101 0 -157 45.5t-60 128.5h125q8 -77 92 -77q38 0 62.5 14.5t24.5 41.5q0 26 -19 39t-57 21l-88 19q-128 28 -128 146q0 67 53.5 111.5t144.5 44.5q89 0 143.5 -43.5t58.5 -125.5h-125q-1 35 -22 53.5
t-55 18.5q-33 0 -53 -14.5t-20 -38.5q0 -42 56 -54l101 -22q135 -30 135 -149q0 -69 -56.5 -114t-155.5 -45z"/>
            <glyph glyph-name="uni0162" unicode="&#x162;" horiz-adv-x="566"
                   d="M20 570v110h526v-110h-198v-570h-130v570h-198zM164 -169v75h76v62h85v-137h-161z"/>
            <glyph glyph-name="uni0163" unicode="&#x163;" horiz-adv-x="422"
                   d="M129 0v413h-101v97h101v170h125v-170h127v-97h-127v-316h127v-97h-252zM137 -170v75h76v62h85v-137h-161z"/>
            <glyph glyph-name="Tcaron" unicode="&#x164;" horiz-adv-x="566"
                   d="M235 869l47 -58l47 58h103l-80 -122h-139l-79 122h101zM20 570v110h526v-110h-198v-570h-130v570h-198z"/>
            <glyph glyph-name="tcaron" unicode="&#x165;" horiz-adv-x="422"
                   d="M320 578l29 152h117l-66 -152h-80zM129 0v413h-101v97h101v170h125v-170h127v-97h-127v-316h127v-97h-252z"/>
            <glyph glyph-name="Tbar" unicode="&#x166;" horiz-adv-x="596"
                   d="M84 280v96h149v194h-198v110h526v-110h-198v-194h148v-96h-148v-280h-130v280h-149z"/>
            <glyph glyph-name="tbar" unicode="&#x167;" horiz-adv-x="436"
                   d="M139 0v216h-101v79h101v118h-101v97h101v170h125v-170h127v-97h-127v-118h127v-79h-127v-119h127v-97h-252z"/>
            <glyph glyph-name="Utilde" unicode="&#x168;" horiz-adv-x="688"
                   d="M440 861h70q0 -51 -25.5 -82t-73.5 -31q-27 0 -72 22t-58 22q-32 0 -32 -36h-70q0 51 25.5 82t73.5 31q28 0 73 -22t57 -22q32 0 32 36zM481 237v443h129v-438q0 -119 -71.5 -188t-194.5 -69q-124 0 -195 69t-71 188v438h130v-443q0 -67 35 -104.5t101 -37.5q67 0 102 37
t35 105z"/>
            <glyph glyph-name="utilde" unicode="&#x169;" horiz-adv-x="587"
                   d="M387 687h70q0 -51 -25.5 -82t-73.5 -31q-28 0 -72.5 22t-57.5 22q-32 0 -32 -36h-70q0 51 25.5 82t73.5 31q27 0 72 -22t58 -22q32 0 32 36zM386 0v74q-48 -86 -150 -86q-81 0 -122.5 49t-41.5 139v334h125v-325q0 -95 80 -95q50 0 79.5 34.5t29.5 90.5v295h125v-510
h-125z"/>
            <glyph glyph-name="Umacron" unicode="&#x16a;" horiz-adv-x="688"
                   d="M185 775v79h319v-79h-319zM481 237v443h129v-438q0 -119 -71.5 -188t-194.5 -69q-124 0 -195 69t-71 188v438h130v-443q0 -67 35 -104.5t101 -37.5q67 0 102 37t35 105z"/>
            <glyph glyph-name="umacron" unicode="&#x16b;" horiz-adv-x="587"
                   d="M132 601v79h319v-79h-319zM386 0v74q-48 -86 -150 -86q-81 0 -122.5 49t-41.5 139v334h125v-325q0 -95 80 -95q50 0 79.5 34.5t29.5 90.5v295h125v-510h-125z"/>
            <glyph glyph-name="Ubreve" unicode="&#x16c;" horiz-adv-x="688"
                   d="M199 869h80q0 -26 18 -42.5t47 -16.5t47 16.5t18 42.5h80q0 -60 -40.5 -97.5t-104.5 -37.5t-104.5 37.5t-40.5 97.5zM481 237v443h129v-438q0 -119 -71.5 -188t-194.5 -69q-124 0 -195 69t-71 188v438h130v-443q0 -67 35 -104.5t101 -37.5q67 0 102 37t35 105z"/>
            <glyph glyph-name="ubreve" unicode="&#x16d;" horiz-adv-x="587"
                   d="M146 695h80q0 -26 18 -42.5t47 -16.5t47 16.5t18 42.5h80q0 -60 -40.5 -97.5t-104.5 -37.5t-104.5 37.5t-40.5 97.5zM386 0v74q-48 -86 -150 -86q-81 0 -122.5 49t-41.5 139v334h125v-325q0 -95 80 -95q50 0 79.5 34.5t29.5 90.5v295h125v-510h-125z"/>
            <glyph glyph-name="Uring" unicode="&#x16e;" horiz-adv-x="688"
                   d="M444 833q0 -41 -29.5 -70t-70.5 -29t-71 29t-30 70t29.5 69.5t71.5 28.5q41 0 70.5 -28.5t29.5 -69.5zM384 833q0 17 -11.5 28.5t-28.5 11.5t-29 -11.5t-12 -28.5t12 -29t29 -12t28.5 12t11.5 29zM481 237v443h129v-438q0 -119 -71.5 -188t-194.5 -69q-124 0 -195 69
t-71 188v438h130v-443q0 -67 35 -104.5t101 -37.5q67 0 102 37t35 105z"/>
            <glyph glyph-name="uring" unicode="&#x16f;" horiz-adv-x="587"
                   d="M391 659q0 -41 -29.5 -70t-70.5 -29t-71 29t-30 70t29.5 69.5t71.5 28.5q41 0 70.5 -28.5t29.5 -69.5zM331 659q0 17 -11.5 28.5t-28.5 11.5t-29 -11.5t-12 -28.5t12 -29t29 -12t28.5 12t11.5 29zM386 0v74q-48 -86 -150 -86q-81 0 -122.5 49t-41.5 139v334h125v-325
q0 -95 80 -95q50 0 79.5 34.5t29.5 90.5v295h125v-510h-125z"/>
            <glyph glyph-name="Uhungarumlaut" unicode="&#x170;" horiz-adv-x="688"
                   d="M176 747l69 122h140l-106 -122h-103zM369 747l69 122h140l-106 -122h-103zM481 237v443h129v-438q0 -119 -71.5 -188t-194.5 -69q-124 0 -195 69t-71 188v438h130v-443q0 -67 35 -104.5t101 -37.5q67 0 102 37t35 105z"/>
            <glyph glyph-name="uhungarumlaut" unicode="&#x171;" horiz-adv-x="587"
                   d="M143 573l69 122h140l-106 -122h-103zM336 573l69 122h140l-106 -122h-103zM386 0v74q-48 -86 -150 -86q-81 0 -122.5 49t-41.5 139v334h125v-325q0 -95 80 -95q50 0 79.5 34.5t29.5 90.5v295h125v-510h-125z"/>
            <glyph glyph-name="Uogonek" unicode="&#x172;" horiz-adv-x="688"
                   d="M481 237v443h129v-438q0 -119 -71.5 -188t-194.5 -69q-124 0 -195 69t-71 188v438h130v-443q0 -67 35 -104.5t101 -37.5q67 0 102 37t35 105zM445 -94v-75h-164v75l74 65h79l-69 -65h80z"/>
            <glyph glyph-name="uogonek" unicode="&#x173;" horiz-adv-x="587"
                   d="M386 0v74q-48 -86 -150 -86q-81 0 -122.5 49t-41.5 139v334h125v-325q0 -95 80 -95q50 0 79.5 34.5t29.5 90.5v295h125v-510h-125zM509 -95v-75h-164v75l74 65h79l-69 -65h80z"/>
            <glyph glyph-name="Wcircumflex" unicode="&#x174;" horiz-adv-x="949"
                   d="M473 805l-47 -58h-101l79 122h139l80 -122h-103zM195 0l-165 680h145l105 -540h4l102 540h177l102 -540h4l107 540h142l-164 -680h-177l-101 533h-4l-102 -533h-175z"/>
            <glyph glyph-name="wcircumflex" unicode="&#x175;" horiz-adv-x="790"
                   d="M394 631l-47 -58h-101l79 122h139l80 -122h-103zM474 0l-77 370h-4l-77 -370h-151l-142 510h140l74 -370h4l75 370h156l77 -370h4l76 370h138l-142 -510h-151z"/>
            <glyph glyph-name="Ycircumflex" unicode="&#x176;" horiz-adv-x="636"
                   d="M317 805l-47 -58h-101l79 122h139l80 -122h-103zM253 266l-227 414h147l146 -282l146 282h145l-227 -414v-266h-130v266z"/>
            <glyph glyph-name="ycircumflex" unicode="&#x177;" horiz-adv-x="537"
                   d="M268 631l-47 -58h-101l79 122h139l80 -122h-103zM271 -170h-218v97h128l25 73l-184 510h134l111 -364h4l114 364h132z"/>
            <glyph glyph-name="Ydieresis" unicode="&#x178;" horiz-adv-x="636"
                   d="M274 869v-108h-118v108h118zM480 869v-108h-118v108h118zM253 266l-227 414h147l146 -282l146 282h145l-227 -414v-266h-130v266z"/>
            <glyph glyph-name="Zacute" unicode="&#x179;" horiz-adv-x="606"
                   d="M235 747l74 122h140l-111 -122h-103zM555 680v-108l-350 -462h348v-110h-507v108l348 462h-332v110h493z"/>
            <glyph glyph-name="zacute" unicode="&#x17a;" horiz-adv-x="512"
                   d="M189 573l74 122h140l-111 -122h-103zM465 0h-421v97l261 316h-243v97h396v-97l-264 -316h271v-97z"/>
            <glyph glyph-name="Zdotaccent" unicode="&#x17b;" horiz-adv-x="606"
                   d="M367 869v-108h-118v108h118zM555 680v-108l-350 -462h348v-110h-507v108l348 462h-332v110h493z"/>
            <glyph glyph-name="zdotaccent" unicode="&#x17c;" horiz-adv-x="512"
                   d="M319 695v-108h-118v108h118zM465 0h-421v97l261 316h-243v97h396v-97l-264 -316h271v-97z"/>
            <glyph glyph-name="Zcaron" unicode="&#x17d;" horiz-adv-x="606"
                   d="M255 869l47 -58l47 58h103l-80 -122h-139l-79 122h101zM555 680v-108l-350 -462h348v-110h-507v108l348 462h-332v110h493z"/>
            <glyph glyph-name="zcaron" unicode="&#x17e;" horiz-adv-x="512"
                   d="M212 695l47 -58l47 58h103l-80 -122h-139l-79 122h101zM465 0h-421v97l261 316h-243v97h396v-97l-264 -316h271v-97z"/>
            <glyph glyph-name="uni018F" unicode="&#x18f;" horiz-adv-x="716"
                   d="M358 -15q-145 0 -224.5 91t-79.5 264v57h467v48q0 65 -46.5 102.5t-116.5 37.5q-61 0 -104.5 -28.5t-53.5 -79.5h-131q13 98 94 158t195 60q145 0 224 -91t79 -264t-79 -264t-224 -91zM195 235q0 -65 46.5 -102.5t116.5 -37.5t116.5 37.5t46.5 102.5v51h-326v-51z"/>
            <glyph glyph-name="florin" unicode="&#x192;"
                   d="M156 329v104h115l50 247h244v-104h-144l-29 -143h142v-104h-163l-100 -499h-243v104h144l78 395h-94z"/>
            <glyph glyph-name="Aringacute" unicode="&#x1fa;" horiz-adv-x="641"
                   d="M265 922l74 122h140l-111 -122h-103zM421 803q0 -41 -29.5 -70t-70.5 -29t-71 29t-30 70t29.5 69.5t71.5 28.5q41 0 70.5 -28.5t29.5 -69.5zM361 803q0 17 -11.5 28.5t-28.5 11.5t-29 -11.5t-12 -28.5t12 -29t29 -12t28.5 12t11.5 29zM481 0l-45 145h-232l-44 -145h-140
l232 680h138l231 -680h-140zM403 255l-79 268h-4l-82 -268h165z"/>
            <glyph glyph-name="aringacute" unicode="&#x1fb;" horiz-adv-x="568"
                   d="M223 754l74 122h140l-111 -122h-103zM379 635q0 -41 -29.5 -70t-70.5 -29t-71 29t-30 70t29.5 69.5t71.5 28.5q41 0 70.5 -28.5t29.5 -69.5zM319 635q0 17 -11.5 28.5t-28.5 11.5t-29 -11.5t-12 -28.5t12 -29t29 -12t28.5 12t11.5 29zM207 -12q-69 0 -115 44t-46 113
q0 63 44.5 107.5t122.5 51.5l141 12v33q0 76 -80 76q-39 0 -62.5 -19t-23.5 -53h-125q3 81 62.5 125t153.5 44q93 0 145.5 -45.5t52.5 -129.5v-250h86v-97h-198v79h-4q-47 -91 -154 -91zM251 85q47 0 75 33.5t28 82.5v20l-150 -13q-28 -3 -28 -33v-44q0 -22 20.5 -34
t54.5 -12z"/>
            <glyph glyph-name="AEacute" unicode="&#x1fc;" horiz-adv-x="961"
                   d="M530 747l74 122h140l-111 -122h-103zM329 680h574v-110h-311v-167h265v-110h-265v-183h311v-110h-441v145h-257l-70 -145h-141zM412 570l-153 -315h203v315h-50z"/>
            <glyph glyph-name="aeacute" unicode="&#x1fd;" horiz-adv-x="852"
                   d="M372 573l74 122h140l-111 -122h-103zM575 -12q-101 0 -160 71h-2q-68 -71 -179 -71q-83 0 -134 45q-52 46 -52 122q0 69 44 113t113 44h151v37q0 76 -80 76q-39 0 -62.5 -19t-23.5 -53h-125q3 81 62.5 125t153.5 44q101 0 153 -58q51 58 141 58q101 0 162.5 -69
t61.5 -175v-63h-320v-34q0 -44 28 -70t69 -26q39 0 64.5 21.5t29.5 60.5h125q-12 -84 -70.5 -131.5t-149.5 -47.5zM575 425q-42 0 -69 -27t-27 -68v-18h192v18q0 41 -27 68t-69 27zM253 85q47 0 75 33.5t28 82.5v15h-148q-30 0 -30 -33v-52q0 -22 20.5 -34t54.5 -12z"/>
            <glyph glyph-name="Oslashacute" unicode="&#x1fe;" horiz-adv-x="716"
                   d="M307 747l74 122h140l-111 -122h-103zM661 340q0 -173 -79 -264t-224 -91q-66 0 -117 18l-38 -76l-75 36l40 80q-113 90 -113 297q0 173 79 264t224 91q67 0 124 -22l40 80l75 -36l-43 -86q107 -90 107 -291zM195 235q0 -48 27 -83l210 420q-32 13 -74 13
q-70 0 -116.5 -37.5t-46.5 -102.5v-210zM358 95q70 0 116.5 37.5t46.5 102.5v210q0 43 -22 76l-208 -416q30 -10 67 -10z"/>
            <glyph glyph-name="oslashacute" unicode="&#x1ff;" horiz-adv-x="578"
                   d="M218 573l74 122h140l-111 -122h-103zM470 551l-36 -73q94 -71 94 -223q0 -122 -63 -194.5t-176 -72.5q-45 0 -87 13l-38 -79l-77 34l42 87q-79 71 -79 212q0 122 63 194.5t176 72.5q37 0 69 -9l35 72zM183 154l131 269q-16 2 -25 2q-48 0 -78.5 -25.5t-30.5 -70.5v-148
q0 -15 3 -27zM385 378l-139 -287q19 -6 43 -6q48 0 78.5 25.5t30.5 70.5v148q0 26 -13 49z"/>
            <glyph glyph-name="uni0218" unicode="&#x218;" horiz-adv-x="625"
                   d="M307 588q-54 0 -85 -21.5t-31 -58.5q0 -38 23 -59t74 -34l116 -30q89 -23 132.5 -70.5t43.5 -129.5q0 -93 -72 -146.5t-191 -53.5q-121 0 -194 52.5t-82 165.5h130q15 -111 144 -111q59 0 97 24.5t38 67.5q0 67 -91 91l-133 35q-165 43 -165 197q0 83 67.5 135.5
t180.5 52.5q109 0 176.5 -51t77.5 -154h-130q-10 98 -126 98zM371 -46v-112l-53 -94h-47l50 94h-63v112h113z"/>
            <glyph glyph-name="uni0219" unicode="&#x219;" horiz-adv-x="514"
                   d="M260 -12q-101 0 -157 45.5t-60 128.5h125q8 -77 92 -77q38 0 62.5 14.5t24.5 41.5q0 26 -19 39t-57 21l-88 19q-128 28 -128 146q0 67 53.5 111.5t144.5 44.5q89 0 143.5 -43.5t58.5 -125.5h-125q-1 35 -22 53.5t-55 18.5q-33 0 -53 -14.5t-20 -38.5q0 -42 56 -54
l101 -22q135 -30 135 -149q0 -69 -56.5 -114t-155.5 -45zM314 -45v-112l-53 -94h-47l50 94h-63v112h113z"/>
            <glyph glyph-name="uni021A" unicode="&#x21a;" horiz-adv-x="566"
                   d="M20 570v110h526v-110h-198v-570h-130v570h-198zM337 -45v-112l-53 -94h-47l50 94h-63v112h113z"/>
            <glyph glyph-name="uni021B" unicode="&#x21b;" horiz-adv-x="422"
                   d="M129 0v413h-101v97h101v170h125v-170h127v-97h-127v-316h127v-97h-252zM309 -45v-112l-53 -94h-47l50 94h-63v112h113z"/>
            <glyph glyph-name="uni0237" unicode="&#x237;" horiz-adv-x="289"
                   d="M88 -73v583h125v-680h-263v97h138z"/>
            <glyph glyph-name="uni0259" unicode="&#x259;" horiz-adv-x="560"
                   d="M280 522q107 0 168.5 -73t61.5 -195q0 -120 -63 -193t-167 -73q-102 0 -165 69t-63 175v63h328v34q0 44 -29.5 70t-71.5 26q-41 0 -67.5 -21.5t-30.5 -60.5h-125q12 84 71.5 131.5t152.5 47.5zM180 198v-18q0 -41 28.5 -68t71.5 -27t71.5 27t28.5 68v18h-200z"/>
            <glyph glyph-name="circumflex" unicode="&#x2c6;" horiz-adv-x="0"
                   d="M-1 631l-47 -58h-101l79 122h139l80 -122h-103z"/>
            <glyph glyph-name="caron" unicode="&#x2c7;" horiz-adv-x="0"
                   d="M-48 695l47 -58l47 58h103l-80 -122h-139l-79 122h101z"/>
            <glyph glyph-name="breve" unicode="&#x2d8;" horiz-adv-x="0"
                   d="M-145 695h80q0 -26 18 -42.5t47 -16.5t47 16.5t18 42.5h80q0 -60 -40.5 -97.5t-104.5 -37.5t-104.5 37.5t-40.5 97.5z"/>
            <glyph glyph-name="dotaccent" unicode="&#x2d9;" horiz-adv-x="0"
                   d="M59 695v-108h-118v108h118z"/>
            <glyph glyph-name="ring" unicode="&#x2da;" horiz-adv-x="0"
                   d="M100 659q0 -41 -29.5 -70t-70.5 -29t-71 29t-30 70t29.5 69.5t71.5 28.5q41 0 70.5 -28.5t29.5 -69.5zM40 659q0 17 -11.5 28.5t-28.5 11.5t-29 -11.5t-12 -28.5t12 -29t29 -12t28.5 12t11.5 29z"/>
            <glyph glyph-name="ogonek" unicode="&#x2db;" horiz-adv-x="0"
                   d="M61 -95v-75h-164v75l74 65h79l-69 -65h80z"/>
            <glyph glyph-name="tilde" unicode="&#x2dc;" horiz-adv-x="0"
                   d="M96 687h70q0 -51 -25.5 -82t-73.5 -31q-27 0 -72.5 22t-57.5 22q-32 0 -32 -36h-70q0 51 25.5 82t73.5 31q28 0 73 -22t57 -22q32 0 32 36z"/>
            <glyph glyph-name="hungarumlaut" unicode="&#x2dd;" horiz-adv-x="0"
                   d="M-148 573l69 122h140l-106 -122h-103zM45 573l69 122h140l-106 -122h-103z"/>
            <glyph glyph-name="uni0312" unicode="&#x312;" horiz-adv-x="0"
                   d="M-58 587v114l54 96h48l-51 -96h64v-114h-115z"/>
            <glyph glyph-name="uni0313" unicode="&#x313;" horiz-adv-x="0"
                   d="M0 528l29 152h117l-66 -152h-80z"/>
            <glyph glyph-name="uni0326" unicode="&#x326;" horiz-adv-x="0"
                   d="M54 -45v-112l-53 -94h-47l50 94h-63v112h113z"/>
            <glyph glyph-name="uni037E" unicode="&#x37e;" horiz-adv-x="284"
                   d="M214 510v-144h-144v144h144zM214 144v-144l-75 -132h-66l72 132h-75v144h144z"/>
            <glyph glyph-name="dieresistonos" unicode="&#x385;" horiz-adv-x="0"
                   d="M-96 573l54 122h140l-91 -122h-103zM-119 695v-108h-118v108h118zM237 695v-108h-118v108h118z"/>
            <glyph glyph-name="anoteleia" unicode="&#x387;" horiz-adv-x="280"
                   d="M212 510v-144h-144v144h144z"/>
            <glyph glyph-name="Pi" unicode="&#x3a0;" horiz-adv-x="685"
                   d="M471 0v570h-257v-570h-130v680h517v-680h-130z"/>
            <glyph glyph-name="Sigma" unicode="&#x3a3;" horiz-adv-x="587"
                   d="M44 0v67l203 271l-202 273v69h490v-110h-321l175 -231l-175 -229h321v-110h-491z"/>
            <glyph glyph-name="uni03A9" unicode="&#x3a9;" horiz-adv-x="670"
                   d="M369 0v240q52 6 83.5 32.5t31.5 69.5v148q0 50 -42 78t-107 28t-107 -28t-42 -78v-148q0 -43 30.5 -69.5t82.5 -32.5v-240h-220v104h110v66q-133 62 -133 246q0 132 74 205.5t205 73.5t205 -73.5t74 -205.5q0 -185 -135 -247v-65h110v-104h-220z"/>
            <glyph glyph-name="pi" unicode="&#x3c0;" horiz-adv-x="691"
                   d="M413 0v406h-158v-406h-125v406h-100v104h608v-104h-100v-304h100v-102h-225z"/>
            <glyph glyph-name="Wgrave" unicode="&#x1e80;" horiz-adv-x="949"
                   d="M470 869l74 -122h-103l-111 122h140zM195 0l-165 680h145l105 -540h4l102 540h177l102 -540h4l107 540h142l-164 -680h-177l-101 533h-4l-102 -533h-175z"/>
            <glyph glyph-name="wgrave" unicode="&#x1e81;" horiz-adv-x="790"
                   d="M393 695l74 -122h-103l-111 122h140zM474 0l-77 370h-4l-77 -370h-151l-142 510h140l74 -370h4l75 370h156l77 -370h4l76 370h138l-142 -510h-151z"/>
            <glyph glyph-name="Wacute" unicode="&#x1e82;" horiz-adv-x="949"
                   d="M405 747l74 122h140l-111 -122h-103zM195 0l-165 680h145l105 -540h4l102 540h177l102 -540h4l107 540h142l-164 -680h-177l-101 533h-4l-102 -533h-175z"/>
            <glyph glyph-name="wacute" unicode="&#x1e83;" horiz-adv-x="790"
                   d="M324 573l74 122h140l-111 -122h-103zM474 0l-77 370h-4l-77 -370h-151l-142 510h140l74 -370h4l75 370h156l77 -370h4l76 370h138l-142 -510h-151z"/>
            <glyph glyph-name="Wdieresis" unicode="&#x1e84;" horiz-adv-x="949"
                   d="M430 869v-108h-118v108h118zM636 869v-108h-118v108h118zM195 0l-165 680h145l105 -540h4l102 540h177l102 -540h4l107 540h142l-164 -680h-177l-101 533h-4l-102 -533h-175z"/>
            <glyph glyph-name="wdieresis" unicode="&#x1e85;" horiz-adv-x="790"
                   d="M351 695v-108h-118v108h118zM557 695v-108h-118v108h118zM474 0l-77 370h-4l-77 -370h-151l-142 510h140l74 -370h4l75 370h156l77 -370h4l76 370h138l-142 -510h-151z"/>
            <glyph glyph-name="uni1E9E" unicode="&#x1e9e;" horiz-adv-x="647"
                   d="M285 0v110h93q41 0 60 16.5t19 53.5v45q0 38 -19 54.5t-61 16.5h-92v95l136 179h-207v-570h-130v680h483v-90l-148 -193h19q74 0 114 -54t40 -132q0 -123 -61 -171q-48 -40 -140 -40h-106z"/>
            <glyph glyph-name="Ygrave" unicode="&#x1ef2;" horiz-adv-x="636"
                   d="M305 869l74 -122h-103l-111 122h140zM253 266l-227 414h147l146 -282l146 282h145l-227 -414v-266h-130v266z"/>
            <glyph glyph-name="ygrave" unicode="&#x1ef3;" horiz-adv-x="537"
                   d="M267 695l74 -122h-103l-111 122h140zM271 -170h-218v97h128l25 73l-184 510h134l111 -364h4l114 364h132z"/>
            <glyph glyph-name="uni2000" unicode="&#x2000;" horiz-adv-x="500"
            />
            <glyph glyph-name="uni2001" unicode="&#x2001;" horiz-adv-x="1000"
            />
            <glyph glyph-name="uni2002" unicode="&#x2002;" horiz-adv-x="500"
            />
            <glyph glyph-name="uni2003" unicode="&#x2003;" horiz-adv-x="1000"
            />
            <glyph glyph-name="uni2004" unicode="&#x2004;" horiz-adv-x="333"
            />
            <glyph glyph-name="uni2005" unicode="&#x2005;" horiz-adv-x="250"
            />
            <glyph glyph-name="uni2006" unicode="&#x2006;" horiz-adv-x="167"
            />
            <glyph glyph-name="uni2007" unicode="&#x2007;"
            />
            <glyph glyph-name="uni2008" unicode="&#x2008;" horiz-adv-x="282"
            />
            <glyph glyph-name="uni2009" unicode="&#x2009;" horiz-adv-x="125"
            />
            <glyph glyph-name="uni200A" unicode="&#x200a;" horiz-adv-x="42"
            />
            <glyph glyph-name="uni200B" unicode="&#x200b;" horiz-adv-x="0"
            />
            <glyph glyph-name="endash" unicode="&#x2013;" horiz-adv-x="608"
                   d="M69 220v102h470v-102h-470z"/>
            <glyph glyph-name="emdash" unicode="&#x2014;" horiz-adv-x="1078"
                   d="M69 220v102h940v-102h-940z"/>
            <glyph glyph-name="uni2015" unicode="&#x2015;" horiz-adv-x="1078"
                   d="M69 220v102h940v-102h-940z"/>
            <glyph glyph-name="quoteleft" unicode="&#x2018;" horiz-adv-x="272"
                   d="M62 404v144l75 132h66l-72 -132h75v-144h-144z"/>
            <glyph glyph-name="quoteright" unicode="&#x2019;" horiz-adv-x="263"
                   d="M211 680v-144l-75 -132h-66l72 132h-75v144h144z"/>
            <glyph glyph-name="quotesinglbase" unicode="&#x201a;" horiz-adv-x="282"
                   d="M213 144v-144l-75 -132h-66l72 132h-75v144h144z"/>
            <glyph glyph-name="quotedblleft" unicode="&#x201c;" horiz-adv-x="520"
                   d="M62 404v144l75 132h66l-72 -132h75v-144h-144zM310 404v144l75 132h66l-72 -132h75v-144h-144z"/>
            <glyph glyph-name="quotedblright" unicode="&#x201d;" horiz-adv-x="511"
                   d="M211 680v-144l-75 -132h-66l72 132h-75v144h144zM459 680v-144l-75 -132h-66l72 132h-75v144h144z"/>
            <glyph glyph-name="quotedblbase" unicode="&#x201e;" horiz-adv-x="530"
                   d="M213 144v-144l-75 -132h-66l72 132h-75v144h144zM461 144v-144l-75 -132h-66l72 132h-75v144h144z"/>
            <glyph glyph-name="dagger" unicode="&#x2020;" horiz-adv-x="522"
                   d="M31 406v104h170v170h120v-170h170v-104h-170v-496h-120v496h-170z"/>
            <glyph glyph-name="daggerdbl" unicode="&#x2021;" horiz-adv-x="588"
                   d="M64 80v104h170v222h-170v104h170v170h120v-170h170v-104h-170v-222h170v-104h-170v-170h-120v170h-170z"/>
            <glyph glyph-name="bullet" unicode="&#x2022;" horiz-adv-x="486"
                   d="M74 340q0 71 49.5 120.5t119.5 49.5q71 0 120.5 -50t49.5 -120t-49.5 -119.5t-120.5 -49.5t-120 49.5t-49 119.5z"/>
            <glyph glyph-name="ellipsis" unicode="&#x2026;" horiz-adv-x="942"
                   d="M213 144v-144h-144v144h144zM543 144v-144h-144v144h144zM873 144v-144h-144v144h144z"/>
            <glyph glyph-name="perthousand" unicode="&#x2030;" horiz-adv-x="1139"
                   d="M329 505q0 -84 -36 -133.5t-111 -49.5t-111 49.5t-36 133.5t36 133.5t111 49.5t111 -49.5t36 -133.5zM137 0l426 680h100l-426 -680h-100zM182 392q55 0 55 50v125q0 51 -55 51t-55 -51v-125q0 -50 55 -50zM1108 175q0 -84 -36 -133.5t-111 -49.5t-111 49.5t-36 133.5
t36 133.5t111 49.5t111 -49.5t36 -133.5zM767 175q0 -84 -36 -133.5t-111 -49.5t-111 49.5t-36 133.5t36 133.5t111 49.5t111 -49.5t36 -133.5zM961 62q55 0 55 50v125q0 51 -55 51t-55 -51v-125q0 -50 55 -50zM620 62q55 0 55 50v125q0 51 -55 51t-55 -51v-125
q0 -50 55 -50z"/>
            <glyph glyph-name="guilsinglleft" unicode="&#x2039;" horiz-adv-x="328"
                   d="M269 71h-115l-107 186l107 186h115l-97 -186z"/>
            <glyph glyph-name="guilsinglright" unicode="&#x203a;" horiz-adv-x="328"
                   d="M174 71h-115l97 186l-97 186h115l107 -186z"/>
            <glyph glyph-name="fraction" unicode="&#x2044;" horiz-adv-x="160"
                   d="M-183 0l426 680h100l-426 -680h-100z"/>
            <glyph glyph-name="uni2070" unicode="&#x2070;" horiz-adv-x="374"
                   d="M334 591q0 -84 -36 -133.5t-111 -49.5t-111 49.5t-36 133.5t36 133.5t111 49.5t111 -49.5t36 -133.5zM187 478q55 0 55 50v125q0 51 -55 51t-55 -51v-125q0 -50 55 -50z"/>
            <glyph glyph-name="uni2071" unicode="&#x2071;" horiz-adv-x="197"
                   d="M142 766v-70h-87v70h87zM142 416h-87v264h87v-264z"/>
            <glyph glyph-name="uni2074" unicode="&#x2074;" horiz-adv-x="369"
                   d="M275 416h-84v70h-162v70l152 210h94v-210h63v-70h-63v-70zM193 556v115h-4l-80 -115h84z"/>
            <glyph glyph-name="uni2075" unicode="&#x2075;" horiz-adv-x="354"
                   d="M128 560h-84l16 206h234v-70h-161l-6 -73q31 33 78 33q49 0 80.5 -34t31.5 -87q0 -56 -37 -91.5t-98 -35.5q-131 0 -143 112h86q5 -43 56 -43q23 0 36.5 10.5t13.5 28.5v34q0 37 -49 37q-33 0 -54 -27z"/>
            <glyph glyph-name="uni2076" unicode="&#x2076;" horiz-adv-x="367"
                   d="M187 408q-75 0 -111 46.5t-36 129.5q0 86 37.5 138t112.5 52q58 0 91.5 -28t38.5 -76h-86q-5 35 -48 35q-26 0 -41 -14.5t-15 -40.5v-37q27 36 80 36q52 0 85 -33t33 -83q0 -51 -37.5 -88t-103.5 -37zM186 477q25 0 40.5 11.5t15.5 31.5v20q0 20 -15.5 31t-40.5 11
t-41 -11t-16 -31v-20q0 -20 16 -31.5t41 -11.5z"/>
            <glyph glyph-name="uni2077" unicode="&#x2077;" horiz-adv-x="317"
                   d="M292 710l-143 -294h-94l144 280h-169v70h262v-56z"/>
            <glyph glyph-name="uni2078" unicode="&#x2078;" horiz-adv-x="370"
                   d="M185 408q-63 0 -104.5 26.5t-41.5 75.5q0 65 65 88q-54 23 -54 81q0 44 38.5 69.5t96.5 25.5t96.5 -25.5t38.5 -69.5q0 -58 -54 -81q65 -23 65 -88q0 -49 -41.5 -75.5t-104.5 -26.5zM234 661v13q0 31 -49 31t-49 -31v-13q0 -30 49 -30t49 30zM125 532v-20q0 -35 60 -35
t60 35v20q0 33 -60 33t-60 -33z"/>
            <glyph glyph-name="uni2079" unicode="&#x2079;" horiz-adv-x="367"
                   d="M181 774q146 0 146 -174q0 -87 -35.5 -139.5t-110.5 -52.5q-61 0 -95 28t-39 76h86q5 -35 48 -35q26 0 41 14.5t15 40.5v37q-27 -36 -80 -36q-52 0 -85 33.5t-33 83.5q0 51 38 87.5t104 36.5zM181 705q-25 0 -40.5 -11.5t-15.5 -31.5v-20q0 -20 15.5 -31t40.5 -11t41 11
t16 31v20q0 20 -16 31.5t-41 11.5z"/>
            <glyph glyph-name="uni207A" unicode="&#x207a;" horiz-adv-x="338"
                   d="M136 559h-99v64h99v100h67v-100h98v-64h-98v-100h-67v100z"/>
            <glyph glyph-name="uni207B" unicode="&#x207b;" horiz-adv-x="362"
                   d="M313 624v-64h-264v64h264z"/>
            <glyph glyph-name="uni207C" unicode="&#x207c;" horiz-adv-x="362"
                   d="M313 620h-264v66h264v-66zM313 496h-264v66h264v-66z"/>
            <glyph glyph-name="uni207D" unicode="&#x207d;" horiz-adv-x="230"
                   d="M132 646v-109q0 -76 73 -173h-83q-79 101 -79 228q0 124 79 227h83q-73 -98 -73 -173z"/>
            <glyph glyph-name="uni207E" unicode="&#x207e;" horiz-adv-x="230"
                   d="M98 537v109q0 75 -73 173h83q79 -103 79 -227q0 -127 -79 -228h-83q73 97 73 173z"/>
            <glyph glyph-name="uni207F" unicode="&#x207f;" horiz-adv-x="357"
                   d="M305 416h-87v161q0 39 -33 39q-21 0 -32 -14t-11 -37v-149h-87v264h87v-39q26 45 78 45q85 0 85 -97v-173z"/>
            <glyph glyph-name="uni2080" unicode="&#x2080;" horiz-adv-x="374"
                   d="M334 69q0 -84 -36 -133.5t-111 -49.5t-111 49.5t-36 133.5t36 133.5t111 49.5t111 -49.5t36 -133.5zM187 -44q55 0 55 50v125q0 51 -55 51t-55 -51v-125q0 -50 55 -50z"/>
            <glyph glyph-name="uni2081" unicode="&#x2081;" horiz-adv-x="294"
                   d="M229 244v-350h-86v220h-111v70h111v60h86z"/>
            <glyph glyph-name="uni2082" unicode="&#x2082;" horiz-adv-x="352"
                   d="M312 -106h-270v68l136 123q42 38 42 61q0 17 -11.5 27t-31.5 10q-51 0 -51 -52h-86q0 58 39 89.5t101 31.5q58 0 92 -28.5t34 -74.5q0 -26 -10 -48t-20.5 -33.5t-28.5 -27.5l-86 -73v-3h151v-70z"/>
            <glyph glyph-name="uni2083" unicode="&#x2083;" horiz-adv-x="357"
                   d="M203 40h-72v66h67q25 0 25 23v23q0 14 -12.5 22.5t-31.5 8.5q-49 0 -49 -40h-86q2 50 37.5 79.5t99.5 29.5q60 0 94 -29t34 -72q0 -59 -56 -78q64 -18 64 -79q0 -47 -37 -77.5t-99 -30.5q-65 0 -104.5 30.5t-41.5 88.5h86q1 -28 16 -39t42 -11q52 0 52 34v27q0 24 -28 24
z"/>
            <glyph glyph-name="uni2084" unicode="&#x2084;" horiz-adv-x="368"
                   d="M275 -106h-84v70h-162v70l152 210h94v-210h63v-70h-63v-70zM193 34v115h-4l-80 -115h84z"/>
            <glyph glyph-name="uni2085" unicode="&#x2085;" horiz-adv-x="354"
                   d="M128 38h-84l16 206h234v-70h-161l-6 -73q31 33 78 33q49 0 80.5 -34t31.5 -87q0 -56 -37 -91.5t-98 -35.5q-131 0 -143 112h86q5 -43 56 -43q23 0 36.5 10.5t13.5 28.5v34q0 37 -49 37q-33 0 -54 -27z"/>
            <glyph glyph-name="uni2086" unicode="&#x2086;" horiz-adv-x="367"
                   d="M187 -114q-75 0 -111 46.5t-36 129.5q0 86 37.5 138t112.5 52q58 0 91.5 -28t38.5 -76h-86q-5 35 -48 35q-26 0 -41 -14.5t-15 -40.5v-37q27 36 80 36q52 0 85 -33t33 -83q0 -51 -37.5 -88t-103.5 -37zM186 -45q25 0 40.5 11.5t15.5 31.5v20q0 20 -15.5 31t-40.5 11
t-41 -11t-16 -31v-20q0 -20 16 -31.5t41 -11.5z"/>
            <glyph glyph-name="uni2087" unicode="&#x2087;" horiz-adv-x="318"
                   d="M292 188l-143 -294h-94l144 280h-169v70h262v-56z"/>
            <glyph glyph-name="uni2088" unicode="&#x2088;" horiz-adv-x="370"
                   d="M185 -114q-63 0 -104.5 26.5t-41.5 75.5q0 65 65 88q-54 23 -54 81q0 44 38.5 69.5t96.5 25.5t96.5 -25.5t38.5 -69.5q0 -58 -54 -81q65 -23 65 -88q0 -49 -41.5 -75.5t-104.5 -26.5zM234 139v13q0 31 -49 31t-49 -31v-13q0 -30 49 -30t49 30zM125 10v-20q0 -35 60 -35
t60 35v20q0 33 -60 33t-60 -33z"/>
            <glyph glyph-name="uni2089" unicode="&#x2089;" horiz-adv-x="367"
                   d="M181 252q146 0 146 -174q0 -87 -35.5 -139.5t-110.5 -52.5q-61 0 -95 28t-39 76h86q5 -35 48 -35q26 0 41 14.5t15 40.5v37q-27 -36 -80 -36q-52 0 -85 33.5t-33 83.5q0 51 38 87.5t104 36.5zM181 183q-25 0 -40.5 -11.5t-15.5 -31.5v-20q0 -20 15.5 -31t40.5 -11t41 11
t16 31v20q0 20 -16 31.5t-41 11.5z"/>
            <glyph glyph-name="uni208A" unicode="&#x208a;" horiz-adv-x="338"
                   d="M136 37h-99v64h99v100h67v-100h98v-64h-98v-100h-67v100z"/>
            <glyph glyph-name="uni208B" unicode="&#x208b;" horiz-adv-x="360"
                   d="M312 102v-64h-264v64h264z"/>
            <glyph glyph-name="uni208C" unicode="&#x208c;" horiz-adv-x="362"
                   d="M313 98h-264v66h264v-66zM313 -26h-264v66h264v-66z"/>
            <glyph glyph-name="uni208D" unicode="&#x208d;" horiz-adv-x="229"
                   d="M132 124v-109q0 -76 73 -173h-83q-79 101 -79 228q0 124 79 227h83q-73 -98 -73 -173z"/>
            <glyph glyph-name="uni208E" unicode="&#x208e;" horiz-adv-x="229"
                   d="M97 15v109q0 75 -73 173h83q79 -103 79 -227q0 -127 -79 -228h-83q73 97 73 173z"/>
            <glyph glyph-name="Euro" unicode="&#x20ac;" horiz-adv-x="679"
                   d="M53 372l27 79h52q37 244 261 244q103 0 161.5 -53t65.5 -141h-125q-7 47 -32.5 68.5t-76.5 21.5q-111 0 -121 -121q-1 -6 -1 -19h216l-27 -79h-189v-61h169l-28 -79h-141q0 -15 1 -22q18 -121 121 -121q53 0 78 22.5t32 76.5h125q-7 -96 -66.5 -149.5t-166.5 -53.5
q-219 0 -257 247h-86l28 79h51v61h-71z"/>
            <glyph glyph-name="uni20B4" unicode="&#x20b4;" horiz-adv-x="673"
                   d="M342 588q-116 0 -126 -98h-130q10 103 77.5 154t176.5 51q113 0 180.5 -52.5t67.5 -135.5q0 -30 -6 -57h42v-69h-77q-29 -33 -75 -54h152v-68h-377q-48 -25 -48 -75q0 -43 38 -67.5t97 -24.5q129 0 144 111h130q-9 -113 -82 -165.5t-194 -52.5q-119 0 -191 53.5
t-72 146.5q0 39 11 74h-29v68h74q36 33 106 54h-180v69h385q22 21 22 58t-31 58.5t-85 21.5z"/>
            <glyph glyph-name="uni20BD" unicode="&#x20bd;" horiz-adv-x="675"
                   d="M62 247v106h75v327h278q107 0 160 -53q52 -52 52 -166q0 -107 -58 -162q-57 -55 -154 -55h-148v-44h165v-99h-165v-101h-130v101h-75v99h75v47h-75zM267 354h161q64 0 64 68v83q0 35 -14.5 50t-49.5 15h-161v-216z"/>
            <glyph glyph-name="uni20DD" unicode="&#x20dd;" horiz-adv-x="866"
                   d="M689 256v256h-128v128h-256v128h256v-128h128v-128h128v-256h-128zM305 640v-128h-128v128h128zM177 512v-256h128v-128h256v-128h-256v128h-128v128h-128v256h128zM561 128v128h128v-128h-128z"/>
            <glyph glyph-name="uni20DE" unicode="&#x20de;" horiz-adv-x="934"
                   d="M83 768h768v-768h-768v768zM211 640v-512h512v512h-512z"/>
            <glyph glyph-name="uni2113" unicode="&#x2113;" horiz-adv-x="277"
                   d="M201 0h-125v680h125v-680z"/>
            <glyph glyph-name="uni2116" unicode="&#x2116;" horiz-adv-x="1010"
                   d="M965 556q0 -63 -36.5 -100.5t-98.5 -37.5t-98 37.5t-36 100.5t36 100.5t98 37.5t98.5 -37.5t36.5 -100.5zM482 162h4v518h129v-680h-195l-203 519h-4v-519h-129v680h195zM874 524v64q0 18 -12.5 28t-31.5 10t-31.5 -10t-12.5 -28v-64q0 -18 12.5 -28t31.5 -10t31.5 10
t12.5 28zM701 301v75h258v-75h-258z"/>
            <glyph glyph-name="uni2117" unicode="&#x2117;" horiz-adv-x="820"
                   d="M55 339q0 147 104 251t251 104t251 -104t104 -251t-104 -251t-251 -104t-251 104t-104 251zM140 339q0 -113 79 -191.5t191 -78.5t191 78.5t79 191.5t-79 191.5t-191 78.5t-191 -78.5t-79 -191.5zM558 390q0 -129 -111 -129h-83v-92h-85v340h168q52 0 81.5 -30.5
t29.5 -88.5zM364 332h82q27 0 27 30v48q0 29 -27 29h-82v-107z"/>
            <glyph glyph-name="trademark" unicode="&#x2122;" horiz-adv-x="845"
                   d="M36 605v75h290v-75h-102v-265h-86v265h-102zM574 462l73 218h122v-340h-86v206l-70 -206h-81l-69 206v-206h-86v340h124z"/>
            <glyph glyph-name="Omega" unicode="&#x2126;" horiz-adv-x="666"
                   d="M367 0v240q52 6 83.5 32.5t31.5 69.5v148q0 50 -42 78t-107 28t-107 -28t-42 -78v-148q0 -43 30.5 -69.5t82.5 -32.5v-240h-220v104h110v66q-133 62 -133 246q0 132 74 205.5t205 73.5t205 -73.5t74 -205.5q0 -185 -135 -247v-65h110v-104h-220z"/>
            <glyph glyph-name="estimated" unicode="&#x212e;" horiz-adv-x="573"
                   d="M55 255q0 121 61 194t174 73t173 -69.5t60 -176.5v-40h-331v-98q0 -37 31.5 -59t77.5 -22q115 0 129 114h88q-11 -84 -68 -133.5t-150 -49.5q-123 0 -184 72t-61 195zM192 387v-86h196v86q0 37 -26 57.5t-72 20.5q-45 0 -71.5 -20.5t-26.5 -57.5z"/>
            <glyph glyph-name="onethird" unicode="&#x2153;" horiz-adv-x="768"
                   d="M227 680v-350h-86v220h-111v70h111v60h86zM105 0l426 680h100l-426 -680h-100zM616 146h-72v66h67q25 0 25 23v23q0 14 -12.5 22.5t-31.5 8.5q-49 0 -49 -40h-86q2 50 37.5 79.5t99.5 29.5q60 0 94 -29t34 -72q0 -59 -56 -78q64 -18 64 -79q0 -47 -37 -77.5t-99 -30.5
q-65 0 -104.5 30.5t-41.5 88.5h86q1 -28 16 -39t42 -11q52 0 52 34v27q0 24 -28 24z"/>
            <glyph glyph-name="twothirds" unicode="&#x2154;" horiz-adv-x="810"
                   d="M316 330h-270v68l136 123q42 38 42 61q0 17 -11.5 27t-31.5 10q-51 0 -51 -52h-86q0 58 39 89.5t101 31.5q58 0 92 -28.5t34 -74.5q0 -26 -10 -48t-20.5 -33.5t-28.5 -27.5l-86 -73v-3h151v-70zM161 0l426 680h100l-426 -680h-100zM657 146h-72v66h67q25 0 25 23v23
q0 14 -12.5 22.5t-31.5 8.5q-49 0 -49 -40h-86q2 50 37.5 79.5t99.5 29.5q60 0 94 -29t34 -72q0 -59 -56 -78q64 -18 64 -79q0 -47 -37 -77.5t-99 -30.5q-65 0 -104.5 30.5t-41.5 88.5h86q1 -28 16 -39t42 -11q52 0 52 34v27q0 24 -28 24z"/>
            <glyph glyph-name="oneeighth" unicode="&#x215b;" horiz-adv-x="777"
                   d="M227 680v-350h-86v220h-111v70h111v60h86zM105 0l426 680h100l-426 -680h-100zM594 -8q-63 0 -104.5 26.5t-41.5 75.5q0 65 65 88q-54 23 -54 81q0 44 38.5 69.5t96.5 25.5t96.5 -25.5t38.5 -69.5q0 -58 -54 -81q65 -23 65 -88q0 -49 -41.5 -75.5t-104.5 -26.5zM643 245
v13q0 31 -49 31t-49 -31v-13q0 -30 49 -30t49 30zM534 116v-20q0 -35 60 -35t60 35v20q0 33 -60 33t-60 -33z"/>
            <glyph glyph-name="threeeighths" unicode="&#x215c;" horiz-adv-x="810"
                   d="M203 476h-72v66h67q25 0 25 23v23q0 14 -12.5 22.5t-31.5 8.5q-49 0 -49 -40h-86q2 50 37.5 79.5t99.5 29.5q60 0 94 -29t34 -72q0 -59 -56 -78q64 -18 64 -79q0 -47 -37 -77.5t-99 -30.5q-65 0 -104.5 30.5t-41.5 88.5h86q1 -28 16 -39t42 -11q52 0 52 34v27
q0 24 -28 24zM138 0l426 680h100l-426 -680h-100zM628 -8q-63 0 -104.5 26.5t-41.5 75.5q0 65 65 88q-54 23 -54 81q0 44 38.5 69.5t96.5 25.5t96.5 -25.5t38.5 -69.5q0 -58 -54 -81q65 -23 65 -88q0 -49 -41.5 -75.5t-104.5 -26.5zM677 245v13q0 31 -49 31t-49 -31v-13
q0 -30 49 -30t49 30zM568 116v-20q0 -35 60 -35t60 35v20q0 33 -60 33t-60 -33z"/>
            <glyph glyph-name="fiveeighths" unicode="&#x215d;" horiz-adv-x="804"
                   d="M133 0l426 680h100l-426 -680h-100zM127 474h-84l16 206h234v-70h-161l-6 -73q32 33 78 33q49 0 80.5 -34t31.5 -87q0 -56 -37 -91.5t-98 -35.5q-131 0 -143 112h86q5 -43 56 -43q23 0 36.5 10.5t13.5 28.5v34q0 37 -49 37q-33 0 -54 -27zM622 -8q-63 0 -104.5 26.5
t-41.5 75.5q0 65 65 88q-54 23 -54 81q0 44 38.5 69.5t96.5 25.5t96.5 -25.5t38.5 -69.5q0 -58 -54 -81q65 -23 65 -88q0 -49 -41.5 -75.5t-104.5 -26.5zM671 245v13q0 31 -49 31t-49 -31v-13q0 -30 49 -30t49 30zM562 116v-20q0 -35 60 -35t60 35v20q0 33 -60 33t-60 -33z
"/>
            <glyph glyph-name="seveneighths" unicode="&#x215e;" horiz-adv-x="745"
                   d="M74 0l426 680h100l-426 -680h-100zM301 624l-143 -294h-94l144 280h-169v70h262v-56zM563 -8q-63 0 -104.5 26.5t-41.5 75.5q0 65 65 88q-54 23 -54 81q0 44 38.5 69.5t96.5 25.5t96.5 -25.5t38.5 -69.5q0 -58 -54 -81q65 -23 65 -88q0 -49 -41.5 -75.5t-104.5 -26.5z
M612 245v13q0 31 -49 31t-49 -31v-13q0 -30 49 -30t49 30zM503 116v-20q0 -35 60 -35t60 35v20q0 33 -60 33t-60 -33z"/>
            <glyph glyph-name="arrowleft" unicode="&#x2190;" horiz-adv-x="777"
                   d="M266 510h140l-203 -204h525v-102h-525l203 -204h-140l-218 219v72z"/>
            <glyph glyph-name="arrowup" unicode="&#x2191;" horiz-adv-x="604"
                   d="M47 322v140l219 218h72l219 -218v-140l-204 203v-525h-102v525z"/>
            <glyph glyph-name="arrowright" unicode="&#x2192;" horiz-adv-x="777"
                   d="M371 510h140l218 -219v-72l-218 -219h-140l203 204h-525v102h525z"/>
            <glyph glyph-name="arrowdown" unicode="&#x2193;" horiz-adv-x="604"
                   d="M47 218v140l204 -203v525h102v-525l204 203v-140l-219 -218h-72z"/>
            <glyph glyph-name="uni2196" unicode="&#x2196;" horiz-adv-x="644"
                   d="M162 51l-99 99v309l51 51h309l99 -99h-288l371 -371l-72 -72l-371 371v-288z"/>
            <glyph glyph-name="uni2197" unicode="&#x2197;" horiz-adv-x="644"
                   d="M581 150l-99 -99v288l-371 -371l-72 72l371 371h-288l99 99h309l51 -51v-309z"/>
            <glyph glyph-name="uni2198" unicode="&#x2198;" horiz-adv-x="642"
                   d="M219 0l-99 99h288l-371 371l72 72l371 -371v288l99 -99v-309l-51 -51h-309z"/>
            <glyph glyph-name="uni2199" unicode="&#x2199;" horiz-adv-x="642"
                   d="M522 99l-99 -99h-309l-51 51v309l99 99v-288l371 371l72 -72l-371 -371h288z"/>
            <glyph glyph-name="partialdiff" unicode="&#x2202;"
                   d="M139 533l-55 89q78 73 189 73q137 0 204.5 -97.5t67.5 -270.5q0 -153 -67.5 -246t-203.5 -93q-109 0 -170 67.5t-61 162.5q0 104 60.5 163t159.5 59q100 0 152 -77q0 229 -145 229q-75 0 -131 -59zM273 90q69 0 105.5 48.5t36.5 130.5q-36 74 -121 74q-116 0 -116 -90
v-79q0 -84 95 -84z"/>
            <glyph glyph-name="Delta" unicode="&#x2206;" horiz-adv-x="708"
                   d="M23 0l267 680h128l267 -680h-662zM189 104h326l-164 417z"/>
            <glyph glyph-name="product" unicode="&#x220f;" horiz-adv-x="738"
                   d="M528 -170v916h-318v-916h-125v1020h568v-1020h-125z"/>
            <glyph glyph-name="summation" unicode="&#x2211;"
                   d="M563 746h-383l292 -403l-292 -409h383v-104h-528v104l292 409l-292 403v104h528v-104z"/>
            <glyph glyph-name="minus" unicode="&#x2212;"
                   d="M562 388v-96h-524v96h524z"/>
            <glyph glyph-name="radical" unicode="&#x221a;"
                   d="M7 255h189l77 -250l210 675h127l-266 -850h-142l-100 321h-95v104z"/>
            <glyph glyph-name="infinity" unicode="&#x221e;" horiz-adv-x="750"
                   d="M375 274q-75 -88 -164 -88q-69 0 -113 45.5t-44 113.5t45 113.5t112 45.5q88 0 164 -94q76 94 164 94q67 0 112 -45.5t45 -113.5t-44 -113.5t-113 -45.5q-90 0 -164 88zM150 343q0 -30 17 -47.5t47 -17.5q47 0 100 65q-51 68 -98 68q-31 0 -48.5 -18.5t-17.5 -49.5z
M600 343q0 31 -17.5 49.5t-48.5 18.5q-47 0 -98 -68q53 -65 100 -65q30 0 47 17.5t17 47.5z"/>
            <glyph glyph-name="integral" unicode="&#x222b;"
                   d="M100 -170v104h138v916h263v-104h-138v-916h-263z"/>
            <glyph glyph-name="approxequal" unicode="&#x2248;"
                   d="M472 488h99q0 -66 -39.5 -107.5t-104.5 -41.5q-34 0 -60 9.5t-84 38.5q-9 5 -21.5 11t-18.5 9t-14.5 7t-12.5 6t-9.5 4t-9 3t-7.5 1.5t-8 0.5q-47 0 -47 -56h-99q0 66 39.5 107.5t104.5 41.5q34 0 60 -9.5t84 -38.5q9 -5 21.5 -11t18.5 -9t14.5 -7t12.5 -6t9.5 -4t9 -3
t7.5 -1.5t8 -0.5q47 0 47 56zM472 298h99q0 -66 -39.5 -107.5t-104.5 -41.5q-34 0 -60 9.5t-84 38.5q-9 5 -21.5 11t-18.5 9t-14.5 7t-12.5 6t-9.5 4t-9 3t-7.5 1.5t-8 0.5q-47 0 -47 -56h-99q0 66 39.5 107.5t104.5 41.5q34 0 60 -9.5t84 -38.5q9 -5 21.5 -11t18.5 -9
t14.5 -7t12.5 -6t9.5 -4t9 -3t7.5 -1.5t8 -0.5q47 0 47 56z"/>
            <glyph glyph-name="notequal" unicode="&#x2260;"
                   d="M264 196l-64 -111l-77 45l38 66h-121v96h176l56 96h-232v96h287l64 111l77 -44l-39 -67h131v-96h-186l-55 -96h241v-96h-296z"/>
            <glyph glyph-name="lessequal" unicode="&#x2264;"
                   d="M555 595v-98l-342 -97l342 -97v-98l-520 149v92zM555 181v-96h-520v96h520z"/>
            <glyph glyph-name="greaterequal" unicode="&#x2265;"
                   d="M45 497v98l520 -149v-92l-520 -149v98l342 97zM45 85v96h520v-96h-520z"/>
            <glyph glyph-name="uni230C" unicode="&#x230c;" horiz-adv-x="586"
                   d="M178 532v384h384v-128h-256v-256h-128zM178 -236v384h128v-256h256v-128h-384z"/>
            <glyph glyph-name="uni230D" unicode="&#x230d;" horiz-adv-x="586"
                   d="M408 916v-384h-128v256h-256v128h384zM408 -236h-384v128h256v256h128v-384z"/>
            <glyph glyph-name="uni230E" unicode="&#x230e;" horiz-adv-x="538"
                   d="M76 532v384h128v-256h256v-128h-384zM76 148h384v-128h-256v-256h-128v384z"/>
            <glyph glyph-name="uni230F" unicode="&#x230f;" horiz-adv-x="538"
                   d="M462 532h-384v128h256v256h128v-384zM78 148h384v-384h-128v256h-256v128z"/>
            <glyph glyph-name="uni2347" unicode="&#x2347;" horiz-adv-x="1066"
                   d="M85 -109v896h896v-896h-896zM469 659v-128h128v128h-128zM469 147v128h384v128h-384v128h-128v-128h-128v-128h128v-128h128v-128h128v128h-128z"/>
            <glyph glyph-name="uni2348" unicode="&#x2348;" horiz-adv-x="1066"
                   d="M981 788v-896h-896v896h896zM725 404v128h-128v128h-128v-128h128v-128h-384v-128h384v-128h128v128h128v128h-128zM597 20v128h-128v-128h128z"/>
            <glyph glyph-name="uni2350" unicode="&#x2350;" horiz-adv-x="1066"
                   d="M85 788h896v-896h-896v896zM725 532h-128v128h-128v-128h-128v-128h128v-384h128v384h128v-128h128v128h-128v128zM341 404h-128v-128h128v128z"/>
            <glyph glyph-name="uni2357" unicode="&#x2357;" horiz-adv-x="1066"
                   d="M981 -109h-896v896h896v-896zM597 147h128v128h-128v384h-128v-384h-128v128h-128v-128h128v-128h128v-128h128v128zM725 275h128v128h-128v-128z"/>
            <glyph glyph-name="uni23E5" unicode="&#x23e5;" horiz-adv-x="808"
                   d="M84 0v768h384v-128h256v-640h-640zM596 128v384h-256v128h-128v-512h384z"/>
            <glyph glyph-name="uni2595" unicode="&#x2595;" horiz-adv-x="1042"
                   d="M585 276v128h-128v128h-128v128h-128v128h128v-128h128v-128h128v-128h128v-128h128v-128h128v-128h-128v128h-128v128h-128zM585 532v128h-128v128h128v-128h128v-128h128v-128h128v-128h-128v128h-128v128h-128zM841 532v128h-128v128h128v-128h128v-128h-128zM585 20
v128h-128v128h-128v128h-128v128h-128v128h128v-128h128v-128h128v-128h128v-128h128v-128h128v-128h-128v128h-128zM329 20v128h-128v128h-128v128h128v-128h128v-128h128v-128h128v-128h-128v128h-128zM201 -108v128h-128v128h128v-128h128v-128h-128z"/>
            <glyph glyph-name="uni25A4" unicode="&#x25a4;" horiz-adv-x="1048"
                   d="M76 660v128h896v-128h-896zM76 404v128h896v-128h-896zM76 148v128h896v-128h-896zM76 -108v128h896v-128h-896z"/>
            <glyph glyph-name="uni25A5" unicode="&#x25a5;" horiz-adv-x="1066"
                   d="M213 -108h-128v896h128v-896zM469 -108h-128v896h128v-896zM725 -108h-128v896h128v-896zM981 -108h-128v896h128v-896z"/>
            <glyph glyph-name="uni25A6" unicode="&#x25a6;" horiz-adv-x="1322"
                   d="M85 -236v1152h1152v-1152h-1152zM213 788v-896h896v896h-896zM725 148v128h-128v128h-128v128h-128v128h128v-128h128v-128h128v-128h128v-128h128v-128h-128v128h-128zM725 404v128h-128v128h128v-128h128v-128h128v-128h-128v128h-128zM853 532v128h128v-128h-128z
M469 404v-128h128v-128h128v-128h-128v128h-128v128h-128v128h128zM469 148v-128h-128v128h128z"/>
            <glyph glyph-name="uni25A7" unicode="&#x25a7;" horiz-adv-x="1015"
                   d="M832 404v-128h128v-128h-128v128h-128v128h-128v128h-128v128h-128v128h128v-128h128v-128h128v-128h128zM960 660v-128h-128v128h-128v128h128v-128h128zM576 276v-128h128v-128h128v-128h-128v128h-128v128h-128v128h-128v128h-128v128h-128v128h128v-128h128v-128h128
v-128h128zM320 148v-128h128v-128h-128v128h-128v128h-128v128h128v-128h128z"/>
            <glyph glyph-name="uni25A8" unicode="&#x25a8;" horiz-adv-x="1015"
                   d="M183 660v128h128v-128h-128zM567 660v128h128v-128h-128zM439 532v128h128v-128h-128zM55 532v128h128v-128h-128zM823 532v128h128v-128h-128zM311 404v128h128v-128h-128zM695 404v128h128v-128h-128zM183 276v128h128v-128h-128zM567 276v128h128v-128h-128zM55 148
v128h128v-128h-128zM439 148v128h128v-128h-128zM823 148v128h128v-128h-128zM311 20v128h128v-128h-128zM695 20v128h128v-128h-128zM183 -108v128h128v-128h-128zM567 -108v128h128v-128h-128z"/>
            <glyph glyph-name="uni25B3" unicode="&#x25b3;" horiz-adv-x="712"
                   d="M420 256v256h-128v256h128v-256h128v-256h128v-256h-640v256h128v-128h384v128h-128zM292 512v-256h-128v256h128z"/>
            <glyph glyph-name="uni25B7" unicode="&#x25b7;" horiz-adv-x="906"
                   d="M602 404h-256v128h-128v-384h128v-128h-256v640h256v-128h256v-128zM602 404h256v-128h-256v128zM346 276h256v-128h-256v128z"/>
            <glyph glyph-name="uni25BD" unicode="&#x25bd;" horiz-adv-x="712"
                   d="M292 512v-256h128v-256h-128v256h-128v256h-128v256h640v-256h-128v128h-384v-128h128zM420 256v256h128v-256h-128z"/>
            <glyph glyph-name="uni25C1" unicode="&#x25c1;" horiz-adv-x="906"
                   d="M304 276h-256v128h256v-128h256v-128h128v384h-128v128h256v-640h-256v128h-256v128zM560 404h-256v128h256v-128z"/>
            <glyph glyph-name="lozenge" unicode="&#x25ca;"
                   d="M372 773l245 -430l-245 -430h-144l-245 430l245 430h144zM300 15l185 328l-185 328l-185 -328z"/>
            <glyph glyph-name="H18533" unicode="&#x25cf;" horiz-adv-x="446"
                   d="M54 340q0 71 49.5 120.5t119.5 49.5q71 0 120.5 -50t49.5 -120t-49.5 -119.5t-120.5 -49.5t-120 49.5t-49 119.5z"/>
            <glyph glyph-name="uni26DD" unicode="&#x26dd;" horiz-adv-x="1320"
                   d="M1108 788v-128h128v-640h-128v640h-128v128h-640v128h640v-128h128zM468 660v-128h128v-128h128v-128h128v-128h128v-128h128v-128h128v-128h-128v128h-128v128h-128v128h-128v128h-128v128h-128v128h-128v128h-128v128h-128v128h128v-128h128v-128h128zM1236 916v-128
h-128v128h128zM340 -108h-128v128h-128v640h128v-640h128v-128h640v-128h-640v128zM852 532v128h128v-128h-128zM724 404v128h128v-128h-128zM596 276v-128h-128v128h128zM468 148v-128h-128v128h128zM212 -108v-128h-128v128h128z"/>
            <glyph glyph-name="uni2717" unicode="&#x2717;" horiz-adv-x="762"
                   d="M189 660v-128h128v-128h128v-128h128v-128h128v-128h-128v128h-128v128h-128v128h-128v128h-128v128h128zM573 532v128h128v-128h-128zM445 404v128h128v-128h-128zM317 276v-128h-128v128h128zM189 148v-128h-128v128h128z"/>
            <glyph glyph-name="uni274E" unicode="&#x274e;" horiz-adv-x="1066"
                   d="M85 -108v896h896v-896h-896zM341 532v-128h128v128h-128v128h-128v-128h128zM725 660v-128h128v128h-128zM597 532v-128h128v128h-128zM597 276v128h-128v-128h128v-128h128v-128h128v128h-128v128h-128zM469 148v128h-128v-128h128zM341 20v128h-128v-128h128z"/>
            <glyph glyph-name="uni29C8" unicode="&#x29c8;" horiz-adv-x="1322"
                   d="M85 -236v1152h1152v-1152h-1152zM213 788v-896h896v896h-896zM341 20v640h640v-640h-640zM469 532v-384h384v384h-384z"/>
            <glyph glyph-name="uni2B1B" unicode="&#x2b1b;" horiz-adv-x="864"
                   d="M92 0v680h680v-680h-680z"/>
            <glyph glyph-name="uni2BBD" unicode="&#x2bbd;" horiz-adv-x="1322"
                   d="M85 -236v1152h1152v-1152h-1152zM213 788v-896h896v896h-896zM469 660v-128h128v-128h128v-128h128v-128h128v-128h-128v128h-128v128h-128v128h-128v128h-128v128h128zM853 532v128h128v-128h-128zM725 404v128h128v-128h-128zM597 276v-128h-128v128h128zM469 148v-128
h-128v128h128z"/>
            <glyph glyph-name="uniFB00" unicode="&#xfb00;" horiz-adv-x="730"
                   d="M253 583v-73h206v170h252v-97h-127v-73h117v-97h-117v-413h-125v413h-206v-413h-125v413h-100v97h100v170h252v-97h-127z"/>
            <glyph glyph-name="fi" unicode="&#xfb01;" horiz-adv-x="660"
                   d="M584 0h-125v413h-206v-413h-125v413h-100v97h100v170h252v-97h-127v-73h331v-510zM586 680v-111h-129v111h129z"/>
            <glyph glyph-name="fl" unicode="&#xfb02;" horiz-adv-x="660"
                   d="M253 583v-73h117v-97h-117v-413h-125v413h-100v97h100v170h456v-680h-125v583h-206z"/>
            <glyph glyph-name="uniFB03" unicode="&#xfb03;" horiz-adv-x="991"
                   d="M253 583v-73h206v170h252v-97h-127v-73h331v-510h-125v413h-206v-413h-125v413h-206v-413h-125v413h-100v97h100v170h252v-97h-127zM917 680v-111h-129v111h129z"/>
            <glyph glyph-name="uniFB04" unicode="&#xfb04;" horiz-adv-x="991"
                   d="M253 583v-73h206v170h456v-680h-125v583h-206v-73h117v-97h-117v-413h-125v413h-206v-413h-125v413h-100v97h100v170h252v-97h-127z"/>
            <glyph glyph-name="uniFEFF" unicode="&#xfeff;" horiz-adv-x="0"
            />
            <glyph glyph-name="i.latn_TRK" horiz-adv-x="277"
                   d="M203 680v-111h-129v111h129zM201 0h-125v510h125v-510z"/>
            <glyph glyph-name="Ldot.latn_CAT" horiz-adv-x="528"
                   d="M84 0v680h130v-570h288v-110h-418zM451 439v-108h-118v108h118z"/>
            <glyph glyph-name="ldot.latn_CAT" horiz-adv-x="331"
                   d="M201 0h-125v680h125v-680zM363 424v-108h-118v108h118z"/>
            <glyph glyph-name="breve.cyrl_dflt" horiz-adv-x="0"
                   d="M-165 695h90q0 -27 20 -43t55 -16t55 16t20 43h90q0 -61 -44 -98t-121 -37t-121 37t-44 98z"/>
            <glyph glyph-name="comma.subs" horiz-adv-x="193"
                   d="M145 -12v-94l-44 -83h-51l43 83h-45v94h97z"/>
            <glyph glyph-name="period.subs" horiz-adv-x="193"
                   d="M145 -12v-94h-97v94h97z"/>
            <glyph glyph-name="bracketleft.subs" horiz-adv-x="251"
                   d="M65 297h151v-65h-65v-325h65v-65h-151v455z"/>
            <glyph glyph-name="bracketright.subs" horiz-adv-x="251"
                   d="M186 297v-455h-151v65h65v325h-65v65h151z"/>
            <glyph glyph-name="a.subs" horiz-adv-x="339"
                   d="M166 164q53 0 83 -23.5t30 -67.5v-109h45v-70h-126v39h-4q-25 -45 -75 -45q-37 0 -61 22q-23 25 -23 58q0 35 22 57t64 26l72 7v18q0 25 -30 25q-33 0 -33 -27h-86q1 43 35 66.5t87 23.5zM150 -46q19 0 31 12t12 31v6l-54 -5q-14 -1 -14 -17v-11q0 -16 25 -16z"/>
            <glyph glyph-name="b.subs" horiz-adv-x="357"
                   d="M140 -106h-86v350h86v-123q26 43 78 43t77.5 -38t25.5 -99q0 -60 -27 -99.5t-78 -39.5q-50 0 -76 44v-38zM140 45v-38q0 -51 46 -51q42 0 42 39v63q0 39 -42 39q-46 0 -46 -52z"/>
            <glyph glyph-name="c.subs" horiz-adv-x="320"
                   d="M36 25q0 66 34.5 102.5t94.5 36.5q49 0 82 -24t37 -74h-86q-3 34 -35 34q-16 0 -26.5 -10t-10.5 -28v-70q0 -18 11 -28t28 -10q32 0 36 32h85q-6 -50 -39 -74t-82 -24q-61 0 -95 37.5t-34 99.5z"/>
            <glyph glyph-name="d.subs" horiz-adv-x="357"
                   d="M303 -106h-86v38q-26 -44 -78 -44q-50 0 -76.5 39.5t-26.5 99.5t26.5 98.5t78.5 38.5q50 0 76 -43v123h86v-350zM217 7v38q0 52 -46 52q-42 0 -42 -39v-63q0 -39 42 -39q46 0 46 51z"/>
            <glyph glyph-name="e.subs" horiz-adv-x="328"
                   d="M36 27q0 62 35 99.5t93 37.5q57 0 92 -35.5t35 -89.5v-40h-167v-8q0 -16 12 -26.5t29 -10.5q31 0 38 24h86q-8 -41 -41.5 -65.5t-83.5 -24.5q-60 0 -94 38t-34 101zM124 62v-8h79v8q0 18 -10.5 28t-28.5 10t-29 -10t-11 -28z"/>
            <glyph glyph-name="f.subs" horiz-adv-x="256"
                   d="M167 179v-21h65v-65h-65v-199h-86v199h-53v65h53v86h157v-65h-71z"/>
            <glyph glyph-name="g.subs" horiz-adv-x="358"
                   d="M304 158v-243q0 -54 -37.5 -83.5t-90.5 -29.5q-113 0 -129 86h83q4 -20 43 -20q45 0 45 45v35q-26 -44 -78 -44q-50 0 -76.5 37t-26.5 94t26.5 93t78.5 36q50 0 76 -43v37h86zM218 23v22q0 52 -46 52q-42 0 -42 -39v-47q0 -39 42 -39q46 0 46 51z"/>
            <glyph glyph-name="h.subs" horiz-adv-x="355"
                   d="M141 244v-125q26 45 78 45q85 0 85 -97v-173h-87v161q0 39 -33 39q-21 0 -32 -14t-11 -37v-149h-87v350h87z"/>
            <glyph glyph-name="i.subs" horiz-adv-x="195"
                   d="M141 244v-70h-87v70h87zM141 -106h-87v264h87v-264z"/>
            <glyph glyph-name="j.subs" horiz-adv-x="205"
                   d="M151 244v-70h-87v70h87zM64 -122v280h87v-350h-166v70h79z"/>
            <glyph glyph-name="k.subs" horiz-adv-x="343"
                   d="M141 244v-350h-87v350h87zM220 -106l-78 144l75 120h99l-85 -120l88 -144h-99z"/>
            <glyph glyph-name="l.subs" horiz-adv-x="195"
                   d="M141 -106h-87v350h87v-350z"/>
            <glyph glyph-name="m.subs" horiz-adv-x="496"
                   d="M445 -106h-87v166q0 34 -28 34q-37 0 -37 -47v-153h-87v166q0 34 -28 34q-37 0 -37 -47v-153h-87v264h87v-39q20 45 73 45q57 0 74 -50q24 50 78 50q79 0 79 -102v-168z"/>
            <glyph glyph-name="n.subs" horiz-adv-x="355"
                   d="M304 -106h-87v161q0 39 -33 39q-21 0 -32 -14t-11 -37v-149h-87v264h87v-39q26 45 78 45q85 0 85 -97v-173z"/>
            <glyph glyph-name="o.subs" horiz-adv-x="339"
                   d="M304 26q0 -63 -36.5 -100.5t-98.5 -37.5t-98 37.5t-36 100.5t36 100.5t98 37.5t98.5 -37.5t36.5 -100.5zM213 -6v64q0 18 -12.5 28t-31.5 10t-31.5 -10t-12.5 -28v-64q0 -18 12.5 -28t31.5 -10t31.5 10t12.5 28z"/>
            <glyph glyph-name="p.subs" horiz-adv-x="357"
                   d="M140 -192h-86v350h86v-37q26 43 78 43t77.5 -38t25.5 -99q0 -60 -27 -99.5t-78 -39.5q-50 0 -76 44v-124zM140 45v-38q0 -51 46 -51q42 0 42 39v63q0 39 -42 39q-46 0 -46 -52z"/>
            <glyph glyph-name="q.subs" horiz-adv-x="357"
                   d="M303 -192h-86v124q-26 -44 -78 -44q-50 0 -76.5 39.5t-26.5 99.5t26.5 98.5t78.5 38.5q50 0 76 -43v37h86v-350zM217 7v38q0 52 -46 52q-42 0 -42 -39v-63q0 -39 42 -39q46 0 46 51z"/>
            <glyph glyph-name="r.subs" horiz-adv-x="250"
                   d="M54 -106v264h171v-71h-85v-193h-86z"/>
            <glyph glyph-name="s.subs" horiz-adv-x="311"
                   d="M158 -112q-56 0 -88.5 23t-34.5 66h87q1 -26 36 -26q32 0 32 20q0 11 -8 15.5t-28 7.5l-37 7q-76 15 -76 80q0 38 31.5 60.5t81.5 22.5q51 0 81.5 -22t31.5 -64h-86q-1 26 -28 26t-27 -19q0 -7 4 -11.5t9 -6.5t15 -4l48 -10q74 -15 74 -81q0 -36 -31.5 -60t-86.5 -24z
"/>
            <glyph glyph-name="t.subs" horiz-adv-x="278"
                   d="M169 88v-124h65v-70h-152v194h-51v70h51v86h87v-86h65v-70h-65z"/>
            <glyph glyph-name="u.subs" horiz-adv-x="353"
                   d="M212 -106v39q-26 -45 -77 -45q-40 0 -62 24.5t-22 72.5v173h87v-161q0 -39 32 -39q20 0 31 14t11 37v149h87v-264h-87z"/>
            <glyph glyph-name="v.subs" horiz-adv-x="326"
                   d="M212 -106h-98l-94 264h96l45 -160h4l47 160h93z"/>
            <glyph glyph-name="w.subs" horiz-adv-x="461"
                   d="M357 -106h-97l-28 151h-6l-25 -151h-98l-77 264h96l29 -145h4l23 145h102l27 -145h4l31 145h94z"/>
            <glyph glyph-name="x.subs" horiz-adv-x="341"
                   d="M22 -106l89 137l-81 127h104l36 -67h4l36 67h100l-79 -123l88 -141h-102l-42 79h-4l-44 -79h-105z"/>
            <glyph glyph-name="y.subs" horiz-adv-x="324"
                   d="M161 -1h4l47 159h93l-127 -350h-139v70h70l6 17l-96 263h96z"/>
            <glyph glyph-name="z.subs" horiz-adv-x="307"
                   d="M267 -106h-229v70l111 122v2h-101v70h215v-69l-113 -123v-2h117v-70z"/>
            <glyph glyph-name="egrave.subs" horiz-adv-x="328"
                   d="M158 258l47 -67h-66l-67 67h86zM36 27q0 62 35 99.5t93 37.5q57 0 92 -35.5t35 -89.5v-40h-167v-8q0 -16 12 -26.5t29 -10.5q31 0 38 24h86q-8 -41 -41.5 -65.5t-83.5 -24.5q-60 0 -94 38t-34 101zM124 62v-8h79v8q0 18 -10.5 28t-28.5 10t-29 -10t-11 -28z"/>
            <glyph glyph-name="eacute.subs" horiz-adv-x="328"
                   d="M119 191l47 67h86l-67 -67h-66zM36 27q0 62 35 99.5t93 37.5q57 0 92 -35.5t35 -89.5v-40h-167v-8q0 -16 12 -26.5t29 -10.5q31 0 38 24h86q-8 -41 -41.5 -65.5t-83.5 -24.5q-60 0 -94 38t-34 101zM124 62v-8h79v8q0 18 -10.5 28t-28.5 10t-29 -10t-11 -28z"/>
            <glyph glyph-name="comma.sups" horiz-adv-x="195"
                   d="M146 510v-94l-44 -83h-51l43 83h-45v94h97z"/>
            <glyph glyph-name="period.sups" horiz-adv-x="193"
                   d="M145 510v-94h-97v94h97z"/>
            <glyph glyph-name="bracketleft.sups" horiz-adv-x="251"
                   d="M65 819h151v-65h-65v-325h65v-65h-151v455z"/>
            <glyph glyph-name="bracketright.sups" horiz-adv-x="251"
                   d="M186 819v-455h-151v65h65v325h-65v65h151z"/>
            <glyph glyph-name="a.sups" horiz-adv-x="341"
                   d="M167 686q53 0 83 -23.5t30 -67.5v-109h45v-70h-126v39h-4q-25 -45 -75 -45q-37 0 -61 22q-23 25 -23 58q0 35 22 57t64 26l72 7v18q0 25 -30 25q-33 0 -33 -27h-86q1 43 35 66.5t87 23.5zM151 476q19 0 31 12t12 31v6l-54 -5q-14 -1 -14 -17v-11q0 -16 25 -16z"/>
            <glyph glyph-name="b.sups" horiz-adv-x="359"
                   d="M141 416h-86v350h86v-123q26 43 78 43t77.5 -38t25.5 -99q0 -60 -27 -99.5t-78 -39.5q-50 0 -76 44v-38zM141 567v-38q0 -51 46 -51q42 0 42 39v63q0 39 -42 39q-46 0 -46 -52z"/>
            <glyph glyph-name="c.sups" horiz-adv-x="320"
                   d="M36 547q0 66 34.5 102.5t94.5 36.5q49 0 82 -24t37 -74h-86q-3 34 -35 34q-16 0 -26.5 -10t-10.5 -28v-70q0 -18 11 -28t28 -10q32 0 36 32h85q-6 -50 -39 -74t-82 -24q-61 0 -95 37.5t-34 99.5z"/>
            <glyph glyph-name="d.sups" horiz-adv-x="359"
                   d="M304 416h-86v38q-26 -44 -78 -44q-50 0 -76.5 39.5t-26.5 99.5t26.5 98.5t78.5 38.5q50 0 76 -43v123h86v-350zM218 529v38q0 52 -46 52q-42 0 -42 -39v-63q0 -39 42 -39q46 0 46 51z"/>
            <glyph glyph-name="e.sups" horiz-adv-x="328"
                   d="M36 549q0 62 35 99.5t93 37.5q57 0 92 -35.5t35 -89.5v-40h-167v-8q0 -16 12 -26.5t29 -10.5q31 0 38 24h86q-8 -41 -41.5 -65.5t-83.5 -24.5q-60 0 -94 38t-34 101zM124 584v-8h79v8q0 18 -10.5 28t-28.5 10t-29 -10t-11 -28z"/>
            <glyph glyph-name="f.sups" horiz-adv-x="257"
                   d="M167 701v-21h65v-65h-65v-199h-86v199h-53v65h53v86h157v-65h-71z"/>
            <glyph glyph-name="g.sups" horiz-adv-x="359"
                   d="M304 680v-243q0 -54 -37.5 -83.5t-90.5 -29.5q-113 0 -129 86h83q4 -20 43 -20q45 0 45 45v35q-26 -44 -78 -44q-50 0 -76.5 37t-26.5 94t26.5 93t78.5 36q50 0 76 -43v37h86zM218 545v22q0 52 -46 52q-42 0 -42 -39v-47q0 -39 42 -39q46 0 46 51z"/>
            <glyph glyph-name="h.sups" horiz-adv-x="357"
                   d="M142 766v-125q26 45 78 45q85 0 85 -97v-173h-87v161q0 39 -33 39q-21 0 -32 -14t-11 -37v-149h-87v350h87z"/>
            <glyph glyph-name="j.sups" horiz-adv-x="206"
                   d="M151 766v-70h-87v70h87zM64 400v280h87v-350h-166v70h79z"/>
            <glyph glyph-name="k.sups" horiz-adv-x="345"
                   d="M142 766v-350h-87v350h87zM221 416l-78 144l75 120h99l-85 -120l88 -144h-99z"/>
            <glyph glyph-name="l.sups" horiz-adv-x="197"
                   d="M142 416h-87v350h87v-350z"/>
            <glyph glyph-name="m.sups" horiz-adv-x="498"
                   d="M446 416h-87v166q0 34 -28 34q-37 0 -37 -47v-153h-87v166q0 34 -28 34q-37 0 -37 -47v-153h-87v264h87v-39q20 45 73 45q57 0 74 -50q24 50 78 50q79 0 79 -102v-168z"/>
            <glyph glyph-name="o.sups" horiz-adv-x="341"
                   d="M305 548q0 -63 -36.5 -100.5t-98.5 -37.5t-98 37.5t-36 100.5t36 100.5t98 37.5t98.5 -37.5t36.5 -100.5zM214 516v64q0 18 -12.5 28t-31.5 10t-31.5 -10t-12.5 -28v-64q0 -18 12.5 -28t31.5 -10t31.5 10t12.5 28z"/>
            <glyph glyph-name="p.sups" horiz-adv-x="359"
                   d="M141 330h-86v350h86v-37q26 43 78 43t77.5 -38t25.5 -99q0 -60 -27 -99.5t-78 -39.5q-50 0 -76 44v-124zM141 567v-38q0 -51 46 -51q42 0 42 39v63q0 39 -42 39q-46 0 -46 -52z"/>
            <glyph glyph-name="q.sups" horiz-adv-x="359"
                   d="M304 330h-86v124q-26 -44 -78 -44q-50 0 -76.5 39.5t-26.5 99.5t26.5 98.5t78.5 38.5q50 0 76 -43v37h86v-350zM218 529v38q0 52 -46 52q-42 0 -42 -39v-63q0 -39 42 -39q46 0 46 51z"/>
            <glyph glyph-name="r.sups" horiz-adv-x="250"
                   d="M55 416v264h171v-71h-85v-193h-86z"/>
            <glyph glyph-name="s.sups" horiz-adv-x="312"
                   d="M158 410q-56 0 -88.5 23t-34.5 66h87q1 -26 36 -26q32 0 32 20q0 11 -8 15.5t-28 7.5l-37 7q-76 15 -76 80q0 38 31.5 60.5t81.5 22.5q51 0 81.5 -22t31.5 -64h-86q-1 26 -28 26t-27 -19q0 -7 4 -11.5t9 -6.5t15 -4l48 -10q74 -15 74 -81q0 -36 -31.5 -60t-86.5 -24z"/>
            <glyph glyph-name="t.sups" horiz-adv-x="278"
                   d="M169 610v-124h65v-70h-152v194h-51v70h51v86h87v-86h65v-70h-65z"/>
            <glyph glyph-name="u.sups" horiz-adv-x="354"
                   d="M212 416v39q-26 -45 -77 -45q-40 0 -62 24.5t-22 72.5v173h87v-161q0 -39 32 -39q20 0 31 14t11 37v149h87v-264h-87z"/>
            <glyph glyph-name="v.sups" horiz-adv-x="326"
                   d="M212 416h-98l-94 264h96l45 -160h4l47 160h93z"/>
            <glyph glyph-name="w.sups" horiz-adv-x="463"
                   d="M358 416h-97l-28 151h-6l-25 -151h-98l-77 264h96l29 -145h4l23 145h102l27 -145h4l31 145h94z"/>
            <glyph glyph-name="x.sups" horiz-adv-x="343"
                   d="M23 416l89 137l-81 127h104l36 -67h4l36 67h100l-79 -123l88 -141h-102l-42 79h-4l-44 -79h-105z"/>
            <glyph glyph-name="y.sups" horiz-adv-x="324"
                   d="M161 521h4l47 159h93l-127 -350h-139v70h70l6 17l-96 263h96z"/>
            <glyph glyph-name="z.sups" horiz-adv-x="307"
                   d="M267 416h-229v70l111 122v2h-101v70h215v-69l-113 -123v-2h117v-70z"/>
            <glyph glyph-name="egrave.sups" horiz-adv-x="328"
                   d="M158 780l47 -67h-66l-67 67h86zM36 549q0 62 35 99.5t93 37.5q57 0 92 -35.5t35 -89.5v-40h-167v-8q0 -16 12 -26.5t29 -10.5q31 0 38 24h86q-8 -41 -41.5 -65.5t-83.5 -24.5q-60 0 -94 38t-34 101zM124 584v-8h79v8q0 18 -10.5 28t-28.5 10t-29 -10t-11 -28z"/>
            <glyph glyph-name="eacute.sups" horiz-adv-x="328"
                   d="M119 713l47 67h86l-67 -67h-66zM36 549q0 62 35 99.5t93 37.5q57 0 92 -35.5t35 -89.5v-40h-167v-8q0 -16 12 -26.5t29 -10.5q31 0 38 24h86q-8 -41 -41.5 -65.5t-83.5 -24.5q-60 0 -94 38t-34 101zM124 584v-8h79v8q0 18 -10.5 28t-28.5 10t-29 -10t-11 -28z"/>
            <glyph glyph-name="parenleft.numr" horiz-adv-x="229"
                   d="M132 560v-109q0 -76 73 -173h-83q-79 101 -79 228q0 124 79 227h83q-73 -98 -73 -173z"/>
            <glyph glyph-name="parenright.numr" horiz-adv-x="229"
                   d="M97 451v109q0 75 -73 173h83q79 -103 79 -227q0 -127 -79 -228h-83q73 97 73 173z"/>
            <glyph glyph-name="comma.numr" horiz-adv-x="193"
                   d="M145 424v-94l-44 -83h-51l43 83h-45v94h97z"/>
            <glyph glyph-name="period.numr" horiz-adv-x="193"
                   d="M145 424v-94h-97v94h97z"/>
            <glyph glyph-name="zero.numr" horiz-adv-x="374"
                   d="M334 505q0 -84 -36 -133.5t-111 -49.5t-111 49.5t-36 133.5t36 133.5t111 49.5t111 -49.5t36 -133.5zM187 392q55 0 55 50v125q0 51 -55 51t-55 -51v-125q0 -50 55 -50z"/>
            <glyph glyph-name="one.numr" horiz-adv-x="295"
                   d="M230 680v-350h-86v220h-111v70h111v60h86z"/>
            <glyph glyph-name="two.numr" horiz-adv-x="353"
                   d="M313 330h-270v68l136 123q42 38 42 61q0 17 -11.5 27t-31.5 10q-51 0 -51 -52h-86q0 58 39 89.5t101 31.5q58 0 92 -28.5t34 -74.5q0 -26 -10 -48t-20.5 -33.5t-28.5 -27.5l-86 -73v-3h151v-70z"/>
            <glyph glyph-name="three.numr" horiz-adv-x="357"
                   d="M203 476h-72v66h67q25 0 25 23v23q0 14 -12.5 22.5t-31.5 8.5q-49 0 -49 -40h-86q2 50 37.5 79.5t99.5 29.5q60 0 94 -29t34 -72q0 -59 -56 -78q64 -18 64 -79q0 -47 -37 -77.5t-99 -30.5q-65 0 -104.5 30.5t-41.5 88.5h86q1 -28 16 -39t42 -11q52 0 52 34v27
q0 24 -28 24z"/>
            <glyph glyph-name="four.numr" horiz-adv-x="369"
                   d="M275 330h-84v70h-162v70l152 210h94v-210h63v-70h-63v-70zM193 470v115h-4l-80 -115h84z"/>
            <glyph glyph-name="five.numr" horiz-adv-x="353"
                   d="M127 474h-84l16 206h234v-70h-161l-6 -73q32 33 78 33q49 0 80.5 -34t31.5 -87q0 -56 -37 -91.5t-98 -35.5q-131 0 -143 112h86q5 -43 56 -43q23 0 36.5 10.5t13.5 28.5v34q0 37 -49 37q-33 0 -54 -27z"/>
            <glyph glyph-name="six.numr" horiz-adv-x="367"
                   d="M187 322q-75 0 -111 46.5t-36 129.5q0 86 37.5 138t112.5 52q58 0 91.5 -28t38.5 -76h-86q-5 35 -48 35q-26 0 -41 -14.5t-15 -40.5v-37q27 36 80 36q52 0 85 -33t33 -83q0 -51 -37.5 -88t-103.5 -37zM186 391q25 0 40.5 11.5t15.5 31.5v20q0 20 -15.5 31t-40.5 11
t-41 -11t-16 -31v-20q0 -20 16 -31.5t41 -11.5z"/>
            <glyph glyph-name="seven.numr" horiz-adv-x="317"
                   d="M291 624l-143 -294h-94l144 280h-169v70h262v-56z"/>
            <glyph glyph-name="eight.numr" horiz-adv-x="370"
                   d="M185 322q-63 0 -104.5 26.5t-41.5 75.5q0 65 65 88q-54 23 -54 81q0 44 38.5 69.5t96.5 25.5t96.5 -25.5t38.5 -69.5q0 -58 -54 -81q65 -23 65 -88q0 -49 -41.5 -75.5t-104.5 -26.5zM234 575v13q0 31 -49 31t-49 -31v-13q0 -30 49 -30t49 30zM125 446v-20q0 -35 60 -35
t60 35v20q0 33 -60 33t-60 -33z"/>
            <glyph glyph-name="nine.numr" horiz-adv-x="367"
                   d="M181 688q146 0 146 -174q0 -87 -35.5 -139.5t-110.5 -52.5q-61 0 -95 28t-39 76h86q5 -35 48 -35q26 0 41 14.5t15 40.5v37q-27 -36 -80 -36q-52 0 -85 33.5t-33 83.5q0 51 38 87.5t104 36.5zM181 619q-25 0 -40.5 -11.5t-15.5 -31.5v-20q0 -20 15.5 -31t40.5 -11t41 11
t16 31v20q0 20 -16 31.5t-41 11.5z"/>
            <glyph glyph-name="bracketleft.numr" horiz-adv-x="251"
                   d="M65 722h151v-65h-65v-325h65v-65h-151v455z"/>
            <glyph glyph-name="bracketright.numr" horiz-adv-x="251"
                   d="M186 723v-455h-151v65h65v325h-65v65h151z"/>
            <glyph glyph-name="a.numr" horiz-adv-x="338"
                   d="M166 600q53 0 83 -23.5t30 -67.5v-109h45v-70h-126v39h-4q-25 -45 -75 -45q-37 0 -61 22q-23 25 -23 58q0 35 22 57t64 26l72 7v18q0 25 -30 25q-33 0 -33 -27h-86q1 43 35 66.5t87 23.5zM150 390q19 0 31 12t12 31v6l-54 -5q-14 -1 -14 -17v-11q0 -16 25 -16z"/>
            <glyph glyph-name="b.numr" horiz-adv-x="357"
                   d="M140 330h-86v350h86v-123q26 43 78 43t77.5 -38t25.5 -99q0 -60 -27 -99.5t-78 -39.5q-50 0 -76 44v-38zM140 481v-38q0 -51 46 -51q42 0 42 39v63q0 39 -42 39q-46 0 -46 -52z"/>
            <glyph glyph-name="c.numr" horiz-adv-x="320"
                   d="M36 461q0 66 34.5 102.5t94.5 36.5q49 0 82 -24t37 -74h-86q-3 34 -35 34q-16 0 -26.5 -10t-10.5 -28v-70q0 -18 11 -28t28 -10q32 0 36 32h85q-6 -50 -39 -74t-82 -24q-61 0 -95 37.5t-34 99.5z"/>
            <glyph glyph-name="d.numr" horiz-adv-x="357"
                   d="M303 330h-86v38q-26 -44 -78 -44q-50 0 -76.5 39.5t-26.5 99.5t26.5 98.5t78.5 38.5q50 0 76 -43v123h86v-350zM217 443v38q0 52 -46 52q-42 0 -42 -39v-63q0 -39 42 -39q46 0 46 51z"/>
            <glyph glyph-name="e.numr" horiz-adv-x="327"
                   d="M35 463q0 62 35 99.5t93 37.5q57 0 92 -35.5t35 -89.5v-40h-167v-8q0 -16 12 -26.5t29 -10.5q31 0 38 24h86q-8 -41 -41.5 -65.5t-83.5 -24.5q-60 0 -94 38t-34 101zM123 498v-8h79v8q0 18 -10.5 28t-28.5 10t-29 -10t-11 -28z"/>
            <glyph glyph-name="f.numr" horiz-adv-x="256"
                   d="M167 615v-21h65v-65h-65v-199h-86v199h-53v65h53v86h157v-65h-71z"/>
            <glyph glyph-name="g.numr" horiz-adv-x="358"
                   d="M304 594v-243q0 -54 -37.5 -83.5t-90.5 -29.5q-113 0 -129 86h83q4 -20 43 -20q45 0 45 45v35q-26 -44 -78 -44q-50 0 -76.5 37t-26.5 94t26.5 93t78.5 36q50 0 76 -43v37h86zM218 459v22q0 52 -46 52q-42 0 -42 -39v-47q0 -39 42 -39q46 0 46 51z"/>
            <glyph glyph-name="h.numr" horiz-adv-x="356"
                   d="M141 680v-125q26 45 78 45q85 0 85 -97v-173h-87v161q0 39 -33 39q-21 0 -32 -14t-11 -37v-149h-87v350h87z"/>
            <glyph glyph-name="i.numr" horiz-adv-x="195"
                   d="M141 680v-70h-87v70h87zM141 330h-87v264h87v-264z"/>
            <glyph glyph-name="j.numr" horiz-adv-x="205"
                   d="M151 680v-70h-87v70h87zM64 314v280h87v-350h-166v70h79z"/>
            <glyph glyph-name="k.numr" horiz-adv-x="343"
                   d="M141 680v-350h-87v350h87zM220 330l-78 144l75 120h99l-85 -120l88 -144h-99z"/>
            <glyph glyph-name="l.numr" horiz-adv-x="195"
                   d="M141 330h-87v350h87v-350z"/>
            <glyph glyph-name="m.numr" horiz-adv-x="497"
                   d="M445 330h-87v166q0 34 -28 34q-37 0 -37 -47v-153h-87v166q0 34 -28 34q-37 0 -37 -47v-153h-87v264h87v-39q20 45 73 45q57 0 74 -50q24 50 78 50q79 0 79 -102v-168z"/>
            <glyph glyph-name="n.numr" horiz-adv-x="356"
                   d="M304 330h-87v161q0 39 -33 39q-21 0 -32 -14t-11 -37v-149h-87v264h87v-39q26 45 78 45q85 0 85 -97v-173z"/>
            <glyph glyph-name="o.numr" horiz-adv-x="339"
                   d="M304 462q0 -63 -36.5 -100.5t-98.5 -37.5t-98 37.5t-36 100.5t36 100.5t98 37.5t98.5 -37.5t36.5 -100.5zM213 430v64q0 18 -12.5 28t-31.5 10t-31.5 -10t-12.5 -28v-64q0 -18 12.5 -28t31.5 -10t31.5 10t12.5 28z"/>
            <glyph glyph-name="p.numr" horiz-adv-x="357"
                   d="M140 244h-86v350h86v-37q26 43 78 43t77.5 -38t25.5 -99q0 -60 -27 -99.5t-78 -39.5q-50 0 -76 44v-124zM140 481v-38q0 -51 46 -51q42 0 42 39v63q0 39 -42 39q-46 0 -46 -52z"/>
            <glyph glyph-name="q.numr" horiz-adv-x="357"
                   d="M303 244h-86v124q-26 -44 -78 -44q-50 0 -76.5 39.5t-26.5 99.5t26.5 98.5t78.5 38.5q50 0 76 -43v37h86v-350zM217 443v38q0 52 -46 52q-42 0 -42 -39v-63q0 -39 42 -39q46 0 46 51z"/>
            <glyph glyph-name="r.numr" horiz-adv-x="250"
                   d="M54 330v264h171v-71h-85v-193h-86z"/>
            <glyph glyph-name="s.numr" horiz-adv-x="311"
                   d="M158 324q-56 0 -88.5 23t-34.5 66h87q1 -26 36 -26q32 0 32 20q0 11 -8 15.5t-28 7.5l-37 7q-76 15 -76 80q0 38 31.5 60.5t81.5 22.5q51 0 81.5 -22t31.5 -64h-86q-1 26 -28 26t-27 -19q0 -7 4 -11.5t9 -6.5t15 -4l48 -10q74 -15 74 -81q0 -36 -31.5 -60t-86.5 -24z"/>
            <glyph glyph-name="t.numr" horiz-adv-x="278"
                   d="M169 524v-124h65v-70h-152v194h-51v70h51v86h87v-86h65v-70h-65z"/>
            <glyph glyph-name="u.numr" horiz-adv-x="353"
                   d="M212 330v39q-26 -45 -77 -45q-40 0 -62 24.5t-22 72.5v173h87v-161q0 -39 32 -39q20 0 31 14t11 37v149h87v-264h-87z"/>
            <glyph glyph-name="v.numr" horiz-adv-x="326"
                   d="M212 330h-98l-94 264h96l45 -160h4l47 160h93z"/>
            <glyph glyph-name="w.numr" horiz-adv-x="461"
                   d="M357 330h-97l-28 151h-6l-25 -151h-98l-77 264h96l29 -145h4l23 145h102l27 -145h4l31 145h94z"/>
            <glyph glyph-name="x.numr" horiz-adv-x="341"
                   d="M22 330l89 137l-81 127h104l36 -67h4l36 67h100l-79 -123l88 -141h-102l-42 79h-4l-44 -79h-105z"/>
            <glyph glyph-name="y.numr" horiz-adv-x="324"
                   d="M161 435h4l47 159h93l-127 -350h-139v70h70l6 17l-96 263h96z"/>
            <glyph glyph-name="z.numr" horiz-adv-x="307"
                   d="M267 330h-229v70l111 122v2h-101v70h215v-69l-113 -123v-2h117v-70z"/>
            <glyph glyph-name="egrave.numr" horiz-adv-x="327"
                   d="M157 684l47 -67h-66l-67 67h86zM35 453q0 62 35 99.5t93 37.5q57 0 92 -35.5t35 -89.5v-40h-167v-8q0 -16 12 -26.5t29 -10.5q31 0 38 24h86q-8 -41 -41.5 -65.5t-83.5 -24.5q-60 0 -94 38t-34 101zM123 488v-8h79v8q0 18 -10.5 28t-28.5 10t-29 -10t-11 -28z"/>
            <glyph glyph-name="eacute.numr" horiz-adv-x="327"
                   d="M118 617l47 67h86l-67 -67h-66zM35 453q0 62 35 99.5t93 37.5q57 0 92 -35.5t35 -89.5v-40h-167v-8q0 -16 12 -26.5t29 -10.5q31 0 38 24h86q-8 -41 -41.5 -65.5t-83.5 -24.5q-60 0 -94 38t-34 101zM123 488v-8h79v8q0 18 -10.5 28t-28.5 10t-29 -10t-11 -28z"/>
            <glyph glyph-name="parenleft.dnom" horiz-adv-x="230"
                   d="M132 230v-109q0 -76 73 -173h-83q-79 101 -79 228q0 124 79 227h83q-73 -98 -73 -173z"/>
            <glyph glyph-name="parenright.dnom" horiz-adv-x="230"
                   d="M98 121v109q0 75 -73 173h83q79 -103 79 -227q0 -127 -79 -228h-83q73 97 73 173z"/>
            <glyph glyph-name="comma.dnom" horiz-adv-x="195"
                   d="M146 94v-94l-44 -83h-51l43 83h-45v94h97z"/>
            <glyph glyph-name="period.dnom" horiz-adv-x="193"
                   d="M145 94v-94h-97v94h97z"/>
            <glyph glyph-name="zero.dnom" horiz-adv-x="374"
                   d="M334 175q0 -84 -36 -133.5t-111 -49.5t-111 49.5t-36 133.5t36 133.5t111 49.5t111 -49.5t36 -133.5zM187 62q55 0 55 50v125q0 51 -55 51t-55 -51v-125q0 -50 55 -50z"/>
            <glyph glyph-name="one.dnom" horiz-adv-x="294"
                   d="M229 350v-350h-86v220h-111v70h111v60h86z"/>
            <glyph glyph-name="two.dnom" horiz-adv-x="353"
                   d="M312 0h-270v68l136 123q42 38 42 61q0 17 -11.5 27t-31.5 10q-51 0 -51 -52h-86q0 58 39 89.5t101 31.5q58 0 92 -28.5t34 -74.5q0 -26 -10 -48t-20.5 -33.5t-28.5 -27.5l-86 -73v-3h151v-70z"/>
            <glyph glyph-name="three.dnom" horiz-adv-x="357"
                   d="M203 146h-72v66h67q25 0 25 23v23q0 14 -12.5 22.5t-31.5 8.5q-49 0 -49 -40h-86q2 50 37.5 79.5t99.5 29.5q60 0 94 -29t34 -72q0 -59 -56 -78q64 -18 64 -79q0 -47 -37 -77.5t-99 -30.5q-65 0 -104.5 30.5t-41.5 88.5h86q1 -28 16 -39t42 -11q52 0 52 34v27
q0 24 -28 24z"/>
            <glyph glyph-name="four.dnom" horiz-adv-x="369"
                   d="M275 0h-84v70h-162v70l152 210h94v-210h63v-70h-63v-70zM193 140v115h-4l-80 -115h84z"/>
            <glyph glyph-name="five.dnom" horiz-adv-x="354"
                   d="M128 144h-84l16 206h234v-70h-161l-6 -73q31 33 78 33q49 0 80.5 -34t31.5 -87q0 -56 -37 -91.5t-98 -35.5q-131 0 -143 112h86q5 -43 56 -43q23 0 36.5 10.5t13.5 28.5v34q0 37 -49 37q-33 0 -54 -27z"/>
            <glyph glyph-name="six.dnom" horiz-adv-x="367"
                   d="M187 -8q-75 0 -111 46.5t-36 129.5q0 86 37.5 138t112.5 52q58 0 91.5 -28t38.5 -76h-86q-5 35 -48 35q-26 0 -41 -14.5t-15 -40.5v-37q27 36 80 36q52 0 85 -33t33 -83q0 -51 -37.5 -88t-103.5 -37zM186 61q25 0 40.5 11.5t15.5 31.5v20q0 20 -15.5 31t-40.5 11t-41 -11
t-16 -31v-20q0 -20 16 -31.5t41 -11.5z"/>
            <glyph glyph-name="seven.dnom" horiz-adv-x="317"
                   d="M292 294l-143 -294h-94l144 280h-169v70h262v-56z"/>
            <glyph glyph-name="eight.dnom" horiz-adv-x="370"
                   d="M185 -8q-63 0 -104.5 26.5t-41.5 75.5q0 65 65 88q-54 23 -54 81q0 44 38.5 69.5t96.5 25.5t96.5 -25.5t38.5 -69.5q0 -58 -54 -81q65 -23 65 -88q0 -49 -41.5 -75.5t-104.5 -26.5zM234 245v13q0 31 -49 31t-49 -31v-13q0 -30 49 -30t49 30zM125 116v-20q0 -35 60 -35
t60 35v20q0 33 -60 33t-60 -33z"/>
            <glyph glyph-name="nine.dnom" horiz-adv-x="367"
                   d="M181 358q146 0 146 -174q0 -87 -35.5 -139.5t-110.5 -52.5q-61 0 -95 28t-39 76h86q5 -35 48 -35q26 0 41 14.5t15 40.5v37q-27 -36 -80 -36q-52 0 -85 33.5t-33 83.5q0 51 38 87.5t104 36.5zM181 289q-25 0 -40.5 -11.5t-15.5 -31.5v-20q0 -20 15.5 -31t40.5 -11t41 11
t16 31v20q0 20 -16 31.5t-41 11.5z"/>
            <glyph glyph-name="bracketleft.dnom" horiz-adv-x="251"
                   d="M65 403h151v-65h-65v-325h65v-65h-151v455z"/>
            <glyph glyph-name="bracketright.dnom" horiz-adv-x="251"
                   d="M186 403v-455h-151v65h65v325h-65v65h151z"/>
            <glyph glyph-name="a.dnom" horiz-adv-x="341"
                   d="M167 270q53 0 83 -23.5t30 -67.5v-109h45v-70h-126v39h-4q-25 -45 -75 -45q-37 0 -61 22q-23 25 -23 58q0 35 22 57t64 26l72 7v18q0 25 -30 25q-33 0 -33 -27h-86q1 43 35 66.5t87 23.5zM151 60q19 0 31 12t12 31v6l-54 -5q-14 -1 -14 -17v-11q0 -16 25 -16z"/>
            <glyph glyph-name="b.dnom" horiz-adv-x="359"
                   d="M141 0h-86v350h86v-123q26 43 78 43t77.5 -38t25.5 -99q0 -60 -27 -99.5t-78 -39.5q-50 0 -76 44v-38zM141 151v-38q0 -51 46 -51q42 0 42 39v63q0 39 -42 39q-46 0 -46 -52z"/>
            <glyph glyph-name="c.dnom" horiz-adv-x="320"
                   d="M36 131q0 66 34.5 102.5t94.5 36.5q49 0 82 -24t37 -74h-86q-3 34 -35 34q-16 0 -26.5 -10t-10.5 -28v-70q0 -18 11 -28t28 -10q32 0 36 32h85q-6 -50 -39 -74t-82 -24q-61 0 -95 37.5t-34 99.5z"/>
            <glyph glyph-name="d.dnom" horiz-adv-x="359"
                   d="M304 0h-86v38q-26 -44 -78 -44q-50 0 -76.5 39.5t-26.5 99.5t26.5 98.5t78.5 38.5q50 0 76 -43v123h86v-350zM218 113v38q0 52 -46 52q-42 0 -42 -39v-63q0 -39 42 -39q46 0 46 51z"/>
            <glyph glyph-name="e.dnom" horiz-adv-x="328"
                   d="M36 133q0 62 35 99.5t93 37.5q57 0 92 -35.5t35 -89.5v-40h-167v-8q0 -16 12 -26.5t29 -10.5q31 0 38 24h86q-8 -41 -41.5 -65.5t-83.5 -24.5q-60 0 -94 38t-34 101zM124 168v-8h79v8q0 18 -10.5 28t-28.5 10t-29 -10t-11 -28z"/>
            <glyph glyph-name="f.dnom" horiz-adv-x="257"
                   d="M167 285v-21h65v-65h-65v-199h-86v199h-53v65h53v86h157v-65h-71z"/>
            <glyph glyph-name="g.dnom" horiz-adv-x="359"
                   d="M304 264v-243q0 -54 -37.5 -83.5t-90.5 -29.5q-113 0 -129 86h83q4 -20 43 -20q45 0 45 45v35q-26 -44 -78 -44q-50 0 -76.5 37t-26.5 94t26.5 93t78.5 36q50 0 76 -43v37h86zM218 129v22q0 52 -46 52q-42 0 -42 -39v-47q0 -39 42 -39q46 0 46 51z"/>
            <glyph glyph-name="h.dnom" horiz-adv-x="357"
                   d="M142 350v-125q26 45 78 45q85 0 85 -97v-173h-87v161q0 39 -33 39q-21 0 -32 -14t-11 -37v-149h-87v350h87z"/>
            <glyph glyph-name="i.dnom" horiz-adv-x="197"
                   d="M142 350v-70h-87v70h87zM142 0h-87v264h87v-264z"/>
            <glyph glyph-name="j.dnom" horiz-adv-x="206"
                   d="M151 350v-70h-87v70h87zM64 -16v280h87v-350h-166v70h79z"/>
            <glyph glyph-name="k.dnom" horiz-adv-x="345"
                   d="M142 350v-350h-87v350h87zM221 0l-78 144l75 120h99l-85 -120l88 -144h-99z"/>
            <glyph glyph-name="l.dnom" horiz-adv-x="197"
                   d="M142 0h-87v350h87v-350z"/>
            <glyph glyph-name="m.dnom" horiz-adv-x="498"
                   d="M446 0h-87v166q0 34 -28 34q-37 0 -37 -47v-153h-87v166q0 34 -28 34q-37 0 -37 -47v-153h-87v264h87v-39q20 45 73 45q57 0 74 -50q24 50 78 50q79 0 79 -102v-168z"/>
            <glyph glyph-name="n.dnom" horiz-adv-x="357"
                   d="M305 0h-87v161q0 39 -33 39q-21 0 -32 -14t-11 -37v-149h-87v264h87v-39q26 45 78 45q85 0 85 -97v-173z"/>
            <glyph glyph-name="o.dnom" horiz-adv-x="341"
                   d="M305 132q0 -63 -36.5 -100.5t-98.5 -37.5t-98 37.5t-36 100.5t36 100.5t98 37.5t98.5 -37.5t36.5 -100.5zM214 100v64q0 18 -12.5 28t-31.5 10t-31.5 -10t-12.5 -28v-64q0 -18 12.5 -28t31.5 -10t31.5 10t12.5 28z"/>
            <glyph glyph-name="p.dnom" horiz-adv-x="359"
                   d="M141 -86h-86v350h86v-37q26 43 78 43t77.5 -38t25.5 -99q0 -60 -27 -99.5t-78 -39.5q-50 0 -76 44v-124zM141 151v-38q0 -51 46 -51q42 0 42 39v63q0 39 -42 39q-46 0 -46 -52z"/>
            <glyph glyph-name="q.dnom" horiz-adv-x="359"
                   d="M304 -86h-86v124q-26 -44 -78 -44q-50 0 -76.5 39.5t-26.5 99.5t26.5 98.5t78.5 38.5q50 0 76 -43v37h86v-350zM218 113v38q0 52 -46 52q-42 0 -42 -39v-63q0 -39 42 -39q46 0 46 51z"/>
            <glyph glyph-name="r.dnom" horiz-adv-x="250"
                   d="M55 0v264h171v-71h-85v-193h-86z"/>
            <glyph glyph-name="s.dnom" horiz-adv-x="312"
                   d="M158 -6q-56 0 -88.5 23t-34.5 66h87q1 -26 36 -26q32 0 32 20q0 11 -8 15.5t-28 7.5l-37 7q-76 15 -76 80q0 38 31.5 60.5t81.5 22.5q51 0 81.5 -22t31.5 -64h-86q-1 26 -28 26t-27 -19q0 -7 4 -11.5t9 -6.5t15 -4l48 -10q74 -15 74 -81q0 -36 -31.5 -60t-86.5 -24z"/>
            <glyph glyph-name="t.dnom" horiz-adv-x="278"
                   d="M169 194v-124h65v-70h-152v194h-51v70h51v86h87v-86h65v-70h-65z"/>
            <glyph glyph-name="u.dnom" horiz-adv-x="354"
                   d="M212 0v39q-26 -45 -77 -45q-40 0 -62 24.5t-22 72.5v173h87v-161q0 -39 32 -39q20 0 31 14t11 37v149h87v-264h-87z"/>
            <glyph glyph-name="v.dnom" horiz-adv-x="326"
                   d="M212 0h-98l-94 264h96l45 -160h4l47 160h93z"/>
            <glyph glyph-name="w.dnom" horiz-adv-x="463"
                   d="M358 0h-97l-28 151h-6l-25 -151h-98l-77 264h96l29 -145h4l23 145h102l27 -145h4l31 145h94z"/>
            <glyph glyph-name="x.dnom" horiz-adv-x="343"
                   d="M23 0l89 137l-81 127h104l36 -67h4l36 67h100l-79 -123l88 -141h-102l-42 79h-4l-44 -79h-105z"/>
            <glyph glyph-name="y.dnom" horiz-adv-x="324"
                   d="M161 105h4l47 159h93l-127 -350h-139v70h70l6 17l-96 263h96z"/>
            <glyph glyph-name="z.dnom" horiz-adv-x="307"
                   d="M267 0h-229v70l111 122v2h-101v70h215v-69l-113 -123v-2h117v-70z"/>
            <glyph glyph-name="egrave.dnom" horiz-adv-x="328"
                   d="M158 364l47 -67h-66l-67 67h86zM36 133q0 62 35 99.5t93 37.5q57 0 92 -35.5t35 -89.5v-40h-167v-8q0 -16 12 -26.5t29 -10.5q31 0 38 24h86q-8 -41 -41.5 -65.5t-83.5 -24.5q-60 0 -94 38t-34 101zM124 168v-8h79v8q0 18 -10.5 28t-28.5 10t-29 -10t-11 -28z"/>
            <glyph glyph-name="eacute.dnom" horiz-adv-x="328"
                   d="M119 297l47 67h86l-67 -67h-66zM36 133q0 62 35 99.5t93 37.5q57 0 92 -35.5t35 -89.5v-40h-167v-8q0 -16 12 -26.5t29 -10.5q31 0 38 24h86q-8 -41 -41.5 -65.5t-83.5 -24.5q-60 0 -94 38t-34 101zM124 168v-8h79v8q0 18 -10.5 28t-28.5 10t-29 -10t-11 -28z"/>
            <glyph glyph-name="space.frac" horiz-adv-x="51"
            />
            <glyph glyph-name="zero.tf"
                   d="M551 340q0 -80 -11.5 -140.5t-38.5 -111t-77.5 -77t-123.5 -26.5t-123.5 26.5t-77.5 77t-38.5 111t-11.5 140.5t11.5 140.5t38.5 111t77.5 77t123.5 26.5t123.5 -26.5t77.5 -77t38.5 -111t11.5 -140.5zM300 90q116 0 116 118v264q0 118 -116 118t-116 -118v-264
q0 -118 116 -118z"/>
            <glyph glyph-name="one.tf"
                   d="M78 0v105h185v366h-185v105h185v104h125v-575h170v-105h-480z"/>
            <glyph glyph-name="two.tf"
                   d="M222 107v-2h316v-105h-476v106l274 267q66 63 66 122q0 44 -28 69.5t-72 25.5q-52 0 -81 -29t-29 -81h-127q0 96 68 155.5t173 59.5q104 0 163 -54.5t59 -145.5q0 -101 -99 -194z"/>
            <glyph glyph-name="three.tf"
                   d="M345 297h-141v104h134q59 0 59 58v54q0 37 -28 57t-71 20q-103 0 -109 -89h-127q0 89 64.5 141.5t171.5 52.5q105 0 168.5 -50t63.5 -133q0 -117 -99 -162q56 -23 83.5 -62t27.5 -103q0 -93 -68 -146.5t-179 -53.5q-110 0 -179.5 54.5t-69.5 158.5h127q2 -54 35 -81
t86 -27q51 0 83 24.5t32 61.5v61q0 60 -64 60z"/>
            <glyph glyph-name="four.tf"
                   d="M462 0h-125v160h-300v104l286 416h139v-416h98v-104h-98v-160zM337 527l-181 -263h181v263z"/>
            <glyph glyph-name="five.tf"
                   d="M195 288h-127l27 392h413v-104h-300l-12 -183q52 65 138 65q97 0 156 -64t59 -167q0 -112 -66 -177t-179 -65q-114 0 -176.5 52.5t-70.5 150.5h127q11 -99 118 -99q50 0 81 25t31 66v90q0 42 -31 63t-80 21q-35 0 -64 -17.5t-44 -48.5z"/>
            <glyph glyph-name="six.tf"
                   d="M306 -15q-132 0 -193 83.5t-61 257.5q0 369 257 369q102 0 162.5 -48.5t68.5 -135.5h-127q-10 80 -105 80q-56 0 -88.5 -37t-32.5 -98v-74q50 65 148 65q100 0 161 -61t61 -161q0 -101 -65 -170.5t-186 -69.5zM306 89q55 0 85.5 28.5t30.5 75.5v57q0 93 -116 93
q-119 0 -119 -93v-57q0 -47 31.5 -75.5t87.5 -28.5z"/>
            <glyph glyph-name="seven.tf"
                   d="M542 580l-258 -580h-138l263 576h-352v104h485v-100z"/>
            <glyph glyph-name="eight.tf"
                   d="M300 -15q-109 0 -182 50.5t-73 146.5q0 62 32.5 106.5t91.5 65.5q-104 45 -104 157q0 83 68.5 133.5t166.5 50.5t166.5 -50.5t68.5 -133.5q0 -112 -104 -157q59 -21 91.5 -65.5t32.5 -106.5q0 -96 -73 -146.5t-182 -50.5zM402 475v44q0 35 -30 53t-72 18t-72 -18t-30 -53
v-44q0 -35 30.5 -53.5t71.5 -18.5t71.5 18.5t30.5 53.5zM180 220v-53q0 -36 34 -56.5t86 -20.5t86 20.5t34 56.5v53q0 36 -34 57t-86 21t-86 -21t-34 -57z"/>
            <glyph glyph-name="nine.tf"
                   d="M294 695q132 0 193 -83.5t61 -257.5q0 -369 -257 -369q-102 0 -162.5 48.5t-68.5 135.5h127q10 -80 105 -80q56 0 88.5 37t32.5 98v74q-50 -65 -148 -65q-100 0 -161 61t-61 161q0 101 65 170.5t186 69.5zM294 591q-55 0 -85.5 -28.5t-30.5 -75.5v-57q0 -93 116 -93
q119 0 119 93v57q0 47 -31.5 75.5t-87.5 28.5z"/>
            <glyph glyph-name="uni2007.tf"
            />
            <glyph glyph-name="parenleft.case" horiz-adv-x="332"
                   d="M179 445v-210q0 -153 139 -338h-115q-73 95 -111 199t-38 244t38 244t111 199h115q-139 -188 -139 -338z"/>
            <glyph glyph-name="parenright.case" horiz-adv-x="332"
                   d="M153 225v230q0 140 -139 328h115q73 -95 111 -199t38 -244t-38 -244t-111 -199h-115q139 185 139 328z"/>
            <glyph glyph-name="hyphen.case" horiz-adv-x="424"
                   d="M72 299v102h280v-102h-280z"/>
            <glyph glyph-name="at.case" horiz-adv-x="902"
                   d="M838 203h-514v274h274v-177h115v283h-504v-486h389v-97h-514v680h754v-477z"/>
            <glyph glyph-name="bracketleft.case" horiz-adv-x="368"
                   d="M85 783h245v-94h-125v-698h125v-94h-245v886z"/>
            <glyph glyph-name="bracketright.case" horiz-adv-x="368"
                   d="M38 783h245v-886h-245v94h125v698h-125v94z"/>
            <glyph glyph-name="grave.case" horiz-adv-x="0"
                   d="M-21 869l74 -122h-103l-111 122h140z"/>
            <glyph glyph-name="braceleft.case" horiz-adv-x="406"
                   d="M243 387h-120v396h245v-94h-125v-302zM123 -103v396h-95v94h95v-94h120v-302h125v-94h-245z"/>
            <glyph glyph-name="bar.case" horiz-adv-x="290"
                   d="M85 -171v1020h120v-1020h-120z"/>
            <glyph glyph-name="braceright.case" horiz-adv-x="406"
                   d="M283 783v-396h95v-94h-95v94h-120v302h-125v94h245zM163 293h120v-396h-245v94h125v302z"/>
            <glyph glyph-name="exclamdown.case" horiz-adv-x="295"
                   d="M220 680v-144h-145v144h145zM105 482h85l20 -149v-333h-125v333z"/>
            <glyph glyph-name="brokenbar.case" horiz-adv-x="290"
                   d="M85 433v417h120v-417h-120zM85 -170v417h120v-417h-120z"/>
            <glyph glyph-name="dieresis.case" horiz-adv-x="0"
                   d="M-44 869v-108h-118v108h118zM162 869v-108h-118v108h118z"/>
            <glyph glyph-name="guillemotleft.case" horiz-adv-x="565"
                   d="M272 144h-115l-107 186l107 186h115l-97 -186zM504 144h-115l-107 186l107 186h115l-97 -186z"/>
            <glyph glyph-name="uni00AD.case" horiz-adv-x="424"
                   d="M72 299v102h280v-102h-280z"/>
            <glyph glyph-name="macron.case" horiz-adv-x="0"
                   d="M-159 775v79h319v-79h-319z"/>
            <glyph glyph-name="acute.case" horiz-adv-x="0"
                   d="M-51 747l74 122h140l-111 -122h-103z"/>
            <glyph glyph-name="periodcentered.case" horiz-adv-x="286"
                   d="M215 422v-144h-144v144h144z"/>
            <glyph glyph-name="guillemotright.case" horiz-adv-x="565"
                   d="M176 144h-115l97 186l-97 186h115l107 -186zM408 144h-115l97 186l-97 186h115l107 -186z"/>
            <glyph glyph-name="questiondown.case" horiz-adv-x="513"
                   d="M205 536v144h144v-144h-144zM163 174q0 -87 95 -87t102 92h125q-7 -90 -69.5 -142t-163.5 -52q-97 0 -155.5 52.5t-58.5 139.5q0 55 21 93t63 75q8 7 29 25t27.5 25t18 21t15 27t3.5 29v10h125v-10q0 -53 -21 -89.5t-71 -76.5q-45 -36 -65 -65.5t-20 -66.5z"/>
            <glyph glyph-name="circumflex.case" horiz-adv-x="0"
                   d="M-1 805l-47 -58h-101l79 122h139l80 -122h-103z"/>
            <glyph glyph-name="caron.case" horiz-adv-x="0"
                   d="M-48 869l47 -58l47 58h103l-80 -122h-139l-79 122h101z"/>
            <glyph glyph-name="breve.case" horiz-adv-x="0"
                   d="M-145 869h80q0 -26 18 -42.5t47 -16.5t47 16.5t18 42.5h80q0 -60 -40.5 -97.5t-104.5 -37.5t-104.5 37.5t-40.5 97.5z"/>
            <glyph glyph-name="breve.cyrl_dflt.case" horiz-adv-x="0"
                   d="M-165 869h80q0 -29 18.5 -44t66.5 -15t66.5 15t18.5 44h80q0 -63 -41 -99t-124 -36t-124 36t-41 99z"/>
            <glyph glyph-name="dotaccent.case" horiz-adv-x="0"
                   d="M59 869v-108h-118v108h118z"/>
            <glyph glyph-name="ring.case" horiz-adv-x="0"
                   d="M100 833q0 -41 -29.5 -70t-70.5 -29t-71 29t-30 70t29.5 69.5t71.5 28.5q41 0 70.5 -28.5t29.5 -69.5zM40 833q0 17 -11.5 28.5t-28.5 11.5t-29 -11.5t-12 -28.5t12 -29t29 -12t28.5 12t11.5 29z"/>
            <glyph glyph-name="tilde.case" horiz-adv-x="0"
                   d="M96 861h70q0 -51 -25.5 -82t-73.5 -31q-27 0 -72.5 22t-57.5 22q-32 0 -32 -36h-70q0 51 25.5 82t73.5 31q28 0 73 -22t57 -22q32 0 32 36z"/>
            <glyph glyph-name="hungarumlaut.case" horiz-adv-x="0"
                   d="M-148 747l69 122h140l-106 -122h-103zM45 747l69 122h140l-106 -122h-103z"/>
            <glyph glyph-name="endash.case" horiz-adv-x="614"
                   d="M72 299v102h470v-102h-470z"/>
            <glyph glyph-name="emdash.case" horiz-adv-x="1084"
                   d="M72 299v102h940v-102h-940z"/>
            <glyph glyph-name="guilsinglleft.case" horiz-adv-x="333"
                   d="M272 144h-115l-107 186l107 186h115l-97 -186z"/>
            <glyph glyph-name="guilsinglright.case" horiz-adv-x="333"
                   d="M176 144h-115l97 186l-97 186h115l107 -186z"/>
            <glyph glyph-name="hyphen_greater.case" horiz-adv-x="764"
                   d="M363 605h140l218 -219v-72l-218 -219h-140l203 204h-525v102h525z"/>
            <glyph glyph-name="less_hyphen.case" horiz-adv-x="783"
                   d="M270 605h140l-203 -204h525v-102h-525l203 -204h-140l-218 219v72z"/>
            <glyph glyph-name="hyphen_greater" horiz-adv-x="777"
                   d="M371 510h140l218 -219v-72l-218 -219h-140l203 204h-525v102h525z"/>
            <glyph glyph-name="less_hyphen" horiz-adv-x="777"
                   d="M266 510h140l-203 -204h525v-102h-525l203 -204h-140l-218 219v72z"/>
            <glyph glyph-name="percent.zero" horiz-adv-x="802"
                   d="M329 505q0 -83 -36 -133t-111 -50t-111 50t-36 133t36 133t111 50t111 -50t36 -133zM137 0l426 680h100l-426 -680h-100zM127 432l80 183q-9 4 -25 4q-55 0 -55 -51v-136zM237 579l-81 -185q10 -3 26 -3q55 0 55 50v138zM767 175q0 -83 -36 -133t-111 -50t-111 50
t-36 133t36 133t111 50t111 -50t36 -133zM565 102l80 183q-9 4 -25 4q-55 0 -55 -51v-136zM675 249l-81 -185q10 -3 26 -3q55 0 55 50v138z"/>
            <glyph glyph-name="zero.dnom.zero" horiz-adv-x="374"
                   d="M334 175q0 -83 -36 -133t-111 -50t-111 50t-36 133t36 133t111 50t111 -50t36 -133zM132 102l80 183q-9 4 -25 4q-55 0 -55 -51v-136zM242 249l-81 -185q11 -3 26 -3q55 0 55 50v138z"/>
            <glyph glyph-name="zero.numr.zero" horiz-adv-x="374"
                   d="M334 505q0 -83 -36 -133t-111 -50t-111 50t-36 133t36 133t111 50t111 -50t36 -133zM132 432l80 183q-9 4 -25 4q-55 0 -55 -51v-136zM242 579l-81 -185q11 -3 26 -3q55 0 55 50v138z"/>
            <glyph glyph-name="zero.tf.zero"
                   d="M551 340q0 -80 -11.5 -140.5t-38.5 -111t-77.5 -77t-123.5 -26.5t-123.5 26.5t-77.5 77t-38.5 111t-11.5 140.5t11.5 140.5t38.5 111t77.5 77t123.5 26.5t123.5 -26.5t77.5 -77t38.5 -111t11.5 -140.5zM300 590q-116 0 -116 -118v-264q0 -17 1 -24l172 396q-23 10 -57 10
zM300 90q116 0 116 118v264q0 15 -1 22l-173 -395q24 -9 58 -9z"/>
            <glyph glyph-name="zero.zero" horiz-adv-x="618"
                   d="M560 340q0 -80 -11.5 -140.5t-38.5 -111t-77.5 -77t-123.5 -26.5t-123.5 26.5t-77.5 77t-38.5 111t-11.5 140.5t11.5 140.5t38.5 111t77.5 77t123.5 26.5t123.5 -26.5t77.5 -77t38.5 -111t11.5 -140.5zM309 590q-116 0 -116 -118v-264q0 -17 1 -24l172 396q-23 10 -57 10
zM309 90q116 0 116 118v264q0 15 -1 22l-173 -395q24 -9 58 -9z"/>
            <glyph glyph-name="perthousand.zero" horiz-adv-x="1139"
                   d="M329 505q0 -83 -36 -133t-111 -50t-111 50t-36 133t36 133t111 50t111 -50t36 -133zM137 0l426 680h100l-426 -680h-100zM127 432l80 183q-9 4 -25 4q-55 0 -55 -51v-136zM237 579l-81 -185q10 -3 26 -3q55 0 55 50v138zM1108 175q0 -83 -36 -133t-111 -50t-111 50
t-36 133t36 133t111 50t111 -50t36 -133zM767 175q0 -83 -36 -133t-111 -50t-111 50t-36 133t36 133t111 50t111 -50t36 -133zM906 102l80 183q-9 4 -25 4q-55 0 -55 -51v-136zM565 102l80 183q-9 4 -25 4q-55 0 -55 -51v-136zM1016 249l-81 -185q10 -3 26 -3q55 0 55 50
v138zM675 249l-81 -185q10 -3 26 -3q55 0 55 50v138z"/>
            <glyph glyph-name="uni2070.zero" horiz-adv-x="374"
                   d="M334 591q0 -83 -36 -133t-111 -50t-111 50t-36 133t36 133t111 50t111 -50t36 -133zM132 518l80 183q-9 4 -25 4q-55 0 -55 -51v-136zM242 665l-81 -185q11 -3 26 -3q55 0 55 50v138z"/>
            <glyph glyph-name="uni2080.zero" horiz-adv-x="374"
                   d="M334 69q0 -83 -36 -133t-111 -50t-111 50t-36 133t36 133t111 50t111 -50t36 -133zM132 -4l80 183q-9 4 -25 4q-55 0 -55 -51v-136zM242 143l-81 -185q11 -3 26 -3q55 0 55 50v138z"/>
            <glyph glyph-name="at.case.ss01" horiz-adv-x="831"
                   d="M611 122h127q-91 -133 -311 -133q-174 0 -275 92.5t-101 248.5q0 162 107 261t273 99q163 0 261.5 -84.5t98.5 -221.5q0 -95 -49.5 -161t-134.5 -66q-84 0 -110 69q-50 -73 -136 -73q-62 0 -97 35.5t-35 97.5q0 57 17 110t57.5 92.5t96.5 39.5q73 0 101 -59l10 51h97
l-46 -213q-3 -15 -3 -26q0 -50 49 -50q35 0 63.5 43t28.5 110q0 98 -74.5 162.5t-194.5 64.5q-123 0 -206 -79t-83 -202q0 -113 77 -187.5t207 -74.5q131 0 185 54zM465 308l11 48q4 22 4 33q0 30 -17 46.5t-47 16.5q-27 0 -46 -17t-25 -45l-19 -86q-3 -12 -3 -23
q0 -23 13.5 -38t42.5 -15q68 0 86 80z"/>
            <glyph glyph-name="at.ss01" horiz-adv-x="828"
                   d="M610 37h127q-91 -133 -311 -133q-174 0 -275 92.5t-101 248.5q0 162 107 261t273 99q163 0 261.5 -84.5t98.5 -221.5q0 -95 -49.5 -161t-134.5 -66q-84 0 -110 69q-50 -73 -136 -73q-62 0 -97 35.5t-35 97.5q0 57 17 110t57.5 92.5t96.5 39.5q73 0 101 -59l10 51h97
l-46 -213q-3 -15 -3 -26q0 -50 49 -50q35 0 63.5 43t28.5 110q0 98 -74.5 162.5t-194.5 64.5q-123 0 -206 -79t-83 -202q0 -113 77 -187.5t207 -74.5q131 0 185 54zM464 223l11 48q4 22 4 33q0 30 -17 46.5t-47 16.5q-27 0 -46 -17t-25 -45l-19 -86q-3 -12 -3 -23
q0 -23 13.5 -38t42.5 -15q68 0 86 80z"/>
            <glyph glyph-name="arrowleft.ss02" horiz-adv-x="863"
                   d="M303 538v128h128v-128h-128zM303 26v128h-128v128h-128v128h128v128h128v-128h512v-128h-512v-128h128v-128h-128z"/>
            <glyph glyph-name="arrowup.ss02" horiz-adv-x="706"
                   d="M545 532h-128v-512h-128v512h-128v128h128v128h128v-128h128v-128zM33 532h128v-128h-128v128zM545 532h128v-128h-128v128z"/>
            <glyph glyph-name="arrowright.ss02" horiz-adv-x="864"
                   d="M560 532h-128v128h128v-128zM560 20h-128v128h128v128h-512v128h512v128h128v-128h128v-128h-128v-128h-128v-128z"/>
            <glyph glyph-name="arrowdown.ss02" horiz-adv-x="726"
                   d="M171 276h128v512h128v-512h128v-128h-128v-128h-128v128h-128v128h-128v128h128v-128zM683 276h-128v128h128v-128z"/>
            <glyph glyph-name="uni2196.ss02" horiz-adv-x="740"
                   d="M444 148v128h-128v128h-128v-256h-128v512h512v-128h-256v-128h128v-128h128v-128h128v-128h-128v128h-128z"/>
            <glyph glyph-name="uni2197.ss02" horiz-adv-x="740"
                   d="M680 660v-512h-128v256h-128v128h-256v128h512zM424 404v-128h-128v128h128zM296 276v-128h-128v128h128zM168 148v-128h-128v128h128z"/>
            <glyph glyph-name="uni2198.ss02" horiz-adv-x="740"
                   d="M296 532v-128h128v-128h128v256h128v-512h-512v128h256v128h-128v128h-128v128h-128v128h128v-128h128z"/>
            <glyph glyph-name="uni2199.ss02" horiz-adv-x="740"
                   d="M572 532v128h128v-128h-128zM444 404v128h128v-128h-128zM60 20v512h128v-256h128v-128h256v-128h-512zM316 276v128h128v-128h-128z"/>
            <glyph glyph-name="plus.ss06"
                   d="M250 208h-210v96h210v207h100v-207h210v-96h-210v-207h-100v207z"/>
            <glyph glyph-name="equal.ss06"
                   d="M560 304h-520v96h520v-96zM560 112h-520v96h520v-96z"/>
            <glyph glyph-name="logicalnot.ss06"
                   d="M445 122v182h-409v96h510v-278h-101z"/>
            <glyph glyph-name="plusminus.ss06"
                   d="M245 267h-205v96h205v147h100v-147h215v-96h-215v-137h-100v137zM560 96v-96h-520v96h520z"/>
            <glyph glyph-name="multiply.ss06"
                   d="M368 256l188 -187l-69 -69l-187 187l-186 -187l-69 69l187 186l-187 187l69 69l186 -187l187 187l68 -68z"/>
            <glyph glyph-name="divide.ss06"
                   d="M363 510v-127h-126v127h126zM560 303v-96h-520v96h520zM363 127v-127h-126v127h126z"/>
            <glyph glyph-name="minus.ss06"
                   d="M562 304v-96h-524v96h524z"/>
            <glyph glyph-name="infinity.ss06" horiz-adv-x="742"
                   d="M371 190q-75 -88 -164 -88q-69 0 -113 45.5t-44 113.5t45 113.5t112 45.5q88 0 164 -94q76 94 164 94q67 0 112 -45.5t45 -113.5t-44 -113.5t-113 -45.5q-90 0 -164 88zM146 259q0 -30 17 -47.5t47 -17.5q47 0 100 65q-51 68 -98 68q-31 0 -48.5 -18.5t-17.5 -49.5z
M596 259q0 31 -17.5 49.5t-48.5 18.5q-47 0 -98 -68q53 -65 100 -65q30 0 47 17.5t17 47.5z"/>
            <glyph glyph-name="approxequal.ss06"
                   d="M468 403h99q0 -66 -39.5 -107.5t-104.5 -41.5q-34 0 -60 9.5t-84 38.5q-9 5 -21.5 11t-18.5 9t-14.5 7t-12.5 6t-9.5 4t-9 3t-7.5 1.5t-8 0.5q-47 0 -47 -56h-99q0 66 39.5 107.5t104.5 41.5q34 0 60 -9.5t84 -38.5q9 -5 21.5 -11t18.5 -9t14.5 -7t12.5 -6t9.5 -4t9 -3
t7.5 -1.5t8 -0.5q47 0 47 56zM468 213h99q0 -66 -39.5 -107.5t-104.5 -41.5q-34 0 -60 9.5t-84 38.5q-9 5 -21.5 11t-18.5 9t-14.5 7t-12.5 6t-9.5 4t-9 3t-7.5 1.5t-8 0.5q-47 0 -47 -56h-99q0 66 39.5 107.5t104.5 41.5q34 0 60 -9.5t84 -38.5q9 -5 21.5 -11t18.5 -9
t14.5 -7t12.5 -6t9.5 -4t9 -3t7.5 -1.5t8 -0.5q47 0 47 56z"/>
            <glyph glyph-name="notequal.ss06"
                   d="M264 111l-64 -111l-77 45l38 66h-121v96h176l56 96h-232v96h287l64 111l77 -44l-39 -67h131v-96h-186l-55 -96h241v-96h-296z"/>
            <glyph glyph-name="x.ss20" horiz-adv-x="617"
                   d="M376 340l188 -187l-69 -69l-187 187l-186 -187l-69 69l187 186l-187 187l69 69l186 -187l187 187l68 -68z"/>
            </font>
</defs>
</svg>
