<svg xmlns="http://www.w3.org/2000/svg">
<defs>
<font id="PxGroteskRegular" horiz-adv-x="600">
            <font-face
                    font-family="PxGroteskRegular"
                    font-weight="400"
                    font-stretch="normal"
                    units-per-em="1000"
                    panose-1="2 11 5 4 1 1 1 1 1 4"
                    ascent="800"
                    descent="-200"
                    x-height="510"
                    cap-height="680"
                    bbox="-181 -255 1094 1029"
                    underline-thickness="50"
                    underline-position="-125"
                    unicode-range="U+000D-FEFF"
            />
            <missing-glyph horiz-adv-x="644"
                           d="M246 779h49l-44 -44q-53 -14 -92.5 -53.5t-54.5 -93.5l-54 -54v49zM148 779h49l-147 -147v49zM540 779h49l-104 -104q-13 12 -26 23zM442 779h49l-62 -62q-17 9 -34 15zM344 779h49l-38 -38q-18 2 -28 2q-12 0 -20 -1zM99 779l-49 -49v49h49zM594 735v-49l-70 -70
q-7 15 -18 31zM594 637v-49l-52 -52q0 15 -6 43zM50 387l148 148l39 -2q0 29 20.5 52t54.5 23h8l-270 -270v49zM50 289l309 309q16 -9 26 -23l-335 -335v49zM50 485l56 56l46 -3l-102 -102v49zM594 539v-49l-216 -216v7q0 15 6.5 27.5t11 17.5t25.5 20t27 20q2 1 15.5 11
t21.5 17.5t20 20.5t20 30t12 37zM50 191l347 347v-15q0 -20 -13.5 -37.5t-42 -40t-36.5 -30.5q-23 -22 -36 -54l-219 -219v49zM594 441v-49l-224 -224h-49zM594 343v-49l-210 -210v49zM50 93l206 206v-38h11l-217 -217v49zM55 0l261 261h49l-93 -93h-23v-23l-145 -145h-49z
M349 0l33 33h2v2l210 210v-49l-196 -196h-49zM447 0l147 147v-49l-98 -98h-49zM153 0l96 96v-49l-47 -47h-49zM594 0h-49l49 49v-49zM251 0l33 33h49l-33 -33h-49z"/>
            <glyph glyph-name="f_f" unicode="ff" horiz-adv-x="662"
                   d="M208 0h-89v433h-86v77h86v170h206v-77h-117v-93h226v170h206v-77h-117v-93h107v-77h-107v-433h-89v433h-226v-433z"/>
            <glyph glyph-name="f_f_i" unicode="ffi" horiz-adv-x="922"
                   d="M208 0h-89v433h-86v77h86v170h206v-77h-117v-93h226v170h206v-77h-117v-93h316v-510h-90v433h-226v-433h-89v433h-226v-433zM839 680v-90h-90v90h90z"/>
            <glyph glyph-name="f_f_l" unicode="ffl" horiz-adv-x="922"
                   d="M208 0h-89v433h-86v77h86v170h206v-77h-117v-93h226v170h405v-680h-90v603h-226v-93h107v-77h-107v-433h-89v433h-226v-433z"/>
            <glyph glyph-name="f_i" unicode="fi" horiz-adv-x="607"
                   d="M524 0h-90v433h-226v-433h-89v433h-86v77h86v170h206v-77h-117v-93h316v-510zM524 680v-90h-90v90h90z"/>
            <glyph glyph-name="f_l" unicode="fl" horiz-adv-x="607"
                   d="M208 603v-93h107v-77h-107v-433h-89v433h-86v77h86v170h405v-680h-90v603h-226z"/>
            <glyph glyph-name=".notdef" horiz-adv-x="644"
                   d="M246 779h49l-44 -44q-53 -14 -92.5 -53.5t-54.5 -93.5l-54 -54v49zM148 779h49l-147 -147v49zM540 779h49l-104 -104q-13 12 -26 23zM442 779h49l-62 -62q-17 9 -34 15zM344 779h49l-38 -38q-18 2 -28 2q-12 0 -20 -1zM99 779l-49 -49v49h49zM594 735v-49l-70 -70
q-7 15 -18 31zM594 637v-49l-52 -52q0 15 -6 43zM50 387l148 148l39 -2q0 29 20.5 52t54.5 23h8l-270 -270v49zM50 289l309 309q16 -9 26 -23l-335 -335v49zM50 485l56 56l46 -3l-102 -102v49zM594 539v-49l-216 -216v7q0 15 6.5 27.5t11 17.5t25.5 20t27 20q2 1 15.5 11
t21.5 17.5t20 20.5t20 30t12 37zM50 191l347 347v-15q0 -20 -13.5 -37.5t-42 -40t-36.5 -30.5q-23 -22 -36 -54l-219 -219v49zM594 441v-49l-224 -224h-49zM594 343v-49l-210 -210v49zM50 93l206 206v-38h11l-217 -217v49zM55 0l261 261h49l-93 -93h-23v-23l-145 -145h-49z
M349 0l33 33h2v2l210 210v-49l-196 -196h-49zM447 0l147 147v-49l-98 -98h-49zM153 0l96 96v-49l-47 -47h-49zM594 0h-49l49 49v-49zM251 0l33 33h49l-33 -33h-49z"/>
            <glyph glyph-name=".null" horiz-adv-x="0"
            />
            <glyph glyph-name=".null" horiz-adv-x="0"
            />
            <glyph glyph-name="nonmarkingreturn" horiz-adv-x="333"
            />
            <glyph glyph-name="CR" unicode="&#xd;" horiz-adv-x="254"
            />
            <glyph glyph-name="space" unicode=" " horiz-adv-x="254"
            />
            <glyph glyph-name="exclam" unicode="!" horiz-adv-x="270"
                   d="M160 178h-50l-20 149v353h90v-353zM190 110v-110h-110v110h110z"/>
            <glyph glyph-name="quotedbl" unicode="&#x22;" horiz-adv-x="380"
                   d="M152 680v-262h-76v262h76zM304 680v-262h-76v262h76z"/>
            <glyph glyph-name="numbersign" unicode="#"
                   d="M529 240v-72h-124l-24 -168h-75l24 168h-115l-24 -168h-75l24 168h-93v72h104l29 199h-111v71h121l25 170h75l-25 -170h115l25 170h75l-25 -170h98v-71h-108l-29 -199h113zM254 439l-27 -199h115l27 199h-115z"/>
            <glyph glyph-name="dollar" unicode="$" horiz-adv-x="585"
                   d="M256 -95v83q-87 10 -144 62.5t-64 147.5h90q9 -111 118 -130v242l-31 8q-76 20 -117 70t-41 124q0 70 54.5 121.5t134.5 59.5v82h66v-83q79 -10 131 -59.5t58 -137.5h-90q-9 98 -99 115v-226l41 -10q173 -44 173 -194q0 -82 -62 -134.5t-152 -59.5v-81h-66zM157 516
q0 -85 99 -115v211q-43 -7 -71 -32t-28 -64zM444 178q0 87 -105 112l-17 4v-227q53 7 87.5 36.5t34.5 74.5z"/>
            <glyph glyph-name="percent" unicode="%" horiz-adv-x="797"
                   d="M318 505q0 -183 -138 -183t-138 183t138 183t138 -183zM148 0l426 680h76l-426 -680h-76zM180 378q63 0 63 61v132q0 61 -63 61t-63 -61v-132q0 -61 63 -61zM755 175q0 -183 -138 -183t-138 183t138 183t138 -183zM617 48q63 0 63 61v132q0 61 -63 61t-63 -61v-132
q0 -61 63 -61z"/>
            <glyph glyph-name="ampersand" unicode="&#x26;" horiz-adv-x="602"
                   d="M504 363v-248l90 -115h-107l-43 55q-78 -67 -189 -67q-94 0 -147.5 47t-53.5 133q0 101 91 171l48 37q-50 60 -70.5 95t-20.5 73q0 65 49.5 108t122.5 43q77 0 121 -40t44 -107q0 -90 -128 -185l104 -138h2v138h87zM261 429q45 35 66.5 62.5t21.5 62.5q0 30 -20.5 48
t-56.5 18q-35 0 -57.5 -20t-22.5 -50q0 -18 10.5 -40t22.5 -37t36 -44zM149 203v-59q0 -39 31.5 -60t73.5 -21q90 0 140 54l-150 194l-58 -45q-37 -28 -37 -63z"/>
            <glyph glyph-name="quotesingle" unicode="'" horiz-adv-x="228"
                   d="M152 680v-262h-76v262h76z"/>
            <glyph glyph-name="parenleft" unicode="(" horiz-adv-x="305"
                   d="M147 378v-210q0 -153 139 -338h-80q-73 95 -111 199t-38 244t38 244t111 199h80q-139 -188 -139 -338z"/>
            <glyph glyph-name="parenright" unicode=")" horiz-adv-x="306"
                   d="M158 168v210q0 150 -139 338h80q73 -95 111 -199t38 -244t-38 -244t-111 -199h-80q139 185 139 338z"/>
            <glyph glyph-name="asterisk" unicode="*" horiz-adv-x="436"
                   d="M353 403l-110 63v-126h-50v126l-110 -63l-25 44l109 63l-109 63l25 44l110 -64v127h50v-127l110 64l25 -44l-110 -63l110 -63z"/>
            <glyph glyph-name="plus" unicode="+"
                   d="M262 304h-217v72h217v219h76v-219h217v-72h-217v-219h-76v219z"/>
            <glyph glyph-name="comma" unicode="," horiz-adv-x="260"
                   d="M185 110v-110l-62 -110h-48l59 110h-59v110h110z"/>
            <glyph glyph-name="hyphen" unicode="-" horiz-adv-x="430"
                   d="M75 230v82h280v-82h-280z"/>
            <glyph glyph-name="period" unicode="." horiz-adv-x="256"
                   d="M183 110v-110h-110v110h110z"/>
            <glyph glyph-name="slash" unicode="/" horiz-adv-x="452"
                   d="M428 680l-312 -680h-92l312 680h92z"/>
            <glyph glyph-name="zero" unicode="0" horiz-adv-x="610"
                   d="M546 340q0 -81 -11 -142t-37.5 -111t-74.5 -76t-118 -26t-118 26t-74.5 76t-37.5 111t-11 142t11 142t37.5 111t74.5 76t118 26t118 -26t74.5 -76t37.5 -111t11 -142zM305 65q63 0 102 38t39 104v266q0 66 -39 104t-102 38t-102 -38t-39 -104v-266q0 -66 39 -104t102 -38
z"/>
            <glyph glyph-name="one" unicode="1" horiz-adv-x="388"
                   d="M206 0v522h-175v79h175v79h90v-680h-90z"/>
            <glyph glyph-name="two" unicode="2" horiz-adv-x="568"
                   d="M173 81v-2h339v-79h-457v79l272 267q45 44 64 75.5t19 73.5q0 55 -34 87.5t-90 32.5q-62 0 -99 -34.5t-37 -100.5h-92q0 99 65 157t165 58q97 0 155.5 -54.5t58.5 -145.5q0 -103 -106 -203z"/>
            <glyph glyph-name="three" unicode="3" horiz-adv-x="589"
                   d="M354 309h-155v79h142q35 0 55 20.5t20 52.5v62q0 43 -36 67.5t-88 24.5q-59 0 -93.5 -31t-38.5 -83h-92q0 79 61.5 136.5t162.5 57.5q100 0 161 -51t61 -133q0 -113 -86 -159q99 -45 99 -162q0 -96 -66 -150.5t-173 -54.5q-104 0 -170.5 54.5t-66.5 158.5h92
q10 -133 145 -133q61 0 101 30t40 72v68q0 32 -20 53t-55 21z"/>
            <glyph glyph-name="four" unicode="4" horiz-adv-x="555"
                   d="M421 0h-90v164h-300v79l299 437h91v-437h98v-79h-98v-164zM331 551l-210 -308h210v308z"/>
            <glyph glyph-name="five" unicode="5" horiz-adv-x="581"
                   d="M162 298h-92l26 382h393v-79h-310l-16 -211q23 31 62 49t83 18q102 0 162 -63.5t60 -168.5q0 -109 -64.5 -174.5t-172.5 -65.5q-105 0 -165.5 53t-68.5 150h92q13 -123 139 -123q62 0 101 31t39 85v89q0 52 -37.5 80.5t-100.5 28.5q-89 0 -130 -81z"/>
            <glyph glyph-name="six" unicode="6" horiz-adv-x="604"
                   d="M307 -15q-131 0 -187.5 83.5t-56.5 254.5q0 372 246 372q203 0 222 -184h-92q-13 104 -130 104q-67 0 -106.5 -47t-39.5 -124v-67q55 70 159 70q106 0 167 -60.5t61 -161.5q0 -60 -26 -113.5t-83 -90t-134 -36.5zM307 65q63 0 103 37.5t40 91.5v56q0 53 -39 86t-103 33
q-65 0 -105 -33t-40 -86v-56q0 -54 40.5 -91.5t103.5 -37.5z"/>
            <glyph glyph-name="seven" unicode="7" horiz-adv-x="501"
                   d="M478 602l-281 -602h-102l286 601h-356v79h453v-78z"/>
            <glyph glyph-name="eight" unicode="8" horiz-adv-x="610"
                   d="M305 -15q-108 0 -176.5 50t-68.5 147q0 62 32.5 106.5t91.5 65.5q-104 45 -104 157q0 84 64 134t161 50t161 -50t64 -134q0 -112 -104 -157q59 -21 91.5 -65.5t32.5 -106.5q0 -97 -68.5 -147t-176.5 -50zM432 481v43q0 43 -36 67t-91 24t-91 -24t-36 -67v-43
q0 -43 36 -67t91 -24t91 24t36 67zM160 214v-52q0 -45 39.5 -71t105.5 -26t105.5 26t39.5 71v52q0 45 -39.5 71.5t-105.5 26.5t-105.5 -26.5t-39.5 -71.5z"/>
            <glyph glyph-name="nine" unicode="9" horiz-adv-x="604"
                   d="M297 695q131 0 187.5 -83.5t56.5 -254.5q0 -372 -246 -372q-203 0 -222 184h92q13 -104 130 -104q67 0 106.5 47t39.5 124v67q-55 -70 -159 -70q-106 0 -167 60.5t-61 161.5q0 60 26 113.5t83 90t134 36.5zM297 615q-63 0 -103 -37.5t-40 -91.5v-56q0 -53 39 -86t103 -33
q65 0 105 33t40 86v56q0 54 -40.5 91.5t-103.5 37.5z"/>
            <glyph glyph-name="colon" unicode=":" horiz-adv-x="262"
                   d="M186 510v-110h-110v110h110zM186 110v-110h-110v110h110z"/>
            <glyph glyph-name="semicolon" unicode=";" horiz-adv-x="262"
                   d="M186 510v-110h-110v110h110zM186 110v-110l-62 -110h-48l59 110h-59v110h110z"/>
            <glyph glyph-name="less" unicode="&#x3c;"
                   d="M540 595v-78l-412 -177l412 -177v-78l-510 219v72z"/>
            <glyph glyph-name="equal" unicode="="
                   d="M555 407h-510v72h510v-72zM555 201h-510v72h510v-72z"/>
            <glyph glyph-name="greater" unicode="&#x3e;"
                   d="M60 517v78l510 -219v-72l-510 -219v78l412 177z"/>
            <glyph glyph-name="question" unicode="?" horiz-adv-x="492"
                   d="M362 511q0 50 -32 78.5t-83 28.5q-54 0 -88.5 -31t-38.5 -86h-90q7 88 68.5 141t149.5 53q89 0 146.5 -50.5t57.5 -131.5q0 -60 -21.5 -99t-62.5 -75q-6 -6 -22.5 -20.5t-21.5 -19t-16.5 -16t-15 -17.5t-9 -16t-7 -20t-1.5 -22v-30h-90v30q0 54 22 89t75 77
q43 35 61.5 65.5t18.5 71.5zM285 110v-110h-110v110h110z"/>
            <glyph glyph-name="at" unicode="@" horiz-adv-x="810"
                   d="M720 77h-450v356h270v-279h90v356h-450v-510h360v-77h-450v664h630v-510zM360 356v-202h90v202h-90z"/>
            <glyph glyph-name="A" unicode="A" horiz-adv-x="629"
                   d="M503 0l-56 168h-267l-56 -168h-98l235 680h106l236 -680h-100zM422 246l-106 328h-4l-107 -328h217z"/>
            <glyph glyph-name="B" unicode="B" horiz-adv-x="648"
                   d="M467 354q55 -15 86.5 -55.5t31.5 -100.5q0 -99 -52 -147q-55 -51 -171 -51h-270v680h265q105 0 154 -35q59 -42 59 -130q0 -58 -27.5 -100.5t-75.5 -60.5zM396 595h-209v-201h209q36 0 55 19.5t19 52.5v61q0 68 -74 68zM485 159v82q0 33 -20.5 50.5t-57.5 17.5h-220v-224
h214q39 0 61.5 19t22.5 55z"/>
            <glyph glyph-name="C" unicode="C" horiz-adv-x="635"
                   d="M340 -15q-133 0 -206 94t-73 255q0 171 71 266t210 95q100 0 166.5 -56.5t73.5 -151.5h-95q-7 60 -47 92.5t-107 32.5q-72 0 -119.5 -47t-47.5 -120v-210q0 -71 50.5 -119t122.5 -48q146 0 159 130h95q-7 -95 -77.5 -154t-175.5 -59z"/>
            <glyph glyph-name="D" unicode="D" horiz-adv-x="666"
                   d="M92 680h220q152 0 222 -83.5t70 -256.5t-70 -256.5t-222 -83.5h-220v680zM312 595h-125v-510h125q187 0 187 155v200q0 155 -187 155z"/>
            <glyph glyph-name="E" unicode="E" horiz-adv-x="604"
                   d="M92 0v680h451v-85h-356v-206h310v-85h-310v-219h356v-85h-451z"/>
            <glyph glyph-name="F" unicode="F" horiz-adv-x="554"
                   d="M92 0v680h417v-85h-322v-206h298v-85h-298v-304h-95z"/>
            <glyph glyph-name="G" unicode="G" horiz-adv-x="680"
                   d="M335 -15q-129 0 -201.5 93.5t-72.5 255.5q0 173 71.5 267t214.5 94q103 0 170.5 -56t74.5 -152h-95q-7 60 -48 92.5t-111 32.5q-75 0 -123.5 -47t-48.5 -120v-210q0 -71 50.5 -119t126.5 -48q79 0 122 42.5t43 121.5v46h-154v85h249v-363h-91l-4 72q-59 -87 -173 -87z
"/>
            <glyph glyph-name="H" unicode="H" horiz-adv-x="695"
                   d="M508 0v307h-321v-307h-95v680h95v-288h321v288h95v-680h-95z"/>
            <glyph glyph-name="I" unicode="I" horiz-adv-x="279"
                   d="M92 0v680h95v-680h-95z"/>
            <glyph glyph-name="J" unicode="J" horiz-adv-x="427"
                   d="M335 680v-680h-314v85h219v595h95z"/>
            <glyph glyph-name="K" unicode="K" horiz-adv-x="620"
                   d="M496 0l-307 363l282 317h116l-287 -317l312 -363h-116zM187 680v-680h-95v680h95z"/>
            <glyph glyph-name="L" unicode="L" horiz-adv-x="516"
                   d="M92 0v680h95v-595h308v-85h-403z"/>
            <glyph glyph-name="M" unicode="M" horiz-adv-x="833"
                   d="M181 0h-89v680h150l174 -525h4l173 525h148v-680h-89v579h-4l-193 -579h-76l-194 579h-4v-579z"/>
            <glyph glyph-name="N" unicode="N" horiz-adv-x="695"
                   d="M507 115h4v565h92v-680h-134l-281 568h-4v-568h-92v680h134z"/>
            <glyph glyph-name="O" unicode="O" horiz-adv-x="706"
                   d="M645 340q0 -167 -72 -261t-220 -94t-220 94t-72 261t72 261t220 94t220 -94t72 -261zM353 68q79 0 133 46t54 121v210q0 75 -54 121t-133 46t-133 -46t-54 -121v-210q0 -75 54 -121t133 -46z"/>
            <glyph glyph-name="P" unicode="P" horiz-adv-x="603"
                   d="M350 259h-163v-259h-95v680h257q115 0 165 -51q48 -49 48 -156q0 -104 -56 -159t-156 -55zM187 344h199q34 0 55 22t21 56v99q0 34 -20 54t-56 20h-199v-251z"/>
            <glyph glyph-name="Q" unicode="Q" horiz-adv-x="712"
                   d="M629 -62l-100 97q-66 -50 -176 -50q-149 0 -220.5 93.5t-71.5 261.5t71.5 261.5t220.5 93.5t220.5 -93.5t71.5 -261.5q0 -152 -57 -240l103 -100zM353 68q79 0 133 46t54 121v210q0 75 -54 121t-133 46t-133 -46t-54 -121v-210q0 -75 54 -121t133 -46z"/>
            <glyph glyph-name="R" unicode="R" horiz-adv-x="620"
                   d="M299 287h-112v-287h-95v680h256q109 0 162 -49q51 -47 51 -146q0 -95 -49 -144q-43 -43 -113 -51l168 -290h-109zM187 368h196q36 0 57 22.5t21 55.5v75q0 34 -21 54t-57 20h-196v-227z"/>
            <glyph glyph-name="S" unicode="S" horiz-adv-x="614"
                   d="M302 612q-65 0 -102.5 -26t-37.5 -71q0 -46 25 -70t84 -40l109 -30q93 -25 138.5 -69.5t45.5 -125.5q0 -87 -73.5 -141t-179.5 -54q-109 0 -182.5 53.5t-82.5 159.5h95q7 -66 52 -98t116 -32q70 0 115 29t45 81q0 43 -24.5 68.5t-78.5 40.5l-133 37q-84 23 -124 69.5
t-40 121.5q0 78 64.5 129t168.5 51q103 0 169.5 -50t75.5 -150h-95q-10 117 -150 117z"/>
            <glyph glyph-name="T" unicode="T" horiz-adv-x="543"
                   d="M21 595v85h501v-85h-203v-595h-95v595h-203z"/>
            <glyph glyph-name="U" unicode="U" horiz-adv-x="686"
                   d="M505 235v445h94v-438q0 -119 -69.5 -188t-186.5 -69t-186.5 69t-69.5 188v438h95v-445q0 -78 42 -122.5t119 -44.5t119.5 44t42.5 123z"/>
            <glyph glyph-name="V" unicode="V" horiz-adv-x="616"
                   d="M255 0l-220 680h102l169 -568h4l169 568h102l-220 -680h-106z"/>
            <glyph glyph-name="W" unicode="W" horiz-adv-x="924"
                   d="M214 0l-176 680h101l133 -573h4l133 573h106l133 -573h4l133 573h101l-176 -680h-119l-127 547h-4l-127 -547h-119z"/>
            <glyph glyph-name="X" unicode="X" horiz-adv-x="581"
                   d="M23 0l217 349l-205 331h104l151 -251l154 251h104l-207 -331l215 -349h-106l-160 266l-162 -266h-105z"/>
            <glyph glyph-name="Y" unicode="Y" horiz-adv-x="618"
                   d="M261 271l-226 409h104l170 -316l173 316h101l-227 -410v-270h-95v271z"/>
            <glyph glyph-name="Z" unicode="Z" horiz-adv-x="588"
                   d="M535 680v-85l-379 -510h378v-85h-487v85l380 510h-364v85h472z"/>
            <glyph glyph-name="bracketleft" unicode="[" horiz-adv-x="339"
                   d="M91 716h210v-74h-125v-738h125v-74h-210v886z"/>
            <glyph glyph-name="backslash" unicode="\" horiz-adv-x="452"
                   d="M336 0l-312 680h92l312 -680h-92z"/>
            <glyph glyph-name="bracketright" unicode="]" horiz-adv-x="339"
                   d="M38 716h210v-886h-210v74h125v738h-125v74z"/>
            <glyph glyph-name="asciicircum" unicode="^" horiz-adv-x="574"
                   d="M42 292l207 388h76l207 -388h-84l-162 302l-159 -302h-85z"/>
            <glyph glyph-name="underscore" unicode="_" horiz-adv-x="550"
                   d="M40 -115v60h470v-60h-470z"/>
            <glyph glyph-name="grave" unicode="`" horiz-adv-x="0"
                   d="M-40 695l79 -122h-78l-106 122h105z"/>
            <glyph glyph-name="a" unicode="a" horiz-adv-x="550"
                   d="M216 -12q-78 0 -122 46q-42 44 -42 106t39.5 104t112.5 49l166 15v41q0 56 -27.5 78.5t-78.5 22.5q-105 0 -105 -92h-90q0 71 56.5 117.5t139.5 46.5q87 0 140 -44t53 -130v-271h76v-77h-152l-2 94h-4q-41 -106 -160 -106zM239 60q60 0 95.5 43t35.5 113v23l-181 -17
q-26 -2 -34 -13.5t-8 -35.5v-45q0 -68 92 -68z"/>
            <glyph glyph-name="b" unicode="b" horiz-adv-x="594"
                   d="M83 0v680h90v-253q50 95 163 95q98 0 150 -75t52 -192t-52 -192t-150 -75q-113 0 -163 95v-83h-90zM173 212q0 -68 37 -110t103 -42q57 0 93.5 32.5t36.5 83.5v158q0 51 -36.5 83.5t-93.5 32.5q-66 0 -103 -42t-37 -110v-86z"/>
            <glyph glyph-name="c" unicode="c" horiz-adv-x="531"
                   d="M56 251q0 124 58 197.5t161 73.5q85 0 140.5 -45t62.5 -134h-90q-9 107 -118 107q-48 0 -83.5 -32t-35.5 -88v-150q0 -54 34.5 -87t85.5 -33q52 0 84.5 28t36.5 83h90q-10 -90 -68 -136.5t-141 -46.5q-107 0 -162 72t-55 191z"/>
            <glyph glyph-name="d" unicode="d" horiz-adv-x="594"
                   d="M511 0h-90v83q-50 -95 -161 -95q-99 0 -151.5 75t-52.5 192t52 192t150 75q113 0 163 -95v253h90v-680zM421 212v86q0 68 -37 110t-103 42q-56 0 -93 -32.5t-37 -83.5v-158q0 -51 37 -83.5t93 -32.5q66 0 103 42t37 110z"/>
            <glyph glyph-name="e" unicode="e" horiz-adv-x="552"
                   d="M276 -12q-107 0 -163.5 73t-56.5 194q0 120 58.5 193.5t161.5 73.5q105 0 161.5 -68.5t56.5 -175.5v-48h-343v-54q0 -53 37.5 -84.5t88.5 -31.5t85 26t38 76h90q-7 -79 -68 -126.5t-146 -47.5zM401 302v28q0 54 -36.5 87t-88.5 33t-88.5 -33t-36.5 -87v-28h250z"/>
            <glyph glyph-name="f" unicode="f" horiz-adv-x="347"
                   d="M208 0h-89v433h-86v77h86v170h206v-77h-117v-93h107v-77h-107v-433z"/>
            <glyph glyph-name="g" unicode="g" horiz-adv-x="594"
                   d="M291 -195q-197 0 -217 160h90q11 -88 123 -88q58 0 96 34t38 103v69q-50 -95 -161 -95q-99 0 -151.5 75t-52.5 192t52 192t150 75q113 0 163 -95v83h90v-500q0 -99 -65 -152t-155 -53zM421 212v86q0 68 -37 110t-103 42q-56 0 -93 -32.5t-37 -83.5v-158q0 -51 37 -83.5
t93 -32.5q66 0 103 42t37 110z"/>
            <glyph glyph-name="h" unicode="h" horiz-adv-x="570"
                   d="M173 0h-90v680h90v-254q46 96 152 96q78 0 122 -44t44 -138v-340h-90v330q0 59 -23 89.5t-78 30.5q-56 0 -91.5 -42.5t-35.5 -109.5v-298z"/>
            <glyph glyph-name="i" unicode="i" horiz-adv-x="256"
                   d="M175 680v-94h-94v94h94zM173 0h-90v510h90v-510z"/>
            <glyph glyph-name="j" unicode="j" horiz-adv-x="262"
                   d="M181 680v-94h-94v94h94zM89 -93v603h90v-680h-208v77h118z"/>
            <glyph glyph-name="k" unicode="k" horiz-adv-x="510"
                   d="M173 680v-680h-90v680h90zM394 0l-220 285l200 225h109l-205 -225l219 -285h-103z"/>
            <glyph glyph-name="l" unicode="l" horiz-adv-x="256"
                   d="M173 0h-90v680h90v-680z"/>
            <glyph glyph-name="m" unicode="m" horiz-adv-x="848"
                   d="M83 0v510h90v-84q39 96 142 96q53 0 91.5 -26.5t54.5 -78.5q16 47 55.5 76t94.5 29q72 0 115 -44.5t43 -137.5v-340h-90v330q0 120 -93 120q-48 0 -81.5 -43t-33.5 -109v-298h-90v330q0 120 -93 120q-48 0 -81.5 -43t-33.5 -109v-298h-90z"/>
            <glyph glyph-name="n" unicode="n" horiz-adv-x="570"
                   d="M401 0v330q0 59 -23 89.5t-78 30.5q-56 0 -91.5 -42.5t-35.5 -109.5v-298h-90v510h90v-84q46 96 152 96q78 0 122 -44t44 -138v-340h-90z"/>
            <glyph glyph-name="o" unicode="o" horiz-adv-x="570"
                   d="M285 -12q-113 0 -171 72.5t-58 194.5t58 194.5t171 72.5t171 -72.5t58 -194.5t-58 -194.5t-171 -72.5zM419 176v158q0 51 -39 83.5t-95 32.5t-95 -32.5t-39 -83.5v-158q0 -51 39 -83.5t95 -32.5t95 32.5t39 83.5z"/>
            <glyph glyph-name="p" unicode="p" horiz-adv-x="594"
                   d="M173 -170h-90v680h90v-83q50 95 163 95q98 0 150 -75t52 -192t-52 -192t-150 -75q-113 0 -163 95v-253zM173 298v-86q0 -68 37 -110t103 -42q57 0 93.5 32.5t36.5 83.5v158q0 51 -36.5 83.5t-93.5 32.5q-66 0 -103 -42t-37 -110z"/>
            <glyph glyph-name="q" unicode="q" horiz-adv-x="594"
                   d="M511 -170h-90v253q-50 -95 -161 -95q-99 0 -151.5 75t-52.5 192t52 192t150 75q113 0 163 -95v83h90v-680zM421 212v86q0 68 -37 110t-103 42q-56 0 -93 -32.5t-37 -83.5v-158q0 -51 37 -83.5t93 -32.5q66 0 103 42t37 110z"/>
            <glyph glyph-name="r" unicode="r" horiz-adv-x="356"
                   d="M83 0v510h245v-78h-155v-432h-90z"/>
            <glyph glyph-name="s" unicode="s" horiz-adv-x="505"
                   d="M255 -12q-90 0 -148 45t-59 128h90q1 -49 35 -75t83 -26q47 0 79 21t32 57q0 32 -20.5 50t-70.5 28l-84 17q-131 27 -131 144q0 62 52.5 103.5t134.5 41.5q79 0 135.5 -41.5t57.5 -122.5h-90q-1 47 -29.5 69.5t-72.5 22.5q-42 0 -71 -20.5t-29 -51.5q0 -30 17 -46.5
t55 -24.5l86 -18q150 -31 150 -150q0 -64 -56.5 -107.5t-145.5 -43.5z"/>
            <glyph glyph-name="t" unicode="t" horiz-adv-x="368"
                   d="M119 0v433h-86v77h86v170h89v-170h117v-77h-117v-356h117v-77h-206z"/>
            <glyph glyph-name="u" unicode="u" horiz-adv-x="566"
                   d="M393 0v84q-45 -96 -149 -96q-75 0 -120 44.5t-45 137.5v340h90v-330q0 -58 23 -89t77 -31q56 0 90 42t34 110v298h90v-510h-90z"/>
            <glyph glyph-name="v" unicode="v" horiz-adv-x="506"
                   d="M296 0h-86l-183 510h97l128 -403h4l130 403h93z"/>
            <glyph glyph-name="w" unicode="w" horiz-adv-x="741"
                   d="M468 0l-96 413h-4l-97 -413h-93l-149 510h91l101 -399h4l90 399h109l94 -399h4l102 399h88l-149 -510h-95z"/>
            <glyph glyph-name="x" unicode="x" horiz-adv-x="499"
                   d="M22 0l175 264l-160 246h100l112 -178l114 178h98l-160 -240l177 -270h-101l-128 202l-127 -202h-100z"/>
            <glyph glyph-name="y" unicode="y" horiz-adv-x="518"
                   d="M242 -170h-174v77h117l32 93l-189 510h97l133 -399h4l137 399h93z"/>
            <glyph glyph-name="z" unicode="z" horiz-adv-x="480"
                   d="M430 0h-384v77l274 356h-254v77h358v-77l-274 -356h280v-77z"/>
            <glyph glyph-name="braceleft" unicode="{" horiz-adv-x="370"
                   d="M207 311h-85v405h210v-74h-125v-331zM122 -170v405h-95v76h95v-76h85v-331h125v-74h-210z"/>
            <glyph glyph-name="bar" unicode="|" horiz-adv-x="267"
                   d="M91 -255v1020h85v-1020h-85z"/>
            <glyph glyph-name="braceright" unicode="}" horiz-adv-x="370"
                   d="M248 716v-405h95v-76h-95v76h-85v331h-125v74h210zM163 235h85v-405h-210v74h125v331z"/>
            <glyph glyph-name="asciitilde" unicode="~"
                   d="M480 300h75q0 -55 -37 -90t-95 -35q-33 0 -60.5 10t-83.5 39q-8 4 -23 12t-19.5 10.5t-14.5 7t-14.5 6t-11.5 3.5t-12.5 2.5t-12.5 0.5q-24 0 -38 -15.5t-14 -41.5h-75q0 55 37 90t95 35q33 0 60.5 -10t83.5 -39q8 -4 23 -12t19.5 -10.5t14.5 -7t14.5 -6t11.5 -3.5
t12.5 -2.5t12.5 -0.5q24 0 38 15.5t14 41.5z"/>
            <glyph glyph-name="uni00A0" unicode="&#xa0;" horiz-adv-x="254"
            />
            <glyph glyph-name="exclamdown" unicode="&#xa1;" horiz-adv-x="260"
                   d="M185 510v-110h-110v110h110zM105 332h50l20 -149v-353h-90v353z"/>
            <glyph glyph-name="cent" unicode="&#xa2;" horiz-adv-x="542"
                   d="M246 -92v82q-91 11 -137.5 81t-46.5 180q0 114 48 185t136 83v83h66v-82q73 -8 119.5 -52.5t52.5 -124.5h-90q-8 88 -82 103v-383q79 18 86 108h90q-9 -81 -57 -126.5t-119 -54.5v-82h-66zM157 180q0 -45 25 -76t64 -41v383q-39 -9 -64 -39t-25 -77v-150z"/>
            <glyph glyph-name="sterling" unicode="&#xa3;" horiz-adv-x="598"
                   d="M55 0v79h90v237h-90v79h90v108q0 80 53 136t148 56q96 0 148.5 -56.5t52.5 -138.5h-90q0 117 -111 117t-111 -117v-105h163v-79h-163v-237h299v-79h-479z"/>
            <glyph glyph-name="currency" unicode="&#xa4;" horiz-adv-x="613"
                   d="M495 51l-55 54q-61 -43 -134 -43q-75 0 -134 42l-54 -54l-54 54l54 54q-42 59 -42 134q0 74 43 133l-55 56l54 54l55 -56q61 43 133 43t133 -43l56 56l54 -54l-56 -56q43 -61 43 -133t-43 -133l56 -55zM151 292q0 -64 45.5 -109.5t109.5 -45.5t109.5 45.5t45.5 109.5
t-45.5 109.5t-109.5 45.5t-109.5 -45.5t-45.5 -109.5z"/>
            <glyph glyph-name="yen" unicode="&#xa5;" horiz-adv-x="572"
                   d="M71 173v59h170v59h-170v59h130l-164 330h98l151 -310l153 310h97l-166 -330h130v-59h-169v-59h169v-59h-169v-173h-90v173h-170z"/>
            <glyph glyph-name="brokenbar" unicode="&#xa6;" horiz-adv-x="267"
                   d="M91 348v417h85v-417h-85zM91 -255v417h85v-417h-85z"/>
            <glyph glyph-name="section" unicode="&#xa7;" horiz-adv-x="576"
                   d="M407 65h-315v615h404v-78h-314v-156h315v-615h-406v78h316v156zM182 368v-225h225v225h-225z"/>
            <glyph glyph-name="dieresis" unicode="&#xa8;" horiz-adv-x="0"
                   d="M-44 680v-88h-88v88h88zM132 680v-88h-88v88h88z"/>
            <glyph glyph-name="copyright" unicode="&#xa9;" horiz-adv-x="826"
                   d="M58 339q0 147 104 251t251 104t251 -104t104 -251t-104 -251t-251 -104t-251 104t-104 251zM123 339q0 -121 84.5 -205.5t205.5 -84.5t205.5 84.5t84.5 205.5t-84.5 205.5t-205.5 84.5t-205.5 -84.5t-84.5 -205.5zM554 399h-66q-7 68 -76 68q-32 0 -55.5 -20.5
t-23.5 -56.5v-102q0 -34 23.5 -55.5t56.5 -21.5q32 0 53.5 18t24.5 53h66q-7 -61 -48.5 -93t-95.5 -32q-71 0 -110.5 49.5t-39.5 129.5q0 85 41 135t112 50q57 0 95 -31.5t43 -90.5z"/>
            <glyph glyph-name="ordfeminine" unicode="&#xaa;" horiz-adv-x="387"
                   d="M180 694q49 0 76 -23.5t27 -67.5v-127h45v-52h-106l-2 39h-3q-25 -45 -74 -45q-37 0 -61 22q-23 25 -23 58q0 35 22 57t64 26l72 7v17q0 38 -39 38q-43 0 -43 -37h-67q1 42 32 65t80 23zM161 469q26 0 41 17t15 47v7l-69 -6q-20 -1 -20 -21v-23q0 -21 33 -21z"/>
            <glyph glyph-name="guillemotleft" unicode="&#xab;" horiz-adv-x="488"
                   d="M424 71h-80l-107 186l107 186h80l-97 -186zM237 71h-80l-107 186l107 186h80l-97 -186z"/>
            <glyph glyph-name="logicalnot" unicode="&#xac;"
                   d="M467 205v202h-436v72h510v-274h-74z"/>
            <glyph glyph-name="uni00AD" unicode="&#xad;" horiz-adv-x="430"
                   d="M75 230v82h280v-82h-280z"/>
            <glyph glyph-name="registered" unicode="&#xae;" horiz-adv-x="826"
                   d="M58 339q0 147 104 251t251 104t251 -104t104 -251t-104 -251t-251 -104t-251 104t-104 251zM123 339q0 -121 84.5 -205.5t205.5 -84.5t205.5 84.5t84.5 205.5t-84.5 205.5t-205.5 84.5t-205.5 -84.5t-84.5 -205.5zM551 169h-72l-70 125h-58v-125h-65v340h156q52 0 80 -28
t28 -80q0 -84 -74 -104zM351 346h95q18 0 27.5 11t9.5 28v34q0 37 -37 37h-95v-110z"/>
            <glyph glyph-name="macron" unicode="&#xaf;" horiz-adv-x="0"
                   d="M-144 611v59h289v-59h-289z"/>
            <glyph glyph-name="degree" unicode="&#xb0;" horiz-adv-x="386"
                   d="M53 555q0 61 39.5 100.5t100.5 39.5t100.5 -39.5t39.5 -100.5t-39.5 -100.5t-100.5 -39.5t-100.5 39.5t-39.5 100.5zM108 555q0 -39 24 -64.5t61 -25.5t61 25.5t24 64.5t-24 64.5t-61 25.5t-61 -25.5t-24 -64.5z"/>
            <glyph glyph-name="plusminus" unicode="&#xb1;"
                   d="M262 364h-217v72h217v159h76v-159h217v-72h-217v-159h-76v159zM555 157v-72h-510v72h510z"/>
            <glyph glyph-name="twosuperior" unicode="&#xb2;" horiz-adv-x="346"
                   d="M302 416h-257v60l144 130q20 18 28.5 31.5t8.5 32.5q0 21 -14 34t-38 13q-27 0 -42 -15t-15 -43h-70q0 53 35.5 84t93.5 31q55 0 87 -29t32 -74q0 -59 -58 -108l-101 -85v-2h166v-60z"/>
            <glyph glyph-name="threesuperior" unicode="&#xb3;" horiz-adv-x="352"
                   d="M201 569h-74v54h70q30 0 30 29v27q0 40 -51 40q-53 0 -56 -49h-70q0 48 35.5 76t91.5 28q55 0 89 -26.5t34 -68.5q0 -59 -55 -83q61 -23 61 -85q0 -46 -36.5 -74.5t-94.5 -28.5q-57 0 -95 29t-38 83h70q3 -57 62 -57q26 0 42.5 13t16.5 32v30q0 31 -32 31z"/>
            <glyph glyph-name="acute" unicode="&#xb4;" horiz-adv-x="0"
                   d="M-39 573l79 122h105l-106 -122h-78z"/>
            <glyph glyph-name="mu" unicode="&#xb5;" horiz-adv-x="610"
                   d="M87 -170v680h90v-341q0 -109 100 -109q56 0 90 42t34 110v298h90v-433h76v-77h-166v84q-45 -96 -144 -96q-52 0 -80 33v-191h-90z"/>
            <glyph glyph-name="paragraph" unicode="&#xb6;" horiz-adv-x="610"
                   d="M50 680h467v-770h-85v698h-127v-698h-85v430h-170v340z"/>
            <glyph glyph-name="periodcentered" unicode="&#xb7;" horiz-adv-x="262"
                   d="M186 311v-110h-110v110h110z"/>
            <glyph glyph-name="cedilla" unicode="&#xb8;" horiz-adv-x="0"
                   d="M-103 -170v65h68v68h70v-133h-138z"/>
            <glyph glyph-name="onesuperior" unicode="&#xb9;" horiz-adv-x="287"
                   d="M217 766v-350h-70v234h-111v56h111v60h70z"/>
            <glyph glyph-name="ordmasculine" unicode="&#xba;" horiz-adv-x="361"
                   d="M305 556q0 -63 -33 -100.5t-92 -37.5q-58 0 -91 37.5t-33 100.5t33 100.5t91 37.5q59 0 92 -37.5t33 -100.5zM234 517v78q0 23 -15 36t-39 13t-39 -13t-15 -36v-78q0 -23 15 -36t39 -13t39 13t15 36z"/>
            <glyph glyph-name="guillemotright" unicode="&#xbb;" horiz-adv-x="488"
                   d="M144 71h-80l97 186l-97 186h80l107 -186zM331 71h-80l97 186l-97 186h80l107 -186z"/>
            <glyph glyph-name="onequarter" unicode="&#xbc;" horiz-adv-x="735"
                   d="M212 680v-350h-70v234h-111v56h111v60h70zM124 0l426 680h76l-426 -680h-76zM637 0h-68v78h-154v56l148 216h74v-216h63v-56h-63v-78zM569 134v132h-2l-91 -132h93z"/>
            <glyph glyph-name="onehalf" unicode="&#xbd;" horiz-adv-x="757"
                   d="M212 680v-350h-70v234h-111v56h111v60h70zM114 0l426 680h76l-426 -680h-76zM713 0h-257v60l144 130q20 18 28.5 31.5t8.5 32.5q0 21 -14 34t-38 13q-27 0 -42 -15t-15 -43h-70q0 53 35.5 84t93.5 31q55 0 87 -29t32 -74q0 -59 -58 -108l-101 -85v-2h166v-60z"/>
            <glyph glyph-name="threequarters" unicode="&#xbe;" horiz-adv-x="773"
                   d="M201 483h-74v54h70q30 0 30 29v27q0 40 -51 40q-53 0 -56 -49h-70q0 48 35.5 76t91.5 28q55 0 89 -26.5t34 -68.5q0 -59 -55 -83q61 -23 61 -85q0 -46 -36.5 -74.5t-94.5 -28.5q-57 0 -95 29t-38 83h70q3 -57 62 -57q26 0 42.5 13t16.5 32v30q0 31 -32 31zM161 0l426 680
h76l-426 -680h-76zM675 0h-68v78h-154v56l148 216h74v-216h63v-56h-63v-78zM607 134v132h-2l-91 -132h93z"/>
            <glyph glyph-name="questiondown" unicode="&#xbf;" horiz-adv-x="488"
                   d="M205 400v110h110v-110h-110zM128 -1q0 -50 32 -78.5t83 -28.5q54 0 88.5 31t38.5 86h90q-7 -88 -68.5 -141t-149.5 -53q-89 0 -146.5 50.5t-57.5 131.5q0 60 21.5 99t62.5 75q6 6 22.5 20.5t21.5 19t16.5 16t15 17.5t9 16t7 20t1.5 22v30h90v-30q0 -54 -22 -89t-75 -77
q-43 -35 -61.5 -65.5t-18.5 -71.5z"/>
            <glyph glyph-name="Agrave" unicode="&#xc0;" horiz-adv-x="629"
                   d="M284 869l79 -122h-78l-106 122h105zM503 0l-56 168h-267l-56 -168h-98l235 680h106l236 -680h-100zM422 246l-106 328h-4l-107 -328h217z"/>
            <glyph glyph-name="Aacute" unicode="&#xc1;" horiz-adv-x="629"
                   d="M265 747l79 122h105l-106 -122h-78zM503 0l-56 168h-267l-56 -168h-98l235 680h106l236 -680h-100zM422 246l-106 328h-4l-107 -328h217z"/>
            <glyph glyph-name="Acircumflex" unicode="&#xc2;" horiz-adv-x="629"
                   d="M315 820l-57 -73h-77l83 122h103l83 -122h-78zM503 0l-56 168h-267l-56 -168h-98l235 680h106l236 -680h-100zM422 246l-106 328h-4l-107 -328h217z"/>
            <glyph glyph-name="Atilde" unicode="&#xc3;" horiz-adv-x="629"
                   d="M418 854h50q0 -45 -23.5 -70t-65.5 -25q-30 0 -75 24t-60 24q-33 0 -33 -38h-50q0 45 23.5 70t65.5 25q30 0 75 -24t60 -24q33 0 33 38zM503 0l-56 168h-267l-56 -168h-98l235 680h106l236 -680h-100zM422 246l-106 328h-4l-107 -328h217z"/>
            <glyph glyph-name="Adieresis" unicode="&#xc4;" horiz-adv-x="629"
                   d="M266 854v-88h-88v88h88zM442 854v-88h-88v88h88zM503 0l-56 168h-267l-56 -168h-98l235 680h106l236 -680h-100zM422 246l-106 328h-4l-107 -328h217z"/>
            <glyph glyph-name="Aring" unicode="&#xc5;" horiz-adv-x="629"
                   d="M403 825q0 -35 -24.5 -60.5t-64.5 -25.5t-64.5 25.5t-24.5 60.5t24.5 60.5t64.5 25.5t64.5 -25.5t24.5 -60.5zM358 825q0 18 -12.5 31t-31.5 13t-32 -13t-13 -31t13 -31.5t32 -13.5t31.5 13.5t12.5 31.5zM503 0l-56 168h-267l-56 -168h-98l235 680h106l236 -680h-100z
M422 246l-106 328h-4l-107 -328h217z"/>
            <glyph glyph-name="AE" unicode="&#xc6;" horiz-adv-x="945"
                   d="M335 680h549v-85h-346v-206h300v-85h-300v-219h346v-85h-441v169h-255l-82 -169h-106zM395 595l-169 -348h217v348h-48z"/>
            <glyph glyph-name="Ccedilla" unicode="&#xc7;" horiz-adv-x="635"
                   d="M340 -15q-133 0 -206 94t-73 255q0 171 71 266t210 95q100 0 166.5 -56.5t73.5 -151.5h-95q-7 60 -47 92.5t-107 32.5q-72 0 -119.5 -47t-47.5 -120v-210q0 -71 50.5 -119t122.5 -48q146 0 159 130h95q-7 -95 -77.5 -154t-175.5 -59zM237 -170v65h68v68h70v-133h-138z
"/>
            <glyph glyph-name="Egrave" unicode="&#xc8;" horiz-adv-x="604"
                   d="M300 869l79 -122h-78l-106 122h105zM92 0v680h451v-85h-356v-206h310v-85h-310v-219h356v-85h-451z"/>
            <glyph glyph-name="Eacute" unicode="&#xc9;" horiz-adv-x="604"
                   d="M253 747l79 122h105l-106 -122h-78zM92 0v680h451v-85h-356v-206h310v-85h-310v-219h356v-85h-451z"/>
            <glyph glyph-name="Ecircumflex" unicode="&#xca;" horiz-adv-x="604"
                   d="M317 820l-57 -73h-77l83 122h103l83 -122h-78zM92 0v680h451v-85h-356v-206h310v-85h-310v-219h356v-85h-451z"/>
            <glyph glyph-name="Edieresis" unicode="&#xcb;" horiz-adv-x="604"
                   d="M273 854v-88h-88v88h88zM449 854v-88h-88v88h88zM92 0v680h451v-85h-356v-206h310v-85h-310v-219h356v-85h-451z"/>
            <glyph glyph-name="Igrave" unicode="&#xcc;" horiz-adv-x="279"
                   d="M107 869l79 -122h-78l-106 122h105zM92 0v680h95v-680h-95z"/>
            <glyph glyph-name="Iacute" unicode="&#xcd;" horiz-adv-x="279"
                   d="M93 747l79 122h105l-106 -122h-78zM92 0v680h95v-680h-95z"/>
            <glyph glyph-name="Icircumflex" unicode="&#xce;" horiz-adv-x="279"
                   d="M139 820l-57 -73h-77l83 122h103l83 -122h-78zM92 0v680h95v-680h-95z"/>
            <glyph glyph-name="Idieresis" unicode="&#xcf;" horiz-adv-x="279"
                   d="M95 854v-88h-88v88h88zM271 854v-88h-88v88h88zM92 0v680h95v-680h-95z"/>
            <glyph glyph-name="Eth" unicode="&#xd0;" horiz-adv-x="680"
                   d="M106 0v304h-72v72h72v304h220q152 0 222 -83.5t70 -256.5t-70 -256.5t-222 -83.5h-220zM201 85h125q187 0 187 155v200q0 155 -187 155h-125v-219h156v-72h-156v-219z"/>
            <glyph glyph-name="Ntilde" unicode="&#xd1;" horiz-adv-x="695"
                   d="M451 854h50q0 -45 -23.5 -70t-65.5 -25q-30 0 -75 24t-60 24q-33 0 -33 -38h-50q0 45 23.5 70t65.5 25q30 0 75 -24t60 -24q33 0 33 38zM507 115h4v565h92v-680h-134l-281 568h-4v-568h-92v680h134z"/>
            <glyph glyph-name="Ograve" unicode="&#xd2;" horiz-adv-x="706"
                   d="M335 869l79 -122h-78l-106 122h105zM645 340q0 -167 -72 -261t-220 -94t-220 94t-72 261t72 261t220 94t220 -94t72 -261zM353 68q79 0 133 46t54 121v210q0 75 -54 121t-133 46t-133 -46t-54 -121v-210q0 -75 54 -121t133 -46z"/>
            <glyph glyph-name="Oacute" unicode="&#xd3;" horiz-adv-x="706"
                   d="M288 747l79 122h105l-106 -122h-78zM645 340q0 -167 -72 -261t-220 -94t-220 94t-72 261t72 261t220 94t220 -94t72 -261zM353 68q79 0 133 46t54 121v210q0 75 -54 121t-133 46t-133 -46t-54 -121v-210q0 -75 54 -121t133 -46z"/>
            <glyph glyph-name="Ocircumflex" unicode="&#xd4;" horiz-adv-x="706"
                   d="M353 820l-57 -73h-77l83 122h103l83 -122h-78zM645 340q0 -167 -72 -261t-220 -94t-220 94t-72 261t72 261t220 94t220 -94t72 -261zM353 68q79 0 133 46t54 121v210q0 75 -54 121t-133 46t-133 -46t-54 -121v-210q0 -75 54 -121t133 -46z"/>
            <glyph glyph-name="Otilde" unicode="&#xd5;" horiz-adv-x="706"
                   d="M457 854h50q0 -45 -23.5 -70t-65.5 -25q-30 0 -75 24t-60 24q-33 0 -33 -38h-50q0 45 23.5 70t65.5 25q30 0 75 -24t60 -24q33 0 33 38zM645 340q0 -167 -72 -261t-220 -94t-220 94t-72 261t72 261t220 94t220 -94t72 -261zM353 68q79 0 133 46t54 121v210q0 75 -54 121
t-133 46t-133 -46t-54 -121v-210q0 -75 54 -121t133 -46z"/>
            <glyph glyph-name="Odieresis" unicode="&#xd6;" horiz-adv-x="706"
                   d="M308 854v-88h-88v88h88zM484 854v-88h-88v88h88zM645 340q0 -167 -72 -261t-220 -94t-220 94t-72 261t72 261t220 94t220 -94t72 -261zM353 68q79 0 133 46t54 121v210q0 75 -54 121t-133 46t-133 -46t-54 -121v-210q0 -75 54 -121t133 -46z"/>
            <glyph glyph-name="multiply" unicode="&#xd7;"
                   d="M355 340l201 -201l-55 -55l-201 201l-200 -201l-55 55l201 201l-201 200l55 55l201 -202l201 201l54 -54z"/>
            <glyph glyph-name="Oslash" unicode="&#xd8;" horiz-adv-x="706"
                   d="M645 340q0 -167 -72 -261t-220 -94q-69 0 -126 22l-37 -75l-56 27l39 79q-112 87 -112 302q0 167 72 261t220 94q74 0 134 -27l40 80l56 -27l-43 -86q105 -89 105 -295zM166 235q0 -70 48 -116l234 472q-45 21 -95 21q-79 0 -133 -46t-54 -121v-210zM353 68q79 0 133 46
t54 121v210q0 64 -41 108l-233 -468q40 -17 87 -17z"/>
            <glyph glyph-name="Ugrave" unicode="&#xd9;" horiz-adv-x="686"
                   d="M331 869l79 -122h-78l-106 122h105zM505 235v445h94v-438q0 -119 -69.5 -188t-186.5 -69t-186.5 69t-69.5 188v438h95v-445q0 -78 42 -122.5t119 -44.5t119.5 44t42.5 123z"/>
            <glyph glyph-name="Uacute" unicode="&#xda;" horiz-adv-x="686"
                   d="M279 747l79 122h105l-106 -122h-78zM505 235v445h94v-438q0 -119 -69.5 -188t-186.5 -69t-186.5 69t-69.5 188v438h95v-445q0 -78 42 -122.5t119 -44.5t119.5 44t42.5 123z"/>
            <glyph glyph-name="Ucircumflex" unicode="&#xdb;" horiz-adv-x="686"
                   d="M343 820l-57 -73h-77l83 122h103l83 -122h-78zM505 235v445h94v-438q0 -119 -69.5 -188t-186.5 -69t-186.5 69t-69.5 188v438h95v-445q0 -78 42 -122.5t119 -44.5t119.5 44t42.5 123z"/>
            <glyph glyph-name="Udieresis" unicode="&#xdc;" horiz-adv-x="686"
                   d="M299 854v-88h-88v88h88zM475 854v-88h-88v88h88zM505 235v445h94v-438q0 -119 -69.5 -188t-186.5 -69t-186.5 69t-69.5 188v438h95v-445q0 -78 42 -122.5t119 -44.5t119.5 44t42.5 123z"/>
            <glyph glyph-name="Yacute" unicode="&#xdd;" horiz-adv-x="618"
                   d="M269 747l79 122h105l-106 -122h-78zM261 271l-226 409h104l170 -316l173 316h101l-227 -410v-270h-95v271z"/>
            <glyph glyph-name="Thorn" unicode="&#xde;" horiz-adv-x="616"
                   d="M92 0v680h95v-127h162q115 0 165 -51q48 -49 48 -156q0 -104 -56 -159t-156 -55h-163v-132h-95zM187 217h199q34 0 55 22t21 56v99q0 34 -20 54t-56 20h-199v-251z"/>
            <glyph glyph-name="germandbls" unicode="&#xdf;" horiz-adv-x="553"
                   d="M253 -15v78h7q63 0 102 27t39 72v87q0 71 -69 71h-79v77h69q69 0 69 70v76q0 37 -29.5 56t-72.5 19q-50 0 -83 -27.5t-33 -80.5v-510h-90v510q0 74 57.5 129.5t148.5 55.5t143.5 -50t52.5 -124q0 -65 -24 -102.5t-75 -60.5q109 -33 109 -168q0 -94 -63.5 -149.5
t-168.5 -55.5h-10z"/>
            <glyph glyph-name="agrave" unicode="&#xe0;" horiz-adv-x="550"
                   d="M240 695l79 -122h-78l-106 122h105zM216 -12q-78 0 -122 46q-42 44 -42 106t39.5 104t112.5 49l166 15v41q0 56 -27.5 78.5t-78.5 22.5q-105 0 -105 -92h-90q0 71 56.5 117.5t139.5 46.5q87 0 140 -44t53 -130v-271h76v-77h-152l-2 94h-4q-41 -106 -160 -106zM239 60
q60 0 95.5 43t35.5 113v23l-181 -17q-26 -2 -34 -13.5t-8 -35.5v-45q0 -68 92 -68z"/>
            <glyph glyph-name="aacute" unicode="&#xe1;" horiz-adv-x="550"
                   d="M198 573l79 122h105l-106 -122h-78zM216 -12q-78 0 -122 46q-42 44 -42 106t39.5 104t112.5 49l166 15v41q0 56 -27.5 78.5t-78.5 22.5q-105 0 -105 -92h-90q0 71 56.5 117.5t139.5 46.5q87 0 140 -44t53 -130v-271h76v-77h-152l-2 94h-4q-41 -106 -160 -106zM239 60
q60 0 95.5 43t35.5 113v23l-181 -17q-26 -2 -34 -13.5t-8 -35.5v-45q0 -68 92 -68z"/>
            <glyph glyph-name="acircumflex" unicode="&#xe2;" horiz-adv-x="550"
                   d="M262 646l-57 -73h-77l83 122h103l83 -122h-78zM216 -12q-78 0 -122 46q-42 44 -42 106t39.5 104t112.5 49l166 15v41q0 56 -27.5 78.5t-78.5 22.5q-105 0 -105 -92h-90q0 71 56.5 117.5t139.5 46.5q87 0 140 -44t53 -130v-271h76v-77h-152l-2 94h-4q-41 -106 -160 -106z
M239 60q60 0 95.5 43t35.5 113v23l-181 -17q-26 -2 -34 -13.5t-8 -35.5v-45q0 -68 92 -68z"/>
            <glyph glyph-name="atilde" unicode="&#xe3;" horiz-adv-x="550"
                   d="M375 680h50q0 -45 -23.5 -70t-65.5 -25q-30 0 -75 24t-60 24q-33 0 -33 -38h-50q0 45 23.5 70t65.5 25q30 0 75 -24t60 -24q33 0 33 38zM216 -12q-78 0 -122 46q-42 44 -42 106t39.5 104t112.5 49l166 15v41q0 56 -27.5 78.5t-78.5 22.5q-105 0 -105 -92h-90
q0 71 56.5 117.5t139.5 46.5q87 0 140 -44t53 -130v-271h76v-77h-152l-2 94h-4q-41 -106 -160 -106zM239 60q60 0 95.5 43t35.5 113v23l-181 -17q-26 -2 -34 -13.5t-8 -35.5v-45q0 -68 92 -68z"/>
            <glyph glyph-name="adieresis" unicode="&#xe4;" horiz-adv-x="550"
                   d="M221 680v-88h-88v88h88zM397 680v-88h-88v88h88zM216 -12q-78 0 -122 46q-42 44 -42 106t39.5 104t112.5 49l166 15v41q0 56 -27.5 78.5t-78.5 22.5q-105 0 -105 -92h-90q0 71 56.5 117.5t139.5 46.5q87 0 140 -44t53 -130v-271h76v-77h-152l-2 94h-4q-41 -106 -160 -106
zM239 60q60 0 95.5 43t35.5 113v23l-181 -17q-26 -2 -34 -13.5t-8 -35.5v-45q0 -68 92 -68z"/>
            <glyph glyph-name="aring" unicode="&#xe5;" horiz-adv-x="550"
                   d="M354 651q0 -35 -24.5 -60.5t-64.5 -25.5t-64.5 25.5t-24.5 60.5t24.5 60.5t64.5 25.5t64.5 -25.5t24.5 -60.5zM309 651q0 18 -12.5 31t-31.5 13t-32 -13t-13 -31t13 -31.5t32 -13.5t31.5 13.5t12.5 31.5zM216 -12q-78 0 -122 46q-42 44 -42 106t39.5 104t112.5 49l166 15
v41q0 56 -27.5 78.5t-78.5 22.5q-105 0 -105 -92h-90q0 71 56.5 117.5t139.5 46.5q87 0 140 -44t53 -130v-271h76v-77h-152l-2 94h-4q-41 -106 -160 -106zM239 60q60 0 95.5 43t35.5 113v23l-181 -17q-26 -2 -34 -13.5t-8 -35.5v-45q0 -68 92 -68z"/>
            <glyph glyph-name="ae" unicode="&#xe6;" horiz-adv-x="852"
                   d="M581 -12q-108 0 -171 86h-2q-63 -86 -176 -86q-93 0 -137 46q-42 44 -42 116q0 62 41.5 107t105.5 45h171v47q0 56 -27.5 78.5t-78.5 22.5q-105 0 -105 -92h-90q0 71 56.5 117.5t139.5 46.5q113 0 163 -68q59 68 152 68q98 0 155.5 -69.5t57.5 -174.5v-48h-333v-54
q0 -53 36.5 -84.5t84.5 -31.5q47 0 80.5 26t37.5 76h90q-7 -79 -67.5 -126.5t-141.5 -47.5zM581 450q-49 0 -84.5 -33t-35.5 -87v-28h240v28q0 54 -35.5 87t-84.5 33zM240 60q60 0 95.5 43t35.5 113v14h-181q-42 0 -42 -47v-55q0 -68 92 -68z"/>
            <glyph glyph-name="ccedilla" unicode="&#xe7;" horiz-adv-x="531"
                   d="M56 251q0 124 58 197.5t161 73.5q85 0 140.5 -45t62.5 -134h-90q-9 107 -118 107q-48 0 -83.5 -32t-35.5 -88v-150q0 -54 34.5 -87t85.5 -33q52 0 84.5 28t36.5 83h90q-10 -90 -68 -136.5t-141 -46.5q-107 0 -162 72t-55 191zM170 -170v65h68v68h70v-133h-138z"/>
            <glyph glyph-name="egrave" unicode="&#xe8;" horiz-adv-x="552"
                   d="M256 695l79 -122h-78l-106 122h105zM276 -12q-107 0 -163.5 73t-56.5 194q0 120 58.5 193.5t161.5 73.5q105 0 161.5 -68.5t56.5 -175.5v-48h-343v-54q0 -53 37.5 -84.5t88.5 -31.5t85 26t38 76h90q-7 -79 -68 -126.5t-146 -47.5zM401 302v28q0 54 -36.5 87t-88.5 33
t-88.5 -33t-36.5 -87v-28h250z"/>
            <glyph glyph-name="eacute" unicode="&#xe9;" horiz-adv-x="552"
                   d="M217 573l79 122h105l-106 -122h-78zM276 -12q-107 0 -163.5 73t-56.5 194q0 120 58.5 193.5t161.5 73.5q105 0 161.5 -68.5t56.5 -175.5v-48h-343v-54q0 -53 37.5 -84.5t88.5 -31.5t85 26t38 76h90q-7 -79 -68 -126.5t-146 -47.5zM401 302v28q0 54 -36.5 87t-88.5 33
t-88.5 -33t-36.5 -87v-28h250z"/>
            <glyph glyph-name="ecircumflex" unicode="&#xea;" horiz-adv-x="552"
                   d="M276 646l-57 -73h-77l83 122h103l83 -122h-78zM276 -12q-107 0 -163.5 73t-56.5 194q0 120 58.5 193.5t161.5 73.5q105 0 161.5 -68.5t56.5 -175.5v-48h-343v-54q0 -53 37.5 -84.5t88.5 -31.5t85 26t38 76h90q-7 -79 -68 -126.5t-146 -47.5zM401 302v28q0 54 -36.5 87
t-88.5 33t-88.5 -33t-36.5 -87v-28h250z"/>
            <glyph glyph-name="edieresis" unicode="&#xeb;" horiz-adv-x="552"
                   d="M232 680v-88h-88v88h88zM408 680v-88h-88v88h88zM276 -12q-107 0 -163.5 73t-56.5 194q0 120 58.5 193.5t161.5 73.5q105 0 161.5 -68.5t56.5 -175.5v-48h-343v-54q0 -53 37.5 -84.5t88.5 -31.5t85 26t38 76h90q-7 -79 -68 -126.5t-146 -47.5zM401 302v28q0 54 -36.5 87
t-88.5 33t-88.5 -33t-36.5 -87v-28h250z"/>
            <glyph glyph-name="igrave" unicode="&#xec;" horiz-adv-x="256"
                   d="M91 695l79 -122h-78l-106 122h105zM173 0h-90v510h90v-510z"/>
            <glyph glyph-name="iacute" unicode="&#xed;" horiz-adv-x="256"
                   d="M86 573l79 122h105l-106 -122h-78zM173 0h-90v510h90v-510z"/>
            <glyph glyph-name="icircumflex" unicode="&#xee;" horiz-adv-x="256"
                   d="M128 646l-57 -73h-77l83 122h103l83 -122h-78zM173 0h-90v510h90v-510z"/>
            <glyph glyph-name="idieresis" unicode="&#xef;" horiz-adv-x="256"
                   d="M84 680v-88h-88v88h88zM260 680v-88h-88v88h88zM173 0h-90v510h90v-510z"/>
            <glyph glyph-name="eth" unicode="&#xf0;" horiz-adv-x="569"
                   d="M333 468l-48 74h-134v62h94l-49 76h97l49 -76h135v-62h-94l53 -79q78 -118 78 -228q0 -111 -61 -179t-168 -68t-168 68t-61 179q0 108 55 177.5t144 69.5q47 0 78 -14zM419 176v118q0 51 -40 83.5t-94 32.5q-56 0 -95 -32.5t-39 -83.5v-118q0 -51 39 -83.5t95 -32.5
t95 32.5t39 83.5z"/>
            <glyph glyph-name="ntilde" unicode="&#xf1;" horiz-adv-x="570"
                   d="M391 680h50q0 -45 -23.5 -70t-65.5 -25q-30 0 -75 24t-60 24q-33 0 -33 -38h-50q0 45 23.5 70t65.5 25q30 0 75 -24t60 -24q33 0 33 38zM401 0v330q0 59 -23 89.5t-78 30.5q-56 0 -91.5 -42.5t-35.5 -109.5v-298h-90v510h90v-84q46 96 152 96q78 0 122 -44t44 -138v-340
h-90z"/>
            <glyph glyph-name="ograve" unicode="&#xf2;" horiz-adv-x="570"
                   d="M255 695l79 -122h-78l-106 122h105zM285 -12q-113 0 -171 72.5t-58 194.5t58 194.5t171 72.5t171 -72.5t58 -194.5t-58 -194.5t-171 -72.5zM419 176v158q0 51 -39 83.5t-95 32.5t-95 -32.5t-39 -83.5v-158q0 -51 39 -83.5t95 -32.5t95 32.5t39 83.5z"/>
            <glyph glyph-name="oacute" unicode="&#xf3;" horiz-adv-x="570"
                   d="M226 573l79 122h105l-106 -122h-78zM285 -12q-113 0 -171 72.5t-58 194.5t58 194.5t171 72.5t171 -72.5t58 -194.5t-58 -194.5t-171 -72.5zM419 176v158q0 51 -39 83.5t-95 32.5t-95 -32.5t-39 -83.5v-158q0 -51 39 -83.5t95 -32.5t95 32.5t39 83.5z"/>
            <glyph glyph-name="ocircumflex" unicode="&#xf4;" horiz-adv-x="570"
                   d="M285 646l-57 -73h-77l83 122h103l83 -122h-78zM285 -12q-113 0 -171 72.5t-58 194.5t58 194.5t171 72.5t171 -72.5t58 -194.5t-58 -194.5t-171 -72.5zM419 176v158q0 51 -39 83.5t-95 32.5t-95 -32.5t-39 -83.5v-158q0 -51 39 -83.5t95 -32.5t95 32.5t39 83.5z"/>
            <glyph glyph-name="otilde" unicode="&#xf5;" horiz-adv-x="570"
                   d="M389 680h50q0 -45 -23.5 -70t-65.5 -25q-30 0 -75 24t-60 24q-33 0 -33 -38h-50q0 45 23.5 70t65.5 25q30 0 75 -24t60 -24q33 0 33 38zM285 -12q-113 0 -171 72.5t-58 194.5t58 194.5t171 72.5t171 -72.5t58 -194.5t-58 -194.5t-171 -72.5zM419 176v158q0 51 -39 83.5
t-95 32.5t-95 -32.5t-39 -83.5v-158q0 -51 39 -83.5t95 -32.5t95 32.5t39 83.5z"/>
            <glyph glyph-name="odieresis" unicode="&#xf6;" horiz-adv-x="570"
                   d="M241 680v-88h-88v88h88zM417 680v-88h-88v88h88zM285 -12q-113 0 -171 72.5t-58 194.5t58 194.5t171 72.5t171 -72.5t58 -194.5t-58 -194.5t-171 -72.5zM419 176v158q0 51 -39 83.5t-95 32.5t-95 -32.5t-39 -83.5v-158q0 -51 39 -83.5t95 -32.5t95 32.5t39 83.5z"/>
            <glyph glyph-name="divide" unicode="&#xf7;"
                   d="M351 595v-103h-102v103h102zM555 376v-72h-510v72h510zM351 188v-103h-102v103h102z"/>
            <glyph glyph-name="oslash" unicode="&#xf8;" horiz-adv-x="570"
                   d="M466 554l-38 -78q86 -68 86 -221q0 -122 -58 -194.5t-171 -72.5q-49 0 -88 14l-36 -73l-56 27l37 77q-86 68 -86 222q0 122 58 194.5t171 72.5q46 0 89 -15l36 74zM177 105l164 335q-28 10 -56 10q-56 0 -95 -32.5t-39 -83.5v-158q0 -40 26 -71zM393 404l-163 -335
q26 -9 55 -9q56 0 95 32.5t39 83.5v158q0 39 -26 70z"/>
            <glyph glyph-name="ugrave" unicode="&#xf9;" horiz-adv-x="566"
                   d="M272 695l79 -122h-78l-106 122h105zM393 0v84q-45 -96 -149 -96q-75 0 -120 44.5t-45 137.5v340h90v-330q0 -58 23 -89t77 -31q56 0 90 42t34 110v298h90v-510h-90z"/>
            <glyph glyph-name="uacute" unicode="&#xfa;" horiz-adv-x="566"
                   d="M220 573l79 122h105l-106 -122h-78zM393 0v84q-45 -96 -149 -96q-75 0 -120 44.5t-45 137.5v340h90v-330q0 -58 23 -89t77 -31q56 0 90 42t34 110v298h90v-510h-90z"/>
            <glyph glyph-name="ucircumflex" unicode="&#xfb;" horiz-adv-x="566"
                   d="M281 646l-57 -73h-77l83 122h103l83 -122h-78zM393 0v84q-45 -96 -149 -96q-75 0 -120 44.5t-45 137.5v340h90v-330q0 -58 23 -89t77 -31q56 0 90 42t34 110v298h90v-510h-90z"/>
            <glyph glyph-name="udieresis" unicode="&#xfc;" horiz-adv-x="566"
                   d="M237 680v-88h-88v88h88zM413 680v-88h-88v88h88zM393 0v84q-45 -96 -149 -96q-75 0 -120 44.5t-45 137.5v340h90v-330q0 -58 23 -89t77 -31q56 0 90 42t34 110v298h90v-510h-90z"/>
            <glyph glyph-name="yacute" unicode="&#xfd;" horiz-adv-x="518"
                   d="M208 573l79 122h105l-106 -122h-78zM242 -170h-174v77h117l32 93l-189 510h97l133 -399h4l137 399h93z"/>
            <glyph glyph-name="thorn" unicode="&#xfe;" horiz-adv-x="594"
                   d="M173 -170h-90v850h90v-253q50 95 163 95q98 0 150 -75t52 -192t-52 -192t-150 -75q-113 0 -163 95v-253zM173 298v-86q0 -68 37 -110t103 -42q57 0 93.5 32.5t36.5 83.5v158q0 51 -36.5 83.5t-93.5 32.5q-66 0 -103 -42t-37 -110z"/>
            <glyph glyph-name="ydieresis" unicode="&#xff;" horiz-adv-x="518"
                   d="M216 680v-88h-88v88h88zM392 680v-88h-88v88h88zM242 -170h-174v77h117l32 93l-189 510h97l133 -399h4l137 399h93z"/>
            <glyph glyph-name="Amacron" unicode="&#x100;" horiz-adv-x="629"
                   d="M170 785v59h289v-59h-289zM503 0l-56 168h-267l-56 -168h-98l235 680h106l236 -680h-100zM422 246l-106 328h-4l-107 -328h217z"/>
            <glyph glyph-name="amacron" unicode="&#x101;" horiz-adv-x="550"
                   d="M121 611v59h289v-59h-289zM216 -12q-78 0 -122 46q-42 44 -42 106t39.5 104t112.5 49l166 15v41q0 56 -27.5 78.5t-78.5 22.5q-105 0 -105 -92h-90q0 71 56.5 117.5t139.5 46.5q87 0 140 -44t53 -130v-271h76v-77h-152l-2 94h-4q-41 -106 -160 -106zM239 60q60 0 95.5 43
t35.5 113v23l-181 -17q-26 -2 -34 -13.5t-8 -35.5v-45q0 -68 92 -68z"/>
            <glyph glyph-name="Abreve" unicode="&#x102;" horiz-adv-x="629"
                   d="M179 869h60q0 -34 21.5 -56.5t53.5 -22.5t53.5 22.5t21.5 56.5h60q0 -56 -39.5 -95.5t-95.5 -39.5t-95.5 39.5t-39.5 95.5zM503 0l-56 168h-267l-56 -168h-98l235 680h106l236 -680h-100zM422 246l-106 328h-4l-107 -328h217z"/>
            <glyph glyph-name="abreve" unicode="&#x103;" horiz-adv-x="550"
                   d="M130 695h60q0 -34 21.5 -56.5t53.5 -22.5t53.5 22.5t21.5 56.5h60q0 -56 -39.5 -95.5t-95.5 -39.5t-95.5 39.5t-39.5 95.5zM216 -12q-78 0 -122 46q-42 44 -42 106t39.5 104t112.5 49l166 15v41q0 56 -27.5 78.5t-78.5 22.5q-105 0 -105 -92h-90q0 71 56.5 117.5
t139.5 46.5q87 0 140 -44t53 -130v-271h76v-77h-152l-2 94h-4q-41 -106 -160 -106zM239 60q60 0 95.5 43t35.5 113v23l-181 -17q-26 -2 -34 -13.5t-8 -35.5v-45q0 -68 92 -68z"/>
            <glyph glyph-name="Aogonek" unicode="&#x104;" horiz-adv-x="629"
                   d="M503 0l-56 168h-267l-56 -168h-98l235 680h106l236 -680h-100zM422 246l-106 328h-4l-107 -328h217zM603 -105v-65h-140v65l75 75h65l-70 -75h70z"/>
            <glyph glyph-name="aogonek" unicode="&#x105;" horiz-adv-x="550"
                   d="M216 -12q-78 0 -122 46q-42 44 -42 106t39.5 104t112.5 49l166 15v41q0 56 -27.5 78.5t-78.5 22.5q-105 0 -105 -92h-90q0 71 56.5 117.5t139.5 46.5q87 0 140 -44t53 -130v-271h76v-77h-152l-2 94h-4q-41 -106 -160 -106zM239 60q60 0 95.5 43t35.5 113v23l-181 -17
q-26 -2 -34 -13.5t-8 -35.5v-45q0 -68 92 -68zM534 -105v-65h-140v65l75 75h65l-70 -75h70z"/>
            <glyph glyph-name="Cacute" unicode="&#x106;" horiz-adv-x="635"
                   d="M281 747l79 122h105l-106 -122h-78zM340 -15q-133 0 -206 94t-73 255q0 171 71 266t210 95q100 0 166.5 -56.5t73.5 -151.5h-95q-7 60 -47 92.5t-107 32.5q-72 0 -119.5 -47t-47.5 -120v-210q0 -71 50.5 -119t122.5 -48q146 0 159 130h95q-7 -95 -77.5 -154t-175.5 -59z
"/>
            <glyph glyph-name="cacute" unicode="&#x107;" horiz-adv-x="531"
                   d="M216 573l79 122h105l-106 -122h-78zM56 251q0 124 58 197.5t161 73.5q85 0 140.5 -45t62.5 -134h-90q-9 107 -118 107q-48 0 -83.5 -32t-35.5 -88v-150q0 -54 34.5 -87t85.5 -33q52 0 84.5 28t36.5 83h90q-10 -90 -68 -136.5t-141 -46.5q-107 0 -162 72t-55 191z"/>
            <glyph glyph-name="Ccircumflex" unicode="&#x108;" horiz-adv-x="635"
                   d="M330 820l-57 -73h-77l83 122h103l83 -122h-78zM340 -15q-133 0 -206 94t-73 255q0 171 71 266t210 95q100 0 166.5 -56.5t73.5 -151.5h-95q-7 60 -47 92.5t-107 32.5q-72 0 -119.5 -47t-47.5 -120v-210q0 -71 50.5 -119t122.5 -48q146 0 159 130h95q-7 -95 -77.5 -154
t-175.5 -59z"/>
            <glyph glyph-name="ccircumflex" unicode="&#x109;" horiz-adv-x="531"
                   d="M275 646l-57 -73h-77l83 122h103l83 -122h-78zM56 251q0 124 58 197.5t161 73.5q85 0 140.5 -45t62.5 -134h-90q-9 107 -118 107q-48 0 -83.5 -32t-35.5 -88v-150q0 -54 34.5 -87t85.5 -33q52 0 84.5 28t36.5 83h90q-10 -90 -68 -136.5t-141 -46.5q-107 0 -162 72
t-55 191z"/>
            <glyph glyph-name="Cdotaccent" unicode="&#x10a;" horiz-adv-x="635"
                   d="M374 854v-88h-88v88h88zM340 -15q-133 0 -206 94t-73 255q0 171 71 266t210 95q100 0 166.5 -56.5t73.5 -151.5h-95q-7 60 -47 92.5t-107 32.5q-72 0 -119.5 -47t-47.5 -120v-210q0 -71 50.5 -119t122.5 -48q146 0 159 130h95q-7 -95 -77.5 -154t-175.5 -59z"/>
            <glyph glyph-name="cdotaccent" unicode="&#x10b;" horiz-adv-x="531"
                   d="M319 680v-88h-88v88h88zM56 251q0 124 58 197.5t161 73.5q85 0 140.5 -45t62.5 -134h-90q-9 107 -118 107q-48 0 -83.5 -32t-35.5 -88v-150q0 -54 34.5 -87t85.5 -33q52 0 84.5 28t36.5 83h90q-10 -90 -68 -136.5t-141 -46.5q-107 0 -162 72t-55 191z"/>
            <glyph glyph-name="Ccaron" unicode="&#x10c;" horiz-adv-x="635"
                   d="M273 869l57 -73l57 73h78l-83 -122h-103l-83 122h77zM340 -15q-133 0 -206 94t-73 255q0 171 71 266t210 95q100 0 166.5 -56.5t73.5 -151.5h-95q-7 60 -47 92.5t-107 32.5q-72 0 -119.5 -47t-47.5 -120v-210q0 -71 50.5 -119t122.5 -48q146 0 159 130h95
q-7 -95 -77.5 -154t-175.5 -59z"/>
            <glyph glyph-name="ccaron" unicode="&#x10d;" horiz-adv-x="531"
                   d="M218 695l57 -73l57 73h78l-83 -122h-103l-83 122h77zM56 251q0 124 58 197.5t161 73.5q85 0 140.5 -45t62.5 -134h-90q-9 107 -118 107q-48 0 -83.5 -32t-35.5 -88v-150q0 -54 34.5 -87t85.5 -33q52 0 84.5 28t36.5 83h90q-10 -90 -68 -136.5t-141 -46.5q-107 0 -162 72
t-55 191z"/>
            <glyph glyph-name="Dcaron" unicode="&#x10e;" horiz-adv-x="666"
                   d="M258 869l57 -73l57 73h78l-83 -122h-103l-83 122h77zM92 680h220q152 0 222 -83.5t70 -256.5t-70 -256.5t-222 -83.5h-220v680zM312 595h-125v-510h125q187 0 187 155v200q0 155 -187 155z"/>
            <glyph glyph-name="dcaron" unicode="&#x10f;" horiz-adv-x="594"
                   d="M511 0h-90v83q-50 -95 -161 -95q-99 0 -151.5 75t-52.5 192t52 192t150 75q113 0 163 -95v253h90v-680zM561 528l29 152h95l-56 -152h-68zM421 212v86q0 68 -37 110t-103 42q-56 0 -93 -32.5t-37 -83.5v-158q0 -51 37 -83.5t93 -32.5q66 0 103 42t37 110z"/>
            <glyph glyph-name="Dcroat" unicode="&#x110;" horiz-adv-x="680"
                   d="M106 0v304h-72v72h72v304h220q152 0 222 -83.5t70 -256.5t-70 -256.5t-222 -83.5h-220zM201 85h125q187 0 187 155v200q0 155 -187 155h-125v-219h156v-72h-156v-219z"/>
            <glyph glyph-name="dcroat" unicode="&#x111;" horiz-adv-x="594"
                   d="M511 0h-90v83q-50 -95 -161 -95q-99 0 -151.5 75t-52.5 192t52 192t150 75q113 0 163 -95v135h-150v60h150v58h90v-58h93v-60h-93v-562zM421 212v86q0 68 -37 110t-103 42q-56 0 -93 -32.5t-37 -83.5v-158q0 -51 37 -83.5t93 -32.5q66 0 103 42t37 110z"/>
            <glyph glyph-name="Emacron" unicode="&#x112;" horiz-adv-x="604"
                   d="M173 785v59h289v-59h-289zM92 0v680h451v-85h-356v-206h310v-85h-310v-219h356v-85h-451z"/>
            <glyph glyph-name="emacron" unicode="&#x113;" horiz-adv-x="552"
                   d="M132 611v59h289v-59h-289zM276 -12q-107 0 -163.5 73t-56.5 194q0 120 58.5 193.5t161.5 73.5q105 0 161.5 -68.5t56.5 -175.5v-48h-343v-54q0 -53 37.5 -84.5t88.5 -31.5t85 26t38 76h90q-7 -79 -68 -126.5t-146 -47.5zM401 302v28q0 54 -36.5 87t-88.5 33t-88.5 -33
t-36.5 -87v-28h250z"/>
            <glyph glyph-name="Ebreve" unicode="&#x114;" horiz-adv-x="604"
                   d="M182 869h60q0 -34 21.5 -56.5t53.5 -22.5t53.5 22.5t21.5 56.5h60q0 -56 -39.5 -95.5t-95.5 -39.5t-95.5 39.5t-39.5 95.5zM92 0v680h451v-85h-356v-206h310v-85h-310v-219h356v-85h-451z"/>
            <glyph glyph-name="ebreve" unicode="&#x115;" horiz-adv-x="552"
                   d="M141 695h60q0 -34 21.5 -56.5t53.5 -22.5t53.5 22.5t21.5 56.5h60q0 -56 -39.5 -95.5t-95.5 -39.5t-95.5 39.5t-39.5 95.5zM276 -12q-107 0 -163.5 73t-56.5 194q0 120 58.5 193.5t161.5 73.5q105 0 161.5 -68.5t56.5 -175.5v-48h-343v-54q0 -53 37.5 -84.5t88.5 -31.5
t85 26t38 76h90q-7 -79 -68 -126.5t-146 -47.5zM401 302v28q0 54 -36.5 87t-88.5 33t-88.5 -33t-36.5 -87v-28h250z"/>
            <glyph glyph-name="Edotaccent" unicode="&#x116;" horiz-adv-x="604"
                   d="M361 854v-88h-88v88h88zM92 0v680h451v-85h-356v-206h310v-85h-310v-219h356v-85h-451z"/>
            <glyph glyph-name="edotaccent" unicode="&#x117;" horiz-adv-x="552"
                   d="M320 680v-88h-88v88h88zM276 -12q-107 0 -163.5 73t-56.5 194q0 120 58.5 193.5t161.5 73.5q105 0 161.5 -68.5t56.5 -175.5v-48h-343v-54q0 -53 37.5 -84.5t88.5 -31.5t85 26t38 76h90q-7 -79 -68 -126.5t-146 -47.5zM401 302v28q0 54 -36.5 87t-88.5 33t-88.5 -33
t-36.5 -87v-28h250z"/>
            <glyph glyph-name="Eogonek" unicode="&#x118;" horiz-adv-x="604"
                   d="M92 0v680h451v-85h-356v-206h310v-85h-310v-219h356v-85h-451zM543 -105v-65h-140v65l75 75h65l-70 -75h70z"/>
            <glyph glyph-name="eogonek" unicode="&#x119;" horiz-adv-x="552"
                   d="M276 -12q-107 0 -163.5 73t-56.5 194q0 120 58.5 193.5t161.5 73.5q105 0 161.5 -68.5t56.5 -175.5v-48h-343v-54q0 -53 37.5 -84.5t88.5 -31.5t85 26t38 76h90q-7 -79 -68 -126.5t-146 -47.5zM401 302v28q0 54 -36.5 87t-88.5 33t-88.5 -33t-36.5 -87v-28h250zM405 -105
v-65h-140v65l75 75h65l-70 -75h70z"/>
            <glyph glyph-name="Ecaron" unicode="&#x11a;" horiz-adv-x="604"
                   d="M270 869l57 -73l57 73h78l-83 -122h-103l-83 122h77zM92 0v680h451v-85h-356v-206h310v-85h-310v-219h356v-85h-451z"/>
            <glyph glyph-name="ecaron" unicode="&#x11b;" horiz-adv-x="552"
                   d="M219 695l57 -73l57 73h78l-83 -122h-103l-83 122h77zM276 -12q-107 0 -163.5 73t-56.5 194q0 120 58.5 193.5t161.5 73.5q105 0 161.5 -68.5t56.5 -175.5v-48h-343v-54q0 -53 37.5 -84.5t88.5 -31.5t85 26t38 76h90q-7 -79 -68 -126.5t-146 -47.5zM401 302v28
q0 54 -36.5 87t-88.5 33t-88.5 -33t-36.5 -87v-28h250z"/>
            <glyph glyph-name="Gcircumflex" unicode="&#x11c;" horiz-adv-x="680"
                   d="M347 820l-57 -73h-77l83 122h103l83 -122h-78zM335 -15q-129 0 -201.5 93.5t-72.5 255.5q0 173 71.5 267t214.5 94q103 0 170.5 -56t74.5 -152h-95q-7 60 -48 92.5t-111 32.5q-75 0 -123.5 -47t-48.5 -120v-210q0 -71 50.5 -119t126.5 -48q79 0 122 42.5t43 121.5v46
h-154v85h249v-363h-91l-4 72q-59 -87 -173 -87z"/>
            <glyph glyph-name="gcircumflex" unicode="&#x11d;" horiz-adv-x="594"
                   d="M283 646l-57 -73h-77l83 122h103l83 -122h-78zM291 -195q-197 0 -217 160h90q11 -88 123 -88q58 0 96 34t38 103v69q-50 -95 -161 -95q-99 0 -151.5 75t-52.5 192t52 192t150 75q113 0 163 -95v83h90v-500q0 -99 -65 -152t-155 -53zM421 212v86q0 68 -37 110t-103 42
q-56 0 -93 -32.5t-37 -83.5v-158q0 -51 37 -83.5t93 -32.5q66 0 103 42t37 110z"/>
            <glyph glyph-name="Gbreve" unicode="&#x11e;" horiz-adv-x="680"
                   d="M212 869h60q0 -34 21.5 -56.5t53.5 -22.5t53.5 22.5t21.5 56.5h60q0 -56 -39.5 -95.5t-95.5 -39.5t-95.5 39.5t-39.5 95.5zM335 -15q-129 0 -201.5 93.5t-72.5 255.5q0 173 71.5 267t214.5 94q103 0 170.5 -56t74.5 -152h-95q-7 60 -48 92.5t-111 32.5q-75 0 -123.5 -47
t-48.5 -120v-210q0 -71 50.5 -119t126.5 -48q79 0 122 42.5t43 121.5v46h-154v85h249v-363h-91l-4 72q-59 -87 -173 -87z"/>
            <glyph glyph-name="gbreve" unicode="&#x11f;" horiz-adv-x="594"
                   d="M148 695h60q0 -34 21.5 -56.5t53.5 -22.5t53.5 22.5t21.5 56.5h60q0 -56 -39.5 -95.5t-95.5 -39.5t-95.5 39.5t-39.5 95.5zM291 -195q-197 0 -217 160h90q11 -88 123 -88q58 0 96 34t38 103v69q-50 -95 -161 -95q-99 0 -151.5 75t-52.5 192t52 192t150 75q113 0 163 -95
v83h90v-500q0 -99 -65 -152t-155 -53zM421 212v86q0 68 -37 110t-103 42q-56 0 -93 -32.5t-37 -83.5v-158q0 -51 37 -83.5t93 -32.5q66 0 103 42t37 110z"/>
            <glyph glyph-name="Gdotaccent" unicode="&#x120;" horiz-adv-x="680"
                   d="M391 854v-88h-88v88h88zM335 -15q-129 0 -201.5 93.5t-72.5 255.5q0 173 71.5 267t214.5 94q103 0 170.5 -56t74.5 -152h-95q-7 60 -48 92.5t-111 32.5q-75 0 -123.5 -47t-48.5 -120v-210q0 -71 50.5 -119t126.5 -48q79 0 122 42.5t43 121.5v46h-154v85h249v-363h-91
l-4 72q-59 -87 -173 -87z"/>
            <glyph glyph-name="gdotaccent" unicode="&#x121;" horiz-adv-x="594"
                   d="M327 680v-88h-88v88h88zM291 -195q-197 0 -217 160h90q11 -88 123 -88q58 0 96 34t38 103v69q-50 -95 -161 -95q-99 0 -151.5 75t-52.5 192t52 192t150 75q113 0 163 -95v83h90v-500q0 -99 -65 -152t-155 -53zM421 212v86q0 68 -37 110t-103 42q-56 0 -93 -32.5
t-37 -83.5v-158q0 -51 37 -83.5t93 -32.5q66 0 103 42t37 110z"/>
            <glyph glyph-name="uni0122" unicode="&#x122;" horiz-adv-x="680"
                   d="M335 -15q-129 0 -201.5 93.5t-72.5 255.5q0 173 71.5 267t214.5 94q103 0 170.5 -56t74.5 -152h-95q-7 60 -48 92.5t-111 32.5q-75 0 -123.5 -47t-48.5 -120v-210q0 -71 50.5 -119t126.5 -48q79 0 122 42.5t43 121.5v46h-154v85h249v-363h-91l-4 72q-59 -87 -173 -87z
M379 -56v-93l-50 -88h-43l47 88h-47v93h93z"/>
            <glyph glyph-name="uni0123" unicode="&#x123;" horiz-adv-x="594"
                   d="M236 592v93l50 88h43l-47 -88h47v-93h-93zM291 -195q-197 0 -217 160h90q11 -88 123 -88q58 0 96 34t38 103v69q-50 -95 -161 -95q-99 0 -151.5 75t-52.5 192t52 192t150 75q113 0 163 -95v83h90v-500q0 -99 -65 -152t-155 -53zM421 212v86q0 68 -37 110t-103 42
q-56 0 -93 -32.5t-37 -83.5v-158q0 -51 37 -83.5t93 -32.5q66 0 103 42t37 110z"/>
            <glyph glyph-name="Hcircumflex" unicode="&#x124;" horiz-adv-x="695"
                   d="M347 820l-57 -73h-77l83 122h103l83 -122h-78zM508 0v307h-321v-307h-95v680h95v-288h321v288h95v-680h-95z"/>
            <glyph glyph-name="hcircumflex" unicode="&#x125;" horiz-adv-x="570"
                   d="M287 820l-57 -73h-77l83 122h103l83 -122h-78zM173 0h-90v680h90v-254q46 96 152 96q78 0 122 -44t44 -138v-340h-90v330q0 59 -23 89.5t-78 30.5q-56 0 -91.5 -42.5t-35.5 -109.5v-298z"/>
            <glyph glyph-name="Hbar" unicode="&#x126;" horiz-adv-x="727"
                   d="M36 477v72h72v131h95v-131h321v131h95v-131h72v-72h-72v-477h-95v307h-321v-307h-95v477h-72zM203 392h321v85h-321v-85z"/>
            <glyph glyph-name="hbar" unicode="&#x127;" horiz-adv-x="570"
                   d="M83 0v562h-93v60h93v58h90v-58h150v-60h-150v-136q46 96 152 96q78 0 122 -44t44 -138v-340h-90v330q0 59 -23 89.5t-78 30.5q-56 0 -91.5 -42.5t-35.5 -109.5v-298h-90z"/>
            <glyph glyph-name="Itilde" unicode="&#x128;" horiz-adv-x="279"
                   d="M243 854h50q0 -45 -23.5 -70t-65.5 -25q-30 0 -75 24t-60 24q-33 0 -33 -38h-50q0 45 23.5 70t65.5 25q30 0 75 -24t60 -24q33 0 33 38zM92 0v680h95v-680h-95z"/>
            <glyph glyph-name="itilde" unicode="&#x129;" horiz-adv-x="256"
                   d="M232 680h50q0 -45 -23.5 -70t-65.5 -25q-30 0 -75 24t-60 24q-33 0 -33 -38h-50q0 45 23.5 70t65.5 25q30 0 75 -24t60 -24q33 0 33 38zM173 0h-90v510h90v-510z"/>
            <glyph glyph-name="Imacron" unicode="&#x12a;" horiz-adv-x="279"
                   d="M-5 785v59h289v-59h-289zM92 0v680h95v-680h-95z"/>
            <glyph glyph-name="imacron" unicode="&#x12b;" horiz-adv-x="256"
                   d="M-16 611v59h289v-59h-289zM173 0h-90v510h90v-510z"/>
            <glyph glyph-name="Ibreve" unicode="&#x12c;" horiz-adv-x="279"
                   d="M4 869h60q0 -34 21.5 -56.5t53.5 -22.5t53.5 22.5t21.5 56.5h60q0 -56 -39.5 -95.5t-95.5 -39.5t-95.5 39.5t-39.5 95.5zM92 0v680h95v-680h-95z"/>
            <glyph glyph-name="ibreve" unicode="&#x12d;" horiz-adv-x="256"
                   d="M-7 695h60q0 -34 21.5 -56.5t53.5 -22.5t53.5 22.5t21.5 56.5h60q0 -56 -39.5 -95.5t-95.5 -39.5t-95.5 39.5t-39.5 95.5zM173 0h-90v510h90v-510z"/>
            <glyph glyph-name="Iogonek" unicode="&#x12e;" horiz-adv-x="279"
                   d="M92 0v680h95v-680h-95zM188 -105v-65h-140v65l75 75h65l-70 -75h70z"/>
            <glyph glyph-name="iogonek" unicode="&#x12f;" horiz-adv-x="256"
                   d="M175 680v-94h-94v94h94zM173 0h-90v510h90v-510zM175 -105v-65h-140v65l75 75h65l-70 -75h70z"/>
            <glyph glyph-name="Idotaccent" unicode="&#x130;" horiz-adv-x="279"
                   d="M183 854v-88h-88v88h88zM92 0v680h95v-680h-95z"/>
            <glyph glyph-name="dotlessi" unicode="&#x131;" horiz-adv-x="256"
                   d="M173 0h-90v510h90v-510z"/>
            <glyph glyph-name="IJ" unicode="&#x132;" horiz-adv-x="704"
                   d="M92 0v680h95v-680h-95zM612 680v-680h-314v85h219v595h95z"/>
            <glyph glyph-name="ij" unicode="&#x133;" horiz-adv-x="524"
                   d="M175 680v-94h-94v94h94zM443 680v-94h-94v94h94zM173 0h-90v510h90v-510zM351 -93v603h90v-680h-208v77h118z"/>
            <glyph glyph-name="Jcircumflex" unicode="&#x134;" horiz-adv-x="427"
                   d="M287 820l-57 -73h-77l83 122h103l83 -122h-78zM335 680v-680h-314v85h219v595h95z"/>
            <glyph glyph-name="jcircumflex" unicode="&#x135;" horiz-adv-x="262"
                   d="M134 646l-57 -73h-77l83 122h103l83 -122h-78zM89 -93v603h90v-680h-208v77h118z"/>
            <glyph glyph-name="uni0136" unicode="&#x136;" horiz-adv-x="620"
                   d="M496 0l-307 363l282 317h116l-287 -317l312 -363h-116zM187 680v-680h-95v680h95zM392 -55v-93l-50 -88h-43l47 88h-47v93h93z"/>
            <glyph glyph-name="uni0137" unicode="&#x137;" horiz-adv-x="510"
                   d="M173 680v-680h-90v680h90zM394 0l-220 285l200 225h109l-205 -225l219 -285h-103zM321 -56v-93l-50 -88h-43l47 88h-47v93h93z"/>
            <glyph glyph-name="kgreenlandic" unicode="&#x138;" horiz-adv-x="510"
                   d="M394 0l-220 285l196 225h113l-205 -225l219 -285h-103zM173 510v-510h-90v510h90z"/>
            <glyph glyph-name="Lacute" unicode="&#x139;" horiz-adv-x="516"
                   d="M95 747l79 122h105l-106 -122h-78zM92 0v680h95v-595h308v-85h-403z"/>
            <glyph glyph-name="lacute" unicode="&#x13a;" horiz-adv-x="256"
                   d="M87 743l79 122h105l-106 -122h-78zM173 0h-90v680h90v-680z"/>
            <glyph glyph-name="uni013B" unicode="&#x13b;" horiz-adv-x="516"
                   d="M92 0v680h95v-595h308v-85h-403zM340 -56v-93l-50 -88h-43l47 88h-47v93h93z"/>
            <glyph glyph-name="uni013C" unicode="&#x13c;" horiz-adv-x="256"
                   d="M173 0h-90v680h90v-680zM174 -56v-93l-50 -88h-43l47 88h-47v93h93z"/>
            <glyph glyph-name="Lcaron" unicode="&#x13d;" horiz-adv-x="524"
                   d="M92 0v680h95v-595h308v-85h-403zM341 528l29 152h95l-56 -152h-68z"/>
            <glyph glyph-name="lcaron" unicode="&#x13e;" horiz-adv-x="256"
                   d="M173 0h-90v680h90v-680zM227 528l29 152h95l-56 -152h-68z"/>
            <glyph glyph-name="Ldot" unicode="&#x13f;" horiz-adv-x="521"
                   d="M92 0v680h95v-595h308v-85h-403zM429 424v-88h-88v88h88z"/>
            <glyph glyph-name="ldot" unicode="&#x140;" horiz-adv-x="282"
                   d="M173 0h-90v680h90v-680zM302 409v-88h-88v88h88z"/>
            <glyph glyph-name="Lslash" unicode="&#x141;" horiz-adv-x="566"
                   d="M141 0v255l-96 -56v82l96 56v343h95v-288l152 89v-82l-152 -89v-225h308v-85h-403z"/>
            <glyph glyph-name="lslash" unicode="&#x142;" horiz-adv-x="334"
                   d="M292 395l-76 -44v-351h-90v298l-76 -44v82l76 44v300h90v-247l76 44v-82z"/>
            <glyph glyph-name="Nacute" unicode="&#x143;" horiz-adv-x="695"
                   d="M268 747l79 122h105l-106 -122h-78zM507 115h4v565h92v-680h-134l-281 568h-4v-568h-92v680h134z"/>
            <glyph glyph-name="nacute" unicode="&#x144;" horiz-adv-x="570"
                   d="M234 573l79 122h105l-106 -122h-78zM401 0v330q0 59 -23 89.5t-78 30.5q-56 0 -91.5 -42.5t-35.5 -109.5v-298h-90v510h90v-84q46 96 152 96q78 0 122 -44t44 -138v-340h-90z"/>
            <glyph glyph-name="uni0145" unicode="&#x145;" horiz-adv-x="695"
                   d="M507 115h4v565h92v-680h-134l-281 568h-4v-568h-92v680h134zM394 -56v-93l-50 -88h-43l47 88h-47v93h93z"/>
            <glyph glyph-name="uni0146" unicode="&#x146;" horiz-adv-x="570"
                   d="M401 0v330q0 59 -23 89.5t-78 30.5q-56 0 -91.5 -42.5t-35.5 -109.5v-298h-90v510h90v-84q46 96 152 96q78 0 122 -44t44 -138v-340h-90zM331 -56v-93l-50 -88h-43l47 88h-47v93h93z"/>
            <glyph glyph-name="Ncaron" unicode="&#x147;" horiz-adv-x="695"
                   d="M290 869l57 -73l57 73h78l-83 -122h-103l-83 122h77zM507 115h4v565h92v-680h-134l-281 568h-4v-568h-92v680h134z"/>
            <glyph glyph-name="ncaron" unicode="&#x148;" horiz-adv-x="570"
                   d="M239 695l57 -73l57 73h78l-83 -122h-103l-83 122h77zM401 0v330q0 59 -23 89.5t-78 30.5q-56 0 -91.5 -42.5t-35.5 -109.5v-298h-90v510h90v-84q46 96 152 96q78 0 122 -44t44 -138v-340h-90z"/>
            <glyph glyph-name="napostrophe" unicode="&#x149;" horiz-adv-x="599"
                   d="M110 680v-93l-50 -88h-43l47 88h-47v93h93zM430 0v330q0 59 -23 89.5t-78 30.5q-56 0 -91.5 -42.5t-35.5 -109.5v-298h-90v510h90v-84q46 96 152 96q78 0 122 -44t44 -138v-340h-90z"/>
            <glyph glyph-name="Eng" unicode="&#x14a;" horiz-adv-x="695"
                   d="M92 0v680h95l318 -509h4v509h94v-850h-275v85h180v85l-318 510h-4v-510h-94z"/>
            <glyph glyph-name="eng" unicode="&#x14b;" horiz-adv-x="570"
                   d="M491 340v-510h-208v77h118v423q0 59 -23 89.5t-78 30.5q-56 0 -91.5 -42.5t-35.5 -109.5v-298h-90v510h90v-84q46 96 152 96q78 0 122 -44t44 -138z"/>
            <glyph glyph-name="Omacron" unicode="&#x14c;" horiz-adv-x="706"
                   d="M209 785v59h289v-59h-289zM645 340q0 -167 -72 -261t-220 -94t-220 94t-72 261t72 261t220 94t220 -94t72 -261zM353 68q79 0 133 46t54 121v210q0 75 -54 121t-133 46t-133 -46t-54 -121v-210q0 -75 54 -121t133 -46z"/>
            <glyph glyph-name="omacron" unicode="&#x14d;" horiz-adv-x="570"
                   d="M141 611v59h289v-59h-289zM285 -12q-113 0 -171 72.5t-58 194.5t58 194.5t171 72.5t171 -72.5t58 -194.5t-58 -194.5t-171 -72.5zM419 176v158q0 51 -39 83.5t-95 32.5t-95 -32.5t-39 -83.5v-158q0 -51 39 -83.5t95 -32.5t95 32.5t39 83.5z"/>
            <glyph glyph-name="Obreve" unicode="&#x14e;" horiz-adv-x="706"
                   d="M218 869h60q0 -34 21.5 -56.5t53.5 -22.5t53.5 22.5t21.5 56.5h60q0 -56 -39.5 -95.5t-95.5 -39.5t-95.5 39.5t-39.5 95.5zM645 340q0 -167 -72 -261t-220 -94t-220 94t-72 261t72 261t220 94t220 -94t72 -261zM353 68q79 0 133 46t54 121v210q0 75 -54 121t-133 46
t-133 -46t-54 -121v-210q0 -75 54 -121t133 -46z"/>
            <glyph glyph-name="obreve" unicode="&#x14f;" horiz-adv-x="570"
                   d="M150 695h60q0 -34 21.5 -56.5t53.5 -22.5t53.5 22.5t21.5 56.5h60q0 -56 -39.5 -95.5t-95.5 -39.5t-95.5 39.5t-39.5 95.5zM285 -12q-113 0 -171 72.5t-58 194.5t58 194.5t171 72.5t171 -72.5t58 -194.5t-58 -194.5t-171 -72.5zM419 176v158q0 51 -39 83.5t-95 32.5
t-95 -32.5t-39 -83.5v-158q0 -51 39 -83.5t95 -32.5t95 32.5t39 83.5z"/>
            <glyph glyph-name="Ohungarumlaut" unicode="&#x150;" horiz-adv-x="706"
                   d="M225 747l74 122h105l-101 -122h-78zM388 747l74 122h105l-101 -122h-78zM645 340q0 -167 -72 -261t-220 -94t-220 94t-72 261t72 261t220 94t220 -94t72 -261zM353 68q79 0 133 46t54 121v210q0 75 -54 121t-133 46t-133 -46t-54 -121v-210q0 -75 54 -121t133 -46z"/>
            <glyph glyph-name="ohungarumlaut" unicode="&#x151;" horiz-adv-x="570"
                   d="M155 573l74 122h105l-101 -122h-78zM318 573l74 122h105l-101 -122h-78zM285 -12q-113 0 -171 72.5t-58 194.5t58 194.5t171 72.5t171 -72.5t58 -194.5t-58 -194.5t-171 -72.5zM419 176v158q0 51 -39 83.5t-95 32.5t-95 -32.5t-39 -83.5v-158q0 -51 39 -83.5t95 -32.5
t95 32.5t39 83.5z"/>
            <glyph glyph-name="OE" unicode="&#x152;" horiz-adv-x="1052"
                   d="M353 -15q-148 0 -220 94t-72 261t72 261t220 94q116 0 187 -63v48h451v-85h-356v-206h310v-85h-310v-219h356v-85h-451v48q-71 -63 -187 -63zM353 68q79 0 133 46t54 121v210q0 75 -54 121t-133 46t-133 -46t-54 -121v-210q0 -75 54 -121t133 -46z"/>
            <glyph glyph-name="oe" unicode="&#x153;" horiz-adv-x="910"
                   d="M634 -12q-113 0 -171 82q-61 -82 -178 -82q-113 0 -171 72.5t-58 194.5t58 194.5t171 72.5q120 0 180 -84q60 84 169 84q102 0 160 -69t58 -175v-48h-343v-54q0 -53 37.5 -84.5t88.5 -31.5t85 26t38 76h90q-7 -79 -68 -126.5t-146 -47.5zM419 176v158q0 51 -39 83.5
t-95 32.5t-95 -32.5t-39 -83.5v-158q0 -51 39 -83.5t95 -32.5t95 32.5t39 83.5zM634 450q-52 0 -88.5 -33t-36.5 -87v-28h250v28q0 54 -36.5 87t-88.5 33z"/>
            <glyph glyph-name="Racute" unicode="&#x154;" horiz-adv-x="620"
                   d="M259 747l79 122h105l-106 -122h-78zM299 287h-112v-287h-95v680h256q109 0 162 -49q51 -47 51 -146q0 -95 -49 -144q-43 -43 -113 -51l168 -290h-109zM187 368h196q36 0 57 22.5t21 55.5v75q0 34 -21 54t-57 20h-196v-227z"/>
            <glyph glyph-name="racute" unicode="&#x155;" horiz-adv-x="356"
                   d="M156 573l79 122h105l-106 -122h-78zM83 0v510h245v-78h-155v-432h-90z"/>
            <glyph glyph-name="uni0156" unicode="&#x156;" horiz-adv-x="620"
                   d="M299 287h-112v-287h-95v680h256q109 0 162 -49q51 -47 51 -146q0 -95 -49 -144q-43 -43 -113 -51l168 -290h-109zM187 368h196q36 0 57 22.5t21 55.5v75q0 34 -21 54t-57 20h-196v-227zM353 -55v-93l-50 -88h-43l47 88h-47v93h93z"/>
            <glyph glyph-name="uni0157" unicode="&#x157;" horiz-adv-x="356"
                   d="M83 0v510h245v-78h-155v-432h-90zM176 -56v-93l-50 -88h-43l47 88h-47v93h93z"/>
            <glyph glyph-name="Rcaron" unicode="&#x158;" horiz-adv-x="620"
                   d="M240 869l57 -73l57 73h78l-83 -122h-103l-83 122h77zM299 287h-112v-287h-95v680h256q109 0 162 -49q51 -47 51 -146q0 -95 -49 -144q-43 -43 -113 -51l168 -290h-109zM187 368h196q36 0 57 22.5t21 55.5v75q0 34 -21 54t-57 20h-196v-227z"/>
            <glyph glyph-name="rcaron" unicode="&#x159;" horiz-adv-x="356"
                   d="M148 695l57 -73l57 73h78l-83 -122h-103l-83 122h77zM83 0v510h245v-78h-155v-432h-90z"/>
            <glyph glyph-name="Sacute" unicode="&#x15a;" horiz-adv-x="614"
                   d="M246 747l79 122h105l-106 -122h-78zM302 612q-65 0 -102.5 -26t-37.5 -71q0 -46 25 -70t84 -40l109 -30q93 -25 138.5 -69.5t45.5 -125.5q0 -87 -73.5 -141t-179.5 -54q-109 0 -182.5 53.5t-82.5 159.5h95q7 -66 52 -98t116 -32q70 0 115 29t45 81q0 43 -24.5 68.5
t-78.5 40.5l-133 37q-84 23 -124 69.5t-40 121.5q0 78 64.5 129t168.5 51q103 0 169.5 -50t75.5 -150h-95q-10 117 -150 117z"/>
            <glyph glyph-name="sacute" unicode="&#x15b;" horiz-adv-x="505"
                   d="M182 573l79 122h105l-106 -122h-78zM255 -12q-90 0 -148 45t-59 128h90q1 -49 35 -75t83 -26q47 0 79 21t32 57q0 32 -20.5 50t-70.5 28l-84 17q-131 27 -131 144q0 62 52.5 103.5t134.5 41.5q79 0 135.5 -41.5t57.5 -122.5h-90q-1 47 -29.5 69.5t-72.5 22.5
q-42 0 -71 -20.5t-29 -51.5q0 -30 17 -46.5t55 -24.5l86 -18q150 -31 150 -150q0 -64 -56.5 -107.5t-145.5 -43.5z"/>
            <glyph glyph-name="Scircumflex" unicode="&#x15c;" horiz-adv-x="614"
                   d="M305 820l-57 -73h-77l83 122h103l83 -122h-78zM302 612q-65 0 -102.5 -26t-37.5 -71q0 -46 25 -70t84 -40l109 -30q93 -25 138.5 -69.5t45.5 -125.5q0 -87 -73.5 -141t-179.5 -54q-109 0 -182.5 53.5t-82.5 159.5h95q7 -66 52 -98t116 -32q70 0 115 29t45 81
q0 43 -24.5 68.5t-78.5 40.5l-133 37q-84 23 -124 69.5t-40 121.5q0 78 64.5 129t168.5 51q103 0 169.5 -50t75.5 -150h-95q-10 117 -150 117z"/>
            <glyph glyph-name="scircumflex" unicode="&#x15d;" horiz-adv-x="505"
                   d="M248 646l-57 -73h-77l83 122h103l83 -122h-78zM255 -12q-90 0 -148 45t-59 128h90q1 -49 35 -75t83 -26q47 0 79 21t32 57q0 32 -20.5 50t-70.5 28l-84 17q-131 27 -131 144q0 62 52.5 103.5t134.5 41.5q79 0 135.5 -41.5t57.5 -122.5h-90q-1 47 -29.5 69.5t-72.5 22.5
q-42 0 -71 -20.5t-29 -51.5q0 -30 17 -46.5t55 -24.5l86 -18q150 -31 150 -150q0 -64 -56.5 -107.5t-145.5 -43.5z"/>
            <glyph glyph-name="Scedilla" unicode="&#x15e;" horiz-adv-x="614"
                   d="M302 612q-65 0 -102.5 -26t-37.5 -71q0 -46 25 -70t84 -40l109 -30q93 -25 138.5 -69.5t45.5 -125.5q0 -87 -73.5 -141t-179.5 -54q-109 0 -182.5 53.5t-82.5 159.5h95q7 -66 52 -98t116 -32q70 0 115 29t45 81q0 43 -24.5 68.5t-78.5 40.5l-133 37q-84 23 -124 69.5
t-40 121.5q0 78 64.5 129t168.5 51q103 0 169.5 -50t75.5 -150h-95q-10 117 -150 117zM207 -169v65h68v68h70v-133h-138z"/>
            <glyph glyph-name="scedilla" unicode="&#x15f;" horiz-adv-x="505"
                   d="M255 -12q-90 0 -148 45t-59 128h90q1 -49 35 -75t83 -26q47 0 79 21t32 57q0 32 -20.5 50t-70.5 28l-84 17q-131 27 -131 144q0 62 52.5 103.5t134.5 41.5q79 0 135.5 -41.5t57.5 -122.5h-90q-1 47 -29.5 69.5t-72.5 22.5q-42 0 -71 -20.5t-29 -51.5q0 -30 17 -46.5
t55 -24.5l86 -18q150 -31 150 -150q0 -64 -56.5 -107.5t-145.5 -43.5zM152 -170v65h68v68h70v-133h-138z"/>
            <glyph glyph-name="Scaron" unicode="&#x160;" horiz-adv-x="614"
                   d="M248 869l57 -73l57 73h78l-83 -122h-103l-83 122h77zM302 612q-65 0 -102.5 -26t-37.5 -71q0 -46 25 -70t84 -40l109 -30q93 -25 138.5 -69.5t45.5 -125.5q0 -87 -73.5 -141t-179.5 -54q-109 0 -182.5 53.5t-82.5 159.5h95q7 -66 52 -98t116 -32q70 0 115 29t45 81
q0 43 -24.5 68.5t-78.5 40.5l-133 37q-84 23 -124 69.5t-40 121.5q0 78 64.5 129t168.5 51q103 0 169.5 -50t75.5 -150h-95q-10 117 -150 117z"/>
            <glyph glyph-name="scaron" unicode="&#x161;" horiz-adv-x="505"
                   d="M191 695l57 -73l57 73h78l-83 -122h-103l-83 122h77zM255 -12q-90 0 -148 45t-59 128h90q1 -49 35 -75t83 -26q47 0 79 21t32 57q0 32 -20.5 50t-70.5 28l-84 17q-131 27 -131 144q0 62 52.5 103.5t134.5 41.5q79 0 135.5 -41.5t57.5 -122.5h-90q-1 47 -29.5 69.5
t-72.5 22.5q-42 0 -71 -20.5t-29 -51.5q0 -30 17 -46.5t55 -24.5l86 -18q150 -31 150 -150q0 -64 -56.5 -107.5t-145.5 -43.5z"/>
            <glyph glyph-name="uni0162" unicode="&#x162;" horiz-adv-x="543"
                   d="M21 595v85h501v-85h-203v-595h-95v595h-203zM168 -169v65h68v68h70v-133h-138z"/>
            <glyph glyph-name="uni0163" unicode="&#x163;" horiz-adv-x="368"
                   d="M119 0v433h-86v77h86v170h89v-170h117v-77h-117v-356h117v-77h-206zM102 -170v65h68v68h70v-133h-138z"/>
            <glyph glyph-name="Tcaron" unicode="&#x164;" horiz-adv-x="543"
                   d="M214 869l57 -73l57 73h78l-83 -122h-103l-83 122h77zM21 595v85h501v-85h-203v-595h-95v595h-203z"/>
            <glyph glyph-name="tcaron" unicode="&#x165;" horiz-adv-x="368"
                   d="M270 578l29 152h95l-56 -152h-68zM119 0v433h-86v77h86v170h89v-170h117v-77h-117v-356h117v-77h-206z"/>
            <glyph glyph-name="Tbar" unicode="&#x166;" horiz-adv-x="577"
                   d="M85 304v72h156v219h-203v85h501v-85h-203v-219h156v-72h-156v-304h-95v304h-156z"/>
            <glyph glyph-name="tbar" unicode="&#x167;" horiz-adv-x="381"
                   d="M128 0v225h-86v60h86v148h-86v77h86v170h89v-170h117v-77h-117v-148h117v-60h-117v-148h117v-77h-206z"/>
            <glyph glyph-name="Utilde" unicode="&#x168;" horiz-adv-x="686"
                   d="M447 854h50q0 -45 -23.5 -70t-65.5 -25q-30 0 -75 24t-60 24q-33 0 -33 -38h-50q0 45 23.5 70t65.5 25q30 0 75 -24t60 -24q33 0 33 38zM505 235v445h94v-438q0 -119 -69.5 -188t-186.5 -69t-186.5 69t-69.5 188v438h95v-445q0 -78 42 -122.5t119 -44.5t119.5 44
t42.5 123z"/>
            <glyph glyph-name="utilde" unicode="&#x169;" horiz-adv-x="566"
                   d="M385 680h50q0 -45 -23.5 -70t-65.5 -25q-30 0 -75 24t-60 24q-33 0 -33 -38h-50q0 45 23.5 70t65.5 25q30 0 75 -24t60 -24q33 0 33 38zM393 0v84q-45 -96 -149 -96q-75 0 -120 44.5t-45 137.5v340h90v-330q0 -58 23 -89t77 -31q56 0 90 42t34 110v298h90v-510h-90z"/>
            <glyph glyph-name="Umacron" unicode="&#x16a;" horiz-adv-x="686"
                   d="M199 785v59h289v-59h-289zM505 235v445h94v-438q0 -119 -69.5 -188t-186.5 -69t-186.5 69t-69.5 188v438h95v-445q0 -78 42 -122.5t119 -44.5t119.5 44t42.5 123z"/>
            <glyph glyph-name="umacron" unicode="&#x16b;" horiz-adv-x="566"
                   d="M137 611v59h289v-59h-289zM393 0v84q-45 -96 -149 -96q-75 0 -120 44.5t-45 137.5v340h90v-330q0 -58 23 -89t77 -31q56 0 90 42t34 110v298h90v-510h-90z"/>
            <glyph glyph-name="Ubreve" unicode="&#x16c;" horiz-adv-x="686"
                   d="M208 869h60q0 -34 21.5 -56.5t53.5 -22.5t53.5 22.5t21.5 56.5h60q0 -56 -39.5 -95.5t-95.5 -39.5t-95.5 39.5t-39.5 95.5zM505 235v445h94v-438q0 -119 -69.5 -188t-186.5 -69t-186.5 69t-69.5 188v438h95v-445q0 -78 42 -122.5t119 -44.5t119.5 44t42.5 123z"/>
            <glyph glyph-name="ubreve" unicode="&#x16d;" horiz-adv-x="566"
                   d="M146 695h60q0 -34 21.5 -56.5t53.5 -22.5t53.5 22.5t21.5 56.5h60q0 -56 -39.5 -95.5t-95.5 -39.5t-95.5 39.5t-39.5 95.5zM393 0v84q-45 -96 -149 -96q-75 0 -120 44.5t-45 137.5v340h90v-330q0 -58 23 -89t77 -31q56 0 90 42t34 110v298h90v-510h-90z"/>
            <glyph glyph-name="Uring" unicode="&#x16e;" horiz-adv-x="686"
                   d="M432 821q0 -35 -24.5 -60.5t-64.5 -25.5t-64.5 25.5t-24.5 60.5t24.5 60.5t64.5 25.5t64.5 -25.5t24.5 -60.5zM387 821q0 18 -12.5 31t-31.5 13t-32 -13t-13 -31t13 -31.5t32 -13.5t31.5 13.5t12.5 31.5zM505 235v445h94v-438q0 -119 -69.5 -188t-186.5 -69t-186.5 69
t-69.5 188v438h95v-445q0 -78 42 -122.5t119 -44.5t119.5 44t42.5 123z"/>
            <glyph glyph-name="uring" unicode="&#x16f;" horiz-adv-x="566"
                   d="M370 651q0 -35 -24.5 -60.5t-64.5 -25.5t-64.5 25.5t-24.5 60.5t24.5 60.5t64.5 25.5t64.5 -25.5t24.5 -60.5zM325 651q0 18 -12.5 31t-31.5 13t-32 -13t-13 -31t13 -31.5t32 -13.5t31.5 13.5t12.5 31.5zM393 0v84q-45 -96 -149 -96q-75 0 -120 44.5t-45 137.5v340h90
v-330q0 -58 23 -89t77 -31q56 0 90 42t34 110v298h90v-510h-90z"/>
            <glyph glyph-name="Uhungarumlaut" unicode="&#x170;" horiz-adv-x="686"
                   d="M215 747l74 122h105l-101 -122h-78zM378 747l74 122h105l-101 -122h-78zM505 235v445h94v-438q0 -119 -69.5 -188t-186.5 -69t-186.5 69t-69.5 188v438h95v-445q0 -78 42 -122.5t119 -44.5t119.5 44t42.5 123z"/>
            <glyph glyph-name="uhungarumlaut" unicode="&#x171;" horiz-adv-x="566"
                   d="M141 573l74 122h105l-101 -122h-78zM304 573l74 122h105l-101 -122h-78zM393 0v84q-45 -96 -149 -96q-75 0 -120 44.5t-45 137.5v340h90v-330q0 -58 23 -89t77 -31q56 0 90 42t34 110v298h90v-510h-90z"/>
            <glyph glyph-name="Uogonek" unicode="&#x172;" horiz-adv-x="686"
                   d="M505 235v445h94v-438q0 -119 -69.5 -188t-186.5 -69t-186.5 69t-69.5 188v438h95v-445q0 -78 42 -122.5t119 -44.5t119.5 44t42.5 123zM431 -104v-65h-140v65l75 75h65l-70 -75h70z"/>
            <glyph glyph-name="uogonek" unicode="&#x173;" horiz-adv-x="566"
                   d="M393 0v84q-45 -96 -149 -96q-75 0 -120 44.5t-45 137.5v340h90v-330q0 -58 23 -89t77 -31q56 0 90 42t34 110v298h90v-510h-90zM483 -105v-65h-140v65l75 75h65l-70 -75h70z"/>
            <glyph glyph-name="Wcircumflex" unicode="&#x174;" horiz-adv-x="924"
                   d="M465 820l-57 -73h-77l83 122h103l83 -122h-78zM214 0l-176 680h101l133 -573h4l133 573h106l133 -573h4l133 573h101l-176 -680h-119l-127 547h-4l-127 -547h-119z"/>
            <glyph glyph-name="wcircumflex" unicode="&#x175;" horiz-adv-x="741"
                   d="M370 646l-57 -73h-77l83 122h103l83 -122h-78zM468 0l-96 413h-4l-97 -413h-93l-149 510h91l101 -399h4l90 399h109l94 -399h4l102 399h88l-149 -510h-95z"/>
            <glyph glyph-name="Ycircumflex" unicode="&#x176;" horiz-adv-x="618"
                   d="M309 820l-57 -73h-77l83 122h103l83 -122h-78zM261 271l-226 409h104l170 -316l173 316h101l-227 -410v-270h-95v271z"/>
            <glyph glyph-name="ycircumflex" unicode="&#x177;" horiz-adv-x="518"
                   d="M260 646l-57 -73h-77l83 122h103l83 -122h-78zM242 -170h-174v77h117l32 93l-189 510h97l133 -399h4l137 399h93z"/>
            <glyph glyph-name="Ydieresis" unicode="&#x178;" horiz-adv-x="618"
                   d="M266 854v-88h-88v88h88zM442 854v-88h-88v88h88zM261 271l-226 409h104l170 -316l173 316h101l-227 -410v-270h-95v271z"/>
            <glyph glyph-name="Zacute" unicode="&#x179;" horiz-adv-x="588"
                   d="M243 747l79 122h105l-106 -122h-78zM535 680v-85l-379 -510h378v-85h-487v85l380 510h-364v85h472z"/>
            <glyph glyph-name="zacute" unicode="&#x17a;" horiz-adv-x="480"
                   d="M186 573l79 122h105l-106 -122h-78zM430 0h-384v77l274 356h-254v77h358v-77l-274 -356h280v-77z"/>
            <glyph glyph-name="Zdotaccent" unicode="&#x17b;" horiz-adv-x="588"
                   d="M336 854v-88h-88v88h88zM535 680v-85l-379 -510h378v-85h-487v85l380 510h-364v85h472z"/>
            <glyph glyph-name="zdotaccent" unicode="&#x17c;" horiz-adv-x="480"
                   d="M282 680v-88h-88v88h88zM430 0h-384v77l274 356h-254v77h358v-77l-274 -356h280v-77z"/>
            <glyph glyph-name="Zcaron" unicode="&#x17d;" horiz-adv-x="588"
                   d="M239 869l57 -73l57 73h78l-83 -122h-103l-83 122h77zM535 680v-85l-379 -510h378v-85h-487v85l380 510h-364v85h472z"/>
            <glyph glyph-name="zcaron" unicode="&#x17e;" horiz-adv-x="480"
                   d="M192 695l57 -73l57 73h78l-83 -122h-103l-83 122h77zM430 0h-384v77l274 356h-254v77h358v-77l-274 -356h280v-77z"/>
            <glyph glyph-name="uni018F" unicode="&#x18f;" horiz-adv-x="704"
                   d="M351 -15q-148 0 -220 94t-72 261v48h479v57q0 75 -54 121t-133 46q-67 0 -117 -33.5t-63 -91.5h-95q19 98 90.5 153t184.5 55q148 0 220 -94t72 -261q0 -166 -72 -260.5t-220 -94.5zM164 235q0 -75 54 -121t133 -46t133 46t54 121v68h-374v-68z"/>
            <glyph glyph-name="florin" unicode="&#x192;"
                   d="M183 358v75h105l50 247h199v-75h-128l-35 -172h132v-75h-147l-106 -528h-198v75h128l90 453h-90z"/>
            <glyph glyph-name="Aringacute" unicode="&#x1fa;" horiz-adv-x="629"
                   d="M274 907l79 122h105l-106 -122h-78zM403 795q0 -35 -24.5 -60.5t-64.5 -25.5t-64.5 25.5t-24.5 60.5t24.5 60.5t64.5 25.5t64.5 -25.5t24.5 -60.5zM358 795q0 18 -12.5 31t-31.5 13t-32 -13t-13 -31t13 -31.5t32 -13.5t31.5 13.5t12.5 31.5zM503 0l-56 168h-267l-56 -168
h-98l235 680h106l236 -680h-100zM422 246l-106 328h-4l-107 -328h217z"/>
            <glyph glyph-name="aringacute" unicode="&#x1fb;" horiz-adv-x="550"
                   d="M222 742l79 122h105l-106 -122h-78zM354 630q0 -35 -24.5 -60.5t-64.5 -25.5t-64.5 25.5t-24.5 60.5t24.5 60.5t64.5 25.5t64.5 -25.5t24.5 -60.5zM309 630q0 18 -12.5 31t-31.5 13t-32 -13t-13 -31t13 -31.5t32 -13.5t31.5 13.5t12.5 31.5zM216 -12q-78 0 -122 46
q-42 44 -42 106t39.5 104t112.5 49l166 15v41q0 56 -27.5 78.5t-78.5 22.5q-105 0 -105 -92h-90q0 71 56.5 117.5t139.5 46.5q87 0 140 -44t53 -130v-271h76v-77h-152l-2 94h-4q-41 -106 -160 -106zM239 60q60 0 95.5 43t35.5 113v23l-181 -17q-26 -2 -34 -13.5t-8 -35.5
v-45q0 -68 92 -68z"/>
            <glyph glyph-name="AEacute" unicode="&#x1fc;" horiz-adv-x="945"
                   d="M539 747l79 122h105l-106 -122h-78zM335 680h549v-85h-346v-206h300v-85h-300v-219h346v-85h-441v169h-255l-82 -169h-106zM395 595l-169 -348h217v348h-48z"/>
            <glyph glyph-name="aeacute" unicode="&#x1fd;" horiz-adv-x="852"
                   d="M384 573l79 122h105l-106 -122h-78zM581 -12q-108 0 -171 86h-2q-63 -86 -176 -86q-93 0 -137 46q-42 44 -42 116q0 62 41.5 107t105.5 45h171v47q0 56 -27.5 78.5t-78.5 22.5q-105 0 -105 -92h-90q0 71 56.5 117.5t139.5 46.5q113 0 163 -68q59 68 152 68
q98 0 155.5 -69.5t57.5 -174.5v-48h-333v-54q0 -53 36.5 -84.5t84.5 -31.5q47 0 80.5 26t37.5 76h90q-7 -79 -67.5 -126.5t-141.5 -47.5zM581 450q-49 0 -84.5 -33t-35.5 -87v-28h240v28q0 54 -35.5 87t-84.5 33zM240 60q60 0 95.5 43t35.5 113v14h-181q-42 0 -42 -47v-55
q0 -68 92 -68z"/>
            <glyph glyph-name="Oslashacute" unicode="&#x1fe;" horiz-adv-x="706"
                   d="M287 747l79 122h105l-106 -122h-78zM645 340q0 -167 -72 -261t-220 -94q-69 0 -126 22l-37 -75l-56 27l39 79q-112 87 -112 302q0 167 72 261t220 94q74 0 134 -27l40 80l56 -27l-43 -86q105 -89 105 -295zM166 235q0 -70 48 -116l234 472q-45 21 -95 21q-79 0 -133 -46
t-54 -121v-210zM353 68q79 0 133 46t54 121v210q0 64 -41 108l-233 -468q40 -17 87 -17z"/>
            <glyph glyph-name="oslashacute" unicode="&#x1ff;" horiz-adv-x="570"
                   d="M226 573l79 122h105l-106 -122h-78zM466 554l-38 -78q86 -68 86 -221q0 -122 -58 -194.5t-171 -72.5q-49 0 -88 14l-36 -73l-56 27l37 77q-86 68 -86 222q0 122 58 194.5t171 72.5q46 0 89 -15l36 74zM177 105l164 335q-28 10 -56 10q-56 0 -95 -32.5t-39 -83.5v-158
q0 -40 26 -71zM393 404l-163 -335q26 -9 55 -9q56 0 95 32.5t39 83.5v158q0 39 -26 70z"/>
            <glyph glyph-name="uni0218" unicode="&#x218;" horiz-adv-x="614"
                   d="M302 612q-65 0 -102.5 -26t-37.5 -71q0 -46 25 -70t84 -40l109 -30q93 -25 138.5 -69.5t45.5 -125.5q0 -87 -73.5 -141t-179.5 -54q-109 0 -182.5 53.5t-82.5 159.5h95q7 -66 52 -98t116 -32q70 0 115 29t45 81q0 43 -24.5 68.5t-78.5 40.5l-133 37q-84 23 -124 69.5
t-40 121.5q0 78 64.5 129t168.5 51q103 0 169.5 -50t75.5 -150h-95q-10 117 -150 117zM351 -55v-93l-50 -88h-43l47 88h-47v93h93z"/>
            <glyph glyph-name="uni0219" unicode="&#x219;" horiz-adv-x="505"
                   d="M255 -12q-90 0 -148 45t-59 128h90q1 -49 35 -75t83 -26q47 0 79 21t32 57q0 32 -20.5 50t-70.5 28l-84 17q-131 27 -131 144q0 62 52.5 103.5t134.5 41.5q79 0 135.5 -41.5t57.5 -122.5h-90q-1 47 -29.5 69.5t-72.5 22.5q-42 0 -71 -20.5t-29 -51.5q0 -30 17 -46.5
t55 -24.5l86 -18q150 -31 150 -150q0 -64 -56.5 -107.5t-145.5 -43.5zM299 -56v-93l-50 -88h-43l47 88h-47v93h93z"/>
            <glyph glyph-name="uni021A" unicode="&#x21a;" horiz-adv-x="543"
                   d="M21 595v85h501v-85h-203v-595h-95v595h-203zM318 -55v-93l-50 -88h-43l47 88h-47v93h93z"/>
            <glyph glyph-name="uni021B" unicode="&#x21b;" horiz-adv-x="368"
                   d="M119 0v433h-86v77h86v170h89v-170h117v-77h-117v-356h117v-77h-206zM267 -56v-93l-50 -88h-43l47 88h-47v93h93z"/>
            <glyph glyph-name="uni0237" unicode="&#x237;" horiz-adv-x="262"
                   d="M89 -93v603h90v-680h-208v77h118z"/>
            <glyph glyph-name="uni0259" unicode="&#x259;" horiz-adv-x="552"
                   d="M496 255q0 -120 -58.5 -193.5t-161.5 -73.5q-105 0 -161.5 68.5t-56.5 175.5v48h343v54q0 53 -37.5 84.5t-88.5 31.5t-85 -26t-38 -76h-90q7 79 68 126.5t146 47.5q107 0 163.5 -73t56.5 -194zM401 180v28h-250v-28q0 -54 36.5 -87t88.5 -33t88.5 33t36.5 87z"/>
            <glyph glyph-name="circumflex" unicode="&#x2c6;" horiz-adv-x="0"
                   d="M0 646l-57 -73h-77l83 122h103l83 -122h-78z"/>
            <glyph glyph-name="caron" unicode="&#x2c7;" horiz-adv-x="0"
                   d="M-57 695l57 -73l57 73h78l-83 -122h-103l-83 122h77z"/>
            <glyph glyph-name="breve" unicode="&#x2d8;" horiz-adv-x="0"
                   d="M-135 695h60q0 -34 21.5 -56.5t53.5 -22.5t53.5 22.5t21.5 56.5h60q0 -56 -39.5 -95.5t-95.5 -39.5t-95.5 39.5t-39.5 95.5z"/>
            <glyph glyph-name="dotaccent" unicode="&#x2d9;" horiz-adv-x="0"
                   d="M44 680v-88h-88v88h88z"/>
            <glyph glyph-name="ring" unicode="&#x2da;" horiz-adv-x="0"
                   d="M89 651q0 -35 -24.5 -60.5t-64.5 -25.5t-64.5 25.5t-24.5 60.5t24.5 60.5t64.5 25.5t64.5 -25.5t24.5 -60.5zM44 651q0 18 -12.5 31t-31.5 13t-32 -13t-13 -31t13 -31.5t32 -13.5t31.5 13.5t12.5 31.5z"/>
            <glyph glyph-name="ogonek" unicode="&#x2db;" horiz-adv-x="0"
                   d="M38 -105v-65h-140v65l75 75h65l-70 -75h70z"/>
            <glyph glyph-name="tilde" unicode="&#x2dc;" horiz-adv-x="0"
                   d="M104 680h50q0 -45 -23.5 -70t-65.5 -25q-30 0 -75 24t-60 24q-33 0 -33 -38h-50q0 45 23.5 70t65.5 25q30 0 75 -24t60 -24q33 0 33 38z"/>
            <glyph glyph-name="hungarumlaut" unicode="&#x2dd;" horiz-adv-x="0"
                   d="M-120 573l74 122h105l-101 -122h-78zM43 573l74 122h105l-101 -122h-78z"/>
            <glyph glyph-name="uni0312" unicode="&#x312;" horiz-adv-x="0"
                   d="M-47 592v93l50 88h43l-47 -88h47v-93h-93z"/>
            <glyph glyph-name="uni0313" unicode="&#x313;" horiz-adv-x="0"
                   d="M10 528l29 152h95l-56 -152h-68z"/>
            <glyph glyph-name="uni0326" unicode="&#x326;" horiz-adv-x="0"
                   d="M44 -56v-93l-50 -88h-43l47 88h-47v93h93z"/>
            <glyph glyph-name="uni037E" unicode="&#x37e;" horiz-adv-x="260"
                   d="M185 510v-110h-110v110h110zM185 110v-110l-62 -110h-48l59 110h-59v110h110z"/>
            <glyph glyph-name="dieresistonos" unicode="&#x385;" horiz-adv-x="0"
                   d="M-59 573l49 122h105l-76 -122h-78zM-84 680v-88h-88v88h88zM202 680v-88h-88v88h88z"/>
            <glyph glyph-name="anoteleia" unicode="&#x387;" horiz-adv-x="256"
                   d="M183 510v-110h-110v110h110z"/>
            <glyph glyph-name="Pi" unicode="&#x3a0;" horiz-adv-x="679"
                   d="M492 0v595h-305v-595h-95v680h495v-680h-95z"/>
            <glyph glyph-name="Sigma" unicode="&#x3a3;" horiz-adv-x="578"
                   d="M45 0v49l213 289l-211 288v54h475v-85h-342l191 -256l-191 -254h346v-85h-481z"/>
            <glyph glyph-name="uni03A9" unicode="&#x3a9;" horiz-adv-x="661"
                   d="M375 0v215q130 22 130 122v158q0 58 -51 92t-123 34t-123 -34t-51 -92v-158q0 -99 128 -122v-215h-200v77h120v83q-143 60 -143 256q0 133 69.5 206t199.5 73t199.5 -73t69.5 -206q0 -197 -145 -257v-82h120v-77h-200z"/>
            <glyph glyph-name="pi" unicode="&#x3c0;" horiz-adv-x="633"
                   d="M400 0v433h-188v-433h-90v433h-90v77h548v-77h-90v-356h90v-77h-180z"/>
            <glyph glyph-name="Wgrave" unicode="&#x1e80;" horiz-adv-x="924"
                   d="M443 869l79 -122h-78l-106 122h105zM214 0l-176 680h101l133 -573h4l133 573h106l133 -573h4l133 573h101l-176 -680h-119l-127 547h-4l-127 -547h-119z"/>
            <glyph glyph-name="wgrave" unicode="&#x1e81;" horiz-adv-x="741"
                   d="M341 695l79 -122h-78l-106 122h105zM468 0l-96 413h-4l-97 -413h-93l-149 510h91l101 -399h4l90 399h109l94 -399h4l102 399h88l-149 -510h-95z"/>
            <glyph glyph-name="Wacute" unicode="&#x1e82;" horiz-adv-x="924"
                   d="M404 747l79 122h105l-106 -122h-78zM214 0l-176 680h101l133 -573h4l133 573h106l133 -573h4l133 573h101l-176 -680h-119l-127 547h-4l-127 -547h-119z"/>
            <glyph glyph-name="wacute" unicode="&#x1e83;" horiz-adv-x="741"
                   d="M316 573l79 122h105l-106 -122h-78zM468 0l-96 413h-4l-97 -413h-93l-149 510h91l101 -399h4l90 399h109l94 -399h4l102 399h88l-149 -510h-95z"/>
            <glyph glyph-name="Wdieresis" unicode="&#x1e84;" horiz-adv-x="924"
                   d="M420 854v-88h-88v88h88zM596 854v-88h-88v88h88zM214 0l-176 680h101l133 -573h4l133 573h106l133 -573h4l133 573h101l-176 -680h-119l-127 547h-4l-127 -547h-119z"/>
            <glyph glyph-name="wdieresis" unicode="&#x1e85;" horiz-adv-x="741"
                   d="M326 680v-88h-88v88h88zM502 680v-88h-88v88h88zM468 0l-96 413h-4l-97 -413h-93l-149 510h91l101 -399h4l90 399h109l94 -399h4l102 399h88l-149 -510h-95z"/>
            <glyph glyph-name="uni1E9E" unicode="&#x1e9e;" horiz-adv-x="624"
                   d="M280 0v85h96q43 0 66.5 20t23.5 58v66q0 80 -93 80h-91v76l153 210h-248v-595h-95v680h447v-76l-158 -215h27q75 0 116 -52t41 -130q0 -118 -57 -166q-50 -41 -139 -41h-89z"/>
            <glyph glyph-name="Ygrave" unicode="&#x1ef2;" horiz-adv-x="618"
                   d="M279 869l79 -122h-78l-106 122h105zM261 271l-226 409h104l170 -316l173 316h101l-227 -410v-270h-95v271z"/>
            <glyph glyph-name="ygrave" unicode="&#x1ef3;" horiz-adv-x="518"
                   d="M235 695l79 -122h-78l-106 122h105zM242 -170h-174v77h117l32 93l-189 510h97l133 -399h4l137 399h93z"/>
            <glyph glyph-name="uni2000" unicode="&#x2000;" horiz-adv-x="500"
            />
            <glyph glyph-name="uni2001" unicode="&#x2001;" horiz-adv-x="1000"
            />
            <glyph glyph-name="uni2002" unicode="&#x2002;" horiz-adv-x="500"
            />
            <glyph glyph-name="uni2003" unicode="&#x2003;" horiz-adv-x="1000"
            />
            <glyph glyph-name="uni2004" unicode="&#x2004;" horiz-adv-x="333"
            />
            <glyph glyph-name="uni2005" unicode="&#x2005;" horiz-adv-x="250"
            />
            <glyph glyph-name="uni2006" unicode="&#x2006;" horiz-adv-x="167"
            />
            <glyph glyph-name="uni2007" unicode="&#x2007;"
            />
            <glyph glyph-name="uni2008" unicode="&#x2008;" horiz-adv-x="256"
            />
            <glyph glyph-name="uni2009" unicode="&#x2009;" horiz-adv-x="125"
            />
            <glyph glyph-name="uni200A" unicode="&#x200a;" horiz-adv-x="42"
            />
            <glyph glyph-name="uni200B" unicode="&#x200b;" horiz-adv-x="0"
            />
            <glyph glyph-name="endash" unicode="&#x2013;" horiz-adv-x="620"
                   d="M75 230v82h470v-82h-470z"/>
            <glyph glyph-name="emdash" unicode="&#x2014;" horiz-adv-x="1090"
                   d="M75 230v82h940v-82h-940z"/>
            <glyph glyph-name="uni2015" unicode="&#x2015;" horiz-adv-x="1090"
                   d="M75 230v82h940v-82h-940z"/>
            <glyph glyph-name="quoteleft" unicode="&#x2018;" horiz-adv-x="247"
                   d="M67 460v110l62 110h48l-59 -110h59v-110h-110z"/>
            <glyph glyph-name="quoteright" unicode="&#x2019;" horiz-adv-x="238"
                   d="M181 680v-110l-62 -110h-48l59 110h-59v110h110z"/>
            <glyph glyph-name="quotesinglbase" unicode="&#x201a;" horiz-adv-x="260"
                   d="M185 110v-110l-62 -110h-48l59 110h-59v110h110z"/>
            <glyph glyph-name="quotedblleft" unicode="&#x201c;" horiz-adv-x="437"
                   d="M67 460v110l62 110h48l-59 -110h59v-110h-110zM257 460v110l62 110h48l-59 -110h59v-110h-110z"/>
            <glyph glyph-name="quotedblright" unicode="&#x201d;" horiz-adv-x="428"
                   d="M181 680v-110l-62 -110h-48l59 110h-59v110h110zM371 680v-110l-62 -110h-48l59 110h-59v110h110z"/>
            <glyph glyph-name="quotedblbase" unicode="&#x201e;" horiz-adv-x="449"
                   d="M185 110v-110l-62 -110h-48l59 110h-59v110h110zM374 110v-110l-62 -110h-48l59 110h-59v110h110z"/>
            <glyph glyph-name="dagger" unicode="&#x2020;" horiz-adv-x="485"
                   d="M30 438v72h170v170h85v-170h170v-72h-170v-528h-85v528h-170z"/>
            <glyph glyph-name="daggerdbl" unicode="&#x2021;" horiz-adv-x="561"
                   d="M68 80v72h170v286h-170v72h170v170h85v-170h170v-72h-170v-286h170v-72h-170v-170h-85v170h-170z"/>
            <glyph glyph-name="bullet" unicode="&#x2022;" horiz-adv-x="494"
                   d="M78 340q0 71 49.5 120.5t119.5 49.5q71 0 120.5 -50t49.5 -120t-49.5 -119.5t-120.5 -49.5t-120 49.5t-49 119.5z"/>
            <glyph glyph-name="ellipsis" unicode="&#x2026;" horiz-adv-x="916"
                   d="M183 110v-110h-110v110h110zM513 110v-110h-110v110h110zM843 110v-110h-110v110h110z"/>
            <glyph glyph-name="perthousand" unicode="&#x2030;" horiz-adv-x="1132"
                   d="M318 505q0 -183 -138 -183t-138 183t138 183t138 -183zM148 0l426 680h76l-426 -680h-76zM180 378q63 0 63 61v132q0 61 -63 61t-63 -61v-132q0 -61 63 -61zM1094 175q0 -183 -138 -183t-138 183t138 183t138 -183zM753 175q0 -183 -138 -183t-138 183t138 183t138 -183z
M956 48q63 0 63 61v132q0 61 -63 61t-63 -61v-132q0 -61 63 -61zM615 48q63 0 63 61v132q0 61 -63 61t-63 -61v-132q0 -61 63 -61z"/>
            <glyph glyph-name="guilsinglleft" unicode="&#x2039;" horiz-adv-x="301"
                   d="M237 71h-80l-107 186l107 186h80l-97 -186z"/>
            <glyph glyph-name="guilsinglright" unicode="&#x203a;" horiz-adv-x="301"
                   d="M144 71h-80l97 186l-97 186h80l107 -186z"/>
            <glyph glyph-name="fraction" unicode="&#x2044;" horiz-adv-x="140"
                   d="M-181 0l426 680h76l-426 -680h-76z"/>
            <glyph glyph-name="uni2070" unicode="&#x2070;" horiz-adv-x="366"
                   d="M321 591q0 -183 -138 -183t-138 183t138 183t138 -183zM183 464q63 0 63 61v132q0 61 -63 61t-63 -61v-132q0 -61 63 -61z"/>
            <glyph glyph-name="uni2071" unicode="&#x2071;" horiz-adv-x="187"
                   d="M130 766v-60h-71v60h71zM127 416h-67v264h67v-264z"/>
            <glyph glyph-name="uni2074" unicode="&#x2074;" horiz-adv-x="353"
                   d="M255 416h-68v78h-154v56l148 216h74v-216h63v-56h-63v-78zM187 550v132h-2l-91 -132h93z"/>
            <glyph glyph-name="uni2075" unicode="&#x2075;" horiz-adv-x="345"
                   d="M119 564h-70l14 202h219v-60h-157l-6 -87q26 33 71 33q53 0 84 -32.5t31 -85.5q0 -59 -34.5 -92.5t-95.5 -33.5q-122 0 -132 107h70q6 -54 61 -54q26 0 42 14t16 35v45q0 44 -57 44q-42 0 -56 -35z"/>
            <glyph glyph-name="uni2076" unicode="&#x2076;" horiz-adv-x="362"
                   d="M182 408q-137 0 -137 176q0 87 34.5 138.5t104.5 51.5q55 0 87.5 -26t37.5 -72h-70q-6 43 -56 43q-29 0 -47 -19.5t-18 -49.5v-39q29 37 80 37q53 0 86.5 -32.5t33.5 -82.5q0 -52 -36.5 -88.5t-99.5 -36.5zM182 463q29 0 46 15t17 40v28q0 49 -63 49q-64 0 -64 -49v-28
q0 -25 17.5 -40t46.5 -15z"/>
            <glyph glyph-name="uni2077" unicode="&#x2077;" horiz-adv-x="314"
                   d="M284 710l-147 -294h-76l145 290h-172v60h250v-56z"/>
            <glyph glyph-name="uni2078" unicode="&#x2078;" horiz-adv-x="362"
                   d="M181 408q-59 0 -98 26.5t-39 75.5q0 65 65 88q-54 23 -54 81q0 44 36.5 69.5t89.5 25.5t89.5 -25.5t36.5 -69.5q0 -58 -54 -81q65 -23 65 -88q0 -49 -39 -75.5t-98 -26.5zM236 661v21q0 18 -16.5 27.5t-38.5 9.5t-38.5 -9.5t-16.5 -27.5v-21q0 -17 16.5 -26.5t38.5 -9.5
t38.5 9.5t16.5 26.5zM117 529v-26q0 -19 18.5 -29.5t45.5 -10.5t45.5 10.5t18.5 29.5v26q0 18 -18.5 28.5t-45.5 10.5t-45.5 -10.5t-18.5 -28.5z"/>
            <glyph glyph-name="uni2079" unicode="&#x2079;" horiz-adv-x="361"
                   d="M179 774q137 0 137 -176q0 -87 -34.5 -138.5t-104.5 -51.5q-55 0 -87.5 26t-37.5 72h70q6 -43 56 -43q29 0 47 19.5t18 49.5v39q-29 -37 -80 -37q-53 0 -86.5 32.5t-33.5 82.5q0 52 36.5 88.5t99.5 36.5zM179 719q-29 0 -46 -15t-17 -40v-28q0 -49 63 -49q64 0 64 49v28
q0 25 -17.5 40t-46.5 15z"/>
            <glyph glyph-name="uni207A" unicode="&#x207a;" horiz-adv-x="346"
                   d="M149 568h-108v46h108v109h49v-109h107v-46h-107v-109h-49v109z"/>
            <glyph glyph-name="uni207B" unicode="&#x207b;" horiz-adv-x="372"
                   d="M318 614v-46h-264v46h264z"/>
            <glyph glyph-name="uni207C" unicode="&#x207c;" horiz-adv-x="372"
                   d="M318 619h-264v48h264v-48zM318 513h-264v48h264v-48z"/>
            <glyph glyph-name="uni207D" unicode="&#x207d;" horiz-adv-x="217"
                   d="M116 646v-109q0 -76 73 -173h-63q-79 101 -79 228q0 124 79 227h63q-73 -98 -73 -173z"/>
            <glyph glyph-name="uni207E" unicode="&#x207e;" horiz-adv-x="218"
                   d="M103 537v109q0 73 -74 173h63q79 -101 79 -227q0 -129 -79 -228h-63q74 96 74 173z"/>
            <glyph glyph-name="uni207F" unicode="&#x207f;" horiz-adv-x="347"
                   d="M290 416h-67v168q0 49 -42 49q-26 0 -40 -17.5t-14 -46.5v-153h-67v264h67v-39q26 45 78 45q85 0 85 -97v-173z"/>
            <glyph glyph-name="uni2080" unicode="&#x2080;" horiz-adv-x="366"
                   d="M321 69q0 -183 -138 -183t-138 183t138 183t138 -183zM183 -58q63 0 63 61v132q0 61 -63 61t-63 -61v-132q0 -61 63 -61z"/>
            <glyph glyph-name="uni2081" unicode="&#x2081;" horiz-adv-x="288"
                   d="M218 244v-350h-70v234h-111v56h111v60h70z"/>
            <glyph glyph-name="uni2082" unicode="&#x2082;" horiz-adv-x="346"
                   d="M302 -106h-257v60l144 130q20 18 28.5 31.5t8.5 32.5q0 21 -14 34t-38 13q-27 0 -42 -15t-15 -43h-70q0 53 35.5 84t93.5 31q55 0 87 -29t32 -74q0 -59 -58 -108l-101 -85v-2h166v-60z"/>
            <glyph glyph-name="uni2083" unicode="&#x2083;" horiz-adv-x="352"
                   d="M201 47h-74v54h70q30 0 30 29v27q0 40 -51 40q-53 0 -56 -49h-70q0 48 35.5 76t91.5 28q55 0 89 -26.5t34 -68.5q0 -59 -55 -83q61 -23 61 -85q0 -46 -36.5 -74.5t-94.5 -28.5q-57 0 -95 29t-38 83h70q3 -57 62 -57q26 0 42.5 13t16.5 32v30q0 31 -32 31z"/>
            <glyph glyph-name="uni2084" unicode="&#x2084;" horiz-adv-x="353"
                   d="M255 -106h-68v78h-154v56l148 216h74v-216h63v-56h-63v-78zM187 28v132h-2l-91 -132h93z"/>
            <glyph glyph-name="uni2085" unicode="&#x2085;" horiz-adv-x="345"
                   d="M119 42h-70l14 202h219v-60h-157l-6 -87q26 33 71 33q53 0 84 -32.5t31 -85.5q0 -59 -34.5 -92.5t-95.5 -33.5q-122 0 -132 107h70q6 -54 61 -54q26 0 42 14t16 35v45q0 44 -57 44q-42 0 -56 -35z"/>
            <glyph glyph-name="uni2086" unicode="&#x2086;" horiz-adv-x="361"
                   d="M182 -114q-137 0 -137 176q0 87 34.5 138.5t104.5 51.5q55 0 87.5 -26t37.5 -72h-70q-6 43 -56 43q-29 0 -47 -19.5t-18 -49.5v-39q29 37 80 37q53 0 86.5 -32.5t33.5 -82.5q0 -52 -36.5 -88.5t-99.5 -36.5zM182 -59q29 0 46 15t17 40v28q0 49 -63 49q-64 0 -64 -49v-28
q0 -25 17.5 -40t46.5 -15z"/>
            <glyph glyph-name="uni2087" unicode="&#x2087;" horiz-adv-x="316"
                   d="M285 188l-147 -294h-76l145 290h-172v60h250v-56z"/>
            <glyph glyph-name="uni2088" unicode="&#x2088;" horiz-adv-x="362"
                   d="M181 -114q-59 0 -98 26.5t-39 75.5q0 65 65 88q-54 23 -54 81q0 44 36.5 69.5t89.5 25.5t89.5 -25.5t36.5 -69.5q0 -58 -54 -81q65 -23 65 -88q0 -49 -39 -75.5t-98 -26.5zM236 139v21q0 18 -16.5 27.5t-38.5 9.5t-38.5 -9.5t-16.5 -27.5v-21q0 -17 16.5 -26.5t38.5 -9.5
t38.5 9.5t16.5 26.5zM117 7v-26q0 -19 18.5 -29.5t45.5 -10.5t45.5 10.5t18.5 29.5v26q0 18 -18.5 28.5t-45.5 10.5t-45.5 -10.5t-18.5 -28.5z"/>
            <glyph glyph-name="uni2089" unicode="&#x2089;" horiz-adv-x="361"
                   d="M179 252q137 0 137 -176q0 -87 -34.5 -138.5t-104.5 -51.5q-55 0 -87.5 26t-37.5 72h70q6 -43 56 -43q29 0 47 19.5t18 49.5v39q-29 -37 -80 -37q-53 0 -86.5 32.5t-33.5 82.5q0 52 36.5 88.5t99.5 36.5zM179 197q-29 0 -46 -15t-17 -40v-28q0 -49 63 -49q64 0 64 49v28
q0 25 -17.5 40t-46.5 15z"/>
            <glyph glyph-name="uni208A" unicode="&#x208a;" horiz-adv-x="346"
                   d="M149 46h-108v46h108v109h49v-109h107v-46h-107v-109h-49v109z"/>
            <glyph glyph-name="uni208B" unicode="&#x208b;" horiz-adv-x="366"
                   d="M315 92v-46h-264v46h264z"/>
            <glyph glyph-name="uni208C" unicode="&#x208c;" horiz-adv-x="372"
                   d="M318 97h-264v48h264v-48zM318 -9h-264v48h264v-48z"/>
            <glyph glyph-name="uni208D" unicode="&#x208d;" horiz-adv-x="217"
                   d="M116 124v-109q0 -76 73 -173h-63q-79 101 -79 228q0 124 79 227h63q-73 -98 -73 -173z"/>
            <glyph glyph-name="uni208E" unicode="&#x208e;" horiz-adv-x="217"
                   d="M102 15v109q0 73 -74 173h63q79 -101 79 -227q0 -129 -79 -228h-63q74 96 74 173z"/>
            <glyph glyph-name="Euro" unicode="&#x20ac;" horiz-adv-x="657"
                   d="M50 372l20 59h56q29 264 252 264q97 0 152.5 -51.5t62.5 -142.5h-90q-7 61 -39 88.5t-95 27.5q-72 0 -109.5 -47t-37.5 -125v-14h228l-20 -59h-208v-61h188l-20 -59h-168v-17q0 -75 41 -123.5t107 -48.5q64 0 95.5 28.5t38.5 96.5h90q-7 -94 -67 -148.5t-156 -54.5
q-215 0 -245 267h-76l20 59h52v61h-72z"/>
            <glyph glyph-name="uni20B4" unicode="&#x20b4;" horiz-adv-x="655"
                   d="M598 335v-59h-363q-71 -29 -71 -98q0 -52 45 -81t115 -29q71 0 116 32t52 98h95q-9 -106 -82.5 -159.5t-182.5 -53.5q-106 0 -179.5 54t-73.5 141q0 56 23 96h-34v59h95q34 21 100 40l69 19h-264v59h395q18 24 18 62q0 45 -37.5 71t-102.5 26q-140 0 -150 -117h-95
q9 100 75.5 150t169.5 50q104 0 168.5 -51t64.5 -129q0 -32 -8 -62h42v-59h-74q-30 -36 -90 -59h164z"/>
            <glyph glyph-name="uni20BD" unicode="&#x20bd;" horiz-adv-x="651"
                   d="M66 259v79h64v342h257q115 0 165 -51q48 -49 48 -156q0 -104 -56 -159t-156 -55h-163v-59h163v-79h-163v-121h-95v121h-64v79h64v59h-64zM225 338h199q34 0 55 22t21 56v105q0 34 -20 54t-56 20h-199v-257z"/>
            <glyph glyph-name="uni20DD" unicode="&#x20dd;" horiz-adv-x="808"
                   d="M234 595v85h340v-85h85v-85h85v-340h-85v340h-85v85h-340zM149 510v85h85v-85h-85zM234 170v-85h340v-85h-340v85h-85v85h-85v340h85v-340h85zM574 85v85h85v-85h-85z"/>
            <glyph glyph-name="uni20DE" unicode="&#x20de;" horiz-adv-x="861"
                   d="M90 680h681v-680h-681v680zM175 595v-510h510v510h-510z"/>
            <glyph glyph-name="uni2113" unicode="&#x2113;" horiz-adv-x="256"
                   d="M173 0h-90v680h90v-680z"/>
            <glyph glyph-name="uni2116" unicode="&#x2116;" horiz-adv-x="991"
                   d="M940 556q0 -63 -33 -100.5t-92 -37.5q-58 0 -91 37.5t-33 100.5t33 100.5t91 37.5q59 0 92 -37.5t33 -100.5zM507 115h4v565h92v-680h-134l-281 568h-4v-568h-92v680h134zM869 517v78q0 23 -15 36t-39 13t-39 -13t-15 -36v-78q0 -23 15 -36t39 -13t39 13t15 36zM696 308
v60h239v-60h-239z"/>
            <glyph glyph-name="uni2117" unicode="&#x2117;" horiz-adv-x="826"
                   d="M58 339q0 147 104 251t251 104t251 -104t104 -251t-104 -251t-251 -104t-251 104t-104 251zM123 339q0 -121 84.5 -205.5t205.5 -84.5t205.5 84.5t84.5 205.5t-84.5 205.5t-205.5 84.5t-205.5 -84.5t-84.5 -205.5zM442 274h-91v-105h-65v340h156q52 0 80 -31t28 -87
t-28 -86.5t-80 -30.5zM351 326h95q18 0 27.5 11t9.5 28v54q0 37 -37 37h-95v-130z"/>
            <glyph glyph-name="trademark" unicode="&#x2122;" horiz-adv-x="839"
                   d="M39 617v63h274v-63h-102v-277h-70v277h-102zM569 442l80 238h107v-340h-70v246l-86 -246h-65l-85 246v-246h-70v340h109z"/>
            <glyph glyph-name="Omega" unicode="&#x2126;" horiz-adv-x="657"
                   d="M373 0v215q130 22 130 122v158q0 58 -51 92t-123 34t-123 -34t-51 -92v-158q0 -99 128 -122v-215h-200v77h120v83q-143 60 -143 256q0 133 69.5 206t199.5 73t199.5 -73t69.5 -206q0 -197 -145 -257v-82h120v-77h-200z"/>
            <glyph glyph-name="estimated" unicode="&#x212e;" horiz-adv-x="554"
                   d="M59 255q0 120 58.5 193.5t161.5 73.5q105 0 161.5 -68.5t56.5 -175.5v-28h-343v-134q0 -45 40.5 -70.5t105.5 -25.5q143 0 158 142h35q-7 -81 -59.5 -127.5t-134.5 -46.5q-122 0 -181 72t-59 195zM154 390v-108h250v108q0 47 -33.5 73.5t-91.5 26.5t-91.5 -26.5
t-33.5 -73.5z"/>
            <glyph glyph-name="onethird" unicode="&#x2153;" horiz-adv-x="762"
                   d="M213 680v-350h-70v234h-111v56h111v60h70zM115 0l426 680h76l-426 -680h-76zM612 153h-74v54h70q30 0 30 29v27q0 40 -51 40q-53 0 -56 -49h-70q0 48 35.5 76t91.5 28q55 0 89 -26.5t34 -68.5q0 -59 -55 -83q61 -23 61 -85q0 -46 -36.5 -74.5t-94.5 -28.5q-57 0 -95 29
t-38 83h70q3 -57 62 -57q26 0 42.5 13t16.5 32v30q0 31 -32 31z"/>
            <glyph glyph-name="twothirds" unicode="&#x2154;" horiz-adv-x="806"
                   d="M307 330h-257v60l144 130q20 18 28.5 31.5t8.5 32.5q0 21 -14 34t-38 13q-27 0 -42 -15t-15 -43h-70q0 53 35.5 84t93.5 31q55 0 87 -29t32 -74q0 -59 -58 -108l-101 -85v-2h166v-60zM168 0l426 680h76l-426 -680h-76zM655 153h-74v54h70q30 0 30 29v27q0 40 -51 40
q-53 0 -56 -49h-70q0 48 35.5 76t91.5 28q55 0 89 -26.5t34 -68.5q0 -59 -55 -83q61 -23 61 -85q0 -46 -36.5 -74.5t-94.5 -28.5q-57 0 -95 29t-38 83h70q3 -57 62 -57q26 0 42.5 13t16.5 32v30q0 31 -32 31z"/>
            <glyph glyph-name="oneeighth" unicode="&#x215b;" horiz-adv-x="768"
                   d="M213 680v-350h-70v234h-111v56h111v60h70zM115 0l426 680h76l-426 -680h-76zM588 -8q-59 0 -98 26.5t-39 75.5q0 65 65 88q-54 23 -54 81q0 44 36.5 69.5t89.5 25.5t89.5 -25.5t36.5 -69.5q0 -58 -54 -81q65 -23 65 -88q0 -49 -39 -75.5t-98 -26.5zM643 245v21
q0 18 -16.5 27.5t-38.5 9.5t-38.5 -9.5t-16.5 -27.5v-21q0 -17 16.5 -26.5t38.5 -9.5t38.5 9.5t16.5 26.5zM524 113v-26q0 -19 18.5 -29.5t45.5 -10.5t45.5 10.5t18.5 29.5v26q0 18 -18.5 28.5t-45.5 10.5t-45.5 -10.5t-18.5 -28.5z"/>
            <glyph glyph-name="threeeighths" unicode="&#x215c;" horiz-adv-x="804"
                   d="M202 483h-74v54h70q30 0 30 29v27q0 40 -51 40q-53 0 -56 -49h-70q0 48 35.5 76t91.5 28q55 0 89 -26.5t34 -68.5q0 -59 -55 -83q61 -23 61 -85q0 -46 -36.5 -74.5t-94.5 -28.5q-57 0 -95 29t-38 83h70q3 -57 62 -57q26 0 42.5 13t16.5 32v30q0 31 -32 31zM151 0l426 680
h76l-426 -680h-76zM625 -8q-59 0 -98 26.5t-39 75.5q0 65 65 88q-54 23 -54 81q0 44 36.5 69.5t89.5 25.5t89.5 -25.5t36.5 -69.5q0 -58 -54 -81q65 -23 65 -88q0 -49 -39 -75.5t-98 -26.5zM680 245v21q0 18 -16.5 27.5t-38.5 9.5t-38.5 -9.5t-16.5 -27.5v-21
q0 -17 16.5 -26.5t38.5 -9.5t38.5 9.5t16.5 26.5zM561 113v-26q0 -19 18.5 -29.5t45.5 -10.5t45.5 10.5t18.5 29.5v26q0 18 -18.5 28.5t-45.5 10.5t-45.5 -10.5t-18.5 -28.5z"/>
            <glyph glyph-name="fiveeighths" unicode="&#x215d;" horiz-adv-x="802"
                   d="M149 0l426 680h76l-426 -680h-76zM120 478h-70l14 202h219v-60h-157l-6 -87q26 33 71 33q53 0 84 -32.5t31 -85.5q0 -59 -34.5 -92.5t-95.5 -33.5q-122 0 -132 107h70q6 -54 61 -54q26 0 42 14t16 35v45q0 44 -57 44q-42 0 -56 -35zM622 -8q-59 0 -98 26.5t-39 75.5
q0 65 65 88q-54 23 -54 81q0 44 36.5 69.5t89.5 25.5t89.5 -25.5t36.5 -69.5q0 -58 -54 -81q65 -23 65 -88q0 -49 -39 -75.5t-98 -26.5zM677 245v21q0 18 -16.5 27.5t-38.5 9.5t-38.5 -9.5t-16.5 -27.5v-21q0 -17 16.5 -26.5t38.5 -9.5t38.5 9.5t16.5 26.5zM558 113v-26
q0 -19 18.5 -29.5t45.5 -10.5t45.5 10.5t18.5 29.5v26q0 18 -18.5 28.5t-45.5 10.5t-45.5 -10.5t-18.5 -28.5z"/>
            <glyph glyph-name="seveneighths" unicode="&#x215e;" horiz-adv-x="738"
                   d="M85 0l426 680h76l-426 -680h-76zM292 624l-147 -294h-76l145 290h-172v60h250v-56zM558 -8q-59 0 -98 26.5t-39 75.5q0 65 65 88q-54 23 -54 81q0 44 36.5 69.5t89.5 25.5t89.5 -25.5t36.5 -69.5q0 -58 -54 -81q65 -23 65 -88q0 -49 -39 -75.5t-98 -26.5zM613 245v21
q0 18 -16.5 27.5t-38.5 9.5t-38.5 -9.5t-16.5 -27.5v-21q0 -17 16.5 -26.5t38.5 -9.5t38.5 9.5t16.5 26.5zM494 113v-26q0 -19 18.5 -29.5t45.5 -10.5t45.5 10.5t18.5 29.5v26q0 18 -18.5 28.5t-45.5 10.5t-45.5 -10.5t-18.5 -28.5z"/>
            <glyph glyph-name="arrowleft" unicode="&#x2190;" horiz-adv-x="782"
                   d="M269 510h115l-213 -214h560v-82h-560l213 -214h-115l-218 219v72z"/>
            <glyph glyph-name="arrowup" unicode="&#x2191;" horiz-adv-x="604"
                   d="M47 347v115l219 218h72l219 -218v-115l-214 213v-560h-82v560z"/>
            <glyph glyph-name="arrowright" unicode="&#x2192;" horiz-adv-x="782"
                   d="M398 510h115l218 -219v-72l-218 -219h-115l213 214h-560v82h560z"/>
            <glyph glyph-name="arrowdown" unicode="&#x2193;" horiz-adv-x="604"
                   d="M47 218v115l214 -213v560h82v-560l214 213v-115l-219 -218h-72z"/>
            <glyph glyph-name="uni2196" unicode="&#x2196;" horiz-adv-x="644"
                   d="M149 69l-81 81v309l51 51h309l81 -81h-302l396 -396l-58 -58l-396 396v-302z"/>
            <glyph glyph-name="uni2197" unicode="&#x2197;" horiz-adv-x="644"
                   d="M576 150l-81 -81v302l-396 -396l-58 58l396 396h-302l81 81h309l51 -51v-309z"/>
            <glyph glyph-name="uni2198" unicode="&#x2198;" horiz-adv-x="645"
                   d="M216 0l-81 81h302l-396 396l58 58l396 -396v302l81 -81v-309l-51 -51h-309z"/>
            <glyph glyph-name="uni2199" unicode="&#x2199;" horiz-adv-x="645"
                   d="M510 81l-81 -81h-309l-51 51v309l81 81v-302l396 396l58 -58l-396 -396h302z"/>
            <glyph glyph-name="partialdiff" unicode="&#x2202;"
                   d="M133 562l-40 68q77 65 171 65q141 0 205.5 -93.5t64.5 -274.5q0 -155 -63 -247t-198 -92q-108 0 -164.5 67t-56.5 163q0 102 61.5 162t161.5 60q101 0 159 -78q0 132 -41 193.5t-125 61.5q-72 0 -135 -55zM272 65q83 0 122.5 52.5t39.5 161.5q-39 83 -143 83
q-65 0 -104.5 -28.5t-39.5 -80.5v-79q0 -51 36.5 -80t88.5 -29z"/>
            <glyph glyph-name="Delta" unicode="&#x2206;" horiz-adv-x="672"
                   d="M25 0l267 680h88l267 -680h-622zM150 77h372l-187 474z"/>
            <glyph glyph-name="product" unicode="&#x220f;" horiz-adv-x="704"
                   d="M521 -170v943h-338v-943h-90v1020h518v-1020h-90z"/>
            <glyph glyph-name="summation" unicode="&#x2211;"
                   d="M537 773h-373l307 -430l-307 -436h373v-77h-478v77l307 436l-307 430v77h478v-77z"/>
            <glyph glyph-name="minus" unicode="&#x2212;"
                   d="M555 376v-72h-510v72h510z"/>
            <glyph glyph-name="radical" unicode="&#x221a;"
                   d="M22 255h157l93 -301l227 726h92l-271 -850h-96l-112 348h-90v77z"/>
            <glyph glyph-name="infinity" unicode="&#x221e;" horiz-adv-x="738"
                   d="M369 293q-37 -45 -74.5 -70t-89.5 -25q-64 0 -104.5 42t-40.5 105t41.5 105t103.5 42q53 0 91 -27t73 -75q35 48 73 75t91 27q62 0 103.5 -42t41.5 -105t-40.5 -105t-104.5 -42q-52 0 -89.5 25t-74.5 70zM132 343q0 -35 20 -56t56 -21q34 0 58 18t57 59q-30 41 -55 60.5
t-58 19.5q-37 0 -57.5 -22t-20.5 -58zM606 343q0 36 -20.5 58t-57.5 22q-33 0 -58 -19.5t-55 -60.5q33 -41 57 -59t58 -18q36 0 56 21t20 56z"/>
            <glyph glyph-name="integral" unicode="&#x222b;"
                   d="M126 -170v77h128v943h218v-77h-128v-943h-218z"/>
            <glyph glyph-name="approxequal" unicode="&#x2248;"
                   d="M484 489h75q0 -55 -37 -90t-95 -35q-33 0 -60.5 10t-83.5 39q-8 4 -23 12t-19.5 10.5t-14.5 7t-14.5 6t-11.5 3.5t-12.5 2.5t-12.5 0.5q-24 0 -38 -15.5t-14 -41.5h-75q0 55 37 90t95 35q33 0 60.5 -10t83.5 -39q8 -4 23 -12t19.5 -10.5t14.5 -7t14.5 -6t11.5 -3.5
t12.5 -2.5t12.5 -0.5q24 0 38 15.5t14 41.5zM484 283h75q0 -55 -37 -90t-95 -35q-33 0 -60.5 10t-83.5 39q-8 4 -23 12t-19.5 10.5t-14.5 7t-14.5 6t-11.5 3.5t-12.5 2.5t-12.5 0.5q-24 0 -38 -15.5t-14 -41.5h-75q0 55 37 90t95 35q33 0 60.5 -10t83.5 -39q8 -4 23 -12
t19.5 -10.5t14.5 -7t14.5 -6t11.5 -3.5t12.5 -2.5t12.5 -0.5q24 0 38 15.5t14 41.5z"/>
            <glyph glyph-name="notequal" unicode="&#x2260;"
                   d="M260 201l-67 -116l-59 34l47 82h-136v72h177l77 134h-254v72h296l67 116l59 -34l-47 -82h135v-72h-177l-77 -134h254v-72h-295z"/>
            <glyph glyph-name="lessequal" unicode="&#x2264;"
                   d="M550 595v-78l-392 -117l392 -117v-78l-510 159v72zM550 157v-72h-510v72h510z"/>
            <glyph glyph-name="greaterequal" unicode="&#x2265;"
                   d="M50 517v78l510 -159v-72l-510 -159v78l392 117zM50 85v72h510v-72h-510z"/>
            <glyph glyph-name="uni230C" unicode="&#x230c;" horiz-adv-x="423"
                   d="M140 553v255h255v-85h-170v-170h-85zM140 -127v255h85v-170h170v-85h-255z"/>
            <glyph glyph-name="uni230D" unicode="&#x230d;" horiz-adv-x="423"
                   d="M283 808v-255h-85v170h-170v85h255zM283 -127h-255v85h170v170h85v-255z"/>
            <glyph glyph-name="uni230E" unicode="&#x230e;" horiz-adv-x="428"
                   d="M82 553v255h85v-170h170v-85h-255zM82 128h255v-85h-170v-170h-85v255z"/>
            <glyph glyph-name="uni230F" unicode="&#x230f;" horiz-adv-x="428"
                   d="M346 808v-255h-255v85h170v170h85zM346 128v-255h-85v170h-170v85h255z"/>
            <glyph glyph-name="uni2347" unicode="&#x2347;" horiz-adv-x="948"
                   d="M92 -42v765h764v-765h-764zM432 468v85h-85v-85h85zM347 383v85h-85v-85h-85v-85h85v-85h85v-85h85v85h-85v85h424v85h-424z"/>
            <glyph glyph-name="uni2348" unicode="&#x2348;" horiz-adv-x="948"
                   d="M856 723v-765h-764v765h764zM601 468v85h-85v-85h85v-85h-424v-85h424v-85h85v85h85v85h-85v85h-85zM516 213v-85h85v85h-85z"/>
            <glyph glyph-name="uni2350" unicode="&#x2350;" horiz-adv-x="949"
                   d="M92 723h765v-765h-765v765zM347 468h85v-425h85v425h85v-85h85v85h-85v85h-85v85h-85v-85h-85v-85zM262 383h85v85h-85v-85z"/>
            <glyph glyph-name="uni2357" unicode="&#x2357;" horiz-adv-x="949"
                   d="M857 -42h-765v765h765v-765zM432 213h-85v85h-85v-85h85v-85h85v-85h85v85h85v85h-85v425h-85v-425zM687 298h-85v-85h85v85z"/>
            <glyph glyph-name="uni23E5" unicode="&#x23e5;" horiz-adv-x="676"
                   d="M92 0v680h340v-170h170v-510h-510zM517 85v340h-170v170h-170v-510h340z"/>
            <glyph glyph-name="uni2595" unicode="&#x2595;" horiz-adv-x="927"
                   d="M506 298v85h-85v85h-85v85h-85v85h-85v85h85v-85h85v-85h85v-85h85v-85h85v-85h85v-85h85v-85h85v-85h-85v85h-85v85h-85v85h-85zM506 468v85h-85v85h-85v85h85v-85h85v-85h85v-85h85v-85h85v-85h85v-85h-85v85h-85v85h-85v85h-85zM591 553v85h-85v85h85v-85h85v-85h85
v-85h85v-85h-85v85h-85v85h-85zM676 638v85h85v-85h85v-85h-85v85h-85zM506 128v85h-85v85h-85v85h-85v85h-85v85h-85v85h85v-85h85v-85h85v-85h85v-85h85v-85h85v-85h85v-85h85v-85h-85v85h-85v85h-85zM506 -42v85h-85v85h-85v85h-85v85h-85v85h-85v85h85v-85h85v-85h85
v-85h85v-85h85v-85h85v-85h-85zM336 -42v85h-85v85h-85v85h-85v85h85v-85h85v-85h85v-85h85v-85h-85zM166 -42v85h-85v85h85v-85h85v-85h-85z"/>
            <glyph glyph-name="uni25A4" unicode="&#x25a4;" horiz-adv-x="967"
                   d="M101 638v85h765v-85h-765zM101 468v85h765v-85h-765zM101 298v85h765v-85h-765zM101 128v85h765v-85h-765zM101 -42v85h765v-85h-765z"/>
            <glyph glyph-name="uni25A5" unicode="&#x25a5;" horiz-adv-x="949"
                   d="M262 -42v765h85v-765h-85zM432 -42v765h85v-765h-85zM602 -42v765h85v-765h-85zM92 -42v765h85v-765h-85zM772 -42v765h85v-765h-85z"/>
            <glyph glyph-name="uni25A6" unicode="&#x25a6;" horiz-adv-x="1120"
                   d="M93 -127v935h934v-935h-934zM178 723v-765h764v765h-764zM518 298v85h-85v85h-85v85h-85v85h85v-85h85v-85h85v-85h85v-85h85v-85h85v-85h85v-85h-85v85h-85v85h-85v85h-85zM518 468v85h-85v85h85v-85h85v-85h85v-85h85v-85h85v-85h-85v85h-85v85h-85v85h-85zM603 553v85
h85v-85h85v-85h85v-85h-85v85h-85v85h-85zM773 553v85h85v-85h-85zM348 298v85h-85v85h85v-85h85v-85h85v-85h85v-85h85v-85h-85v85h-85v85h-85v85h-85zM348 128v85h-85v85h85v-85h85v-85h85v-85h-85v85h-85zM263 43v85h85v-85h-85z"/>
            <glyph glyph-name="uni25A7" unicode="&#x25a7;" horiz-adv-x="892"
                   d="M746 383v-85h85v-85h-85v85h-85v85h-85v85h-85v85h-85v85h-85v85h85v-85h85v-85h85v-85h85v-85h85zM746 723v-85h85v-85h-85v85h-85v85h85zM576 213v-85h85v-85h85v-85h-85v85h-85v85h-85v85h-85v85h-85v85h-85v85h-85v85h-85v85h85v-85h85v-85h85v-85h85v-85h85v-85h85z
M236 213v-85h85v-85h85v-85h-85v85h-85v85h-85v85h-85v85h85v-85h85z"/>
            <glyph glyph-name="uni25A8" unicode="&#x25a8;" horiz-adv-x="892"
                   d="M146 638v85h85v-85h-85zM486 638v85h85v-85h-85zM61 553v85h85v-85h-85zM401 553v85h85v-85h-85zM741 553v85h85v-85h-85zM316 468v85h85v-85h-85zM656 468v85h85v-85h-85zM231 383v85h85v-85h-85zM571 383v85h85v-85h-85zM146 298v85h85v-85h-85zM486 298v85h85v-85h-85
zM61 213v85h85v-85h-85zM401 213v85h85v-85h-85zM741 213v85h85v-85h-85zM316 128v85h85v-85h-85zM656 128v85h85v-85h-85zM231 43v85h85v-85h-85zM571 43v85h85v-85h-85zM146 -42v85h85v-85h-85zM486 -42v85h85v-85h-85z"/>
            <glyph glyph-name="uni25B3" unicode="&#x25b3;" horiz-adv-x="665"
                   d="M35 0v170h85v-85h425v85h-85v170h-85v170h-85v170h85v-170h85v-170h85v-170h85v-170h-595zM205 340v170h85v-170h-85zM120 170v170h85v-170h-85z"/>
            <glyph glyph-name="uni25B7" unicode="&#x25b7;" horiz-adv-x="830"
                   d="M265 43h-170v595h170v-85h170v-85h170v-85h-170v85h-170v85h-85v-425h85v-85zM605 383h170v-85h-170v85zM605 213h-170v85h170v-85zM435 128h-170v85h170v-85z"/>
            <glyph glyph-name="uni25BD" unicode="&#x25bd;" horiz-adv-x="667"
                   d="M206 170v170h-85v170h-85v170h595v-170h-85v85h-425v-85h85v-170h85v-170h85v-170h-85v170h-85zM546 510v-170h-85v170h85zM461 340v-170h-85v170h85z"/>
            <glyph glyph-name="uni25C1" unicode="&#x25c1;" horiz-adv-x="830"
                   d="M735 43h-170v85h-170v85h-170v85h-170v85h170v-85h170v-85h170v-85h85v425h-85v85h170v-595zM395 553h170v-85h-170v85zM225 468h170v-85h-170v85z"/>
            <glyph glyph-name="lozenge" unicode="&#x25ca;"
                   d="M352 773l245 -430l-245 -430h-104l-245 430l245 430h104zM300 -3l195 346l-195 346l-195 -346z"/>
            <glyph glyph-name="H18533" unicode="&#x25cf;" horiz-adv-x="454"
                   d="M58 340q0 71 49.5 120.5t119.5 49.5q71 0 120.5 -50t49.5 -120t-49.5 -119.5t-120.5 -49.5t-120 49.5t-49 119.5z"/>
            <glyph glyph-name="uni26DD" unicode="&#x26dd;" horiz-adv-x="1119"
                   d="M262 723v85h595v-85h85v-85h85v-595h-85v595h-85v85h-595zM517 298v85h-85v85h-85v85h-85v85h-85v85h-85v85h85v-85h85v-85h85v-85h85v-85h85v-85h85v-85h85v-85h85v-85h85v-85h85v-85h85v-85h-85v85h-85v85h-85v85h-85v85h-85v85h-85zM942 723v85h85v-85h-85zM262 -127
v85h-85v85h-85v595h85v-595h85v-85h595v-85h-595zM857 638v-85h-85v85h85zM772 553v-85h-85v85h85zM687 468v-85h-85v85h85zM432 213v85h85v-85h-85zM347 128v85h85v-85h-85zM262 43v85h85v-85h-85zM92 -127v85h85v-85h-85z"/>
            <glyph glyph-name="uni2717" unicode="&#x2717;" horiz-adv-x="723"
                   d="M319 298v85h-85v85h-85v85h-85v85h85v-85h85v-85h85v-85h85v-85h85v-85h85v-85h85v-85h-85v85h-85v85h-85v85h-85zM659 638v-85h-85v85h85zM574 553v-85h-85v85h85zM489 468v-85h-85v85h85zM234 213v85h85v-85h-85zM149 128v85h85v-85h-85zM64 43v85h85v-85h-85z"/>
            <glyph glyph-name="uni274E" unicode="&#x274e;" horiz-adv-x="948"
                   d="M92 -42v765h764v-765h-764zM176 638v-85h85v-85h85v85h-85v85h-85zM771 553v85h-85v-85h85zM686 468v85h-85v-85h85zM431 383v85h-85v-85h85v-85h85v-85h85v-85h85v-85h85v85h-85v85h-85v85h-85v85h-85zM601 383v85h-85v-85h85zM346 298v-85h85v85h-85zM261 213v-85h85
v85h-85zM176 128v-85h85v85h-85z"/>
            <glyph glyph-name="uni29C8" unicode="&#x29c8;" horiz-adv-x="1120"
                   d="M93 -127v935h934v-935h-934zM178 723v-765h764v765h-764zM262 43v595h595v-595h-595zM347 553v-425h425v425h-425z"/>
            <glyph glyph-name="uni2B1B" unicode="&#x2b1b;" horiz-adv-x="880"
                   d="M100 0v680h680v-680h-680z"/>
            <glyph glyph-name="uni2BBD" unicode="&#x2bbd;" horiz-adv-x="1120"
                   d="M93 -127v935h934v-935h-934zM178 723v-765h764v765h-764zM518 298v85h-85v85h-85v85h-85v85h85v-85h85v-85h85v-85h85v-85h85v-85h85v-85h85v-85h-85v85h-85v85h-85v85h-85zM858 638v-85h-85v85h85zM773 553v-85h-85v85h85zM688 468v-85h-85v85h85zM433 213v85h85v-85
h-85zM348 128v85h85v-85h-85zM263 43v85h85v-85h-85z"/>
            <glyph glyph-name="uniFB00" unicode="&#xfb00;" horiz-adv-x="662"
                   d="M208 0h-89v433h-86v77h86v170h206v-77h-117v-93h226v170h206v-77h-117v-93h107v-77h-107v-433h-89v433h-226v-433z"/>
            <glyph glyph-name="fi" unicode="&#xfb01;" horiz-adv-x="607"
                   d="M524 0h-90v433h-226v-433h-89v433h-86v77h86v170h206v-77h-117v-93h316v-510zM524 680v-90h-90v90h90z"/>
            <glyph glyph-name="fl" unicode="&#xfb02;" horiz-adv-x="607"
                   d="M208 603v-93h107v-77h-107v-433h-89v433h-86v77h86v170h405v-680h-90v603h-226z"/>
            <glyph glyph-name="uniFB03" unicode="&#xfb03;" horiz-adv-x="922"
                   d="M208 0h-89v433h-86v77h86v170h206v-77h-117v-93h226v170h206v-77h-117v-93h316v-510h-90v433h-226v-433h-89v433h-226v-433zM839 680v-90h-90v90h90z"/>
            <glyph glyph-name="uniFB04" unicode="&#xfb04;" horiz-adv-x="922"
                   d="M208 0h-89v433h-86v77h86v170h206v-77h-117v-93h226v170h405v-680h-90v603h-226v-93h107v-77h-107v-433h-89v433h-226v-433z"/>
            <glyph glyph-name="uniFEFF" unicode="&#xfeff;" horiz-adv-x="0"
            />
            <glyph glyph-name="i.latn_TRK" horiz-adv-x="256"
                   d="M175 680v-94h-94v94h94zM173 0h-90v510h90v-510z"/>
            <glyph glyph-name="Ldot.latn_CAT" horiz-adv-x="521"
                   d="M92 0v680h95v-595h308v-85h-403zM429 424v-88h-88v88h88z"/>
            <glyph glyph-name="ldot.latn_CAT" horiz-adv-x="282"
                   d="M173 0h-90v680h90v-680zM302 409v-88h-88v88h88z"/>
            <glyph glyph-name="breve.cyrl_dflt" horiz-adv-x="0"
                   d="M-150 695h65q0 -35 23 -57t62 -22t62 22t23 57h65q0 -58 -40.5 -96.5t-109.5 -38.5t-109.5 38.5t-40.5 96.5z"/>
            <glyph glyph-name="comma.subs" horiz-adv-x="185"
                   d="M131 -30v-76l-35 -66h-41l34 66h-35v76h77z"/>
            <glyph glyph-name="period.subs" horiz-adv-x="183"
                   d="M130 -30v-76h-77v76h77z"/>
            <glyph glyph-name="bracketleft.subs" horiz-adv-x="239"
                   d="M70 297h130v-55h-65v-345h65v-55h-130v455z"/>
            <glyph glyph-name="bracketright.subs" horiz-adv-x="239"
                   d="M169 297v-455h-130v55h65v345h-65v55h130z"/>
            <glyph glyph-name="a.subs" horiz-adv-x="330"
                   d="M162 164q49 0 76 -23.5t27 -67.5v-127h45v-52h-106l-2 39h-3q-25 -45 -74 -45q-37 0 -61 22q-23 25 -23 58q0 35 22 57t64 26l72 7v17q0 38 -39 38q-43 0 -43 -37h-67q1 42 32 65t80 23zM143 -61q26 0 41 17t15 47v7l-69 -6q-20 -1 -20 -21v-23q0 -21 33 -21z"/>
            <glyph glyph-name="b.subs" horiz-adv-x="348"
                   d="M125 -106h-66v350h66v-123q26 43 78 43t77.5 -38t25.5 -99q0 -60 -27 -99.5t-78 -39.5q-50 0 -76 44v-38zM125 49v-46q0 -30 15.5 -46.5t41.5 -16.5q53 0 53 47v79q0 47 -53 47q-26 0 -41.5 -17t-15.5 -47z"/>
            <glyph glyph-name="c.subs" horiz-adv-x="312"
                   d="M42 25q0 66 33 102.5t89 36.5q43 0 73 -23.5t34 -70.5h-66q-2 24 -13 33.5t-32 9.5q-20 0 -33.5 -12.5t-13.5 -34.5v-79q0 -21 13 -34t35 -13q44 0 47 44h65q-5 -49 -36 -72.5t-75 -23.5q-57 0 -88.5 37t-31.5 100z"/>
            <glyph glyph-name="d.subs" horiz-adv-x="348"
                   d="M289 -106h-66v38q-26 -44 -78 -44q-50 0 -76.5 39.5t-26.5 99.5t26.5 98.5t78.5 38.5q50 0 76 -43v123h66v-350zM223 3v46q0 30 -15.5 47t-41.5 17q-53 0 -53 -47v-79q0 -47 53 -47q26 0 41.5 16.5t15.5 46.5z"/>
            <glyph glyph-name="e.subs" horiz-adv-x="321"
                   d="M41 27q0 61 33.5 99t87.5 38q53 0 85 -35.5t32 -89.5v-30h-168v-26q0 -20 14.5 -32t36.5 -12q44 0 49 39h66q-6 -42 -35.5 -66t-77.5 -24q-58 0 -90.5 37.5t-32.5 101.5zM111 67v-13h100v13q0 22 -13.5 34.5t-35.5 12.5q-23 0 -37 -12.5t-14 -34.5z"/>
            <glyph glyph-name="f.subs" horiz-adv-x="243"
                   d="M150 192v-34h65v-52h-65v-212h-67v212h-52v52h52v86h138v-52h-71z"/>
            <glyph glyph-name="g.subs" horiz-adv-x="348"
                   d="M289 158v-249q0 -49 -34.5 -78t-83.5 -29q-107 0 -119 78h63q5 -26 53 -26q55 0 55 57v31q-26 -44 -78 -44q-50 0 -76.5 38t-26.5 96t26.5 95t78.5 37q50 0 76 -43v37h66zM223 13v36q0 30 -15.5 47t-41.5 17q-53 0 -53 -47v-69q0 -47 53 -47q26 0 41.5 16.5t15.5 46.5z
"/>
            <glyph glyph-name="h.subs" horiz-adv-x="345"
                   d="M126 244v-125q26 45 78 45q85 0 85 -97v-173h-67v168q0 49 -42 49q-26 0 -40 -17.5t-14 -46.5v-153h-67v350h67z"/>
            <glyph glyph-name="i.subs" horiz-adv-x="185"
                   d="M129 244v-60h-71v60h71zM126 -106h-67v264h67v-264z"/>
            <glyph glyph-name="j.subs" horiz-adv-x="195"
                   d="M138 244v-60h-71v60h71zM69 -140v298h67v-350h-136v52h69z"/>
            <glyph glyph-name="k.subs" horiz-adv-x="325"
                   d="M126 244v-350h-67v350h67zM222 -106l-95 144l86 120h78l-94 -120l101 -144h-76z"/>
            <glyph glyph-name="l.subs" horiz-adv-x="185"
                   d="M126 -106h-67v350h67v-350z"/>
            <glyph glyph-name="m.subs" horiz-adv-x="486"
                   d="M430 -106h-67v172q0 45 -38 45q-21 0 -34 -16t-13 -46v-155h-67v172q0 45 -37 45q-21 0 -34.5 -16t-13.5 -46v-155h-67v264h67v-39q20 45 73 45q57 0 74 -50q24 50 78 50q79 0 79 -102v-168z"/>
            <glyph glyph-name="n.subs" horiz-adv-x="345"
                   d="M289 -106h-67v168q0 49 -42 49q-26 0 -40 -17.5t-14 -46.5v-153h-67v264h67v-39q26 45 78 45q85 0 85 -97v-173z"/>
            <glyph glyph-name="o.subs" horiz-adv-x="331"
                   d="M290 26q0 -63 -33 -100.5t-92 -37.5q-58 0 -91 37.5t-33 100.5t33 100.5t91 37.5q59 0 92 -37.5t33 -100.5zM219 -13v78q0 23 -15 36t-39 13t-39 -13t-15 -36v-78q0 -23 15 -36t39 -13t39 13t15 36z"/>
            <glyph glyph-name="p.subs" horiz-adv-x="348"
                   d="M125 -192h-66v350h66v-37q26 43 78 43t77.5 -38t25.5 -99q0 -60 -27 -99.5t-78 -39.5q-50 0 -76 44v-124zM125 49v-46q0 -30 15.5 -46.5t41.5 -16.5q53 0 53 47v79q0 47 -53 47q-26 0 -41.5 -17t-15.5 -47z"/>
            <glyph glyph-name="q.subs" horiz-adv-x="348"
                   d="M289 -192h-66v124q-26 -44 -78 -44q-50 0 -76.5 39.5t-26.5 99.5t26.5 98.5t78.5 38.5q50 0 76 -43v37h66v-350zM223 3v46q0 30 -15.5 47t-41.5 17q-53 0 -53 -47v-79q0 -47 53 -47q26 0 41.5 16.5t15.5 46.5z"/>
            <glyph glyph-name="r.subs" horiz-adv-x="236"
                   d="M59 -106v264h151v-53h-85v-211h-66z"/>
            <glyph glyph-name="s.subs" horiz-adv-x="302"
                   d="M152 -112q-52 0 -81.5 23.5t-30.5 65.5h67q3 -39 45 -39q43 0 43 31q0 24 -36 30l-41 7q-72 13 -72 78q0 35 29 57.5t73 22.5q46 0 74.5 -22t29.5 -64h-66q-1 36 -37 36q-38 0 -38 -29q0 -22 27 -27l53 -10q70 -13 70 -78q0 -36 -29 -59t-80 -23z"/>
            <glyph glyph-name="t.subs" horiz-adv-x="260"
                   d="M150 106v-160h65v-52h-132v212h-51v52h51v86h67v-86h65v-52h-65z"/>
            <glyph glyph-name="u.subs" horiz-adv-x="343"
                   d="M217 -106v39q-26 -45 -77 -45q-39 0 -61.5 25t-22.5 72v173h67v-168q0 -49 41 -49q25 0 39 18t14 46v153h67v-264h-67z"/>
            <glyph glyph-name="v.subs" horiz-adv-x="304"
                   d="M184 -106h-64l-97 264h74l53 -184h4l55 184h71z"/>
            <glyph glyph-name="w.subs" horiz-adv-x="446"
                   d="M334 -106h-71l-39 183h-4l-36 -183h-72l-81 264h75l39 -176h4l33 176h80l37 -176h4l41 176h71z"/>
            <glyph glyph-name="x.subs" horiz-adv-x="316"
                   d="M159 -12l-57 -94h-76l95 137l-85 127h75l48 -80l48 80h73l-85 -123l94 -141h-75z"/>
            <glyph glyph-name="y.subs" horiz-adv-x="307"
                   d="M152 -26h4l57 184h71l-130 -350h-109v52h64l12 35l-99 263h74z"/>
            <glyph glyph-name="z.subs" horiz-adv-x="301"
                   d="M258 -54v-52h-219v40l130 172h-120v52h207v-39l-132 -173h134z"/>
            <glyph glyph-name="egrave.subs" horiz-adv-x="321"
                   d="M140 253l45 -62h-53l-60 62h68zM41 27q0 61 33.5 99t87.5 38q53 0 85 -35.5t32 -89.5v-30h-168v-26q0 -20 14.5 -32t36.5 -12q44 0 49 39h66q-6 -42 -35.5 -66t-77.5 -24q-58 0 -90.5 37.5t-32.5 101.5zM111 67v-13h100v13q0 22 -13.5 34.5t-35.5 12.5q-23 0 -37 -12.5
t-14 -34.5z"/>
            <glyph glyph-name="eacute.subs" horiz-adv-x="321"
                   d="M133 191l45 62h68l-60 -62h-53zM41 27q0 61 33.5 99t87.5 38q53 0 85 -35.5t32 -89.5v-30h-168v-26q0 -20 14.5 -32t36.5 -12q44 0 49 39h66q-6 -42 -35.5 -66t-77.5 -24q-58 0 -90.5 37.5t-32.5 101.5zM111 67v-13h100v13q0 22 -13.5 34.5t-35.5 12.5q-23 0 -37 -12.5
t-14 -34.5z"/>
            <glyph glyph-name="comma.sups" horiz-adv-x="185"
                   d="M131 492v-76l-35 -66h-41l34 66h-35v76h77z"/>
            <glyph glyph-name="period.sups" horiz-adv-x="183"
                   d="M130 492v-76h-77v76h77z"/>
            <glyph glyph-name="bracketleft.sups" horiz-adv-x="239"
                   d="M70 819h130v-55h-65v-345h65v-55h-130v455z"/>
            <glyph glyph-name="bracketright.sups" horiz-adv-x="239"
                   d="M169 819v-455h-130v55h65v345h-65v55h130z"/>
            <glyph glyph-name="a.sups" horiz-adv-x="330"
                   d="M162 686q49 0 76 -23.5t27 -67.5v-127h45v-52h-106l-2 39h-3q-25 -45 -74 -45q-37 0 -61 22q-23 25 -23 58q0 35 22 57t64 26l72 7v17q0 38 -39 38q-43 0 -43 -37h-67q1 42 32 65t80 23zM143 461q26 0 41 17t15 47v7l-69 -6q-20 -1 -20 -21v-23q0 -21 33 -21z"/>
            <glyph glyph-name="b.sups" horiz-adv-x="349"
                   d="M126 416h-66v350h66v-123q26 43 78 43t77.5 -38t25.5 -99q0 -60 -27 -99.5t-78 -39.5q-50 0 -76 44v-38zM126 571v-46q0 -30 15.5 -46.5t41.5 -16.5q53 0 53 47v79q0 47 -53 47q-26 0 -41.5 -17t-15.5 -47z"/>
            <glyph glyph-name="c.sups" horiz-adv-x="313"
                   d="M42 547q0 66 33 102.5t89 36.5q43 0 73 -23.5t34 -70.5h-66q-2 24 -13 33.5t-32 9.5q-20 0 -33.5 -12.5t-13.5 -34.5v-79q0 -21 13 -34t35 -13q44 0 47 44h65q-5 -49 -36 -72.5t-75 -23.5q-57 0 -88.5 37t-31.5 100z"/>
            <glyph glyph-name="d.sups" horiz-adv-x="349"
                   d="M289 416h-66v38q-26 -44 -78 -44q-50 0 -76.5 39.5t-26.5 99.5t26.5 98.5t78.5 38.5q50 0 76 -43v123h66v-350zM223 525v46q0 30 -15.5 47t-41.5 17q-53 0 -53 -47v-79q0 -47 53 -47q26 0 41.5 16.5t15.5 46.5z"/>
            <glyph glyph-name="e.sups" horiz-adv-x="322"
                   d="M41 549q0 61 33.5 99t87.5 38q53 0 85 -35.5t32 -89.5v-30h-168v-26q0 -20 14.5 -32t36.5 -12q44 0 49 39h66q-6 -42 -35.5 -66t-77.5 -24q-58 0 -90.5 37.5t-32.5 101.5zM111 589v-13h100v13q0 22 -13.5 34.5t-35.5 12.5q-23 0 -37 -12.5t-14 -34.5z"/>
            <glyph glyph-name="f.sups" horiz-adv-x="244"
                   d="M151 714v-34h65v-52h-65v-212h-67v212h-52v52h52v86h138v-52h-71z"/>
            <glyph glyph-name="g.sups" horiz-adv-x="349"
                   d="M289 680v-249q0 -49 -34.5 -78t-83.5 -29q-107 0 -119 78h63q5 -26 53 -26q55 0 55 57v31q-26 -44 -78 -44q-50 0 -76.5 38t-26.5 96t26.5 95t78.5 37q50 0 76 -43v37h66zM223 535v36q0 30 -15.5 47t-41.5 17q-53 0 -53 -47v-69q0 -47 53 -47q26 0 41.5 16.5t15.5 46.5z
"/>
            <glyph glyph-name="h.sups" horiz-adv-x="347"
                   d="M127 766v-125q26 45 78 45q85 0 85 -97v-173h-67v168q0 49 -42 49q-26 0 -40 -17.5t-14 -46.5v-153h-67v350h67z"/>
            <glyph glyph-name="j.sups" horiz-adv-x="196"
                   d="M138 766v-60h-71v60h71zM69 382v298h67v-350h-136v52h69z"/>
            <glyph glyph-name="k.sups" horiz-adv-x="327"
                   d="M127 766v-350h-67v350h67zM223 416l-95 144l86 120h78l-94 -120l101 -144h-76z"/>
            <glyph glyph-name="l.sups" horiz-adv-x="187"
                   d="M127 416h-67v350h67v-350z"/>
            <glyph glyph-name="m.sups" horiz-adv-x="488"
                   d="M431 416h-67v172q0 45 -38 45q-21 0 -34 -16t-13 -46v-155h-67v172q0 45 -37 45q-21 0 -34.5 -16t-13.5 -46v-155h-67v264h67v-39q20 45 73 45q57 0 74 -50q24 50 78 50q79 0 79 -102v-168z"/>
            <glyph glyph-name="o.sups" horiz-adv-x="331"
                   d="M290 548q0 -63 -33 -100.5t-92 -37.5q-58 0 -91 37.5t-33 100.5t33 100.5t91 37.5q59 0 92 -37.5t33 -100.5zM219 509v78q0 23 -15 36t-39 13t-39 -13t-15 -36v-78q0 -23 15 -36t39 -13t39 13t15 36z"/>
            <glyph glyph-name="p.sups" horiz-adv-x="349"
                   d="M126 330h-66v350h66v-37q26 43 78 43t77.5 -38t25.5 -99q0 -60 -27 -99.5t-78 -39.5q-50 0 -76 44v-124zM126 571v-46q0 -30 15.5 -46.5t41.5 -16.5q53 0 53 47v79q0 47 -53 47q-26 0 -41.5 -17t-15.5 -47z"/>
            <glyph glyph-name="q.sups" horiz-adv-x="349"
                   d="M289 330h-66v124q-26 -44 -78 -44q-50 0 -76.5 39.5t-26.5 99.5t26.5 98.5t78.5 38.5q50 0 76 -43v37h66v-350zM223 525v46q0 30 -15.5 47t-41.5 17q-53 0 -53 -47v-79q0 -47 53 -47q26 0 41.5 16.5t15.5 46.5z"/>
            <glyph glyph-name="r.sups" horiz-adv-x="238"
                   d="M60 416v264h151v-53h-85v-211h-66z"/>
            <glyph glyph-name="s.sups" horiz-adv-x="302"
                   d="M152 410q-52 0 -81.5 23.5t-30.5 65.5h67q3 -39 45 -39q43 0 43 31q0 24 -36 30l-41 7q-72 13 -72 78q0 35 29 57.5t73 22.5q46 0 74.5 -22t29.5 -64h-66q-1 36 -37 36q-38 0 -38 -29q0 -22 27 -27l53 -10q70 -13 70 -78q0 -36 -29 -59t-80 -23z"/>
            <glyph glyph-name="t.sups" horiz-adv-x="261"
                   d="M150 628v-160h65v-52h-132v212h-51v52h51v86h67v-86h65v-52h-65z"/>
            <glyph glyph-name="u.sups" horiz-adv-x="344"
                   d="M217 416v39q-26 -45 -77 -45q-39 0 -61.5 25t-22.5 72v173h67v-168q0 -49 41 -49q25 0 39 18t14 46v153h67v-264h-67z"/>
            <glyph glyph-name="v.sups" horiz-adv-x="304"
                   d="M184 416h-64l-97 264h74l53 -184h4l55 184h71z"/>
            <glyph glyph-name="w.sups" horiz-adv-x="446"
                   d="M334 416h-71l-39 183h-4l-36 -183h-72l-81 264h75l39 -176h4l33 176h80l37 -176h4l41 176h71z"/>
            <glyph glyph-name="x.sups" horiz-adv-x="318"
                   d="M160 510l-57 -94h-76l95 137l-85 127h75l48 -80l48 80h73l-85 -123l94 -141h-75z"/>
            <glyph glyph-name="y.sups" horiz-adv-x="307"
                   d="M152 496h4l57 184h71l-130 -350h-109v52h64l12 35l-99 263h74z"/>
            <glyph glyph-name="z.sups" horiz-adv-x="301"
                   d="M258 468v-52h-219v40l130 172h-120v52h207v-39l-132 -173h134z"/>
            <glyph glyph-name="egrave.sups" horiz-adv-x="322"
                   d="M140 775l45 -62h-53l-60 62h68zM41 549q0 61 33.5 99t87.5 38q53 0 85 -35.5t32 -89.5v-30h-168v-26q0 -20 14.5 -32t36.5 -12q44 0 49 39h66q-6 -42 -35.5 -66t-77.5 -24q-58 0 -90.5 37.5t-32.5 101.5zM111 589v-13h100v13q0 22 -13.5 34.5t-35.5 12.5q-23 0 -37 -12.5
t-14 -34.5z"/>
            <glyph glyph-name="eacute.sups" horiz-adv-x="322"
                   d="M133 713l45 62h68l-60 -62h-53zM41 549q0 61 33.5 99t87.5 38q53 0 85 -35.5t32 -89.5v-30h-168v-26q0 -20 14.5 -32t36.5 -12q44 0 49 39h66q-6 -42 -35.5 -66t-77.5 -24q-58 0 -90.5 37.5t-32.5 101.5zM111 589v-13h100v13q0 22 -13.5 34.5t-35.5 12.5q-23 0 -37 -12.5
t-14 -34.5z"/>
            <glyph glyph-name="parenleft.numr" horiz-adv-x="217"
                   d="M116 560v-109q0 -76 73 -173h-63q-79 101 -79 228q0 124 79 227h63q-73 -98 -73 -173z"/>
            <glyph glyph-name="parenright.numr" horiz-adv-x="217"
                   d="M102 451v109q0 73 -74 173h63q79 -101 79 -227q0 -129 -79 -228h-63q74 96 74 173z"/>
            <glyph glyph-name="comma.numr" horiz-adv-x="184"
                   d="M130 406v-76l-35 -66h-41l34 66h-35v76h77z"/>
            <glyph glyph-name="period.numr" horiz-adv-x="183"
                   d="M130 406v-76h-77v76h77z"/>
            <glyph glyph-name="zero.numr" horiz-adv-x="366"
                   d="M321 505q0 -183 -138 -183t-138 183t138 183t138 -183zM183 378q63 0 63 61v132q0 61 -63 61t-63 -61v-132q0 -61 63 -61z"/>
            <glyph glyph-name="one.numr" horiz-adv-x="288"
                   d="M218 680v-350h-70v234h-111v56h111v60h70z"/>
            <glyph glyph-name="two.numr" horiz-adv-x="346"
                   d="M302 330h-257v60l144 130q20 18 28.5 31.5t8.5 32.5q0 21 -14 34t-38 13q-27 0 -42 -15t-15 -43h-70q0 53 35.5 84t93.5 31q55 0 87 -29t32 -74q0 -59 -58 -108l-101 -85v-2h166v-60z"/>
            <glyph glyph-name="three.numr" horiz-adv-x="352"
                   d="M201 483h-74v54h70q30 0 30 29v27q0 40 -51 40q-53 0 -56 -49h-70q0 48 35.5 76t91.5 28q55 0 89 -26.5t34 -68.5q0 -59 -55 -83q61 -23 61 -85q0 -46 -36.5 -74.5t-94.5 -28.5q-57 0 -95 29t-38 83h70q3 -57 62 -57q26 0 42.5 13t16.5 32v30q0 31 -32 31z"/>
            <glyph glyph-name="four.numr" horiz-adv-x="353"
                   d="M255 330h-68v78h-154v56l148 216h74v-216h63v-56h-63v-78zM187 464v132h-2l-91 -132h93z"/>
            <glyph glyph-name="five.numr" horiz-adv-x="346"
                   d="M120 478h-70l14 202h219v-60h-157l-6 -87q26 33 71 33q53 0 84 -32.5t31 -85.5q0 -59 -34.5 -92.5t-95.5 -33.5q-122 0 -132 107h70q6 -54 61 -54q26 0 42 14t16 35v45q0 44 -57 44q-42 0 -56 -35z"/>
            <glyph glyph-name="six.numr" horiz-adv-x="361"
                   d="M182 322q-137 0 -137 176q0 87 34.5 138.5t104.5 51.5q55 0 87.5 -26t37.5 -72h-70q-6 43 -56 43q-29 0 -47 -19.5t-18 -49.5v-39q29 37 80 37q53 0 86.5 -32.5t33.5 -82.5q0 -52 -36.5 -88.5t-99.5 -36.5zM182 377q29 0 46 15t17 40v28q0 49 -63 49q-64 0 -64 -49v-28
q0 -25 17.5 -40t46.5 -15z"/>
            <glyph glyph-name="seven.numr" horiz-adv-x="315"
                   d="M284 624l-147 -294h-76l145 290h-172v60h250v-56z"/>
            <glyph glyph-name="eight.numr" horiz-adv-x="362"
                   d="M181 322q-59 0 -98 26.5t-39 75.5q0 65 65 88q-54 23 -54 81q0 44 36.5 69.5t89.5 25.5t89.5 -25.5t36.5 -69.5q0 -58 -54 -81q65 -23 65 -88q0 -49 -39 -75.5t-98 -26.5zM236 575v21q0 18 -16.5 27.5t-38.5 9.5t-38.5 -9.5t-16.5 -27.5v-21q0 -17 16.5 -26.5t38.5 -9.5
t38.5 9.5t16.5 26.5zM117 443v-26q0 -19 18.5 -29.5t45.5 -10.5t45.5 10.5t18.5 29.5v26q0 18 -18.5 28.5t-45.5 10.5t-45.5 -10.5t-18.5 -28.5z"/>
            <glyph glyph-name="nine.numr" horiz-adv-x="362"
                   d="M180 688q137 0 137 -176q0 -87 -34.5 -138.5t-104.5 -51.5q-55 0 -87.5 26t-37.5 72h70q6 -43 56 -43q29 0 47 19.5t18 49.5v39q-29 -37 -80 -37q-53 0 -86.5 32.5t-33.5 82.5q0 52 36.5 88.5t99.5 36.5zM180 633q-29 0 -46 -15t-17 -40v-28q0 -49 63 -49q64 0 64 49v28
q0 25 -17.5 40t-46.5 15z"/>
            <glyph glyph-name="bracketleft.numr" horiz-adv-x="239"
                   d="M70 723h130v-55h-65v-345h65v-55h-130v455z"/>
            <glyph glyph-name="bracketright.numr" horiz-adv-x="239"
                   d="M169 723v-455h-130v55h65v345h-65v55h130z"/>
            <glyph glyph-name="a.numr" horiz-adv-x="328"
                   d="M162 600q49 0 76 -23.5t27 -67.5v-127h45v-52h-106l-2 39h-3q-25 -45 -74 -45q-37 0 -61 22q-23 25 -23 58q0 35 22 57t64 26l72 7v17q0 38 -39 38q-43 0 -43 -37h-67q1 42 32 65t80 23zM143 375q26 0 41 17t15 47v7l-69 -6q-20 -1 -20 -21v-23q0 -21 33 -21z"/>
            <glyph glyph-name="b.numr" horiz-adv-x="348"
                   d="M125 330h-66v350h66v-123q26 43 78 43t77.5 -38t25.5 -99q0 -60 -27 -99.5t-78 -39.5q-50 0 -76 44v-38zM125 485v-46q0 -30 15.5 -46.5t41.5 -16.5q53 0 53 47v79q0 47 -53 47q-26 0 -41.5 -17t-15.5 -47z"/>
            <glyph glyph-name="c.numr" horiz-adv-x="313"
                   d="M42 461q0 66 33 102.5t89 36.5q43 0 73 -23.5t34 -70.5h-66q-2 24 -13 33.5t-32 9.5q-20 0 -33.5 -12.5t-13.5 -34.5v-79q0 -21 13 -34t35 -13q44 0 47 44h65q-5 -49 -36 -72.5t-75 -23.5q-57 0 -88.5 37t-31.5 100z"/>
            <glyph glyph-name="d.numr" horiz-adv-x="348"
                   d="M289 330h-66v38q-26 -44 -78 -44q-50 0 -76.5 39.5t-26.5 99.5t26.5 98.5t78.5 38.5q50 0 76 -43v123h66v-350zM223 439v46q0 30 -15.5 47t-41.5 17q-53 0 -53 -47v-79q0 -47 53 -47q26 0 41.5 16.5t15.5 46.5z"/>
            <glyph glyph-name="e.numr" horiz-adv-x="321"
                   d="M41 463q0 61 33.5 99t87.5 38q53 0 85 -35.5t32 -89.5v-30h-168v-26q0 -20 14.5 -32t36.5 -12q44 0 49 39h66q-6 -42 -35.5 -66t-77.5 -24q-58 0 -90.5 37.5t-32.5 101.5zM111 503v-13h100v13q0 22 -13.5 34.5t-35.5 12.5q-23 0 -37 -12.5t-14 -34.5z"/>
            <glyph glyph-name="f.numr" horiz-adv-x="243"
                   d="M150 628v-34h65v-52h-65v-212h-67v212h-52v52h52v86h138v-52h-71z"/>
            <glyph glyph-name="g.numr" horiz-adv-x="348"
                   d="M289 594v-249q0 -49 -34.5 -78t-83.5 -29q-107 0 -119 78h63q5 -26 53 -26q55 0 55 57v31q-26 -44 -78 -44q-50 0 -76.5 38t-26.5 96t26.5 95t78.5 37q50 0 76 -43v37h66zM223 449v36q0 30 -15.5 47t-41.5 17q-53 0 -53 -47v-69q0 -47 53 -47q26 0 41.5 16.5t15.5 46.5z
"/>
            <glyph glyph-name="h.numr" horiz-adv-x="346"
                   d="M126 680v-125q26 45 78 45q85 0 85 -97v-173h-67v168q0 49 -42 49q-26 0 -40 -17.5t-14 -46.5v-153h-67v350h67z"/>
            <glyph glyph-name="i.numr" horiz-adv-x="185"
                   d="M129 680v-60h-71v60h71zM126 330h-67v264h67v-264z"/>
            <glyph glyph-name="j.numr" horiz-adv-x="195"
                   d="M138 680v-60h-71v60h71zM69 296v298h67v-350h-136v52h69z"/>
            <glyph glyph-name="k.numr" horiz-adv-x="325"
                   d="M126 680v-350h-67v350h67zM222 330l-95 144l86 120h78l-94 -120l101 -144h-76z"/>
            <glyph glyph-name="l.numr" horiz-adv-x="185"
                   d="M126 330h-67v350h67v-350z"/>
            <glyph glyph-name="m.numr" horiz-adv-x="487"
                   d="M430 330h-67v172q0 45 -38 45q-21 0 -34 -16t-13 -46v-155h-67v172q0 45 -37 45q-21 0 -34.5 -16t-13.5 -46v-155h-67v264h67v-39q20 45 73 45q57 0 74 -50q24 50 78 50q79 0 79 -102v-168z"/>
            <glyph glyph-name="n.numr" horiz-adv-x="346"
                   d="M289 330h-67v168q0 49 -42 49q-26 0 -40 -17.5t-14 -46.5v-153h-67v264h67v-39q26 45 78 45q85 0 85 -97v-173z"/>
            <glyph glyph-name="o.numr" horiz-adv-x="331"
                   d="M290 462q0 -63 -33 -100.5t-92 -37.5q-58 0 -91 37.5t-33 100.5t33 100.5t91 37.5q59 0 92 -37.5t33 -100.5zM219 423v78q0 23 -15 36t-39 13t-39 -13t-15 -36v-78q0 -23 15 -36t39 -13t39 13t15 36z"/>
            <glyph glyph-name="p.numr" horiz-adv-x="348"
                   d="M125 244h-66v350h66v-37q26 43 78 43t77.5 -38t25.5 -99q0 -60 -27 -99.5t-78 -39.5q-50 0 -76 44v-124zM125 485v-46q0 -30 15.5 -46.5t41.5 -16.5q53 0 53 47v79q0 47 -53 47q-26 0 -41.5 -17t-15.5 -47z"/>
            <glyph glyph-name="q.numr" horiz-adv-x="348"
                   d="M289 244h-66v124q-26 -44 -78 -44q-50 0 -76.5 39.5t-26.5 99.5t26.5 98.5t78.5 38.5q50 0 76 -43v37h66v-350zM223 439v46q0 30 -15.5 47t-41.5 17q-53 0 -53 -47v-79q0 -47 53 -47q26 0 41.5 16.5t15.5 46.5z"/>
            <glyph glyph-name="r.numr" horiz-adv-x="236"
                   d="M59 330v264h151v-53h-85v-211h-66z"/>
            <glyph glyph-name="s.numr" horiz-adv-x="302"
                   d="M152 324q-52 0 -81.5 23.5t-30.5 65.5h67q3 -39 45 -39q43 0 43 31q0 24 -36 30l-41 7q-72 13 -72 78q0 35 29 57.5t73 22.5q46 0 74.5 -22t29.5 -64h-66q-1 36 -37 36q-38 0 -38 -29q0 -22 27 -27l53 -10q70 -13 70 -78q0 -36 -29 -59t-80 -23z"/>
            <glyph glyph-name="t.numr" horiz-adv-x="260"
                   d="M150 542v-160h65v-52h-132v212h-51v52h51v86h67v-86h65v-52h-65z"/>
            <glyph glyph-name="u.numr" horiz-adv-x="343"
                   d="M217 330v39q-26 -45 -77 -45q-39 0 -61.5 25t-22.5 72v173h67v-168q0 -49 41 -49q25 0 39 18t14 46v153h67v-264h-67z"/>
            <glyph glyph-name="v.numr" horiz-adv-x="304"
                   d="M184 330h-64l-97 264h74l53 -184h4l55 184h71z"/>
            <glyph glyph-name="w.numr" horiz-adv-x="444"
                   d="M333 330h-71l-39 183h-4l-36 -183h-72l-81 264h75l39 -176h4l33 176h80l37 -176h4l41 176h71z"/>
            <glyph glyph-name="x.numr" horiz-adv-x="316"
                   d="M159 424l-57 -94h-76l95 137l-85 127h75l48 -80l48 80h73l-85 -123l94 -141h-75z"/>
            <glyph glyph-name="y.numr" horiz-adv-x="307"
                   d="M152 410h4l57 184h71l-130 -350h-109v52h64l12 35l-99 263h74z"/>
            <glyph glyph-name="z.numr" horiz-adv-x="301"
                   d="M258 382v-52h-219v40l130 172h-120v52h207v-39l-132 -173h134z"/>
            <glyph glyph-name="egrave.numr" horiz-adv-x="321"
                   d="M140 679l45 -62h-53l-60 62h68zM41 453q0 61 33.5 99t87.5 38q53 0 85 -35.5t32 -89.5v-30h-168v-26q0 -20 14.5 -32t36.5 -12q44 0 49 39h66q-6 -42 -35.5 -66t-77.5 -24q-58 0 -90.5 37.5t-32.5 101.5zM111 493v-13h100v13q0 22 -13.5 34.5t-35.5 12.5q-23 0 -37 -12.5
t-14 -34.5z"/>
            <glyph glyph-name="eacute.numr" horiz-adv-x="321"
                   d="M133 617l45 62h68l-60 -62h-53zM41 453q0 61 33.5 99t87.5 38q53 0 85 -35.5t32 -89.5v-30h-168v-26q0 -20 14.5 -32t36.5 -12q44 0 49 39h66q-6 -42 -35.5 -66t-77.5 -24q-58 0 -90.5 37.5t-32.5 101.5zM111 493v-13h100v13q0 22 -13.5 34.5t-35.5 12.5q-23 0 -37 -12.5
t-14 -34.5z"/>
            <glyph glyph-name="parenleft.dnom" horiz-adv-x="217"
                   d="M116 230v-109q0 -76 73 -173h-63q-79 101 -79 228q0 124 79 227h63q-73 -98 -73 -173z"/>
            <glyph glyph-name="parenright.dnom" horiz-adv-x="218"
                   d="M103 121v109q0 73 -74 173h63q79 -101 79 -227q0 -129 -79 -228h-63q74 96 74 173z"/>
            <glyph glyph-name="comma.dnom" horiz-adv-x="185"
                   d="M131 76v-76l-35 -66h-41l34 66h-35v76h77z"/>
            <glyph glyph-name="period.dnom" horiz-adv-x="183"
                   d="M130 76v-76h-77v76h77z"/>
            <glyph glyph-name="zero.dnom" horiz-adv-x="366"
                   d="M321 175q0 -183 -138 -183t-138 183t138 183t138 -183zM183 48q63 0 63 61v132q0 61 -63 61t-63 -61v-132q0 -61 63 -61z"/>
            <glyph glyph-name="one.dnom" horiz-adv-x="287"
                   d="M217 350v-350h-70v234h-111v56h111v60h70z"/>
            <glyph glyph-name="two.dnom" horiz-adv-x="346"
                   d="M302 0h-257v60l144 130q20 18 28.5 31.5t8.5 32.5q0 21 -14 34t-38 13q-27 0 -42 -15t-15 -43h-70q0 53 35.5 84t93.5 31q55 0 87 -29t32 -74q0 -59 -58 -108l-101 -85v-2h166v-60z"/>
            <glyph glyph-name="three.dnom" horiz-adv-x="352"
                   d="M201 153h-74v54h70q30 0 30 29v27q0 40 -51 40q-53 0 -56 -49h-70q0 48 35.5 76t91.5 28q55 0 89 -26.5t34 -68.5q0 -59 -55 -83q61 -23 61 -85q0 -46 -36.5 -74.5t-94.5 -28.5q-57 0 -95 29t-38 83h70q3 -57 62 -57q26 0 42.5 13t16.5 32v30q0 31 -32 31z"/>
            <glyph glyph-name="four.dnom" horiz-adv-x="353"
                   d="M255 0h-68v78h-154v56l148 216h74v-216h63v-56h-63v-78zM187 134v132h-2l-91 -132h93z"/>
            <glyph glyph-name="five.dnom" horiz-adv-x="345"
                   d="M119 148h-70l14 202h219v-60h-157l-6 -87q26 33 71 33q53 0 84 -32.5t31 -85.5q0 -59 -34.5 -92.5t-95.5 -33.5q-122 0 -132 107h70q6 -54 61 -54q26 0 42 14t16 35v45q0 44 -57 44q-42 0 -56 -35z"/>
            <glyph glyph-name="six.dnom" horiz-adv-x="362"
                   d="M182 -8q-137 0 -137 176q0 87 34.5 138.5t104.5 51.5q55 0 87.5 -26t37.5 -72h-70q-6 43 -56 43q-29 0 -47 -19.5t-18 -49.5v-39q29 37 80 37q53 0 86.5 -32.5t33.5 -82.5q0 -52 -36.5 -88.5t-99.5 -36.5zM182 47q29 0 46 15t17 40v28q0 49 -63 49q-64 0 -64 -49v-28
q0 -25 17.5 -40t46.5 -15z"/>
            <glyph glyph-name="seven.dnom" horiz-adv-x="314"
                   d="M284 294l-147 -294h-76l145 290h-172v60h250v-56z"/>
            <glyph glyph-name="eight.dnom" horiz-adv-x="362"
                   d="M181 -8q-59 0 -98 26.5t-39 75.5q0 65 65 88q-54 23 -54 81q0 44 36.5 69.5t89.5 25.5t89.5 -25.5t36.5 -69.5q0 -58 -54 -81q65 -23 65 -88q0 -49 -39 -75.5t-98 -26.5zM236 245v21q0 18 -16.5 27.5t-38.5 9.5t-38.5 -9.5t-16.5 -27.5v-21q0 -17 16.5 -26.5t38.5 -9.5
t38.5 9.5t16.5 26.5zM117 113v-26q0 -19 18.5 -29.5t45.5 -10.5t45.5 10.5t18.5 29.5v26q0 18 -18.5 28.5t-45.5 10.5t-45.5 -10.5t-18.5 -28.5z"/>
            <glyph glyph-name="nine.dnom" horiz-adv-x="361"
                   d="M179 358q137 0 137 -176q0 -87 -34.5 -138.5t-104.5 -51.5q-55 0 -87.5 26t-37.5 72h70q6 -43 56 -43q29 0 47 19.5t18 49.5v39q-29 -37 -80 -37q-53 0 -86.5 32.5t-33.5 82.5q0 52 36.5 88.5t99.5 36.5zM179 303q-29 0 -46 -15t-17 -40v-28q0 -49 63 -49q64 0 64 49v28
q0 25 -17.5 40t-46.5 15z"/>
            <glyph glyph-name="bracketleft.dnom" horiz-adv-x="239"
                   d="M70 403h130v-55h-65v-345h65v-55h-130v455z"/>
            <glyph glyph-name="bracketright.dnom" horiz-adv-x="239"
                   d="M169 403v-455h-130v55h65v345h-65v55h130z"/>
            <glyph glyph-name="a.dnom" horiz-adv-x="330"
                   d="M162 270q49 0 76 -23.5t27 -67.5v-127h45v-52h-106l-2 39h-3q-25 -45 -74 -45q-37 0 -61 22q-23 25 -23 58q0 35 22 57t64 26l72 7v17q0 38 -39 38q-43 0 -43 -37h-67q1 42 32 65t80 23zM143 45q26 0 41 17t15 47v7l-69 -6q-20 -1 -20 -21v-23q0 -21 33 -21z"/>
            <glyph glyph-name="b.dnom" horiz-adv-x="349"
                   d="M126 0h-66v350h66v-123q26 43 78 43t77.5 -38t25.5 -99q0 -60 -27 -99.5t-78 -39.5q-50 0 -76 44v-38zM126 155v-46q0 -30 15.5 -46.5t41.5 -16.5q53 0 53 47v79q0 47 -53 47q-26 0 -41.5 -17t-15.5 -47z"/>
            <glyph glyph-name="c.dnom" horiz-adv-x="313"
                   d="M42 131q0 66 33 102.5t89 36.5q43 0 73 -23.5t34 -70.5h-66q-2 24 -13 33.5t-32 9.5q-20 0 -33.5 -12.5t-13.5 -34.5v-79q0 -21 13 -34t35 -13q44 0 47 44h65q-5 -49 -36 -72.5t-75 -23.5q-57 0 -88.5 37t-31.5 100z"/>
            <glyph glyph-name="d.dnom" horiz-adv-x="349"
                   d="M289 0h-66v38q-26 -44 -78 -44q-50 0 -76.5 39.5t-26.5 99.5t26.5 98.5t78.5 38.5q50 0 76 -43v123h66v-350zM223 109v46q0 30 -15.5 47t-41.5 17q-53 0 -53 -47v-79q0 -47 53 -47q26 0 41.5 16.5t15.5 46.5z"/>
            <glyph glyph-name="e.dnom" horiz-adv-x="322"
                   d="M41 133q0 61 33.5 99t87.5 38q53 0 85 -35.5t32 -89.5v-30h-168v-26q0 -20 14.5 -32t36.5 -12q44 0 49 39h66q-6 -42 -35.5 -66t-77.5 -24q-58 0 -90.5 37.5t-32.5 101.5zM111 173v-13h100v13q0 22 -13.5 34.5t-35.5 12.5q-23 0 -37 -12.5t-14 -34.5z"/>
            <glyph glyph-name="f.dnom" horiz-adv-x="244"
                   d="M151 298v-34h65v-52h-65v-212h-67v212h-52v52h52v86h138v-52h-71z"/>
            <glyph glyph-name="g.dnom" horiz-adv-x="349"
                   d="M289 264v-249q0 -49 -34.5 -78t-83.5 -29q-107 0 -119 78h63q5 -26 53 -26q55 0 55 57v31q-26 -44 -78 -44q-50 0 -76.5 38t-26.5 96t26.5 95t78.5 37q50 0 76 -43v37h66zM223 119v36q0 30 -15.5 47t-41.5 17q-53 0 -53 -47v-69q0 -47 53 -47q26 0 41.5 16.5t15.5 46.5z
"/>
            <glyph glyph-name="h.dnom" horiz-adv-x="347"
                   d="M127 350v-125q26 45 78 45q85 0 85 -97v-173h-67v168q0 49 -42 49q-26 0 -40 -17.5t-14 -46.5v-153h-67v350h67z"/>
            <glyph glyph-name="i.dnom" horiz-adv-x="187"
                   d="M130 350v-60h-71v60h71zM127 0h-67v264h67v-264z"/>
            <glyph glyph-name="j.dnom" horiz-adv-x="196"
                   d="M138 350v-60h-71v60h71zM69 -34v298h67v-350h-136v52h69z"/>
            <glyph glyph-name="k.dnom" horiz-adv-x="327"
                   d="M127 350v-350h-67v350h67zM223 0l-95 144l86 120h78l-94 -120l101 -144h-76z"/>
            <glyph glyph-name="l.dnom" horiz-adv-x="187"
                   d="M127 0h-67v350h67v-350z"/>
            <glyph glyph-name="m.dnom" horiz-adv-x="488"
                   d="M431 0h-67v172q0 45 -38 45q-21 0 -34 -16t-13 -46v-155h-67v172q0 45 -37 45q-21 0 -34.5 -16t-13.5 -46v-155h-67v264h67v-39q20 45 73 45q57 0 74 -50q24 50 78 50q79 0 79 -102v-168z"/>
            <glyph glyph-name="n.dnom" horiz-adv-x="347"
                   d="M290 0h-67v168q0 49 -42 49q-26 0 -40 -17.5t-14 -46.5v-153h-67v264h67v-39q26 45 78 45q85 0 85 -97v-173z"/>
            <glyph glyph-name="o.dnom" horiz-adv-x="331"
                   d="M290 132q0 -63 -33 -100.5t-92 -37.5q-58 0 -91 37.5t-33 100.5t33 100.5t91 37.5q59 0 92 -37.5t33 -100.5zM219 93v78q0 23 -15 36t-39 13t-39 -13t-15 -36v-78q0 -23 15 -36t39 -13t39 13t15 36z"/>
            <glyph glyph-name="p.dnom" horiz-adv-x="349"
                   d="M126 -86h-66v350h66v-37q26 43 78 43t77.5 -38t25.5 -99q0 -60 -27 -99.5t-78 -39.5q-50 0 -76 44v-124zM126 155v-46q0 -30 15.5 -46.5t41.5 -16.5q53 0 53 47v79q0 47 -53 47q-26 0 -41.5 -17t-15.5 -47z"/>
            <glyph glyph-name="q.dnom" horiz-adv-x="349"
                   d="M289 -86h-66v124q-26 -44 -78 -44q-50 0 -76.5 39.5t-26.5 99.5t26.5 98.5t78.5 38.5q50 0 76 -43v37h66v-350zM223 109v46q0 30 -15.5 47t-41.5 17q-53 0 -53 -47v-79q0 -47 53 -47q26 0 41.5 16.5t15.5 46.5z"/>
            <glyph glyph-name="r.dnom" horiz-adv-x="238"
                   d="M60 0v264h151v-53h-85v-211h-66z"/>
            <glyph glyph-name="s.dnom" horiz-adv-x="302"
                   d="M152 -6q-52 0 -81.5 23.5t-30.5 65.5h67q3 -39 45 -39q43 0 43 31q0 24 -36 30l-41 7q-72 13 -72 78q0 35 29 57.5t73 22.5q46 0 74.5 -22t29.5 -64h-66q-1 36 -37 36q-38 0 -38 -29q0 -22 27 -27l53 -10q70 -13 70 -78q0 -36 -29 -59t-80 -23z"/>
            <glyph glyph-name="t.dnom" horiz-adv-x="261"
                   d="M150 212v-160h65v-52h-132v212h-51v52h51v86h67v-86h65v-52h-65z"/>
            <glyph glyph-name="u.dnom" horiz-adv-x="344"
                   d="M217 0v39q-26 -45 -77 -45q-39 0 -61.5 25t-22.5 72v173h67v-168q0 -49 41 -49q25 0 39 18t14 46v153h67v-264h-67z"/>
            <glyph glyph-name="v.dnom" horiz-adv-x="304"
                   d="M184 0h-64l-97 264h74l53 -184h4l55 184h71z"/>
            <glyph glyph-name="w.dnom" horiz-adv-x="446"
                   d="M334 0h-71l-39 183h-4l-36 -183h-72l-81 264h75l39 -176h4l33 176h80l37 -176h4l41 176h71z"/>
            <glyph glyph-name="x.dnom" horiz-adv-x="318"
                   d="M160 94l-57 -94h-76l95 137l-85 127h75l48 -80l48 80h73l-85 -123l94 -141h-75z"/>
            <glyph glyph-name="y.dnom" horiz-adv-x="307"
                   d="M152 80h4l57 184h71l-130 -350h-109v52h64l12 35l-99 263h74z"/>
            <glyph glyph-name="z.dnom" horiz-adv-x="301"
                   d="M258 52v-52h-219v40l130 172h-120v52h207v-39l-132 -173h134z"/>
            <glyph glyph-name="egrave.dnom" horiz-adv-x="322"
                   d="M140 359l45 -62h-53l-60 62h68zM41 133q0 61 33.5 99t87.5 38q53 0 85 -35.5t32 -89.5v-30h-168v-26q0 -20 14.5 -32t36.5 -12q44 0 49 39h66q-6 -42 -35.5 -66t-77.5 -24q-58 0 -90.5 37.5t-32.5 101.5zM111 173v-13h100v13q0 22 -13.5 34.5t-35.5 12.5q-23 0 -37 -12.5
t-14 -34.5z"/>
            <glyph glyph-name="eacute.dnom" horiz-adv-x="322"
                   d="M133 297l45 62h68l-60 -62h-53zM41 133q0 61 33.5 99t87.5 38q53 0 85 -35.5t32 -89.5v-30h-168v-26q0 -20 14.5 -32t36.5 -12q44 0 49 39h66q-6 -42 -35.5 -66t-77.5 -24q-58 0 -90.5 37.5t-32.5 101.5zM111 173v-13h100v13q0 22 -13.5 34.5t-35.5 12.5q-23 0 -37 -12.5
t-14 -34.5z"/>
            <glyph glyph-name="space.frac" horiz-adv-x="51"
            />
            <glyph glyph-name="zero.tf"
                   d="M541 340q0 -81 -11 -142t-37.5 -111t-74.5 -76t-118 -26t-118 26t-74.5 76t-37.5 111t-11 142t11 142t37.5 111t74.5 76t118 26t118 -26t74.5 -76t37.5 -111t11 -142zM300 65q63 0 102 38t39 104v266q0 66 -39 104t-102 38t-102 -38t-39 -104v-266q0 -66 39 -104t102 -38
z"/>
            <glyph glyph-name="one.tf"
                   d="M108 0v79h175v443h-175v79h175v79h90v-601h160v-79h-425z"/>
            <glyph glyph-name="two.tf"
                   d="M189 81v-2h339v-79h-457v79l272 267q45 44 64 75.5t19 73.5q0 55 -34 87.5t-90 32.5q-62 0 -99 -34.5t-37 -100.5h-92q0 99 65 157t165 58q97 0 155.5 -54.5t58.5 -145.5q0 -103 -106 -203z"/>
            <glyph glyph-name="three.tf"
                   d="M359 309h-155v79h142q35 0 55 20.5t20 52.5v62q0 43 -36 67.5t-88 24.5q-59 0 -93.5 -31t-38.5 -83h-92q0 79 61.5 136.5t162.5 57.5q100 0 161 -51t61 -133q0 -113 -86 -159q99 -45 99 -162q0 -96 -66 -150.5t-173 -54.5q-104 0 -170.5 54.5t-66.5 158.5h92
q10 -133 145 -133q61 0 101 30t40 72v68q0 32 -20 53t-55 21z"/>
            <glyph glyph-name="four.tf"
                   d="M444 0h-90v164h-300v79l299 437h91v-437h98v-79h-98v-164zM354 551l-210 -308h210v308z"/>
            <glyph glyph-name="five.tf"
                   d="M171 298h-92l26 382h393v-79h-310l-16 -211q23 31 62 49t83 18q102 0 162 -63.5t60 -168.5q0 -109 -64.5 -174.5t-172.5 -65.5q-105 0 -165.5 53t-68.5 150h92q13 -123 139 -123q62 0 101 31t39 85v89q0 52 -37.5 80.5t-100.5 28.5q-89 0 -130 -81z"/>
            <glyph glyph-name="six.tf"
                   d="M305 -15q-131 0 -187.5 83.5t-56.5 254.5q0 372 246 372q203 0 222 -184h-92q-13 104 -130 104q-67 0 -106.5 -47t-39.5 -124v-67q55 70 159 70q106 0 167 -60.5t61 -161.5q0 -60 -26 -113.5t-83 -90t-134 -36.5zM305 65q63 0 103 37.5t40 91.5v56q0 53 -39 86t-103 33
q-65 0 -105 -33t-40 -86v-56q0 -54 40.5 -91.5t103.5 -37.5z"/>
            <glyph glyph-name="seven.tf"
                   d="M527 602l-281 -602h-102l286 601h-356v79h453v-78z"/>
            <glyph glyph-name="eight.tf"
                   d="M300 -15q-108 0 -176.5 50t-68.5 147q0 62 32.5 106.5t91.5 65.5q-104 45 -104 157q0 84 64 134t161 50t161 -50t64 -134q0 -112 -104 -157q59 -21 91.5 -65.5t32.5 -106.5q0 -97 -68.5 -147t-176.5 -50zM427 481v43q0 43 -36 67t-91 24t-91 -24t-36 -67v-43
q0 -43 36 -67t91 -24t91 24t36 67zM155 214v-52q0 -45 39.5 -71t105.5 -26t105.5 26t39.5 71v52q0 45 -39.5 71.5t-105.5 26.5t-105.5 -26.5t-39.5 -71.5z"/>
            <glyph glyph-name="nine.tf"
                   d="M294 695q131 0 187.5 -83.5t56.5 -254.5q0 -372 -246 -372q-203 0 -222 184h92q13 -104 130 -104q67 0 106.5 47t39.5 124v67q-55 -70 -159 -70q-106 0 -167 60.5t-61 161.5q0 60 26 113.5t83 90t134 36.5zM294 615q-63 0 -103 -37.5t-40 -91.5v-56q0 -53 39 -86t103 -33
q65 0 105 33t40 86v56q0 54 -40.5 91.5t-103.5 37.5z"/>
            <glyph glyph-name="uni2007.tf"
            />
            <glyph glyph-name="parenleft.case" horiz-adv-x="308"
                   d="M149 445v-210q0 -153 139 -338h-80q-73 95 -111 199t-38 244t38 244t111 199h80q-139 -188 -139 -338z"/>
            <glyph glyph-name="parenright.case" horiz-adv-x="309"
                   d="M159 235v210q0 150 -139 338h80q73 -95 111 -199t38 -244t-38 -244t-111 -199h-80q139 185 139 338z"/>
            <glyph glyph-name="hyphen.case" horiz-adv-x="434"
                   d="M77 309v82h280v-82h-280z"/>
            <glyph glyph-name="at.case" horiz-adv-x="796"
                   d="M722 170h-450v356h270v-279h90v356h-450v-510h360v-77h-450v664h630v-510zM362 449v-202h90v202h-90z"/>
            <glyph glyph-name="bracketleft.case" horiz-adv-x="342"
                   d="M93 783h210v-74h-125v-738h125v-74h-210v886z"/>
            <glyph glyph-name="bracketright.case" horiz-adv-x="342"
                   d="M39 783h210v-886h-210v74h125v738h-125v74z"/>
            <glyph glyph-name="grave.case" horiz-adv-x="0"
                   d="M-40 869l79 -122h-78l-106 122h105z"/>
            <glyph glyph-name="braceleft.case" horiz-adv-x="373"
                   d="M209 378h-85v405h210v-74h-125v-331zM124 -103v405h-95v76h95v-76h85v-331h125v-74h-210z"/>
            <glyph glyph-name="bar.case" horiz-adv-x="271"
                   d="M93 -170v1020h85v-1020h-85z"/>
            <glyph glyph-name="braceright.case" horiz-adv-x="373"
                   d="M249 783v-405h95v-76h-95v76h-85v331h-125v74h210zM164 302h85v-405h-210v74h125v331z"/>
            <glyph glyph-name="exclamdown.case" horiz-adv-x="274"
                   d="M192 680v-110h-110v110h110zM112 502h50l20 -149v-353h-90v353z"/>
            <glyph glyph-name="brokenbar.case" horiz-adv-x="271"
                   d="M93 433v417h85v-417h-85zM93 -170v417h85v-417h-85z"/>
            <glyph glyph-name="dieresis.case" horiz-adv-x="0"
                   d="M-44 854v-88h-88v88h88zM132 854v-88h-88v88h88z"/>
            <glyph glyph-name="guillemotleft.case" horiz-adv-x="492"
                   d="M238 144h-80l-107 186l107 186h80l-97 -186zM427 144h-80l-107 186l107 186h80l-97 -186z"/>
            <glyph glyph-name="uni00AD.case" horiz-adv-x="434"
                   d="M77 309v82h280v-82h-280z"/>
            <glyph glyph-name="macron.case" horiz-adv-x="0"
                   d="M-144 785v59h289v-59h-289z"/>
            <glyph glyph-name="acute.case" horiz-adv-x="0"
                   d="M-39 747l79 122h105l-106 -122h-78z"/>
            <glyph glyph-name="periodcentered.case" horiz-adv-x="264"
                   d="M187 405v-110h-110v110h110z"/>
            <glyph glyph-name="guillemotright.case" horiz-adv-x="491"
                   d="M145 144h-80l97 186l-97 186h80l107 -186zM333 144h-80l97 186l-97 186h80l107 -186z"/>
            <glyph glyph-name="questiondown.case" horiz-adv-x="491"
                   d="M207 570v110h110v-110h-110zM130 169q0 -50 32 -78.5t83 -28.5q54 0 88.5 31t38.5 86h90q-7 -88 -68.5 -141t-149.5 -53q-89 0 -146.5 50.5t-57.5 131.5q0 60 21.5 99t62.5 75q6 6 22.5 20.5t21.5 19t16.5 16t15 17.5t9 16t7 20t1.5 22v30h90v-30q0 -54 -22 -89t-75 -77
q-43 -35 -61.5 -65.5t-18.5 -71.5z"/>
            <glyph glyph-name="circumflex.case" horiz-adv-x="0"
                   d="M0 820l-57 -73h-77l83 122h103l83 -122h-78z"/>
            <glyph glyph-name="caron.case" horiz-adv-x="0"
                   d="M-57 869l57 -73l57 73h78l-83 -122h-103l-83 122h77z"/>
            <glyph glyph-name="breve.case" horiz-adv-x="0"
                   d="M-135 869h60q0 -34 21.5 -56.5t53.5 -22.5t53.5 22.5t21.5 56.5h60q0 -56 -39.5 -95.5t-95.5 -39.5t-95.5 39.5t-39.5 95.5z"/>
            <glyph glyph-name="breve.cyrl_dflt.case" horiz-adv-x="0"
                   d="M-155 869h60q0 -79 95 -79t95 79h60q0 -59 -40 -97t-115 -38t-115 38t-40 97z"/>
            <glyph glyph-name="dotaccent.case" horiz-adv-x="0"
                   d="M44 854v-88h-88v88h88z"/>
            <glyph glyph-name="ring.case" horiz-adv-x="0"
                   d="M89 825q0 -35 -24.5 -60.5t-64.5 -25.5t-64.5 25.5t-24.5 60.5t24.5 60.5t64.5 25.5t64.5 -25.5t24.5 -60.5zM44 825q0 18 -12.5 31t-31.5 13t-32 -13t-13 -31t13 -31.5t32 -13.5t31.5 13.5t12.5 31.5z"/>
            <glyph glyph-name="tilde.case" horiz-adv-x="0"
                   d="M104 854h50q0 -45 -23.5 -70t-65.5 -25q-30 0 -75 24t-60 24q-33 0 -33 -38h-50q0 45 23.5 70t65.5 25q30 0 75 -24t60 -24q33 0 33 38z"/>
            <glyph glyph-name="hungarumlaut.case" horiz-adv-x="0"
                   d="M-120 747l74 122h105l-101 -122h-78zM43 747l74 122h105l-101 -122h-78z"/>
            <glyph glyph-name="endash.case" horiz-adv-x="624"
                   d="M77 309v82h470v-82h-470z"/>
            <glyph glyph-name="emdash.case" horiz-adv-x="1094"
                   d="M77 309v82h940v-82h-940z"/>
            <glyph glyph-name="guilsinglleft.case" horiz-adv-x="303"
                   d="M238 144h-80l-107 186l107 186h80l-97 -186z"/>
            <glyph glyph-name="guilsinglright.case" horiz-adv-x="303"
                   d="M145 144h-80l97 186l-97 186h80l107 -186z"/>
            <glyph glyph-name="hyphen_greater.case" horiz-adv-x="776"
                   d="M393 605h115l218 -219v-72l-218 -219h-115l213 214h-560v82h560z"/>
            <glyph glyph-name="less_hyphen.case" horiz-adv-x="790"
                   d="M275 605h115l-213 -214h560v-82h-560l213 -214h-115l-218 219v72z"/>
            <glyph glyph-name="hyphen_greater" horiz-adv-x="782"
                   d="M398 510h115l218 -219v-72l-218 -219h-115l213 214h-560v82h560z"/>
            <glyph glyph-name="less_hyphen" horiz-adv-x="782"
                   d="M269 510h115l-213 -214h560v-82h-560l213 -214h-115l-218 219v72z"/>
            <glyph glyph-name="percent.zero" horiz-adv-x="797"
                   d="M318 505q0 -183 -138 -183t-138 183t138 183t138 -183zM148 0l426 680h76l-426 -680h-76zM121 412l93 214q-17 7 -34 7q-63 0 -63 -61v-134q0 -17 4 -26zM239 598l-95 -214q14 -7 36 -7q63 0 63 61v134q0 17 -4 26zM755 175q0 -183 -138 -183t-138 183t138 183t138 -183z
M558 82l93 214q-17 7 -34 7q-63 0 -63 -61v-134q0 -17 4 -26zM676 268l-95 -214q14 -7 36 -7q63 0 63 61v134q0 17 -4 26z"/>
            <glyph glyph-name="zero.dnom.zero" horiz-adv-x="366"
                   d="M321 175q0 -183 -138 -183t-138 183t138 183t138 -183zM124 82l93 214q-17 7 -34 7q-63 0 -63 -61v-134q0 -17 4 -26zM242 268l-95 -214q14 -7 36 -7q63 0 63 61v134q0 17 -4 26z"/>
            <glyph glyph-name="zero.numr.zero" horiz-adv-x="366"
                   d="M321 505q0 -183 -138 -183t-138 183t138 183t138 -183zM124 412l93 214q-18 7 -34 7q-63 0 -63 -61v-134q0 -17 4 -26zM242 598l-95 -214q14 -7 36 -7q63 0 63 61v134q0 17 -4 26z"/>
            <glyph glyph-name="zero.tf.zero"
                   d="M541 340q0 -81 -11 -142t-37.5 -111t-74.5 -76t-118 -26t-118 26t-74.5 76t-37.5 111t-11 142t11 142t37.5 111t74.5 76t118 26t118 -26t74.5 -76t37.5 -111t11 -142zM159 473v-266q0 -41 16 -73l201 463q-33 18 -76 18q-63 0 -102 -38t-39 -104zM441 207v266
q0 42 -16 72l-202 -461q31 -19 77 -19q63 0 102 38t39 104z"/>
            <glyph glyph-name="zero.zero" horiz-adv-x="610"
                   d="M546 340q0 -81 -11 -142t-37.5 -111t-74.5 -76t-118 -26t-118 26t-74.5 76t-37.5 111t-11 142t11 142t37.5 111t74.5 76t118 26t118 -26t74.5 -76t37.5 -111t11 -142zM164 473v-266q0 -41 16 -73l201 463q-33 18 -76 18q-63 0 -102 -38t-39 -104zM446 207v266
q0 42 -16 72l-202 -461q31 -19 77 -19q63 0 102 38t39 104z"/>
            <glyph glyph-name="perthousand.zero" horiz-adv-x="1132"
                   d="M318 505q0 -183 -138 -183t-138 183t138 183t138 -183zM148 0l426 680h76l-426 -680h-76zM121 412l93 214q-17 7 -34 7q-63 0 -63 -61v-134q0 -17 4 -26zM239 598l-95 -214q14 -7 36 -7q63 0 63 61v134q0 17 -4 26zM1094 175q0 -183 -138 -183t-138 183t138 183t138 -183
zM753 175q0 -183 -138 -183t-138 183t138 183t138 -183zM897 82l93 214q-18 7 -34 7q-63 0 -63 -61v-134q0 -17 4 -26zM556 82l93 214q-17 7 -34 7q-63 0 -63 -61v-134q0 -17 4 -26zM1015 268l-95 -214q14 -7 36 -7q63 0 63 61v134q0 17 -4 26zM674 268l-95 -214
q14 -7 36 -7q63 0 63 61v134q0 17 -4 26z"/>
            <glyph glyph-name="uni2070.zero" horiz-adv-x="366"
                   d="M321 591q0 -183 -138 -183t-138 183t138 183t138 -183zM124 498l93 214q-18 7 -34 7q-63 0 -63 -61v-134q0 -17 4 -26zM242 684l-95 -214q14 -7 36 -7q63 0 63 61v134q0 17 -4 26z"/>
            <glyph glyph-name="uni2080.zero" horiz-adv-x="366"
                   d="M321 69q0 -183 -138 -183t-138 183t138 183t138 -183zM124 -24l93 214q-17 7 -34 7q-63 0 -63 -61v-134q0 -17 4 -26zM242 162l-95 -214q14 -7 36 -7q63 0 63 61v134q0 17 -4 26z"/>
            <glyph glyph-name="at.case.ss01" horiz-adv-x="819"
                   d="M606 101h95q-44 -54 -117 -83.5t-162 -29.5q-162 0 -263.5 94t-101.5 247q0 160 107 260t262 100q152 0 250.5 -86t98.5 -220q0 -94 -46.5 -155.5t-126.5 -61.5q-91 0 -108 69q-50 -73 -134 -73q-56 0 -89.5 32t-33.5 93q0 52 16 102t55.5 89t96.5 39q73 0 101 -59l10 51
h72l-44 -208q-3 -15 -3 -26q0 -55 62 -55q44 0 74 41t30 122q0 109 -79 177t-202 68q-126 0 -213.5 -82t-87.5 -217q0 -124 82 -202t214 -78q133 0 185 52zM470 304l12 50q5 22 5 37q0 32 -21.5 51t-54.5 19q-30 0 -52.5 -19.5t-28.5 -49.5l-21 -97q-2 -12 -2 -18
q0 -24 18 -42t49 -18q36 0 61.5 23.5t34.5 63.5z"/>
            <glyph glyph-name="at.ss01" horiz-adv-x="814"
                   d="M604 17h95q-44 -54 -117 -83.5t-162 -29.5q-162 0 -263.5 94t-101.5 247q0 160 107 260t262 100q152 0 250.5 -86t98.5 -220q0 -94 -46.5 -155.5t-126.5 -61.5q-91 0 -108 69q-50 -73 -134 -73q-56 0 -89.5 32t-33.5 93q0 52 16 102t55.5 89t96.5 39q73 0 101 -59l10 51
h72l-44 -208q-3 -15 -3 -26q0 -55 62 -55q44 0 74 41t30 122q0 109 -79 177t-202 68q-126 0 -213.5 -82t-87.5 -217q0 -124 82 -202t214 -78q133 0 185 52zM468 220l12 50q5 22 5 37q0 32 -21.5 51t-54.5 19q-30 0 -52.5 -19.5t-28.5 -49.5l-21 -97q-2 -12 -2 -18
q0 -24 18 -42t49 -18q36 0 61.5 23.5t34.5 63.5z"/>
            <glyph glyph-name="arrowleft.ss02" horiz-adv-x="781"
                   d="M390 638v-85h-85v85h85zM305 553v-85h-85v85h85zM730 383v-85h-510v-85h85v-85h85v-85h-85v85h-85v85h-85v85h-85v85h85v85h85v-85h510z"/>
            <glyph glyph-name="arrowup.ss02" horiz-adv-x="671"
                   d="M548 468h85v-85h-85v85h-85v85h-85v-510h-85v510h-85v85h85v85h85v-85h85v-85h85v-85zM208 468h-85v85h85v-85zM123 383h-85v85h85v-85z"/>
            <glyph glyph-name="arrowright.ss02" horiz-adv-x="781"
                   d="M391 638h85v-85h-85v85zM476 553h85v-85h-85v85zM51 383h510v85h85v-85h85v-85h-85v-85h-85v-85h-85v-85h-85v85h85v85h85v85h-510v85z"/>
            <glyph glyph-name="arrowdown.ss02" horiz-adv-x="687"
                   d="M301 723h85v-510h85v-85h-85v-85h-85v85h-85v85h-85v85h85v-85h85v510zM46 383h85v-85h-85v85zM556 383h85v-85h-85v85zM471 298h85v-85h-85v85z"/>
            <glyph glyph-name="uni2196.ss02" horiz-adv-x="699"
                   d="M233 383v85h-85v-255h-85v425h425v-85h-255v-85h85v-85h85v-85h85v-85h85v-85h85v-85h-85v85h-85v85h-85v85h-85v85h-85z"/>
            <glyph glyph-name="uni2197.ss02" horiz-adv-x="699"
                   d="M211 638h425v-425h-85v255h-85v85h-255v85zM466 468v-85h-85v85h85zM381 383v-85h-85v85h85zM296 298v-85h-85v85h85zM126 128v85h85v-85h-85zM41 43v85h85v-85h-85z"/>
            <glyph glyph-name="uni2198.ss02" horiz-adv-x="699"
                   d="M466 298v-85h85v255h85v-425h-425v85h255v85h-85v85h-85v85h-85v85h-85v85h-85v85h85v-85h85v-85h85v-85h85v-85h85z"/>
            <glyph glyph-name="uni2199.ss02" horiz-adv-x="699"
                   d="M658 638v-85h-85v85h85zM573 553v-85h-85v85h85zM488 43h-425v425h85v-255h85v-85h255v-85zM403 383v85h85v-85h-85zM318 298v85h85v-85h-85zM233 213v85h85v-85h-85z"/>
            <glyph glyph-name="plus.ss06"
                   d="M262 219h-217v72h217v219h76v-219h217v-72h-217v-219h-76v219z"/>
            <glyph glyph-name="equal.ss06"
                   d="M555 322h-510v72h510v-72zM555 116h-510v72h510v-72z"/>
            <glyph glyph-name="logicalnot.ss06"
                   d="M470 120v202h-436v72h510v-274h-74z"/>
            <glyph glyph-name="plusminus.ss06"
                   d="M262 279h-217v72h217v159h76v-159h217v-72h-217v-159h-76v159zM555 72v-72h-510v72h510z"/>
            <glyph glyph-name="multiply.ss06"
                   d="M354 255l201 -201l-55 -55l-201 201l-200 -201l-55 55l201 201l-201 200l55 55l201 -202l201 201l54 -54z"/>
            <glyph glyph-name="divide.ss06"
                   d="M351 510v-103h-102v103h102zM555 291v-72h-510v72h510zM351 103v-103h-102v103h102z"/>
            <glyph glyph-name="minus.ss06"
                   d="M555 291v-72h-510v72h510z"/>
            <glyph glyph-name="infinity.ss06" horiz-adv-x="734"
                   d="M367 208q-37 -45 -74.5 -70t-89.5 -25q-64 0 -104.5 42t-40.5 105t41.5 105t103.5 42q53 0 91 -27t73 -75q35 48 73 75t91 27q62 0 103.5 -42t41.5 -105t-40.5 -105t-104.5 -42q-52 0 -89.5 25t-74.5 70zM130 258q0 -35 20 -56t56 -21q34 0 58 18t57 59q-30 41 -55 60.5
t-58 19.5q-37 0 -57.5 -22t-20.5 -58zM604 258q0 36 -20.5 58t-57.5 22q-33 0 -58 -19.5t-55 -60.5q33 -41 57 -59t58 -18q36 0 56 21t20 56z"/>
            <glyph glyph-name="approxequal.ss06"
                   d="M480 404h75q0 -55 -37 -90t-95 -35q-33 0 -60.5 10t-83.5 39q-8 4 -23 12t-19.5 10.5t-14.5 7t-14.5 6t-11.5 3.5t-12.5 2.5t-12.5 0.5q-24 0 -38 -15.5t-14 -41.5h-75q0 55 37 90t95 35q33 0 60.5 -10t83.5 -39q8 -4 23 -12t19.5 -10.5t14.5 -7t14.5 -6t11.5 -3.5
t12.5 -2.5t12.5 -0.5q24 0 38 15.5t14 41.5zM480 198h75q0 -55 -37 -90t-95 -35q-33 0 -60.5 10t-83.5 39q-8 4 -23 12t-19.5 10.5t-14.5 7t-14.5 6t-11.5 3.5t-12.5 2.5t-12.5 0.5q-24 0 -38 -15.5t-14 -41.5h-75q0 55 37 90t95 35q33 0 60.5 -10t83.5 -39q8 -4 23 -12
t19.5 -10.5t14.5 -7t14.5 -6t11.5 -3.5t12.5 -2.5t12.5 -0.5q24 0 38 15.5t14 41.5z"/>
            <glyph glyph-name="notequal.ss06"
                   d="M260 116l-67 -116l-59 34l47 82h-136v72h177l77 134h-254v72h296l67 116l59 -34l-47 -82h135v-72h-177l-77 -134h254v-72h-295z"/>
            <glyph glyph-name="x.ss20" horiz-adv-x="629"
                   d="M369 340l201 -201l-55 -55l-201 201l-200 -201l-55 55l201 201l-201 200l55 55l201 -202l201 201l54 -54z"/>
            </font>
</defs>
</svg>
