<svg width="23" height="19" viewBox="0 0 23 19" fill="none" xmlns="http://www.w3.org/2000/svg">
    <path d="M22.207 8.29431L14.207 0.293407C14.0184 0.111249 13.7658 0.0104547 13.5036 0.0127331C13.2414 0.0150115 12.9906 0.12018 12.8052 0.305589C12.6198 0.490997 12.5146 0.741809 12.5123 1.00401C12.51 1.2662 12.6108 1.5188 12.793 1.70741L19.0851 8.00041H1.5C1.23478 8.00041 0.98043 8.10576 0.792893 8.2933C0.605357 8.48084 0.5 8.73519 0.5 9.00041C0.5 9.26562 0.605357 9.51998 0.792893 9.70751C0.98043 9.89505 1.23478 10.0004 1.5 10.0004H19.0868L12.793 16.2934C12.6975 16.3857 12.6213 16.496 12.5689 16.618C12.5165 16.74 12.4889 16.8712 12.4877 17.004C12.4866 17.1368 12.5119 17.2685 12.5622 17.3914C12.6125 17.5143 12.6867 17.6259 12.7806 17.7198C12.8745 17.8137 12.9861 17.8879 13.109 17.9382C13.2319 17.9885 13.3636 18.0138 13.4964 18.0127C13.6292 18.0115 13.7604 17.9839 13.8824 17.9315C14.0044 17.8791 14.1148 17.8029 14.207 17.7074L22.207 9.70841C22.3945 9.52088 22.4998 9.26655 22.4998 9.00136C22.4998 8.73617 22.3945 8.48184 22.207 8.29431Z"
          fill="#262626"/>
</svg>
